<svg xmlns="http://www.w3.org/2000/svg" xmlns:xlink="http://www.w3.org/1999/xlink" width="1920" height="1080" viewBox="0 0 1920 1080"><defs><clipPath id="b"><rect width="1920" height="1080"/></clipPath></defs><g id="a" clip-path="url(#b)"><g transform="translate(692 725)" opacity="0.2"><line x1="11" y2="11" transform="translate(9)" fill="none" stroke="#5d9ad8" stroke-linecap="round" stroke-linejoin="round" stroke-width="2"/><path d="M22,2,15,22l-4-9L2,9Z" transform="translate(-2 -2)" fill="none" stroke="#5d9ad8" stroke-linecap="round" stroke-linejoin="round" stroke-width="2"/></g><g transform="translate(1102 380)" opacity="0.2"><path d="M21,15a2,2,0,0,1-2,2H7L3,21V5A2,2,0,0,1,5,3H19a2,2,0,0,1,2,2Z" transform="translate(-3 -3)" fill="none" stroke="#001a34" stroke-linecap="round" stroke-linejoin="round" stroke-width="2"/></g><g transform="translate(1371 573)" opacity="0.2"><path d="M28,14.806a11.639,11.639,0,0,1-1.25,5.278,11.806,11.806,0,0,1-10.556,6.528,11.639,11.639,0,0,1-5.278-1.25L3,28l2.639-7.917a11.639,11.639,0,0,1-1.25-5.278A11.806,11.806,0,0,1,10.917,4.25,11.639,11.639,0,0,1,16.194,3h.694A11.778,11.778,0,0,1,28,14.111Z" transform="translate(-3 -3)" fill="none" stroke="#001a34" stroke-linecap="round" stroke-linejoin="round" stroke-width="2"/></g><g transform="translate(1174 879)" opacity="0.2"><path d="M18,8h1a4,4,0,0,1,0,8H18" transform="translate(-2 -1)" fill="none" stroke="#001a34" stroke-linecap="round" stroke-linejoin="round" stroke-width="2"/><path d="M2,8H18v9a4,4,0,0,1-4,4H6a4,4,0,0,1-4-4Z" transform="translate(-2 -1)" fill="none" stroke="#001a34" stroke-linecap="round" stroke-linejoin="round" stroke-width="2"/><line y2="3" transform="translate(4)" fill="none" stroke="#001a34" stroke-linecap="round" stroke-linejoin="round" stroke-width="2"/><line y2="3" transform="translate(8)" fill="none" stroke="#001a34" stroke-linecap="round" stroke-linejoin="round" stroke-width="2"/><line y2="3" transform="translate(12)" fill="none" stroke="#001a34" stroke-linecap="round" stroke-linejoin="round" stroke-width="2"/></g><g transform="translate(1598 264)" opacity="0.2"><line x1="11" y2="11" transform="translate(9)" fill="none" stroke="#001a34" stroke-linecap="round" stroke-linejoin="round" stroke-width="2"/><path d="M22,2,15,22l-4-9L2,9Z" transform="translate(-2 -2)" fill="none" stroke="#001a34" stroke-linecap="round" stroke-linejoin="round" stroke-width="2"/></g><g transform="translate(456 899)" opacity="0.2"><path d="M16,22l6-8L16,6" transform="translate(5 -6)" fill="none" stroke="#5d9ad8" stroke-linecap="round" stroke-linejoin="round" stroke-width="2"/><path d="M8,6,2,14l6,8" transform="translate(-2 -6)" fill="none" stroke="#5d9ad8" stroke-linecap="round" stroke-linejoin="round" stroke-width="2"/></g><g transform="translate(537 342)" opacity="0.2"><path d="M4.6,4H25.4A2.62,2.62,0,0,1,28,6.625v15.75A2.62,2.62,0,0,1,25.4,25H4.6A2.62,2.62,0,0,1,2,22.375V6.625A2.62,2.62,0,0,1,4.6,4Z" transform="translate(-2 -4)" fill="none" stroke="#5d9ad8" stroke-linecap="round" stroke-linejoin="round" stroke-width="2"/><path d="M28,6,15,13,2,6" transform="translate(-2 -4)" fill="none" stroke="#5d9ad8" stroke-linecap="round" stroke-linejoin="round" stroke-width="2"/></g><g transform="translate(249 130)" opacity="0.2"><line x1="11" y2="11" transform="translate(9)" fill="none" stroke="#5d9ad8" stroke-linecap="round" stroke-linejoin="round" stroke-width="2"/><path d="M22,2,15,22l-4-9L2,9Z" transform="translate(-2 -2)" fill="none" stroke="#5d9ad8" stroke-linecap="round" stroke-linejoin="round" stroke-width="2"/></g><g transform="translate(808 140)" opacity="0.2"><path d="M21,15a2,2,0,0,1-2,2H7L3,21V5A2,2,0,0,1,5,3H19a2,2,0,0,1,2,2Z" transform="translate(-3 -3)" fill="none" stroke="#5d9ad8" stroke-linecap="round" stroke-linejoin="round" stroke-width="2"/></g><g transform="translate(312 630)" opacity="0.2"><path d="M21,11.5a8.38,8.38,0,0,1-.9,3.8A8.5,8.5,0,0,1,12.5,20a8.38,8.38,0,0,1-3.8-.9L3,21l1.9-5.7A8.38,8.38,0,0,1,4,11.5,8.5,8.5,0,0,1,8.7,3.9,8.38,8.38,0,0,1,12.5,3H13a8.48,8.48,0,0,1,8,8Z" transform="translate(-3 -3)" fill="none" stroke="#5d9ad8" stroke-linecap="round" stroke-linejoin="round" stroke-width="2"/></g><g transform="translate(1537 894)" opacity="0.2"><path d="M4.6,4H25.4A2.62,2.62,0,0,1,28,6.625v15.75A2.62,2.62,0,0,1,25.4,25H4.6A2.62,2.62,0,0,1,2,22.375V6.625A2.62,2.62,0,0,1,4.6,4Z" transform="translate(-2 -4)" fill="none" stroke="#001a34" stroke-linecap="round" stroke-linejoin="round" stroke-width="2"/><path d="M28,6,15,13,2,6" transform="translate(-2 -4)" fill="none" stroke="#001a34" stroke-linecap="round" stroke-linejoin="round" stroke-width="2"/></g></g></svg>