<svg xmlns="http://www.w3.org/2000/svg" xmlns:xlink="http://www.w3.org/1999/xlink" width="1920" height="1080" viewBox="0 0 1920 1080"><defs><clipPath id="b"><rect width="1920" height="1080"/></clipPath></defs><g id="a" clip-path="url(#b)"><g transform="translate(845 741)" opacity="0.2"><path d="M16,18l6-6L16,6" transform="translate(-2 -6)" fill="none" stroke="#5d9ad8" stroke-linecap="round" stroke-linejoin="round" stroke-width="2"/><path d="M8,6,2,12l6,6" transform="translate(-2 -6)" fill="none" stroke="#5d9ad8" stroke-linecap="round" stroke-linejoin="round" stroke-width="2"/></g><g transform="translate(1360 979)" opacity="0.2"><path d="M16,18l6-6L16,6" transform="translate(-2 -6)" fill="none" stroke="#001a34" stroke-linecap="round" stroke-linejoin="round" stroke-width="2"/><path d="M8,6,2,12l6,6" transform="translate(-2 -6)" fill="none" stroke="#001a34" stroke-linecap="round" stroke-linejoin="round" stroke-width="2"/></g><g transform="translate(391 936)" opacity="0.2"><path d="M18,8h1a4,4,0,0,1,0,8H18" transform="translate(-2 -1)" fill="none" stroke="#5d9ad8" stroke-linecap="round" stroke-linejoin="round" stroke-width="2"/><path d="M2,8H18v9a4,4,0,0,1-4,4H6a4,4,0,0,1-4-4Z" transform="translate(-2 -1)" fill="none" stroke="#5d9ad8" stroke-linecap="round" stroke-linejoin="round" stroke-width="2"/><line y2="3" transform="translate(4)" fill="none" stroke="#5d9ad8" stroke-linecap="round" stroke-linejoin="round" stroke-width="2"/><line y2="3" transform="translate(8)" fill="none" stroke="#5d9ad8" stroke-linecap="round" stroke-linejoin="round" stroke-width="2"/><line y2="3" transform="translate(12)" fill="none" stroke="#5d9ad8" stroke-linecap="round" stroke-linejoin="round" stroke-width="2"/></g><g transform="translate(1290 204)" opacity="0.2"><path d="M18,8h1a4,4,0,0,1,0,8H18" transform="translate(-2 -1)" fill="none" stroke="#001a34" stroke-linecap="round" stroke-linejoin="round" stroke-width="2"/><path d="M2,8H18v9a4,4,0,0,1-4,4H6a4,4,0,0,1-4-4Z" transform="translate(-2 -1)" fill="none" stroke="#001a34" stroke-linecap="round" stroke-linejoin="round" stroke-width="2"/><line y2="3" transform="translate(4)" fill="none" stroke="#001a34" stroke-linecap="round" stroke-linejoin="round" stroke-width="2"/><line y2="3" transform="translate(8)" fill="none" stroke="#001a34" stroke-linecap="round" stroke-linejoin="round" stroke-width="2"/><line y2="3" transform="translate(12)" fill="none" stroke="#001a34" stroke-linecap="round" stroke-linejoin="round" stroke-width="2"/></g><g transform="translate(1592 539)" opacity="0.2"><path d="M3,18V12a9,9,0,1,1,18,0v6" transform="translate(-3 -3)" fill="none" stroke="#001a34" stroke-linecap="round" stroke-linejoin="round" stroke-width="2"/><path d="M21,19a2,2,0,0,1-2,2H18a2,2,0,0,1-2-2V16a2,2,0,0,1,2-2h3ZM3,19a2,2,0,0,0,2,2H6a2,2,0,0,0,2-2V16a2,2,0,0,0-2-2H3Z" transform="translate(-3 -3)" fill="none" stroke="#001a34" stroke-linecap="round" stroke-linejoin="round" stroke-width="2"/></g><g transform="translate(756.5 203.5)" opacity="0.2"><path d="M9,19c-5,1.5-5-2.5-7-3m14,6V18.13a3.37,3.37,0,0,0-.94-2.61c3.14-.35,6.44-1.54,6.44-7A5.439,5.439,0,0,0,20,4.771,5.07,5.07,0,0,0,19.91,1S18.73.65,16,2.48a13.38,13.38,0,0,0-7,0C6.27.65,5.09,1,5.09,1A5.07,5.07,0,0,0,5,4.77,5.44,5.44,0,0,0,3.5,8.55c0,5.42,3.3,6.61,6.44,7A3.37,3.37,0,0,0,9,18.13V22" transform="translate(-2 -0.973)" fill="none" stroke="#5d9ad8" stroke-linecap="round" stroke-linejoin="round" stroke-width="2"/></g></g></svg>