<svg id="figma" xmlns="http://www.w3.org/2000/svg" width="31.398" height="47.097" viewBox="0 0 31.398 47.097">
  <path id="Path_91" data-name="Path 91" d="M7.849,215.7a7.852,7.852,0,0,0,7.849-7.849V200H7.849a7.849,7.849,0,0,0,0,15.7Z" transform="translate(0 -168.602)" fill="#0acf83"/>
  <path id="Path_92" data-name="Path 92" d="M0,107.849A7.852,7.852,0,0,1,7.849,100H15.7v15.7H7.849A7.852,7.852,0,0,1,0,107.849Z" transform="translate(0 -84.301)" fill="#a259ff"/>
  <path id="Path_93" data-name="Path 93" d="M0,7.849A7.852,7.852,0,0,1,7.849,0H15.7V15.7H7.849A7.852,7.852,0,0,1,0,7.849Z" fill="#f24e1e"/>
  <path id="Path_94" data-name="Path 94" d="M100,0h7.849a7.849,7.849,0,0,1,0,15.7H100Z" transform="translate(-84.301)" fill="#ff7262"/>
  <path id="Path_95" data-name="Path 95" d="M115.7,107.849A7.849,7.849,0,1,1,107.849,100,7.852,7.852,0,0,1,115.7,107.849Z" transform="translate(-84.301 -84.301)" fill="#1abcfe"/>
</svg>
