<svg xmlns="http://www.w3.org/2000/svg" width="41.027" height="41.026" viewBox="0 0 41.027 41.026"><g transform="translate(0 0)"><g transform="translate(0 0)"><path d="M40.253-103.828,22.34-121.74a2.642,2.642,0,0,0-3.737,0l-3.719,3.72L19.6-113.3a3.137,3.137,0,0,1,3.228.752,3.139,3.139,0,0,1,.746,3.248l4.548,4.547a3.138,3.138,0,0,1,3.248.746,3.143,3.143,0,0,1,0,4.446,3.144,3.144,0,0,1-4.447,0,3.145,3.145,0,0,1-.684-3.419L22-107.223v11.161a3.166,3.166,0,0,1,.831.594,3.145,3.145,0,0,1,0,4.447,3.144,3.144,0,0,1-4.446,0,3.145,3.145,0,0,1,0-4.447,3.139,3.139,0,0,1,1.03-.686v-11.264a3.116,3.116,0,0,1-1.03-.686,3.143,3.143,0,0,1-.677-3.437l-4.651-4.652L.774-103.911a2.644,2.644,0,0,0,0,3.738L18.687-82.262a2.643,2.643,0,0,0,3.737,0l17.829-17.829a2.643,2.643,0,0,0,0-3.738" transform="translate(0 122.514)" fill="#001a34"/></g></g></svg>