<svg xmlns="http://www.w3.org/2000/svg" width="35.493" height="40.253" viewBox="0 0 35.493 40.253"><path d="M225.037,247.751l-3.23-36.229H257.3l-3.234,36.224-14.535,4.03Z" transform="translate(-221.807 -211.522)" fill="#001a34"/><path d="M441.807,282.457l11.745-3.256,2.763-30.954H441.807Z" transform="translate(-424.06 -245.284)" fill="#214467"/><path d="M314.825,312.323h-5.88l-.406-4.55h6.286V303.33H303.683l.107,1.192,1.092,12.245h9.943Zm0,11.54-.02.005-4.949-1.336-.316-3.544h-4.46l.623,6.977,9.1,2.527.02-.006Z" transform="translate(-297.078 -295.924)" fill="#3f6e9e"/><path d="M441.617,312.323v4.443h5.472l-.516,5.763-4.956,1.337v4.623l9.109-2.524.067-.751,1.044-11.7.108-1.193H441.617Zm0-8.993v4.443H452.35l.089-1,.2-2.253.106-1.192Z" transform="translate(-423.886 -295.924)" fill="#5d9ad8"/></svg>