<svg xmlns="http://www.w3.org/2000/svg" width="40.656" height="40.656" viewBox="0 0 40.656 40.656"><g transform="translate(0)"><path d="M0,0H40.656V40.656H0Z" transform="translate(0)" fill="#001a34"/><path d="M67.311,131.681l3.111-1.883c.6,1.064,1.146,1.965,2.456,1.965,1.255,0,2.047-.491,2.047-2.4v-12.99h3.821v13.044c0,3.957-2.32,5.758-5.7,5.758a5.93,5.93,0,0,1-5.731-3.493m13.51-.409,3.111-1.8a4.158,4.158,0,0,0,3.766,2.32c1.583,0,2.593-.792,2.593-1.883,0-1.31-1.037-1.774-2.784-2.538l-.955-.41c-2.757-1.173-4.585-2.647-4.585-5.758,0-2.866,2.183-5.049,5.595-5.049a5.643,5.643,0,0,1,5.431,3.057l-2.975,1.911a2.6,2.6,0,0,0-2.456-1.637,1.662,1.662,0,0,0-1.829,1.637c0,1.146.71,1.61,2.347,2.32l.955.409c3.248,1.392,5.076,2.811,5.076,6,0,3.439-2.7,5.322-6.331,5.322a7.339,7.339,0,0,1-6.959-3.9" transform="translate(-56.621 -97.707)" fill="#5d9ad8"/></g></svg>