<svg xmlns="http://www.w3.org/2000/svg" width="53.485" height="47.697" viewBox="0 0 53.485 47.697"><g transform="translate(0.3 0.3)"><path d="M228.585,101.554c0-3.5-4.387-6.824-11.114-8.882,1.552-6.856.862-12.31-2.177-14.057a4.726,4.726,0,0,0-2.415-.6v2.4a2.5,2.5,0,0,1,1.229.28c1.466.841,2.1,4.042,1.606,8.16-.119,1.013-.313,2.08-.55,3.169a52.241,52.241,0,0,0-6.845-1.175,52.587,52.587,0,0,0-4.484-5.39c3.514-3.266,6.813-5.056,9.055-5.056V78c-2.964,0-6.845,2.113-10.769,5.778-3.924-3.644-7.8-5.735-10.769-5.735v2.4c2.231,0,5.541,1.779,9.055,5.023a50.92,50.92,0,0,0-4.452,5.379,50.337,50.337,0,0,0-6.856,1.186c-.248-1.078-.431-2.124-.561-3.126-.507-4.118.119-7.319,1.574-8.171a2.4,2.4,0,0,1,1.24-.28v-2.4a4.807,4.807,0,0,0-2.436.6c-3.029,1.746-3.708,7.19-2.145,14.024-6.705,2.07-11.071,5.379-11.071,8.872s4.387,6.824,11.114,8.883c-1.552,6.856-.862,12.31,2.177,14.057a4.739,4.739,0,0,0,2.425.6c2.964,0,6.845-2.113,10.769-5.778,3.924,3.644,7.8,5.735,10.769,5.735a4.807,4.807,0,0,0,2.436-.6c3.029-1.746,3.708-7.19,2.145-14.024,6.683-2.059,11.049-5.379,11.049-8.872Zm-14.035-7.19c-.4,1.391-.895,2.824-1.455,4.258-.442-.862-.906-1.725-1.412-2.587s-1.024-1.7-1.552-2.522C211.661,93.738,213.138,94.019,214.55,94.364Zm-4.937,11.48c-.841,1.455-1.7,2.835-2.6,4.118-1.606.14-3.234.216-4.872.216s-3.255-.075-4.851-.2q-1.342-1.924-2.609-4.1-1.229-2.118-2.242-4.29c.668-1.444,1.423-2.889,2.231-4.3.841-1.455,1.7-2.835,2.6-4.118,1.606-.14,3.234-.216,4.872-.216s3.255.075,4.851.2q1.342,1.924,2.609,4.1,1.229,2.118,2.242,4.29c-.679,1.444-1.423,2.889-2.231,4.3Zm3.482-1.4c.582,1.444,1.078,2.889,1.488,4.29-1.412.345-2.9.636-4.441.862.528-.83,1.056-1.682,1.552-2.555S212.653,105.305,213.095,104.443Zm-10.931,11.5a44.443,44.443,0,0,1-3-3.45c.97.043,1.962.075,2.964.075s2.016-.022,3-.075A42.071,42.071,0,0,1,202.164,115.945Zm-8.02-6.349c-1.531-.226-3.008-.507-4.42-.852.4-1.391.895-2.824,1.455-4.258.442.862.906,1.725,1.412,2.587S193.616,108.776,194.144,109.6Zm7.966-22.433a44.441,44.441,0,0,1,3,3.45c-.97-.043-1.962-.075-2.964-.075s-2.016.022-3,.075A42.078,42.078,0,0,1,202.11,87.163Zm-7.977,6.349c-.528.83-1.056,1.682-1.552,2.555s-.959,1.725-1.4,2.587c-.582-1.444-1.078-2.889-1.488-4.29,1.412-.334,2.9-.625,4.441-.852Zm-9.756,13.5c-3.816-1.628-6.285-3.762-6.285-5.455s2.469-3.838,6.285-5.455c.927-.4,1.94-.755,2.986-1.089a51.773,51.773,0,0,0,2.425,6.565,51.038,51.038,0,0,0-2.393,6.533C186.329,107.774,185.316,107.407,184.378,107.008Zm5.8,15.4c-1.466-.841-2.1-4.042-1.606-8.16.119-1.013.313-2.08.55-3.169a52.242,52.242,0,0,0,6.845,1.175,52.59,52.59,0,0,0,4.484,5.39c-3.514,3.266-6.813,5.056-9.055,5.056A2.573,2.573,0,0,1,190.177,122.412Zm25.57-8.214c.507,4.118-.119,7.319-1.574,8.171a2.4,2.4,0,0,1-1.24.28c-2.231,0-5.541-1.779-9.055-5.023a50.913,50.913,0,0,0,4.452-5.379,50.34,50.34,0,0,0,6.856-1.186A30.174,30.174,0,0,1,215.747,114.2Zm4.15-7.19c-.927.4-1.94.755-2.986,1.089a51.77,51.77,0,0,0-2.425-6.565A51.046,51.046,0,0,0,216.879,95c1.067.334,2.08.7,3.029,1.1,3.816,1.628,6.285,3.762,6.285,5.455s-2.479,3.838-6.3,5.455ZM191.341,78.043Z" transform="translate(-175.7 -78)" fill="#cde4fb" stroke="#001a34" stroke-width="0.6"/><circle cx="4.926" cy="4.926" r="4.926" transform="translate(21.506 18.627)" fill="#cde4fb" stroke="#001a34" stroke-width="0.6"/><path d="M520.5,78.1Z" transform="translate(-483.331 -78.089)" fill="#5d9ad8" stroke="#001a34" stroke-width="0.6"/></g></svg>