<svg xmlns="http://www.w3.org/2000/svg" width="62.831" height="47.096" viewBox="0 0 62.831 47.096">
  <path id="sass" d="M53.972,27.285a12.944,12.944,0,0,0-5.695,1.326A11.713,11.713,0,0,1,47,25.665a8.147,8.147,0,0,1-.11-2.479,19.865,19.865,0,0,1,.749-2.676c-.012-.11-.135-.65-1.4-.663s-2.356.245-2.479.577a14.094,14.094,0,0,0-.528,1.878c-.221,1.154-2.528,5.24-3.841,7.388a7.537,7.537,0,0,1-.871-2.16,8.146,8.146,0,0,1-.11-2.479,19.876,19.876,0,0,1,.749-2.675c-.012-.11-.135-.65-1.4-.663s-2.356.245-2.479.577-.258,1.117-.528,1.878-3.326,7.585-4.124,9.364c-.405.908-.761,1.632-1.019,2.123s-.012.037-.037.086l-.344.65V36.4c-.172.307-.356.6-.442.6a4.093,4.093,0,0,1,.025-1.951c.454-2.369,1.559-6.063,1.546-6.2,0-.061.209-.712-.712-1.043a1.118,1.118,0,0,0-1.289.221c-.074,0-.135.2-.135.2s.994-4.16-1.9-4.16c-1.816,0-4.32,1.976-5.56,3.78-.785.43-2.455,1.338-4.222,2.307-.675.368-1.375.761-2.037,1.117l-.135-.148c-3.51-3.743-10-6.394-9.732-11.426.1-1.829.736-6.652,12.469-12.494,9.61-4.786,17.3-3.473,18.642-.552,1.9,4.173-4.111,11.929-14.1,13.046-3.8.43-5.805-1.043-6.308-1.6-.528-.577-.6-.6-.8-.491-.319.172-.123.687,0,.994a5.924,5.924,0,0,0,3.608,2.835c1.829.6,6.3.933,11.7-1.154C35.895,17.945,40.62,11.441,39.233,6,37.821.469,28.641-1.348,19.965,1.733,14.8,3.574,9.2,6.446,5.176,10.213.389,14.681-.371,18.583-.052,20.2c1.117,5.78,9.082,9.548,12.273,12.334-.16.086-.307.172-.442.245-1.6.785-7.67,3.964-9.192,7.327-1.718,3.8.27,6.542,1.6,6.91a9.807,9.807,0,0,0,10.567-4.283,10.6,10.6,0,0,0,.945-9.757l-.037-.074,1.252-.736c.81-.479,1.608-.92,2.307-1.3a15.281,15.281,0,0,0-.822,4.173c-.172,2.16.712,4.958,1.878,6.063a2.078,2.078,0,0,0,1.51.491c1.35,0,1.964-1.117,2.639-2.455.835-1.632,1.571-3.522,1.571-3.522s-.92,5.118,1.6,5.118c.92,0,1.841-1.19,2.258-1.8v.012s.025-.037.074-.123.1-.154.147-.233v-.025c.368-.638,1.19-2.1,2.418-4.516,1.583-3.117,3.105-7.02,3.105-7.02a22.4,22.4,0,0,0,.6,2.528A24.192,24.192,0,0,0,37.5,32.5c-.368.515-.589.81-.589.81l.012.012c-.294.393-.626.81-.969,1.227a35.668,35.668,0,0,0-2.945,3.694,1.011,1.011,0,0,0,.27,1.35,2.457,2.457,0,0,0,1.546.245,6.889,6.889,0,0,0,2.307-.528,7.991,7.991,0,0,0,1.988-1.043,4.426,4.426,0,0,0,1.9-3.915,7.872,7.872,0,0,0-.724-2.761c.11-.16.221-.319.331-.491a51.807,51.807,0,0,0,3.436-5.952,22.4,22.4,0,0,0,.6,2.528,17.725,17.725,0,0,0,1.117,2.528,10.911,10.911,0,0,0-3.35,4.332c-.724,2.086-.16,3.031.908,3.252a3.267,3.267,0,0,0,1.681-.344,7.619,7.619,0,0,0,2.123-1.092,4.8,4.8,0,0,0,2.344-3.878,7.435,7.435,0,0,0-.528-2.3,11.956,11.956,0,0,1,6.087-.7c5.461.638,6.541,4.05,6.333,5.474a3.666,3.666,0,0,1-1.731,2.455c-.38.233-.5.319-.466.491.049.258.221.245.552.2a4.248,4.248,0,0,0,2.97-3.792c.147-3.376-3.056-7.057-8.738-7.021Zm-42.12,14.2c-1.8,1.976-4.345,2.725-5.425,2.086-1.166-.675-.712-3.584,1.51-5.682A28.876,28.876,0,0,1,12.2,34.71c.258-.16.65-.393,1.117-.675a1.308,1.308,0,0,1,.123-.074c.086-.049.184-.11.282-.172A7.828,7.828,0,0,1,11.852,41.484Zm13.193-8.971c-.626,1.534-1.951,5.474-2.749,5.253-.687-.184-1.1-3.166-.135-6.112a13.644,13.644,0,0,1,2.148-3.94c.994-1.1,2.074-1.473,2.344-1.019C26.972,27.285,25.438,31.556,25.045,32.513Zm10.886,5.2c-.27.135-.515.233-.626.16-.086-.049.11-.233.11-.233s1.362-1.46,1.9-2.135c.307-.393.675-.847,1.068-1.362v.147c0,1.767-1.694,2.945-2.454,3.424ZM44.326,35.8c-.2-.147-.172-.6.491-2.025a7.588,7.588,0,0,1,1.865-2.405,3.036,3.036,0,0,1,.184,1.055A3.453,3.453,0,0,1,44.326,35.8Z" transform="translate(0.116 -0.241)" fill="#cf649a"/>
</svg>
