<svg xmlns="http://www.w3.org/2000/svg" width="41.901" height="40.853" viewBox="0 0 41.901 40.853"><path d="M34.481,40.853H7.42A7.413,7.413,0,0,1,0,33.433V7.42A7.413,7.413,0,0,1,7.42,0H34.481A7.413,7.413,0,0,1,41.9,7.42V33.433A7.413,7.413,0,0,1,34.481,40.853Z" fill="#5d9ad8"/><path d="M136.271,141.56H110.537a6.348,6.348,0,0,1-6.337-6.337V110.537a6.348,6.348,0,0,1,6.337-6.337h25.717a6.336,6.336,0,0,1,6.337,6.337v24.669a6.327,6.327,0,0,1-6.32,6.354Z" transform="translate(-102.454 -102.454)" fill="#001a34"/><path d="M475.435,601.981l4.889,9.393c.087.139.035.28-.106.28H477.18a.342.342,0,0,1-.367-.226c-1.118-2.3-2.253-4.609-3.422-7.088h-.035c-1.047,2.34-2.2,4.8-3.317,7.106a.337.337,0,0,1-.315.193h-2.878c-.174,0-.193-.139-.1-.245l4.783-9.114-4.626-9.218a.141.141,0,0,1,.1-.245h3a.274.274,0,0,1,.313.193c1.1,2.3,2.217,4.679,3.265,7h.035c1.012-2.3,2.13-4.7,3.213-6.984.087-.139.139-.226.315-.226h2.811c.139,0,.193.106.106.245Zm5.745,2.846c0-4.068,2.707-7.245,7-7.245a7.693,7.693,0,0,1,.908.035v-4.626a.174.174,0,0,1,.174-.174h2.759c.139,0,.174.052.174.139v16.028a12.469,12.469,0,0,0,.087,1.711c0,.106-.035.139-.139.193a10.393,10.393,0,0,1-4.47,1.012c-3.789.015-6.5-2.323-6.495-7.073Zm7.907-4.468a2.626,2.626,0,0,0-1.012-.174c-2.2,0-3.736,1.693-3.736,4.505,0,3.213,1.572,4.505,3.545,4.505A3.274,3.274,0,0,0,489.09,609v-8.643Z" transform="translate(-458.868 -582.865)" fill="#5d9ad8"/></svg>