<svg xmlns="http://www.w3.org/2000/svg" width="35.478" height="40.234" viewBox="0 0 35.478 40.234"><g transform="translate(0)"><path d="M3.229,527.613,0,491.4H35.478l-3.233,36.207-14.528,4.027Z" transform="translate(0 -491.4)" fill="#001a34"/><path d="M885.5,673.4l11.739-3.255L900,639.2H885.5Z" transform="translate(-867.761 -636.239)" fill="#214467"/><path d="M885.5,854.487h5.878l.4-4.547H885.5V845.5h11.138l-.106,1.192-1.092,12.24H885.5Z" transform="translate(-867.76 -838.406)" fill="#5d9ad8"/><path d="M410.338,1631.278h-.02l-4.946-1.336-.317-3.542H400.6l.623,6.973,9.1,2.532h.026v-4.627Z" transform="translate(-392.575 -1603.663)" fill="#3f6e9e"/><path d="M891.589,1506.2l-.535,5.944-4.954,1.336v4.628l9.1-2.524.066-.751.773-8.634h-4.455Z" transform="translate(-868.349 -1485.871)" fill="#5d9ad8"/><path d="M342.026,845.5v4.441H331.3l-.092-1-.2-2.252L330.9,845.5Zm-.016,8.987v4.441h-4.89l-.086-1-.2-2.252-.106-1.192h5.283Z" transform="translate(-324.271 -838.406)" fill="#3f6e9e"/></g></svg>