<svg xmlns="http://www.w3.org/2000/svg" width="24.535" height="26.195" viewBox="0 0 24.535 26.195"><g transform="translate(0.91 0.779)"><path d="M10.212,22.12C4.346,23.88,4.346,19.188,2,18.6M18.423,25.64V21.1a3.953,3.953,0,0,0-1.1-3.062c3.684-.411,7.555-1.807,7.555-8.212a6.381,6.381,0,0,0-1.759-4.4A5.948,5.948,0,0,0,23.01,1S21.626.594,18.423,2.741a15.7,15.7,0,0,0-8.212,0C7.009.594,5.625,1,5.625,1a5.948,5.948,0,0,0-.106,4.423A6.382,6.382,0,0,0,3.76,9.861c0,6.358,3.871,7.754,7.555,8.212a3.953,3.953,0,0,0-1.1,3.027v4.54" transform="translate(-2 -0.973)" fill="none" stroke="#001a34" stroke-linecap="round" stroke-linejoin="round" stroke-width="1.5"/></g></svg>