<svg xmlns="http://www.w3.org/2000/svg" width="222.809" height="311.527" viewBox="0 0 222.809 311.527"><g transform="translate(885.689 -1620.911)"><g transform="translate(-885.689 1728.646)"><rect width="65.095" height="80.161" transform="translate(124.222 83.857)" fill="#9b9b9b"/><path d="M39.272,203.793h0a2.153,2.153,0,0,1-1.688-.74,2.8,2.8,0,0,1-.568-2.228c.289-1.912.568-3.856.839-5.736v-.01c.149-1.037.3-2.109.458-3.164a70.858,70.858,0,0,1-18.02,2.477,55.8,55.8,0,0,1-7.681-.521,49.733,49.733,0,0,1-7.557-1.654c-.118-.12-.162-.219-.131-.293.054-.129.326-.189.856-.189.2,0,.4.008.617.017l.049,0c.182.007.354.015.494.015a1.148,1.148,0,0,0,.282-.022,14.844,14.844,0,0,1-4.858-5.463,18.109,18.109,0,0,1-1.321-3.321A24.442,24.442,0,0,1,.3,179.371a42.437,42.437,0,0,1-.227-7.626c.124-2.579.392-5.133.652-7.6v0c.143-1.365.279-2.655.385-3.9.909-5.866,1.738-11.958,2.54-17.85v0c2.047-15.047,4.163-30.605,7.963-45.417.982-3.826,2.056-7.519,3.194-10.975,1.22-3.7,2.561-7.288,3.986-10.65,1.51-3.562,3.17-7.006,4.934-10.238a102.424,102.424,0,0,1,6.038-9.739,70.218,70.218,0,0,1,7.654-8.694A64.17,64.17,0,0,1,46.462,39.4a56.044,56.044,0,0,1,10.224-5.36,49.3,49.3,0,0,1,11.19-2.99l.429-.059c.741-.1,1.513-.189,2.259-.275,3.91-.455,7.953-.925,11.26-2.983a24.966,24.966,0,0,0,4.323-4.919,24.592,24.592,0,0,1,3.026-3.638,6.765,6.765,0,0,1,1.7-1.164,4.754,4.754,0,0,1,1.975-.452h.024a3.774,3.774,0,0,1,1.753.575c.638.349,1.32.82,2.042,1.318.675.466,1.373.948,2.09,1.368a15.991,15.991,0,0,1,1.19-4.648,16.075,16.075,0,0,0,.9-3l.028-.194c.069-.5.107-1,.144-1.484.158-2.063.308-4.01,2.8-6.05a19.506,19.506,0,0,1,3.9-2.235,34.119,34.119,0,0,1,4.95-1.72A44.109,44.109,0,0,1,118.215.391a43.039,43.039,0,0,1,5.7-.391,30.6,30.6,0,0,1,6.7.679,15.364,15.364,0,0,1,5.325,2.17,18.121,18.121,0,0,1,3.44,3.115,20.993,20.993,0,0,1,2.464,3.61,52.563,52.563,0,0,1,3.335,8.144c.725,2.089,1.474,4.249,2.411,6.338a5.7,5.7,0,0,1,2.447-.5,9.157,9.157,0,0,1,4.411,1.214,7.257,7.257,0,0,1,1.709,1.328,4.324,4.324,0,0,1,1,1.64c.683.83.985,2.541,1.278,4.2v0a16.139,16.139,0,0,0,.75,3.138c2.163.344,4.262.781,6.238,1.3A53.828,53.828,0,0,1,171,38.152a46.073,46.073,0,0,1,4.968,2.239,41.407,41.407,0,0,1,4.4,2.67,39.429,39.429,0,0,1,3.867,3.074,39.9,39.9,0,0,1,3.379,3.452,42.771,42.771,0,0,1,2.934,3.8,48.212,48.212,0,0,1,2.53,4.129,61.4,61.4,0,0,1,4.017,9.126A95.7,95.7,0,0,1,200,76.755c1.562,6.678,2.657,13.751,3.822,22.317,1.556,8.777,3.7,17.7,5.773,26.338h0c1.345,5.6,2.736,11.392,3.958,17.1,1.371,6.409,2.378,12.03,3.078,17.186a135.015,135.015,0,0,1,1.308,17.3c.021,2.957-.076,5.886-.288,8.708-.223,2.961-.581,5.9-1.065,8.751a18.511,18.511,0,0,1,1.806,3.246,3.2,3.2,0,0,1,.432,1.721,3.6,3.6,0,0,1-.476,1.671,3.124,3.124,0,0,1-2.7,1.646h0c-.046,0-.093,0-.14,0-.924-.081-1.859-.172-2.763-.26h0c-2.3-.223-4.673-.454-7.032-.542-4.786-.166-9.94-.247-15.756-.247-3.391,0-7.076.027-11.6.084l-1.243.016c-18.445.23-37.192.554-55.322.867C94.743,203.13,66.778,203.614,39.272,203.793ZM139.95,100.816h0c-.63,2.717.386,4.928,1.462,7.268a25.038,25.038,0,0,1,1.51,3.84,12.683,12.683,0,0,1,.072,3.641c-.035.518-.068,1.007-.072,1.4a7.086,7.086,0,0,0,.85,2.413,5.408,5.408,0,0,1,.844,3.066,27.4,27.4,0,0,1-2.593,6.728,31.767,31.767,0,0,0-2.344,5.7,10.045,10.045,0,0,0-.352,2.83,7.522,7.522,0,0,0,.625,2.822c1.706,3.356,6.845,5.075,10.246,6.212l.017.006a15,15,0,0,0,2.984.782,21.11,21.11,0,0,0,3.337.254,27.21,27.21,0,0,0,9.93-1.927,20.084,20.084,0,0,0,4.225-2.281,12.229,12.229,0,0,0,3.047-3.045c1.373-2.042,2.908-6.1,4.141-9.355.758-2,1.413-3.734,1.9-4.688l.29-4.049c.338-4.754.7-10.18.669-14.415-.029-4.7-.524-7.323-1.513-8.01a23.765,23.765,0,0,0-9.372-3.362,67.115,67.115,0,0,0-11.416-.865c-4.28,0-8.037.287-10.435.527a31.648,31.648,0,0,0-4.695.675c-.342.225-.631.395-.886.544A3.918,3.918,0,0,0,140.775,99c-.678.09-1.37.185-2.055.282-.456.149-.694.457-.635.824a.934.934,0,0,0,.377.58,1.354,1.354,0,0,0,.825.26,1.867,1.867,0,0,0,.663-.128Z" transform="translate(1.422)" fill="#d08b5b"/><path d="M39.267,186.211a2.153,2.153,0,0,1-1.688-.74,2.8,2.8,0,0,1-.568-2.228c.289-1.916.569-3.86.839-5.739l.007-.046c.147-1.024.3-2.084.452-3.125a70.855,70.855,0,0,1-18.02,2.477,55.8,55.8,0,0,1-7.681-.521,49.73,49.73,0,0,1-7.557-1.654c-.118-.12-.162-.219-.131-.293.054-.129.326-.189.856-.189.2,0,.4.008.617.016l.049,0c.182.007.355.015.494.015a1.146,1.146,0,0,0,.282-.022A14.845,14.845,0,0,1,2.36,168.7a18.11,18.11,0,0,1-1.321-3.321A24.439,24.439,0,0,1,.3,161.789a42.436,42.436,0,0,1-.227-7.626c.124-2.579.392-5.133.652-7.6.143-1.366.279-2.656.386-3.908.909-5.866,1.738-11.958,2.54-17.85v0C5.694,109.75,7.81,94.191,11.609,79.38a151.107,151.107,0,0,1,7.18-21.625c1.51-3.562,3.17-7.006,4.934-10.238a102.422,102.422,0,0,1,6.038-9.739,70.217,70.217,0,0,1,7.654-8.694,64.171,64.171,0,0,1,9.046-7.262,56.044,56.044,0,0,1,10.224-5.36,49.3,49.3,0,0,1,11.19-2.99l.429-.059.432-.056c.6-.077,1.226-.149,1.828-.219,3.91-.455,7.953-.925,11.259-2.982a24.967,24.967,0,0,0,4.323-4.919,25.983,25.983,0,0,1,2.889-3.512,7.235,7.235,0,0,1,1.6-1.176A4.818,4.818,0,0,1,92.482,0L95.3,1.732l16.39,8.1a12.884,12.884,0,0,1,3.575,1.467,2.2,2.2,0,0,1,1.192,1.732V25.687c0,.843.752,2.239,2.236,4.149a85.925,85.925,0,0,0,6.709,7.366l5.509-5.492-.123-.719A47.02,47.02,0,0,1,130,24.772c0-.28.34-.763,1.011-1.435a37.046,37.046,0,0,1,3.032-2.615c2.683-2.127,6.763-5.078,12.128-8.772l4.716-4.44-.5-1.529a8.777,8.777,0,0,1,2.185.394,9.259,9.259,0,0,1,2.024.9,5.518,5.518,0,0,1,2.554,2.877c.682.83.985,2.541,1.278,4.2a16.149,16.149,0,0,0,.751,3.14c2.163.344,4.262.781,6.238,1.3A53.834,53.834,0,0,1,171,20.57a46.067,46.067,0,0,1,4.968,2.239,41.408,41.408,0,0,1,4.4,2.67,39.425,39.425,0,0,1,3.867,3.074,39.889,39.889,0,0,1,3.379,3.452,42.77,42.77,0,0,1,2.934,3.8,48.21,48.21,0,0,1,2.53,4.129,61.387,61.387,0,0,1,4.017,9.126A95.7,95.7,0,0,1,200,59.173c1.562,6.678,2.657,13.751,3.822,22.317,1.556,8.777,3.7,17.7,5.773,26.337v0c1.345,5.6,2.736,11.392,3.958,17.105,1.371,6.409,2.378,12.031,3.078,17.186a135.006,135.006,0,0,1,1.308,17.3c.021,2.956-.075,5.886-.288,8.708-.223,2.961-.581,5.9-1.065,8.751a18.509,18.509,0,0,1,1.806,3.246,3.391,3.391,0,0,1-.044,3.391,3.124,3.124,0,0,1-2.7,1.646h0c-.046,0-.093,0-.14,0-.921-.081-1.854-.172-2.757-.259h-.007c-2.3-.223-4.676-.454-7.036-.542-4.788-.166-9.942-.247-15.757-.247-3.39,0-7.075.027-11.6.084l-1.243.016c-18.439.229-37.186.554-55.315.867h-.006c-27.044.468-55.008.952-82.515,1.13Zm46.741-74.985-2.281,16.545,5.485,11.814,12.423-4.185,20.242-5.335,11.615-11.784,6.552-2.2a12.055,12.055,0,0,0-.716,3.437,7.623,7.623,0,0,0,.621,3.425c1.706,3.356,6.845,5.075,10.246,6.212l.017.006a15.009,15.009,0,0,0,2.984.782,21.111,21.111,0,0,0,3.337.254,27.212,27.212,0,0,0,9.93-1.927,20.084,20.084,0,0,0,4.225-2.281,12.228,12.228,0,0,0,3.046-3.045c1.373-2.042,2.907-6.1,4.14-9.355h0c.758-2,1.413-3.733,1.9-4.687l.375-5.26c.333-4.777.633-9.743.579-13.7-.06-4.394-.554-6.853-1.508-7.516-5.03-3.494-14.081-4.228-20.788-4.228-4.28,0-8.037.287-10.435.527a31.648,31.648,0,0,0-4.695.675c-.342.225-.631.395-.886.544a3.918,3.918,0,0,0-1.645,1.472l-.359.048,2.021-2.742-.716-.382c-2.542-1.348-4.669-2.373-6.322-3.047a11.21,11.21,0,0,0-3.644-1.016c-.8,0-2.036.63-3.675,1.872a64.134,64.134,0,0,0-6.2,5.617l-.438.2a77.972,77.972,0,0,0-7.5,3.914,22.252,22.252,0,0,0-4.456,3.358l-.07.074c-1.966,2.11-5.914,7.8-11.733,16.9l-8.467,5.007Zm56.759-17.4-3.061-5.86V83.311a2.077,2.077,0,0,0,.243-.076c-.63,2.717.386,4.928,1.462,7.268a28.329,28.329,0,0,1,1.357,3.323Z" transform="translate(1.422 17.582)" fill="#3f6e9e"/><path d="M41.241,195.425a2.067,2.067,0,0,1-.956-.234l-.069-.038-.116-.066A2.316,2.316,0,0,1,39.169,194a1.919,1.919,0,0,1-.085-1.416A31.839,31.839,0,0,0,40.1,188.96c.25-1.057.509-2.15.86-3.195l-.6.266-.785.342a77.65,77.65,0,0,1-9.863,3.614,37.909,37.909,0,0,1-10.3,1.554,26.878,26.878,0,0,1-7.018-.907,18.408,18.408,0,0,1-5.744-2.615,13.364,13.364,0,0,1-4.212-4.647A18.844,18.844,0,0,1,.52,177.388a47.359,47.359,0,0,1-.487-6.3,98.705,98.705,0,0,1,.824-15.5A94.109,94.109,0,0,1,2.715,145.27a2.55,2.55,0,0,1-.845-1.626,30.1,30.1,0,0,1,.47-8.009v-.007c.089-.6.18-1.219.261-1.822.447-3.347.908-6.43,1.41-9.425,1.093-6.52,2.347-12.877,3.727-18.894C9,100.009,10.486,94.445,12.167,88.949c1.643-5.373,3.513-10.821,5.557-16.193l.356-.929c2.114-5.5,4.145-10.2,6.21-14.377a99.84,99.84,0,0,1,7.932-13.488,60.864,60.864,0,0,1,4.571-5.814,34.854,34.854,0,0,1,5.467-4.955A47.338,47.338,0,0,1,54.867,26.91a68.46,68.46,0,0,1,6.782-1.924c2.223-.51,4.556-.933,6.935-1.257.706-.1,1.429-.188,2.128-.277,4.068-.518,8.274-1.053,12.039-2.708a2.067,2.067,0,0,1-.132-1.632,2.528,2.528,0,0,1,.994-1.347,70.761,70.761,0,0,0,7.823-6.341c.365-.325.742-.661,1.115-.992a.822.822,0,0,1,.549-.218.836.836,0,0,1,.7.4.774.774,0,0,1,0,.787,32.1,32.1,0,0,1-3.274,5.183c-.813,1.007-1.681,1.954-2.5,2.826a48.069,48.069,0,0,1,5.77,6.357l.109.135c.553.687,1.1,1.389,1.638,2.069a73.983,73.983,0,0,0,5.364,6.322,22.993,22.993,0,0,0,4.03,3.284,22.49,22.49,0,0,0,4.669,2.259l.682.237a27.066,27.066,0,0,1,5.022,2.249,11.038,11.038,0,0,1,3.911,3.765.7.7,0,0,1,0,.724.78.78,0,0,1-.658.4.683.683,0,0,1-.364-.107,25.447,25.447,0,0,0-6.842-2.6c-1.325-.362-2.694-.736-4.005-1.229a25.8,25.8,0,0,1-4.918-2.483,29.093,29.093,0,0,1-4.316-3.433,74.134,74.134,0,0,1-6.1-6.905l-.01-.012c-.388-.479-.79-.974-1.188-1.459a62.987,62.987,0,0,0-7.586-7.659A29.057,29.057,0,0,1,76.486,24.6c-2.28.793-4.642,1.4-7.27,2.048l-.538.133c-2.879.713-5.215,1.363-7.354,2.045A62.323,62.323,0,0,0,54.2,31.552a57.987,57.987,0,0,0-6,3.144,34.382,34.382,0,0,0-5.429,4.027c-3.637,3.337-6.447,7.648-8.795,11.427A110.116,110.116,0,0,0,26.64,64.289c-1.877,4.294-3.7,9.021-5.728,14.878-1.8,5.177-3.474,10.5-4.99,15.813-1.5,5.272-2.885,10.677-4.108,16.065-1.2,5.3-2.212,10.721-3.084,16.567-.4,2.646-.754,5.355-1.067,8.052-.081.7-.147,1.409-.212,2.1v.006a30.726,30.726,0,0,1-1.078,6.485,2.4,2.4,0,0,1-.844,1.244,2.03,2.03,0,0,1-1.214.391l-.1,0-.181,2.268c-.231,2.908-.464,6.006-.54,9.092-.137,5.533-.041,10.489.3,15.152l.051.688a27.826,27.826,0,0,0,.916,5.631,10.932,10.932,0,0,0,2.78,4.891,12.353,12.353,0,0,0,5.2,2.891,22.06,22.06,0,0,0,5.949.833l.365,0a32.381,32.381,0,0,0,6.318-.657,46.768,46.768,0,0,0,6.175-1.713,122.383,122.383,0,0,0,11.8-5.042l.985-.462c4.033-1.889,8.121-3.934,12.149-6.077,3.923-2.087,7.906-4.33,11.837-6.665s7.886-4.788,11.771-7.3c1.886-1.22,3.792-2.483,5.665-3.754.374-.254.747-.52,1.107-.777h0c.671-.479,1.364-.974,2.076-1.395a1.756,1.756,0,0,1-.532-.914,1.38,1.38,0,0,1,.206-1.053,10.767,10.767,0,0,1-2.034-2.412,15.171,15.171,0,0,1-1.407-2.93,21.2,21.2,0,0,1-1.187-6.255,51.9,51.9,0,0,1,.558-8.223l0-.014c.052-.431.106-.876.158-1.313.193-1.645.431-3.27.659-4.78.04-.264.075-.526.111-.8.05-.379.1-.771.167-1.158-4.219,2.318-8.585,4.557-12.976,6.653-4.332,2.068-8.817,4.06-13.329,5.919-4.465,1.84-9.053,3.533-14.027,5.178l-.96.316c-2.718.89-4.818,1.533-6.807,2.085-2.51.7-4.774,1.224-6.921,1.613a.237.237,0,0,1-.042,0,.282.282,0,0,1-.263-.221.187.187,0,0,1,.12-.221c3-1.325,6.123-2.531,9.14-3.7,1.528-.591,3.109-1.2,4.654-1.82l.754-.307a1.513,1.513,0,0,1-.27-.039c-1.906-.46-3.825-1.1-5.681-1.727l0,0c-.761-.256-1.549-.52-2.319-.766s-1.586-.467-2.375-.681a26.184,26.184,0,0,1-5.121-1.774.16.16,0,0,1-.089-.182.208.208,0,0,1,.183-.165c.258-.018.528-.027.8-.027a28.28,28.28,0,0,1,5.358.711c.6.119,1.166.23,1.733.33l.948.166c1.454.256,3.142.564,4.794.974a2.026,2.026,0,0,1,.774-1.373c3.852-2.853,4.175-8.115,4.46-12.757v0c.058-.951.114-1.849.2-2.71l.368-3.793c.623-6.4,1.32-13.212,2.369-19.867a.253.253,0,0,1,.265-.22.324.324,0,0,1,.337.3c.037,5.6-.246,11.27-.519,16.756-.126,2.521-.256,5.129-.353,7.7l-.048,1.338-.007.211c-.168,4.966-.342,10.1-3.467,13.919a1.287,1.287,0,0,1,.639-.177.977.977,0,0,1,.763.345,2.613,2.613,0,0,1,.688,1.693c2.758-1.156,5.635-2.4,8.553-3.69,4.481-1.985,9.034-4.142,13.535-6.41,4.379-2.207,8.825-4.578,13.214-7.049a1.659,1.659,0,0,1,2.288.582l.067-.01.034,0,.066,0h.007a2.628,2.628,0,0,1,1.281-.313,4.027,4.027,0,0,1,2.661,1.1c.025.024.049.051.069.075l.016.018a14.106,14.106,0,0,0,3.7-2.424,29.7,29.7,0,0,0,3.207-3.445c.9-1.121,1.8-2.371,2.755-3.821.78-1.188,1.544-2.429,2.283-3.63,1.121-1.822,2.28-3.705,3.535-5.469a31.665,31.665,0,0,1,4.216-4.91,25.323,25.323,0,0,1,5.7-3.942,34.773,34.773,0,0,1,6.48-2.484.442.442,0,0,1,.122-.363.625.625,0,0,1,.429-.245.611.611,0,0,1,.262.071.106.106,0,0,1,.048.045l.437-.746c.318-.539.5-.832.568-.92.5-.635,1.03-1.274,1.562-1.9a13.475,13.475,0,0,1,3.114-2.821,5.9,5.9,0,0,1,3.177-.878,15.955,15.955,0,0,1,4.8,1.047l.036.012c1.053.344,2.122.7,3.155,1.047l.028.009,1.657.553.166.055.311.1a8.66,8.66,0,0,1,1.656.645,2.522,2.522,0,0,1,1.328,2.79,54.429,54.429,0,0,1,13.391-1.594,69.983,69.983,0,0,1,11.126.923,81.121,81.121,0,0,1,10.739,2.511,1.349,1.349,0,0,1,.945.945,81.372,81.372,0,0,1,1.33,9.922A64.73,64.73,0,0,1,183.4,112.7a56.53,56.53,0,0,1-1.373,8.507,45.97,45.97,0,0,1-2.8,8.142l-.136.3a35.66,35.66,0,0,1-4.445,7.467,17.7,17.7,0,0,1-3.1,3.055,11.376,11.376,0,0,1-3.751,1.9,16.1,16.1,0,0,1-4.412.523c-1.292,0-2.605-.093-3.875-.184-.667-.047-1.356-.1-2.021-.13-.735-.037-1.486-.067-2.213-.1h0a66.02,66.02,0,0,1-7.633-.606,12.168,12.168,0,0,1-4.009-1.34,10.162,10.162,0,0,1-3.183-2.755,19.834,19.834,0,0,1-3.01-6.9c-.349.111-.636.211-.9.315a9.921,9.921,0,0,0-3.274,2.208c-.917.888-1.755,1.879-2.565,2.837a31.971,31.971,0,0,1-3.154,3.382,24.209,24.209,0,0,1-6.453,4.028,42.282,42.282,0,0,1-6.144,2.057c-2.088.544-4.241.988-6.324,1.418l-.018,0c-.9.185-1.823.377-2.733.573l-.359.078c-1.619.355-3.741.849-5.79,1.517a27.22,27.22,0,0,0-5.449,2.391,2.328,2.328,0,0,1-.77,1.517,1.938,1.938,0,0,1,.589,1.048,1.74,1.74,0,0,1-.26,1.255c-1.237,1.963-3.24,3.23-5.176,4.455l0,0c-.375.237-.762.482-1.136.728l-.149.1c-2.24,1.485-4.53,2.961-6.808,4.386-4.462,2.794-9.112,5.507-14.217,8.3-3.964,2.166-7.915,4.235-11.741,6.151-4.033,2.019-8.061,3.935-11.974,5.693a26.6,26.6,0,0,1,.4,3.972,32.58,32.58,0,0,0,.272,3.255l.056.342a2.323,2.323,0,0,1-.667,2.213l-.065.059v-.008l-.058.053-.019.016.006-.005a2.065,2.065,0,0,1-.217.176l-.095.061A1.916,1.916,0,0,1,41.241,195.425Zm46.2-71.242c0,.2,0,.4,0,.579,0,.291,0,.565.01.839.033,1.241.049,2.565.049,3.934,0,.991-.019,2-.038,2.974-.033,1.727-.068,3.512.005,5.265a23.472,23.472,0,0,0,.406,3.663,12.433,12.433,0,0,0,1.2,3.47,9.344,9.344,0,0,0,1.482,2.045,13.964,13.964,0,0,0,1.863,1.606,30.266,30.266,0,0,1,5.306-2.526,51.166,51.166,0,0,1,5.677-1.7c1.517-.369,3.072-.7,4.575-1.027h0a85.633,85.633,0,0,0,9.378-2.393,24.669,24.669,0,0,0,6.195-3.019,25.924,25.924,0,0,0,4.766-4.673l.016-.019.373-.434.248-.287a16.807,16.807,0,0,1,5.683-4.648,17.47,17.47,0,0,1,2.457-.79,10.719,10.719,0,0,0,3.844-1.577,3.433,3.433,0,0,0,1.067-2.708l.006-.061a5.292,5.292,0,0,1-.755.05,13.7,13.7,0,0,1-1.881-.176h0c-.243-.034-.494-.069-.737-.1l-.571-.067a23.172,23.172,0,0,1-3.085-.525.2.2,0,0,1,0-.386,25.678,25.678,0,0,1,3.506-.574l.15-.018.292-.036.43-.059h0a13.869,13.869,0,0,1,1.882-.174,4.946,4.946,0,0,1,1.092.111,9.316,9.316,0,0,1,.884-2.191c.17-.306.384-.62.609-.953A5.89,5.89,0,0,0,145,115.218a1.925,1.925,0,0,0-.205-1.081l-.057-.106a.9.9,0,0,0-.274-.33.234.234,0,0,1-.1.053,1.666,1.666,0,0,1-1.981-.788,31.371,31.371,0,0,1-3.4.168c-.58.008-1.128.015-1.657.039l-1.581.076c-.52.024-1.206.051-1.891.051a14.88,14.88,0,0,1-3.153-.281.279.279,0,0,1-.2-.256.241.241,0,0,1,.135-.255,22.809,22.809,0,0,1,5.571-1.3c.277-.041.563-.083.838-.125.777-.119,1.57-.221,2.337-.32l.019,0c.379-.049.772-.1,1.157-.151.249-.034.509-.075.761-.115h0a15.714,15.714,0,0,1,1.651-.2,4.673,4.673,0,0,0,.961-2.125,5.21,5.21,0,0,0-.1-2.262,5.078,5.078,0,0,0-.994-1.93,4.265,4.265,0,0,0-1.749-1.266,3.106,3.106,0,0,1-1.291.256,9.239,9.239,0,0,1-1.1-.09h0c-.216-.026-.44-.053-.671-.073-1.246-.107-2.278-.157-3.248-.157h-.118a27.883,27.883,0,0,0-2.791.2,27.5,27.5,0,0,1-2.882.207,10.46,10.46,0,0,1-1.2-.064.594.594,0,0,1-.476-.4.377.377,0,0,1,.137-.416,8.416,8.416,0,0,1,2.988-1.483,22.7,22.7,0,0,1,3.333-.661l.449-.06c.2-.026.407-.055.61-.083.584-.081,1.244-.173,1.917-.234a1.439,1.439,0,0,1,1.137-.786c.15-.021.3-.034.45-.046l.049,0,0-.016a1,1,0,0,0,.837-.5,3.554,3.554,0,0,0,.093-2.744,3.125,3.125,0,0,0-2.032-1.694,9.319,9.319,0,0,0-2.9-.387c-.428,0-.87.016-1.393.052a41.526,41.526,0,0,0-7.51,1.2,32.883,32.883,0,0,0-7.1,2.675,21.983,21.983,0,0,0-5.839,4.522,41.1,41.1,0,0,0-4.487,5.9l-.128.2c-.439.683-.886,1.4-1.317,2.1l0,0c-1.115,1.8-2.268,3.655-3.574,5.356a19.975,19.975,0,0,1-4.51,4.436,21.219,21.219,0,0,1-7.186,3.35,1.318,1.318,0,0,1-.84.647l-.175.04a10.945,10.945,0,0,1-2.223.267A5.926,5.926,0,0,1,87.444,124.184Zm-41.4,14.41a1.116,1.116,0,0,1-.079.106l-.043.05.224-.091Zm107.3-48.434c-2.521,0-5.088.068-7.5.137a4.09,4.09,0,0,1-1.4,1.963,3.842,3.842,0,0,1-2.215.871,6.493,6.493,0,0,1,1.019,3.114,6.861,6.861,0,0,1-.531,3.2,8.529,8.529,0,0,1,2.48,1.507,7.929,7.929,0,0,1,1.833,2.348,8.206,8.206,0,0,1,.711,1.957,8,8,0,0,1,.189,1.993,8.5,8.5,0,0,1-1.056,3.8,5.147,5.147,0,0,1,1.286,1.881,5.5,5.5,0,0,1,.408,2.28,8.783,8.783,0,0,1-1.638,4.089c-.1.163-.2.332-.3.5a8.933,8.933,0,0,0-1.088,3.664c-.043.3-.087.608-.139.93a5.866,5.866,0,0,1-1.478,3.076,8.222,8.222,0,0,1-2.8,1.906l.116.455a23.082,23.082,0,0,0,1.041,3.265,8.679,8.679,0,0,0,1.824,2.824c1.911,1.9,4.817,2.029,7.38,2.14l.614.027.132.006c2.035.1,4.1.22,6.1.334h.02l1.368.078,1.872.1c.587.032,1.28.065,1.961.065a12.239,12.239,0,0,0,3.143-.346,7.487,7.487,0,0,0,2.877-1.443,22.032,22.032,0,0,0,4.873-5.849,40.705,40.705,0,0,0,3.247-6.931,46.559,46.559,0,0,0,2-7.305,54.9,54.9,0,0,0,.875-7.517,66.568,66.568,0,0,0-.079-7.591c-.16-2.43-.451-4.963-.865-7.528a83.017,83.017,0,0,0-16.553-3.553A89.866,89.866,0,0,0,153.351,90.161Zm-19.1-.5a13.966,13.966,0,0,1,3.412.382,8.223,8.223,0,0,1,2.966,1.38l.01-.018c.005-.009.01-.018.016-.027a7.481,7.481,0,0,1,.942-1.1l.011-.012c.032-.03.064-.062.1-.1l.19-.2-.435-.15c-.662-.234-1.405-.514-1.85-.682L139.259,89l-.012,0-.606-.2h0c-.968-.327-1.969-.665-2.948-1.012-.175-.062-.347-.127-.53-.2a7.117,7.117,0,0,0-2.431-.6,3.027,3.027,0,0,0-.482.038,5.744,5.744,0,0,0-2.283,1.008,22.374,22.374,0,0,0-2.085,1.687l0,0c-.364.319-.708.621-1.049.9l.8-.156A35.737,35.737,0,0,1,134.256,89.663Zm54.191,105.495a.861.861,0,0,1-.536-.184.784.784,0,0,1-.291-.545l-.128-1.231a20.856,20.856,0,0,0-.881-4.6,25.354,25.354,0,0,1-1.121-5.436c-.329-2.91-.475-5.895-.6-8.7l-.086-2.009c-.272-6.278-.388-12.413-.344-18.235.047-6.25.278-12.382.688-18.226l.062-.866c.258-3.51.51-6.2.816-8.715.393-3.224.87-6.081,1.459-8.734a47.935,47.935,0,0,1,6.488-16.219.211.211,0,0,1,.18-.1.222.222,0,0,1,.174.083.207.207,0,0,1,.035.181c-1.475,6.042-2.972,12.534-3.932,19.073-.377,2.569-.666,5.2-.883,8.04-.193,2.531-.325,5.171-.4,8.072-.143,5.389-.072,10.874,0,16.178v.052c.012.9.024,1.821.035,2.731l.007.605c.064,5.6.159,12.219.379,18.9.025.768.057,1.552.088,2.309.1,2.388.2,4.857.112,7.273a21.591,21.591,0,0,1-.367,2.9c-.122.7-.248,1.433-.318,2.164a25.227,25.227,0,0,0,.016,3.738c.013.237.027.506.04.765a.69.69,0,0,1-.173.524A.7.7,0,0,1,188.447,195.158Zm31.388-.527a2.536,2.536,0,0,1-1.833-.747,1.819,1.819,0,0,1-.492-1.4,189.354,189.354,0,0,0,.472-20.977c-.315-6.928-.974-13.979-1.958-20.957-.612-4.337-1.46-8.705-2.28-12.93-.286-1.474-.582-3-.866-4.51l-.171-.917c-.851-4.611-1.742-9.295-2.6-13.824l0-.008-.185-.974-1.4-7.387c-1.915-10.081-4.167-21.786-6.663-33.124l-.144-.647A102.311,102.311,0,0,0,197,60.389a59.953,59.953,0,0,0-3.569-7.458,45.2,45.2,0,0,0-4.69-6.751,37.944,37.944,0,0,0-2.843-3.006c-.962-.913-2-1.806-3.1-2.657a53.528,53.528,0,0,0-6.791-4.46c-2.131-1.194-4.529-2.385-7.33-3.64-2.569-1.151-5.217-2.242-7.553-3.2a.367.367,0,0,1-.232-.417.313.313,0,0,1,.315-.264.435.435,0,0,1,.1.012l.81.193a86.3,86.3,0,0,1,17.315,5.611,37.305,37.305,0,0,1,7.669,4.9,40.443,40.443,0,0,1,6.307,6.563,55.67,55.67,0,0,1,8.152,15.448,128.532,128.532,0,0,1,4.5,16.967c1.261,6.081,2.489,12.275,3.676,18.265,1.3,6.571,2.649,13.365,4.044,20.034l.5,2.375c1.482,7.13,2.574,12.629,3.54,17.831,1.206,6.5,2.18,12.364,2.976,17.936l.124.871a184.773,184.773,0,0,1,1.8,18.75c.125,3.271.121,6.441-.014,9.422a88.768,88.768,0,0,1-.9,9.351,1.742,1.742,0,0,1-.7,1.186A2.151,2.151,0,0,1,219.835,194.631ZM134.19,184.2a1.352,1.352,0,0,1-1.293-.924,15.654,15.654,0,0,1-.61-4.6c-.007-1.585.13-3.181.263-4.725v0c.039-.453.076-.882.109-1.311l.206-2.648c.182-2.375.391-5.177.551-7.948.213-3.666.392-7.4.552-10.887.052-1.122.109-2.278.175-3.537l.1-1.768c.011-.194.02-.394.029-.587a10.681,10.681,0,0,1,.66-3.882.484.484,0,0,1,.461-.274.571.571,0,0,1,.505.274,10.758,10.758,0,0,1,.91,4.137v.007c.013.147.026.3.039.446l.015.157c.212,2.238.343,3.96.426,5.583.181,3.541.267,7.11.256,10.608-.013,4.067-.1,7.624-.28,10.875l-.053.971a42.049,42.049,0,0,1-.493,4.855,14.837,14.837,0,0,1-1.481,4.558A1.157,1.157,0,0,1,134.19,184.2ZM11.532,158.98a.15.15,0,0,1-.045-.007,1.333,1.333,0,0,1-.873-.688,2.245,2.245,0,0,1,.2-1.777,24.563,24.563,0,0,1,3.365-5.1l.022-.028.368-.471a46.934,46.934,0,0,1,4.344-4.831l.457-.441c.176-.173.356-.355.547-.547a17.288,17.288,0,0,1,2.081-1.885,4.188,4.188,0,0,1,2.435-.928c.061,0,.124,0,.185.006a1.246,1.246,0,0,1,1.182,1.552c-.286,1.358-1.425,2.2-2.526,3.017-.314.233-.611.453-.89.685-1.4,1.168-2.709,2.4-4.032,3.659-1.136,1.082-2.243,2.206-3.385,3.436l-.41.444c-.069.076-.217.22-.4.4l0,0c-.886.867-2.729,2.67-2.481,3.209l.016.029a.154.154,0,0,1,0,.163A.181.181,0,0,1,11.532,158.98Zm108-35.155a2.566,2.566,0,0,1-1.8-.764,4.08,4.08,0,0,1-1.045-1.83,7.566,7.566,0,0,1-.159-2.135,6.131,6.131,0,0,0-.278-2.451,7.039,7.039,0,0,0-.622-1.1,7.376,7.376,0,0,1-.612-1.07,7.064,7.064,0,0,1-.545-2.383,6.094,6.094,0,0,1,.371-2.018,3.767,3.767,0,0,0,.141-2.843.589.589,0,0,1,.025-.563.426.426,0,0,1,.373-.225h.011l.042,0a2.426,2.426,0,0,1,1.475.738,3.29,3.29,0,0,1,.806,1.487,13.59,13.59,0,0,1,.278,1.595,6.47,6.47,0,0,0,.945,3.031,8.816,8.816,0,0,1,1.828,4.645c.019.24.03.483.04.718v0a8.93,8.93,0,0,0,.166,1.594l.126.533a5,5,0,0,1,.176,1.727,1.272,1.272,0,0,1-.89,1.169A2.793,2.793,0,0,1,119.535,123.825ZM65.516,95.856a21.111,21.111,0,0,1-3.271-.229.27.27,0,0,1-.237-.264.369.369,0,0,1,.237-.379,37.623,37.623,0,0,1,6.59-1.148c.5-.057,1.025-.117,1.535-.18,2.358-.293,5.46-.69,8.54-1.171s5.849-.952,8.489-1.443c1.267-.236,2.552-.486,3.819-.743.27-.055.541-.124.829-.2a8.244,8.244,0,0,1,1.972-.335,2.813,2.813,0,0,1,1.045.184,1.057,1.057,0,0,1,.657.745.851.851,0,0,1-.251.792,4.848,4.848,0,0,1-2.877,1.09c-.2.03-.406.062-.606.1l-.109.02c-1.439.266-2.915.525-4.386.769-2.8.464-5.591.869-8.287,1.2-3.189.395-5.989.69-8.558.9l-1.106.091C68.255,95.761,66.879,95.856,65.516,95.856Zm68.891-13.169a1,1,0,0,1-.869-.5A23.081,23.081,0,0,1,131.3,76.12c-.277-1.043-.563-2.12-.916-3.147-.46-1.34-.959-2.692-1.441-4v0c-.594-1.608-1.207-3.27-1.753-4.925a37.147,37.147,0,0,1-1.486-5.968,22.973,22.973,0,0,1-.181-6.11l-.013-.021a.505.505,0,0,1-.027-.05l-.325-.711a15.442,15.442,0,0,0-3.353-5.139c-.409-.39-.833-.774-1.244-1.146a22.221,22.221,0,0,1-3.584-3.808,8.815,8.815,0,0,1-1.179-2.457,10.337,10.337,0,0,1-.416-2.538,27.551,27.551,0,0,1,.441-5.224c.159-1.073.323-2.181.405-3.268l.04-.564c.072-1.089.065-2.287-.527-2.914a5.089,5.089,0,0,0-2.336-1c-.348-.088-.675-.172-.943-.267a52.463,52.463,0,0,1-7.037-3.036,44.662,44.662,0,0,1-6.172-3.855l-.983-.739a17.317,17.317,0,0,1-4.2-4.041.252.252,0,0,1,0-.26.26.26,0,0,1,.22-.147.212.212,0,0,1,.08.016,24.787,24.787,0,0,1,3.734,2.051l0,0c.395.247.8.5,1.206.745a1.979,1.979,0,0,1,.088-.18,20.593,20.593,0,0,0,2.13-5.711,21.427,21.427,0,0,0,.383-6.086,1.465,1.465,0,0,1,.354-1.142A1.633,1.633,0,0,1,103.481,0a1.922,1.922,0,0,1,1.2.407,1.68,1.68,0,0,1,.626,1.218,24.025,24.025,0,0,1-2.976,13.505c-.011.02-.023.038-.035.056l-.018.029c1.659.863,3.04,1.528,4.346,2.092,2.027.875,3.914,1.59,5.767,2.186.5.161,1.023.292,1.576.43a10,10,0,0,1,3.864,1.55,5.066,5.066,0,0,1,1.562,2.151,8.179,8.179,0,0,1,.51,2.691,26.283,26.283,0,0,1-.6,5.592c-.037.2-.076.412-.112.614l-.094.531a8.853,8.853,0,0,0,.211,5.165,12.572,12.572,0,0,0,3.407,4.042l.015.013.337.3.284.257a18.77,18.77,0,0,1,3.58,4.049,24.519,24.519,0,0,1,2.76-4.177l0,0,.407-.535c.693-.915.422-1.341-.027-2.046-.105-.165-.224-.352-.342-.564a6.037,6.037,0,0,1-.64-1.649,4.834,4.834,0,0,1-.056-1.762,5.265,5.265,0,0,1,.505-1.568,6.824,6.824,0,0,1,.912-1.355,12.473,12.473,0,0,1,2.5-2.154,44.164,44.164,0,0,1,3.826-2.247c.929-.5,1.89-1.026,2.806-1.588a90.571,90.571,0,0,0,12.752-9.367.132.132,0,0,1,.089-.034.149.149,0,0,1,.129.074.114.114,0,0,1-.009.121,49.714,49.714,0,0,1-11.2,12.248c-1.546,1.2-3.193,2.242-4.787,3.252l-.843.536-.551.353a5.154,5.154,0,0,0-2.076,2.012c-.267.65.109,1.187.472,1.706.113.162.231.33.326.5a5.25,5.25,0,0,1,.618,1.654,4.521,4.521,0,0,1,0,1.594,6.8,6.8,0,0,1-1.471,2.993l-.07.087A14.163,14.163,0,0,0,129.77,50.9a18.679,18.679,0,0,0,0,7.689,48.939,48.939,0,0,0,2.162,7.456l.067.188c.224.624.455,1.258.679,1.87l0,.008c.7,1.91,1.418,3.883,2.024,5.859l.221.722c.73,2.415,1.318,4.786.507,7.246A1.084,1.084,0,0,1,134.407,82.686Zm9.09-34.441c-.223,0-.45-.008-.676-.025a9.107,9.107,0,0,1-3.82-1.1,8.427,8.427,0,0,1-1.347-1.075c-.86-.78-1.749-1.586-2.733-1.586a1.78,1.78,0,0,0-.551.088.159.159,0,0,1-.049.008.2.2,0,0,1-.18-.139.156.156,0,0,1,.047-.18,2.287,2.287,0,0,1,1.481-.541,6.462,6.462,0,0,1,2.968,1.148,9.725,9.725,0,0,0,1.826.9,7.114,7.114,0,0,0,7.816-2.464,79.326,79.326,0,0,0,5.432-7.928,38.45,38.45,0,0,0,2.268-4.246,14.485,14.485,0,0,0,.8-2.583,18.742,18.742,0,0,1,.565-2,1.934,1.934,0,0,1,.8-.984,2.217,2.217,0,0,1,1.162-.329,1.825,1.825,0,0,1,1.332.529,1.684,1.684,0,0,1,.423,1.288,13.274,13.274,0,0,1-1.329,4.459l-.174.4-.072.168a31.2,31.2,0,0,1-2.453,4.674,59.393,59.393,0,0,1-6.268,8.042,11.157,11.157,0,0,1-3.286,2.524A8.933,8.933,0,0,1,143.5,48.246Zm16.53-24.169a1.728,1.728,0,0,1-1.192-.526,33.678,33.678,0,0,1-3.621-3.993,16.4,16.4,0,0,1-2.586-4.693.286.286,0,0,1,.046-.262.345.345,0,0,1,.273-.144.274.274,0,0,1,.152.045,23.444,23.444,0,0,1,2.544,2.018h0c.382.333.777.678,1.173,1,1.373,1.122,2.765,2.227,4.135,3.284a1.956,1.956,0,0,1,.717.994,1.706,1.706,0,0,1-.028,1.037A1.773,1.773,0,0,1,160.027,24.076Zm-9.583-5.522a1.757,1.757,0,0,1-1.1-.4,11.743,11.743,0,0,1-3.835-5.64,12.421,12.421,0,0,1-.58-3.383,12.2,12.2,0,0,1,.382-3.443,1.52,1.52,0,0,1,1.532-1.2,1.9,1.9,0,0,1,1.459.679,1.551,1.551,0,0,1,.288,1.36l-.015.063a8.643,8.643,0,0,0,.192,5,9.189,9.189,0,0,0,2.872,4.1l.1.08a1.5,1.5,0,0,1,.534.756,1.305,1.305,0,0,1-.032.793A1.964,1.964,0,0,1,150.443,18.554Z" transform="translate(0 6.538)"/></g><g transform="translate(-815.478 1620.911)"><g transform="translate(0 0)"><path d="M96.8,44.061c-.612-5.377.18-16.615.233-17.3.335-4.316-1.687-21.362-5.51-19.791C85.108,1.895,76.565.774,68.578.238,51.986-.874,34.336,1.68,21.524,12.845c-6.336,5.8-12.5,14.232-12.008,23.014C3.76,44.183-4.356,55.6,2.816,65.332c2.438,3.109,6.313,4.267,9.376,6.621,6.16,4.969,10.025,12.1,16.244,17.039,16.476,14.805,44.452,17.9,60.639,1.058,12.517-12.2,10.493-30.441,8.292-45.989C95.887,33.608,97.992,54.551,96.8,44.061Z" transform="translate(4.834 23.878)" fill="#d08b5b"/><path d="M71.155,126a38.1,38.1,0,0,1-5.41-.4,29.973,29.973,0,0,1-6.109-1.478,11.585,11.585,0,0,1-2.863-1.512,12.855,12.855,0,0,1-2.33-2.237,1.789,1.789,0,0,1-.192-1.8,1.1,1.1,0,0,1,1.032-.671,1.47,1.47,0,0,1,.177.011,33.588,33.588,0,0,1,5.976,1.172l.285.09a29.6,29.6,0,0,0,6.123,1.313c1.05.1,2.115.153,3.165.153a31.392,31.392,0,0,0,9.487-1.447,27.544,27.544,0,0,0,4.788-2.041,29.437,29.437,0,0,0,4.336-2.88,30.776,30.776,0,0,0,6.894-7.76,30.12,30.12,0,0,0,4.044-11.075,68.02,68.02,0,0,0,.735-11.859c-.065-8.5-.341-17.387-.821-26.422l-.08-1.466c-.2-3.721-.466-8.628-.7-13.59-.077-1.662-.186-3.02-.344-4.272a11.25,11.25,0,0,1-4.067-3.92,40.09,40.09,0,0,1-5.811,1.828,34.789,34.789,0,0,1-8.3,1.019,32.745,32.745,0,0,1-4.884-.365c-1.177.486-2.394.92-3.619,1.289-.34.151-.674.3-.994.433A60.382,60.382,0,0,1,62.6,41.244l-.767.191a31.37,31.37,0,0,1-5.174.929,7.542,7.542,0,0,1-.936.287,15.209,15.209,0,0,1-3.586.426c-.428,0-.862-.018-1.289-.054a2.408,2.408,0,0,1-1.936-1.249,1.977,1.977,0,0,1-.229-.956,2.123,2.123,0,0,1,.3-1.039c.632-1.084,1.283-2.189,1.936-3.283a60.991,60.991,0,0,1-6.964,2.393c-2.1.592-4.395,1.15-7.218,1.757-.641.137-1.293.268-1.924.394h0c-.641.129-1.3.262-1.954.4-.206.044-.435.083-.678.124a5.508,5.508,0,0,0-2.418.783,4.8,4.8,0,0,0-1.176,2.467c-.071.259-.137.5-.208.72-.442,1.329-.821,2.562-1.16,3.769A78.286,78.286,0,0,0,25.485,57a73.777,73.777,0,0,0-.918,7.846c-.069,1.083-.1,2.187-.125,3.254-.039,1.521-.08,3.094-.238,4.631a1.826,1.826,0,0,1-.548,1.144,1.563,1.563,0,0,1-1.073.434,1.677,1.677,0,0,1-1.113-.447c-.124-.109-.257-.227-.388-.345l-.192-.175a19.61,19.61,0,0,1-2.606-2.775c-.134-.183-.265-.38-.39-.583a.093.093,0,0,1-.057-.02l-.209-.157c-2.193-1.632-4.08-2.46-5.608-2.46A3.387,3.387,0,0,0,9.245,68.7a8.828,8.828,0,0,0-1.384,3.171l-.533,1.991A34.58,34.58,0,0,0,6.471,77.8a15.075,15.075,0,0,0-.011,4.622A8.438,8.438,0,0,0,8.307,86.6a5.227,5.227,0,0,0,3.206,1.816,4.02,4.02,0,0,0,.553.036,9.783,9.783,0,0,0,1.272-.112h.008l.259-.034a4.263,4.263,0,0,1,.532-.03c.188,0,.378.009.562.017h0c.185.009.376.017.566.017.16,0,.3-.006.437-.019.043,0,.087-.006.129-.006a1.127,1.127,0,0,1,.98.564,1.626,1.626,0,0,1,.088,1.526,5.164,5.164,0,0,1-.8,1.18,9.217,9.217,0,0,1,.7.676,3.5,3.5,0,0,1,1.708,1.276,2.9,2.9,0,0,1,.58,1.581c.036.127.07.262.105.426l.61.99c.149.242.281.452.4.642a30.9,30.9,0,0,0,5.415,6.464c.763.694,1.563,1.373,2.336,2.029a52.263,52.263,0,0,1,3.9,3.539l.228.239a14.924,14.924,0,0,1,2.442,3.161,5.15,5.15,0,0,1,.559,3.809,1.333,1.333,0,0,1-1.241.93.966.966,0,0,1-.581-.188,14.25,14.25,0,0,1-3-3.428,21.639,21.639,0,0,0-1.9-2.445c-.922-.98-1.911-1.924-2.867-2.838h0c-.93-.889-1.892-1.807-2.792-2.758a22.185,22.185,0,0,1-4.113-6.148,3.311,3.311,0,0,1-2.279.932,3.121,3.121,0,0,1-1.72-.529,3.52,3.52,0,0,1-1.2-1.355,10.771,10.771,0,0,1-1.214.461,2.45,2.45,0,0,1-.715.112,2.113,2.113,0,0,1-1.79-1.021,2.761,2.761,0,0,1-.42-1.252,2.685,2.685,0,0,1,.228-1.347,8.605,8.605,0,0,1,1.651-2.467A10.468,10.468,0,0,1,5.5,90.311a11.561,11.561,0,0,1-3.18-6.123A17.06,17.06,0,0,1,2.006,80.7,21.972,21.972,0,0,1,2.329,77.2,34.581,34.581,0,0,1,4.39,70.066c.178-.435.35-.823.525-1.186a.369.369,0,0,1-.281-.136c-.214-.293-.448-.572-.674-.841a8.228,8.228,0,0,1-1.185-1.68c-.094-.194-.193-.392-.288-.583A21.619,21.619,0,0,1,1.53,63.53,26.207,26.207,0,0,1,.266,57.544,45.078,45.078,0,0,1,.6,45.392,48.549,48.549,0,0,1,3.28,35.351a49.355,49.355,0,0,1,4.714-9.214,3.3,3.3,0,0,1-.586-.392l-.091-.079-.147-.133A2.431,2.431,0,0,1,6.4,23.765a2.8,2.8,0,0,1,.772-2.019l.311-.311a8.24,8.24,0,0,1,1.368-1.126c.092-.062.188-.121.287-.177a2.719,2.719,0,0,1-.216-2.126,2.822,2.822,0,0,1,1.42-1.742,5,5,0,0,1,2.361-.521,8.444,8.444,0,0,1,3.519.8,45.494,45.494,0,0,1,9.226-6.394,88.277,88.277,0,0,1,12.59-5.314A108.691,108.691,0,0,1,51.248,1.314,60.017,60.017,0,0,1,63.148,0c.545,0,1.092.01,1.625.03l.349.014a40,40,0,0,1,5.514.518,13.6,13.6,0,0,1,5.187,1.9.65.65,0,0,1,.454-.2.556.556,0,0,1,.241.055,84.985,84.985,0,0,0,10.32,3.851l.824.268a50.415,50.415,0,0,0,11.43,2.323,2.371,2.371,0,0,1,1.135.409,2.3,2.3,0,0,1,.777.881,1.788,1.788,0,0,1-.125,1.823c-.228.349-.446.7-.648,1.019l.322-.034h0l.747-.078c.051-.005.1-.008.155-.008a2.1,2.1,0,0,1,1.484.709,2.2,2.2,0,0,1,.639,1.578,21.2,21.2,0,0,1-.236,2.133h.082a3.169,3.169,0,0,1,1.24.24,3.015,3.015,0,0,1,1.808,2.347,11.158,11.158,0,0,1,.054,3.137,13,13,0,0,1-3.15,7.684,12.21,12.21,0,0,1,1.819,2.431,13.236,13.236,0,0,1,1.2,2.893,13.661,13.661,0,0,1,.557,4.742l-.038.476c-.155,1.813-.466,3.659-1.682,4.874a2.643,2.643,0,0,1-1.9.812c-.088,0-.178,0-.266-.013.455,4,.751,8.1,1.015,11.953l.128,1.9c.354,5.349.591,9.746.746,13.838.191,5.015.256,9.545.2,13.85a59.214,59.214,0,0,1-.413,6.4,44.138,44.138,0,0,1-1.2,6.2,35.427,35.427,0,0,1-2.166,5.894,31.693,31.693,0,0,1-3.323,5.486,35.706,35.706,0,0,1-3.984,4.444,35.1,35.1,0,0,1-4.659,3.7,33.858,33.858,0,0,1-5.222,2.841,32.427,32.427,0,0,1-5.674,1.865A33.09,33.09,0,0,1,71.155,126ZM17.911,82.662h-.047a3.06,3.06,0,0,1-1.962-.789,9.868,9.868,0,0,1-1.422-1.661c-.144-.195-.292-.4-.441-.589a1.952,1.952,0,0,1-.475.58l-.131.1A2.39,2.39,0,0,1,12,80.884l-.078,0a2.8,2.8,0,0,1-1.171-.316,2.122,2.122,0,0,1-.965-1.129,2.43,2.43,0,0,1,.869-2.888l-.172-.117a3.436,3.436,0,0,1-.963-.923l-.059-.094h.023a.921.921,0,0,1,.529-1.359,2.763,2.763,0,0,1,.857-.127A9.386,9.386,0,0,1,14.5,75.054l.327.152a19.446,19.446,0,0,1,4.54,3.147,2.524,2.524,0,0,1,.648,2.453l-.01.051c-.014.069-.028.14-.044.211A1.944,1.944,0,0,1,19.2,82.2,2.19,2.19,0,0,1,17.911,82.662Z" transform="translate(0 0)"/></g><g transform="translate(27.006 38.943)"><path d="M23.573,54.86a2.5,2.5,0,0,1-2.216-1.7,2.4,2.4,0,0,1-.111-1.344,2.285,2.285,0,0,1,.776-1.263l.07-.059a3.3,3.3,0,0,0,.862-1.163,7.27,7.27,0,0,0,.516-1.573,12.906,12.906,0,0,0,.264-3.144,12.264,12.264,0,0,0-.6-3.259l-.071-.209c-.1-.283-1.109-2.775-1.574-2.775a.121.121,0,0,0-.081.031l-.02.02a.194.194,0,0,1-.15.077.2.2,0,0,1-.171-.106.212.212,0,0,1,.007-.219A1.092,1.092,0,0,1,22,37.552c.507,0,1.393.419,2.737,2.414a16.873,16.873,0,0,1,1.677,3.1,14.559,14.559,0,0,1,.637,2.987,8.892,8.892,0,0,0,1.941.212,9.78,9.78,0,0,0,1.835-.177,9.723,9.723,0,0,0,3.349-1.477c.414-.251.842-.511,1.308-.759a1.9,1.9,0,0,1,.9-.221A2.734,2.734,0,0,1,38.62,44.95a2.261,2.261,0,0,1,.27,1.739,3.2,3.2,0,0,1-.927,1.515,5.994,5.994,0,0,1-2.486,1.345,10.717,10.717,0,0,1-3,.417,9.869,9.869,0,0,1-1.858-.169,9.494,9.494,0,0,1-3.505-1.435c0,.038,0,.076-.006.114,0,.091-.009.186-.016.279l-.02.226a12.8,12.8,0,0,1-.581,2.905,5.336,5.336,0,0,1-1.519,2.425A2.148,2.148,0,0,1,23.573,54.86Zm10.31-19.547h0a9.924,9.924,0,0,1-3.539-.713,17.872,17.872,0,0,1-4.161-2.361,1.6,1.6,0,0,1-.581-.924,1.914,1.914,0,0,1,.082-1.037,2.359,2.359,0,0,1,.7-1.013,1.705,1.705,0,0,1,1.092-.426,1.549,1.549,0,0,1,.844.259l.278.214.007.006a22.529,22.529,0,0,0,2.605,1.812,6.417,6.417,0,0,0,3.122,1,3.372,3.372,0,0,0,1.319-.259A3.687,3.687,0,0,0,36.881,31a3.768,3.768,0,0,0,.715-3.033,5.73,5.73,0,0,0-1.521-2.691,11.086,11.086,0,0,0-2.3-1.858.713.713,0,0,1-.193-.82,1.071,1.071,0,0,1,.355-.511,1.088,1.088,0,0,1,.68-.225,1.447,1.447,0,0,1,.244.022,7.72,7.72,0,0,1,2.715.981A6.158,6.158,0,0,1,39.4,24.544a6.688,6.688,0,0,1,1.166,4.468,7.361,7.361,0,0,1-.6,2.345,6.842,6.842,0,0,1-1.346,2.015A6.432,6.432,0,0,1,33.883,35.313ZM5.916,20.257a.335.335,0,0,1-.306-.188A4.735,4.735,0,0,1,5.041,17.7a5.568,5.568,0,0,1,.584-2.306A7.543,7.543,0,0,1,7.8,12.757a7.058,7.058,0,0,1,3.055-1.4,7.71,7.71,0,0,1,1.342-.118,7.884,7.884,0,0,1,2.427.385,8.2,8.2,0,0,1,2.213,1.11l.131.095a8.4,8.4,0,0,1,2.279,2.407,4.006,4.006,0,0,1,.541,1.5A2.861,2.861,0,0,1,19.55,18.3a1.274,1.274,0,0,1-.58.607,1.762,1.762,0,0,1-.823.193,1.9,1.9,0,0,1-.868-.2,3.79,3.79,0,0,1-1.41-1.619,5.02,5.02,0,0,0-1.117-1.462,4.744,4.744,0,0,0-2.9-1.057c-.116,0-.231.005-.344.015a4.938,4.938,0,0,0-3.3,1.831,10.971,10.971,0,0,0-1.9,3.368A.44.44,0,0,1,5.916,20.257Zm44.2-.716a2.266,2.266,0,0,1-1.264-.379,1.963,1.963,0,0,1-.8-1.126c-.079-.29-.135-.572-.188-.845a4.134,4.134,0,0,0-.86-2.109,3.306,3.306,0,0,0-1.061-.82,2.948,2.948,0,0,0-1.292-.3c-.066,0-.133,0-.2.007A4.519,4.519,0,0,0,41.6,15.352a7.175,7.175,0,0,0-.836,1.094,5.865,5.865,0,0,1-.978,1.218.464.464,0,0,1-.3.116.419.419,0,0,1-.286-.116,2.582,2.582,0,0,1-.609-2.317,6.194,6.194,0,0,1,.9-2.354A7,7,0,0,1,41.626,10.9a6.4,6.4,0,0,1,2.828-.945c.149-.012.3-.019.455-.019a7.957,7.957,0,0,1,5.962,3.107,5.777,5.777,0,0,1,1.247,4.988,1.917,1.917,0,0,1-.766,1.131A2.178,2.178,0,0,1,50.117,19.541ZM1.05,11.609a.523.523,0,0,1-.4-.17c-1.059-1.2-.625-2.87-.073-4.062A11.671,11.671,0,0,1,3.2,3.831,16.065,16.065,0,0,1,7.173,1.3,11.821,11.821,0,0,1,11.9.165a6.631,6.631,0,0,1,2.039.3,2.713,2.713,0,0,1,1.37,1.042,3.172,3.172,0,0,1,.581,1.624,2.188,2.188,0,0,1-1.311,2.221,13.818,13.818,0,0,1-4.034.941,13.863,13.863,0,0,0-4.158.985,7.909,7.909,0,0,0-2.912,2.1c-.121.148-.24.3-.366.467a5.437,5.437,0,0,1-1.732,1.684A.753.753,0,0,1,1.05,11.609Zm49.593-2.63a2.1,2.1,0,0,1-1.062-.293,5.918,5.918,0,0,1-1.674-1.7,8.836,8.836,0,0,0-1.084-1.275,9.432,9.432,0,0,0-2.851-1.771,9.835,9.835,0,0,0-3.559-.7h-.071a8.993,8.993,0,0,0-1.683.217c-.363.07-.739.143-1.1.182a.04.04,0,0,1,0,.04c-.02.032-.1.049-.225.049a3.2,3.2,0,0,1-.865-.145c-.334-.142-.3-.561-.207-.791a3.531,3.531,0,0,1,1.616-1.563A10,10,0,0,1,42.765,0,13.132,13.132,0,0,1,45,.2a10.989,10.989,0,0,1,4.582,1.929l.153.115a10.932,10.932,0,0,1,2.111,1.982,3.958,3.958,0,0,1,.96,2.611,2.277,2.277,0,0,1-.687,1.531A2.12,2.12,0,0,1,50.643,8.979Z" transform="translate(14.782 17.624)"/></g></g></g></svg>