<svg xmlns="http://www.w3.org/2000/svg" xmlns:xlink="http://www.w3.org/1999/xlink" width="375" height="812" viewBox="0 0 375 812"><defs><clipPath id="b"><rect width="375" height="812"/></clipPath></defs><g id="a" clip-path="url(#b)"><g transform="translate(36 527)" opacity="0.2"><path d="M16,18l6-6L16,6" transform="translate(-2 -6)" fill="none" stroke="#5d9ad8" stroke-linecap="round" stroke-linejoin="round" stroke-width="2"/><path d="M8,6,2,12l6,6" transform="translate(-2 -6)" fill="none" stroke="#5d9ad8" stroke-linecap="round" stroke-linejoin="round" stroke-width="2"/></g><g transform="translate(317 146)" opacity="0.2"><path d="M18,8h1a4,4,0,0,1,0,8H18" transform="translate(-2 -1)" fill="none" stroke="#5d9ad8" stroke-linecap="round" stroke-linejoin="round" stroke-width="2"/><path d="M2,8H18v9a4,4,0,0,1-4,4H6a4,4,0,0,1-4-4Z" transform="translate(-2 -1)" fill="none" stroke="#5d9ad8" stroke-linecap="round" stroke-linejoin="round" stroke-width="2"/><line y2="3" transform="translate(4)" fill="none" stroke="#5d9ad8" stroke-linecap="round" stroke-linejoin="round" stroke-width="2"/><line y2="3" transform="translate(8)" fill="none" stroke="#5d9ad8" stroke-linecap="round" stroke-linejoin="round" stroke-width="2"/><line y2="3" transform="translate(12)" fill="none" stroke="#5d9ad8" stroke-linecap="round" stroke-linejoin="round" stroke-width="2"/></g></g></svg>