<svg xmlns="http://www.w3.org/2000/svg" xmlns:xlink="http://www.w3.org/1999/xlink" width="375" height="812" viewBox="0 0 375 812"><defs><clipPath id="b"><rect width="375" height="812"/></clipPath></defs><g id="a" clip-path="url(#b)"><g transform="translate(288.5 634)" opacity="0.2"><path d="M4,4H20a2.006,2.006,0,0,1,2,2V18a2.006,2.006,0,0,1-2,2H4a2.006,2.006,0,0,1-2-2V6A2.006,2.006,0,0,1,4,4Z" transform="translate(-2 -4)" fill="none" stroke="#001a34" stroke-linecap="round" stroke-linejoin="round" stroke-width="2"/><path d="M22,6,12,13,2,6" transform="translate(-2 -4)" fill="none" stroke="#001a34" stroke-linecap="round" stroke-linejoin="round" stroke-width="2"/></g><g transform="translate(59.5 107)" opacity="0.2"><line x1="11" y2="11" transform="translate(9 0)" fill="none" stroke="#001a34" stroke-linecap="round" stroke-linejoin="round" stroke-width="2"/><path d="M22,2,15,22l-4-9L2,9Z" transform="translate(-2 -2)" fill="none" stroke="#001a34" stroke-linecap="round" stroke-linejoin="round" stroke-width="2"/></g><g transform="translate(289.5 248)" opacity="0.2"><path d="M21,15a2,2,0,0,1-2,2H7L3,21V5A2,2,0,0,1,5,3H19a2,2,0,0,1,2,2Z" transform="translate(-3 -3)" fill="none" stroke="#001a34" stroke-linecap="round" stroke-linejoin="round" stroke-width="2"/></g><g transform="translate(57 461)" opacity="0.2"><path d="M21,11.5a8.38,8.38,0,0,1-.9,3.8A8.5,8.5,0,0,1,12.5,20a8.38,8.38,0,0,1-3.8-.9L3,21l1.9-5.7A8.38,8.38,0,0,1,4,11.5,8.5,8.5,0,0,1,8.7,3.9,8.38,8.38,0,0,1,12.5,3H13a8.48,8.48,0,0,1,8,8Z" transform="translate(-3 -3)" fill="none" stroke="#001a34" stroke-linecap="round" stroke-linejoin="round" stroke-width="2"/></g></g></svg>