<svg xmlns="http://www.w3.org/2000/svg" width="303.297" height="424.064" viewBox="0 0 303.297 424.064"><g transform="translate(885.689 -1620.912)"><g transform="translate(-885.689 1767.564)"><rect width="88.611" height="109.119" transform="translate(169.096 114.149)" fill="#9b9b9b"/><path d="M53.458,277.412h-.006a2.931,2.931,0,0,1-2.3-1.007,3.813,3.813,0,0,1-.773-3.032c.393-2.6.774-5.249,1.142-7.808v-.014c.2-1.411.413-2.871.623-4.307a96.455,96.455,0,0,1-24.53,3.372,75.955,75.955,0,0,1-10.456-.71,67.7,67.7,0,0,1-10.287-2.252c-.161-.164-.221-.3-.179-.4.073-.175.444-.257,1.165-.257.269,0,.551.011.84.022l.067,0c.248.01.482.02.672.02a1.563,1.563,0,0,0,.384-.03,20.207,20.207,0,0,1-6.614-7.437,24.651,24.651,0,0,1-1.8-4.521A33.272,33.272,0,0,1,.4,244.168a57.767,57.767,0,0,1-.309-10.381c.169-3.511.534-6.988.887-10.35v-.006c.2-1.858.379-3.613.525-5.314,1.238-7.985,2.366-16.278,3.457-24.3v-.007C7.75,173.33,10.631,152.15,15.8,131.988c1.336-5.208,2.8-10.235,4.348-14.94,1.66-5.043,3.486-9.92,5.427-14.5,2.056-4.848,4.316-9.537,6.717-13.936a139.424,139.424,0,0,1,8.219-13.257A95.584,95.584,0,0,1,50.932,63.523a87.352,87.352,0,0,1,12.313-9.885,76.29,76.29,0,0,1,13.918-7.3A67.106,67.106,0,0,1,92.4,42.271l.584-.08c1.009-.135,2.059-.257,3.075-.375,5.323-.619,10.827-1.26,15.327-4.06a33.985,33.985,0,0,0,5.884-6.7,33.476,33.476,0,0,1,4.119-4.953,9.209,9.209,0,0,1,2.312-1.584,6.471,6.471,0,0,1,2.689-.616h.033a5.138,5.138,0,0,1,2.386.782c.868.476,1.8,1.116,2.78,1.795.919.634,1.869,1.29,2.845,1.863a21.768,21.768,0,0,1,1.62-6.328,21.882,21.882,0,0,0,1.225-4.082l.038-.264c.094-.685.146-1.363.2-2.02.215-2.808.419-5.459,3.8-8.236a26.552,26.552,0,0,1,5.313-3.042,46.444,46.444,0,0,1,6.739-2.341,60.043,60.043,0,0,1,7.554-1.5A58.587,58.587,0,0,1,168.677,0a41.653,41.653,0,0,1,9.115.924,20.914,20.914,0,0,1,7.249,2.954,24.666,24.666,0,0,1,4.683,4.241,28.575,28.575,0,0,1,3.354,4.914,71.55,71.55,0,0,1,4.54,11.086c.987,2.844,2.007,5.784,3.282,8.628a7.76,7.76,0,0,1,3.331-.683,12.465,12.465,0,0,1,6,1.653,9.878,9.878,0,0,1,2.327,1.808,5.887,5.887,0,0,1,1.359,2.232c.929,1.13,1.341,3.459,1.74,5.712v0a21.968,21.968,0,0,0,1.021,4.272c2.945.469,5.8,1.063,8.491,1.767a73.274,73.274,0,0,1,7.6,2.425,62.717,62.717,0,0,1,6.763,3.048,56.366,56.366,0,0,1,5.985,3.634,53.673,53.673,0,0,1,5.264,4.185,54.312,54.312,0,0,1,4.6,4.7,58.222,58.222,0,0,1,3.994,5.178,65.632,65.632,0,0,1,3.444,5.62,83.576,83.576,0,0,1,5.468,12.423,130.271,130.271,0,0,1,3.956,13.76c2.126,9.09,3.617,18.718,5.2,30.379,2.118,11.948,5.037,24.1,7.859,35.852v0h0c1.831,7.624,3.724,15.507,5.388,23.284,1.866,8.724,3.237,16.376,4.19,23.394a183.789,183.789,0,0,1,1.78,23.555c.029,4.025-.1,8.013-.392,11.853-.3,4.03-.791,8.038-1.449,11.912a25.2,25.2,0,0,1,2.459,4.418,4.352,4.352,0,0,1,.588,2.342,4.9,4.9,0,0,1-.648,2.274,4.253,4.253,0,0,1-3.679,2.241h0c-.063,0-.127,0-.191,0-1.257-.11-2.53-.234-3.762-.354h-.005c-3.128-.3-6.362-.618-9.572-.738-6.515-.226-13.531-.336-21.448-.336-4.616,0-9.632.036-15.785.114l-1.692.022c-25.108.312-50.628.754-75.307,1.181C128.968,276.51,90.9,277.168,53.458,277.412ZM190.506,137.236h0c-.857,3.7.526,6.708,1.99,9.893a34.085,34.085,0,0,1,2.055,5.227,17.264,17.264,0,0,1,.1,4.957c-.048.7-.093,1.371-.1,1.911a9.646,9.646,0,0,0,1.156,3.285c.683,1.408,1.39,2.863,1.149,4.174a37.3,37.3,0,0,1-3.53,9.158,43.241,43.241,0,0,0-3.191,7.752,13.674,13.674,0,0,0-.48,3.852,10.239,10.239,0,0,0,.851,3.842c2.322,4.568,9.318,6.908,13.947,8.456l.023.008a20.422,20.422,0,0,0,4.062,1.064,28.736,28.736,0,0,0,4.542.346,37.039,37.039,0,0,0,13.517-2.623,27.338,27.338,0,0,0,5.751-3.105,16.647,16.647,0,0,0,4.147-4.146c1.869-2.78,3.958-8.3,5.636-12.735,1.032-2.728,1.923-5.083,2.589-6.382l.395-5.511c.46-6.471.947-13.858.911-19.622-.04-6.4-.714-9.968-2.06-10.9-2.991-2.078-7.283-3.618-12.758-4.577a91.359,91.359,0,0,0-15.54-1.178c-5.827,0-10.94.39-14.2.718a43.083,43.083,0,0,0-6.391.919c-.465.306-.859.537-1.206.741a5.333,5.333,0,0,0-2.239,2c-.923.123-1.864.252-2.8.384-.621.2-.944.622-.865,1.122a1.271,1.271,0,0,0,.514.789,1.843,1.843,0,0,0,1.124.353,2.542,2.542,0,0,0,.9-.175Z" transform="translate(1.936)" fill="#d08b5b"/><path d="M53.453,253.479a2.931,2.931,0,0,1-2.3-1.007,3.813,3.813,0,0,1-.773-3.032c.394-2.608.774-5.254,1.143-7.812l.009-.063c.2-1.395.408-2.836.615-4.254a96.451,96.451,0,0,1-24.53,3.372,75.95,75.95,0,0,1-10.456-.71,67.694,67.694,0,0,1-10.287-2.252c-.161-.164-.221-.3-.179-.4.073-.175.444-.257,1.165-.257.269,0,.551.011.84.022l.067,0c.248.01.483.02.672.02a1.56,1.56,0,0,0,.384-.031,20.207,20.207,0,0,1-6.614-7.437,24.652,24.652,0,0,1-1.8-4.521A33.268,33.268,0,0,1,.4,220.235a57.766,57.766,0,0,1-.309-10.381c.169-3.511.534-6.988.887-10.35.2-1.859.38-3.616.525-5.32,1.238-7.985,2.366-16.278,3.457-24.3v-.007C7.75,149.4,10.631,128.217,15.8,108.055a205.693,205.693,0,0,1,9.774-29.436c2.056-4.849,4.316-9.537,6.717-13.936a139.422,139.422,0,0,1,8.219-13.257A95.583,95.583,0,0,1,50.932,39.59a87.353,87.353,0,0,1,12.313-9.885,76.29,76.29,0,0,1,13.918-7.3A67.105,67.105,0,0,1,92.4,18.338l.584-.08.588-.077c.821-.1,1.668-.2,2.488-.3,5.322-.619,10.826-1.26,15.326-4.06a33.986,33.986,0,0,0,5.884-6.7,35.369,35.369,0,0,1,3.933-4.78,9.848,9.848,0,0,1,2.182-1.6A6.558,6.558,0,0,1,125.89,0l3.842,2.357,22.311,11.029a17.539,17.539,0,0,1,4.866,2,2.993,2.993,0,0,1,1.622,2.357V34.967c0,1.147,1.024,3.047,3.044,5.647a116.965,116.965,0,0,0,9.132,10.026l7.5-7.476-.168-.979a64,64,0,0,1-1.071-8.464c0-.381.463-1.038,1.376-1.953a50.425,50.425,0,0,1,4.127-3.56c3.652-2.9,9.206-6.913,16.509-11.941l6.42-6.044-.685-2.082a11.948,11.948,0,0,1,2.974.537,12.6,12.6,0,0,1,2.755,1.228,7.511,7.511,0,0,1,3.477,3.917c.929,1.13,1.341,3.459,1.74,5.711a21.982,21.982,0,0,0,1.022,4.274c2.945.469,5.8,1.063,8.491,1.767a73.28,73.28,0,0,1,7.6,2.425,62.707,62.707,0,0,1,6.763,3.048,56.367,56.367,0,0,1,5.985,3.634,53.668,53.668,0,0,1,5.264,4.185,54.3,54.3,0,0,1,4.6,4.7,58.221,58.221,0,0,1,3.994,5.178,65.627,65.627,0,0,1,3.444,5.62,83.563,83.563,0,0,1,5.468,12.423,130.263,130.263,0,0,1,3.956,13.76c2.126,9.09,3.617,18.718,5.2,30.379,2.118,11.947,5.036,24.1,7.858,35.85v0c1.831,7.624,3.724,15.507,5.388,23.284,1.866,8.725,3.237,16.377,4.19,23.394a183.779,183.779,0,0,1,1.78,23.555c.029,4.024-.1,8.012-.392,11.853-.3,4.03-.791,8.038-1.449,11.912a25.2,25.2,0,0,1,2.459,4.418,4.616,4.616,0,0,1-.06,4.617,4.253,4.253,0,0,1-3.679,2.241h0c-.062,0-.127,0-.191,0-1.253-.11-2.524-.234-3.752-.353h-.009c-3.13-.3-6.365-.618-9.577-.738-6.517-.226-13.533-.336-21.448-.336-4.615,0-9.63.036-15.784.114l-1.692.022c-25.1.312-50.619.754-75.3,1.181h-.009c-36.813.637-74.88,1.3-112.323,1.539Zm63.626-102.073-3.105,22.521,7.466,16.081,16.911-5.7,27.554-7.263,15.811-16.041,8.919-2.994a16.41,16.41,0,0,0-.975,4.679,10.378,10.378,0,0,0,.845,4.662c2.322,4.568,9.318,6.908,13.947,8.456l.023.008a20.431,20.431,0,0,0,4.062,1.064,28.736,28.736,0,0,0,4.542.346,37.041,37.041,0,0,0,13.517-2.623,27.34,27.34,0,0,0,5.751-3.1,16.645,16.645,0,0,0,4.147-4.146c1.869-2.78,3.958-8.3,5.636-12.734v0c1.032-2.727,1.923-5.081,2.589-6.38l.511-7.16c.453-6.5.862-13.263.788-18.646-.082-5.982-.753-9.328-2.053-10.231-6.846-4.756-19.167-5.755-28.3-5.755-5.827,0-10.94.39-14.2.718a43.079,43.079,0,0,0-6.391.919c-.465.306-.859.537-1.206.741a5.333,5.333,0,0,0-2.239,2l-.489.065,2.752-3.732-.974-.52c-3.46-1.835-6.356-3.23-8.606-4.148a15.26,15.26,0,0,0-4.961-1.383c-1.089,0-2.772.857-5,2.549a87.3,87.3,0,0,0-8.442,7.646l-.6.276A106.139,106.139,0,0,0,155.1,116.91a30.29,30.29,0,0,0-6.065,4.572l-.1.1c-2.677,2.872-8.05,10.613-15.971,23.008l-11.526,6.816Zm77.263-23.686-4.166-7.977v-6.337a2.827,2.827,0,0,0,.331-.1c-.858,3.7.525,6.708,1.99,9.894a38.562,38.562,0,0,1,1.847,4.523Z" transform="translate(1.936 23.933)" fill="#3f6e9e"/><path d="M56.139,266.022a2.814,2.814,0,0,1-1.3-.319l-.094-.052-.158-.09a3.153,3.153,0,0,1-1.268-1.474,2.612,2.612,0,0,1-.116-1.927,43.34,43.34,0,0,0,1.377-4.938c.34-1.439.692-2.926,1.171-4.349l-.811.363-1.069.466a105.7,105.7,0,0,1-13.426,4.92,51.6,51.6,0,0,1-14.021,2.116A36.587,36.587,0,0,1,16.87,259.5a25.057,25.057,0,0,1-7.819-3.56,18.192,18.192,0,0,1-5.734-6.325,25.652,25.652,0,0,1-2.61-8.148,64.468,64.468,0,0,1-.664-8.579,134.362,134.362,0,0,1,1.122-21.094A128.1,128.1,0,0,1,3.7,197.748a3.471,3.471,0,0,1-1.15-2.214,40.977,40.977,0,0,1,.639-10.9v-.01c.121-.816.246-1.66.355-2.48.608-4.556,1.236-8.752,1.92-12.83,1.487-8.875,3.195-17.529,5.074-25.72,1.711-7.457,3.738-15.031,6.027-22.511,2.237-7.314,4.782-14.73,7.564-22.043l.484-1.265c2.877-7.48,5.642-13.882,8.453-19.57a135.905,135.905,0,0,1,10.8-18.361,82.851,82.851,0,0,1,6.223-7.914,47.444,47.444,0,0,1,7.442-6.745,64.439,64.439,0,0,1,17.161-8.553,93.191,93.191,0,0,1,9.231-2.619c3.025-.695,6.2-1.27,9.441-1.711.96-.131,1.945-.256,2.9-.377,5.537-.7,11.263-1.433,16.388-3.686a2.813,2.813,0,0,1-.179-2.222,3.442,3.442,0,0,1,1.353-1.833,96.322,96.322,0,0,0,10.649-8.631c.5-.443,1.009-.9,1.517-1.351a1.118,1.118,0,0,1,.747-.3,1.138,1.138,0,0,1,.956.544,1.054,1.054,0,0,1,.006,1.072,43.7,43.7,0,0,1-4.457,7.055c-1.106,1.371-2.288,2.659-3.4,3.847a65.434,65.434,0,0,1,7.854,8.653l.148.184c.752.935,1.5,1.891,2.23,2.816a100.71,100.71,0,0,0,7.3,8.606,31.3,31.3,0,0,0,5.486,4.471,30.615,30.615,0,0,0,6.355,3.075l.929.322a36.844,36.844,0,0,1,6.836,3.061,15.025,15.025,0,0,1,5.324,5.125.957.957,0,0,1,0,.986,1.062,1.062,0,0,1-.9.55.93.93,0,0,1-.5-.145,34.639,34.639,0,0,0-9.314-3.543c-1.8-.493-3.667-1-5.452-1.673a35.121,35.121,0,0,1-6.695-3.38,39.6,39.6,0,0,1-5.875-4.673,100.915,100.915,0,0,1-8.3-9.4l-.013-.016c-.529-.652-1.076-1.325-1.617-1.985a85.741,85.741,0,0,0-10.327-10.426,39.553,39.553,0,0,1-9.2,4.459c-3.1,1.08-6.319,1.9-9.9,2.788l-.733.181c-3.918.97-7.1,1.855-10.011,2.784a84.836,84.836,0,0,0-9.7,3.709,78.934,78.934,0,0,0-8.164,4.28,46.8,46.8,0,0,0-7.391,5.482c-4.95,4.543-8.775,10.411-11.972,15.555a149.894,149.894,0,0,0-9.987,19.247c-2.555,5.845-5.033,12.28-7.8,20.253-2.444,7.047-4.729,14.289-6.792,21.525-2.046,7.177-3.928,14.534-5.592,21.868-1.637,7.217-3.011,14.594-4.2,22.551-.538,3.6-1.026,7.29-1.452,10.961-.11.947-.2,1.918-.288,2.856v.008a41.825,41.825,0,0,1-1.468,8.828,3.27,3.27,0,0,1-1.148,1.694,2.763,2.763,0,0,1-1.653.533c-.047,0-.1,0-.143,0l-.247,3.088c-.315,3.959-.631,8.176-.736,12.376-.187,7.531-.056,14.278.4,20.626l.07.937a37.877,37.877,0,0,0,1.247,7.666,14.882,14.882,0,0,0,3.784,6.658,16.815,16.815,0,0,0,7.079,3.935,30.029,30.029,0,0,0,8.1,1.134c.168,0,.335,0,.5,0a44.078,44.078,0,0,0,8.6-.895,63.665,63.665,0,0,0,8.405-2.332A166.592,166.592,0,0,0,59,244.919l1.341-.629c5.49-2.572,11.054-5.355,16.538-8.273,5.34-2.841,10.762-5.894,16.114-9.073s10.735-6.518,16.023-9.937c2.568-1.661,5.162-3.38,7.712-5.11.509-.345,1.016-.708,1.507-1.058h0c.913-.652,1.857-1.326,2.825-1.9a2.39,2.39,0,0,1-.724-1.244,1.878,1.878,0,0,1,.281-1.434,14.656,14.656,0,0,1-2.769-3.283,20.651,20.651,0,0,1-1.915-3.988,28.852,28.852,0,0,1-1.616-8.514,70.652,70.652,0,0,1,.759-11.193l0-.019c.071-.586.145-1.193.215-1.788.263-2.24.586-4.451.9-6.507.054-.359.1-.717.152-1.1.068-.516.139-1.05.227-1.576-5.743,3.156-11.686,6.2-17.663,9.057-5.9,2.816-12,5.527-18.144,8.058-6.078,2.5-12.323,4.81-19.094,7.048l-1.307.43c-3.7,1.211-6.558,2.087-9.266,2.838-3.417.948-6.5,1.667-9.421,2.2a.322.322,0,0,1-.057.005.383.383,0,0,1-.358-.3.255.255,0,0,1,.164-.3c4.087-1.8,8.334-3.445,12.442-5.033,2.08-.8,4.232-1.636,6.335-2.478l1.027-.418a2.059,2.059,0,0,1-.368-.053c-2.594-.626-5.206-1.5-7.733-2.351l-.006,0c-1.037-.348-2.108-.708-3.157-1.042s-2.158-.636-3.232-.928a35.64,35.64,0,0,1-6.971-2.415.218.218,0,0,1-.121-.248.283.283,0,0,1,.249-.225c.351-.024.719-.037,1.094-.037a38.5,38.5,0,0,1,7.293.968c.817.161,1.588.314,2.359.449l1.291.226c1.979.349,4.278.768,6.525,1.326A2.758,2.758,0,0,1,59.5,183.2c5.244-3.883,5.684-11.046,6.072-17.366v0c.08-1.295.155-2.518.268-3.688l.5-5.164c.848-8.717,1.8-17.985,3.224-27.043a.344.344,0,0,1,.361-.3.441.441,0,0,1,.459.411c.05,7.618-.335,15.341-.707,22.809-.171,3.432-.348,6.981-.48,10.478l-.065,1.821-.01.287c-.229,6.76-.465,13.749-4.719,18.947a1.752,1.752,0,0,1,.869-.241,1.329,1.329,0,0,1,1.038.47,3.556,3.556,0,0,1,.936,2.3c3.754-1.574,7.671-3.263,11.642-5.022,6.1-2.7,12.3-5.638,18.424-8.725,5.961-3,12.013-6.232,17.988-9.6a2.258,2.258,0,0,1,3.115.792l.091-.013.046,0,.09,0h.01a3.577,3.577,0,0,1,1.744-.426,5.481,5.481,0,0,1,3.622,1.5c.035.033.066.07.094.1l.021.024a19.2,19.2,0,0,0,5.034-3.3,40.433,40.433,0,0,0,4.366-4.689c1.226-1.526,2.453-3.227,3.75-5.2,1.062-1.617,2.1-3.307,3.108-4.942,1.526-2.48,3.1-5.044,4.813-7.444a43.1,43.1,0,0,1,5.74-6.684,34.47,34.47,0,0,1,7.765-5.367,47.334,47.334,0,0,1,8.821-3.382.6.6,0,0,1,.165-.494.85.85,0,0,1,.584-.333.831.831,0,0,1,.357.1.145.145,0,0,1,.065.061l.594-1.016c.432-.734.678-1.132.773-1.253.687-.865,1.4-1.734,2.126-2.582a18.342,18.342,0,0,1,4.239-3.841,8.026,8.026,0,0,1,4.324-1.2,21.719,21.719,0,0,1,6.529,1.425l.049.016c1.434.468,2.888.954,4.294,1.425l.038.013c.739.247,1.5.5,2.255.752l.226.074.423.134a11.789,11.789,0,0,1,2.254.878,3.432,3.432,0,0,1,1.808,3.8,74.092,74.092,0,0,1,18.229-2.17,95.264,95.264,0,0,1,15.145,1.256A110.425,110.425,0,0,1,246.633,125a1.836,1.836,0,0,1,1.286,1.286,110.766,110.766,0,0,1,1.81,13.506,88.113,88.113,0,0,1-.084,13.62,76.949,76.949,0,0,1-1.87,11.58,62.577,62.577,0,0,1-3.812,11.084l-.186.4a48.542,48.542,0,0,1-6.051,10.164,24.1,24.1,0,0,1-4.216,4.158,15.484,15.484,0,0,1-5.107,2.586,21.912,21.912,0,0,1-6.006.713c-1.759,0-3.546-.127-5.275-.25-.907-.065-1.846-.131-2.752-.177-1-.05-2.023-.092-3.012-.132h0a89.864,89.864,0,0,1-10.39-.824,16.564,16.564,0,0,1-5.457-1.824,13.832,13.832,0,0,1-4.333-3.75,27,27,0,0,1-4.1-9.392c-.475.151-.866.288-1.228.429a13.5,13.5,0,0,0-4.457,3.006c-1.248,1.209-2.389,2.557-3.492,3.862a43.522,43.522,0,0,1-4.293,4.6,32.955,32.955,0,0,1-8.784,5.483,57.558,57.558,0,0,1-8.363,2.8c-2.842.74-5.773,1.345-8.608,1.931l-.024,0c-1.22.252-2.482.513-3.72.781l-.488.106c-2.2.484-5.092,1.155-7.881,2.065a37.053,37.053,0,0,0-7.418,3.255,3.169,3.169,0,0,1-1.049,2.065,2.638,2.638,0,0,1,.8,1.427,2.369,2.369,0,0,1-.354,1.708c-1.684,2.672-4.41,4.4-7.046,6.065l0,0c-.51.323-1.038.657-1.546.99l-.2.134c-3.049,2.021-6.167,4.03-9.268,5.971-6.073,3.8-12.4,7.5-19.353,11.293-5.4,2.948-10.774,5.765-15.983,8.374-5.49,2.749-10.974,5.356-16.3,7.75a36.21,36.21,0,0,1,.542,5.406,44.35,44.35,0,0,0,.37,4.431l.076.465a3.162,3.162,0,0,1-.908,3.012l-.088.081,0-.011-.078.072-.026.022.009-.007a2.81,2.81,0,0,1-.3.24l-.129.083A2.608,2.608,0,0,1,56.139,266.022Zm62.893-96.977c0,.268,0,.544.006.788,0,.4,0,.77.013,1.142.045,1.69.067,3.491.067,5.355,0,1.35-.026,2.721-.052,4.048-.045,2.35-.092,4.78.007,7.167a31.952,31.952,0,0,0,.553,4.986,16.924,16.924,0,0,0,1.639,4.723,12.719,12.719,0,0,0,2.018,2.784,19.007,19.007,0,0,0,2.535,2.186,41.2,41.2,0,0,1,7.223-3.438,69.653,69.653,0,0,1,7.728-2.309c2.065-.5,4.181-.958,6.228-1.4h0a116.565,116.565,0,0,0,12.765-3.258,33.58,33.58,0,0,0,8.433-4.109,35.289,35.289,0,0,0,6.488-6.361l.022-.026.508-.591.338-.39c2.148-2.463,4.571-4.934,7.736-6.327a23.782,23.782,0,0,1,3.344-1.076,14.591,14.591,0,0,0,5.233-2.147c1.2-.939,1.325-2.273,1.453-3.686l.008-.083a7.2,7.2,0,0,1-1.028.069,18.655,18.655,0,0,1-2.561-.24h-.005c-.331-.046-.673-.094-1-.133l-.777-.091a31.544,31.544,0,0,1-4.2-.715.274.274,0,0,1,0-.525,34.953,34.953,0,0,1,4.772-.782l.2-.024.4-.049.586-.08h0a18.879,18.879,0,0,1,2.562-.238,6.732,6.732,0,0,1,1.487.151,12.682,12.682,0,0,1,1.2-2.982c.232-.417.522-.844.83-1.3a8.018,8.018,0,0,0,1.581-3.248,2.62,2.62,0,0,0-.28-1.471l-.078-.145a1.223,1.223,0,0,0-.373-.449.318.318,0,0,1-.141.072,2.269,2.269,0,0,1-2.7-1.073,42.7,42.7,0,0,1-4.622.229c-.79.011-1.536.021-2.255.052l-2.153.1c-.708.033-1.641.07-2.574.07a20.256,20.256,0,0,1-4.292-.383.38.38,0,0,1-.275-.349.328.328,0,0,1,.184-.348,31.048,31.048,0,0,1,7.584-1.765c.377-.056.767-.113,1.141-.171,1.057-.162,2.137-.3,3.182-.436l.026,0c.516-.066,1.05-.135,1.575-.206.34-.046.693-.1,1.036-.157h0a21.392,21.392,0,0,1,2.247-.279,6.362,6.362,0,0,0,1.309-2.893,7.092,7.092,0,0,0-.14-3.079,6.912,6.912,0,0,0-1.353-2.627,5.806,5.806,0,0,0-2.381-1.723,4.227,4.227,0,0,1-1.758.349,12.576,12.576,0,0,1-1.5-.123h-.005c-.294-.036-.6-.072-.913-.1-1.7-.145-3.1-.213-4.421-.213h-.161a37.955,37.955,0,0,0-3.8.278,37.438,37.438,0,0,1-3.923.281,14.24,14.24,0,0,1-1.629-.087.809.809,0,0,1-.649-.548.513.513,0,0,1,.187-.567,11.456,11.456,0,0,1,4.067-2.019,30.9,30.9,0,0,1,4.537-.9l.612-.082c.267-.035.553-.075.83-.113.795-.11,1.693-.235,2.609-.318a1.959,1.959,0,0,1,1.548-1.069c.2-.028.412-.046.613-.063l.067-.006,0-.022a1.368,1.368,0,0,0,1.139-.687,4.838,4.838,0,0,0,.126-3.736,4.255,4.255,0,0,0-2.766-2.306,12.685,12.685,0,0,0-3.95-.526c-.582,0-1.185.022-1.9.07a56.527,56.527,0,0,0-10.223,1.634,44.762,44.762,0,0,0-9.67,3.641,29.924,29.924,0,0,0-7.948,6.155,55.942,55.942,0,0,0-6.108,8.033l-.174.27c-.6.93-1.206,1.909-1.793,2.856l0,.006c-1.518,2.446-3.087,4.976-4.866,7.291a27.191,27.191,0,0,1-6.139,6.039,28.884,28.884,0,0,1-9.782,4.56,1.794,1.794,0,0,1-1.143.881l-.238.055a14.9,14.9,0,0,1-3.026.363A8.067,8.067,0,0,1,119.032,169.045ZM62.683,188.661a1.519,1.519,0,0,1-.107.145l-.059.068.305-.124Zm146.065-65.93c-3.432,0-6.926.092-10.211.187a5.567,5.567,0,0,1-1.9,2.673,5.23,5.23,0,0,1-3.015,1.186,8.839,8.839,0,0,1,1.387,4.239,9.34,9.34,0,0,1-.723,4.354,11.61,11.61,0,0,1,3.376,2.051,10.794,10.794,0,0,1,2.5,3.2,11.17,11.17,0,0,1,.968,2.664,10.893,10.893,0,0,1,.257,2.713,11.567,11.567,0,0,1-1.438,5.179,7.007,7.007,0,0,1,1.751,2.561,7.486,7.486,0,0,1,.555,3.1c-.088,2.056-1.177,3.841-2.23,5.566-.136.222-.276.452-.41.676a12.16,12.16,0,0,0-1.481,4.987c-.058.407-.118.828-.19,1.266a7.986,7.986,0,0,1-2.012,4.187,11.193,11.193,0,0,1-3.816,2.595l.157.62a31.416,31.416,0,0,0,1.417,4.444,11.814,11.814,0,0,0,2.482,3.845c2.6,2.591,6.557,2.762,10.046,2.913l.836.037.179.009c2.77.138,5.584.3,8.307.454h.027l1.863.106,2.549.142c.8.044,1.742.089,2.669.089a16.66,16.66,0,0,0,4.278-.47,10.191,10.191,0,0,0,3.917-1.964,29.991,29.991,0,0,0,6.633-7.962,55.41,55.41,0,0,0,4.419-9.435A63.378,63.378,0,0,0,244.612,159,74.728,74.728,0,0,0,245.8,148.77a90.617,90.617,0,0,0-.108-10.333c-.218-3.308-.614-6.756-1.177-10.247a113.006,113.006,0,0,0-22.533-4.836A122.329,122.329,0,0,0,208.748,122.731Zm-25.993-.678a19.012,19.012,0,0,1,4.645.521,11.193,11.193,0,0,1,4.038,1.879l.014-.025c.007-.013.013-.025.021-.037a10.184,10.184,0,0,1,1.283-1.5l.015-.016c.044-.041.087-.085.134-.133l.259-.275-.592-.2c-.9-.319-1.913-.7-2.518-.928-.244-.092-.419-.158-.488-.183l-.016-.006-.825-.279h0c-1.317-.445-2.68-.906-4.013-1.378-.238-.084-.473-.172-.721-.266a9.688,9.688,0,0,0-3.31-.821,4.12,4.12,0,0,0-.657.051,7.819,7.819,0,0,0-3.108,1.372,30.459,30.459,0,0,0-2.839,2.3l0,0c-.5.435-.964.845-1.428,1.221l1.093-.212A48.646,48.646,0,0,1,182.755,122.053Zm73.767,143.6a1.172,1.172,0,0,1-.729-.251,1.067,1.067,0,0,1-.4-.742l-.174-1.675a28.39,28.39,0,0,0-1.2-6.256,34.514,34.514,0,0,1-1.526-7.4c-.448-3.962-.647-8.024-.813-11.846l-.117-2.735c-.37-8.546-.528-16.9-.469-24.823.063-8.508.379-16.856.937-24.81l.085-1.179c.351-4.778.694-8.437,1.111-11.864.535-4.389,1.184-8.278,1.986-11.89,1.951-8.786,4.839-16.008,8.831-22.077a.288.288,0,0,1,.246-.136.3.3,0,0,1,.237.113.282.282,0,0,1,.048.247c-2.008,8.225-4.046,17.062-5.353,25.963-.514,3.5-.907,7.077-1.2,10.945-.263,3.445-.442,7.039-.547,10.988-.2,7.336-.1,14.8,0,22.022v.07c.016,1.219.032,2.479.047,3.718l.01.824c.087,7.618.216,16.633.517,25.729.035,1.046.078,2.112.12,3.143.132,3.251.269,6.611.153,9.9a29.392,29.392,0,0,1-.5,3.954c-.166.959-.338,1.951-.433,2.946a34.342,34.342,0,0,0,.022,5.088c.017.323.037.688.054,1.041a.939.939,0,0,1-.236.713A.958.958,0,0,1,256.522,265.657Zm42.727-.717a3.452,3.452,0,0,1-2.5-1.017,2.476,2.476,0,0,1-.67-1.9,257.758,257.758,0,0,0,.642-28.555c-.429-9.431-1.326-19.029-2.665-28.527-.833-5.9-1.987-11.85-3.1-17.6-.39-2.007-.792-4.082-1.178-6.139l-.232-1.248c-1.159-6.276-2.371-12.652-3.544-18.818l0-.012-.252-1.326-1.908-10.056c-2.606-13.723-5.672-29.656-9.071-45.09l-.2-.88A139.271,139.271,0,0,0,268.167,82.2a81.611,81.611,0,0,0-4.858-10.152,61.533,61.533,0,0,0-6.385-9.19,51.652,51.652,0,0,0-3.87-4.091c-1.309-1.242-2.727-2.459-4.214-3.617a72.864,72.864,0,0,0-9.245-6.071c-2.9-1.626-6.165-3.247-9.978-4.955-3.5-1.567-7.1-3.051-10.281-4.361a.5.5,0,0,1-.315-.567.426.426,0,0,1,.428-.36.592.592,0,0,1,.136.017l1.1.263c7.689,1.842,15.843,3.949,23.57,7.638A50.782,50.782,0,0,1,254.7,53.433a55.054,55.054,0,0,1,8.585,8.934,75.781,75.781,0,0,1,11.1,21.029,174.961,174.961,0,0,1,6.121,23.1c1.717,8.278,3.388,16.71,5,24.864,1.773,8.944,3.606,18.192,5.505,27.271l.674,3.232c2.018,9.705,3.5,17.191,4.819,24.272,1.642,8.844,2.967,16.831,4.052,24.416l.168,1.186a251.519,251.519,0,0,1,2.45,25.523c.17,4.453.164,8.768-.018,12.826a120.835,120.835,0,0,1-1.229,12.729,2.371,2.371,0,0,1-.952,1.614A2.928,2.928,0,0,1,299.249,264.94Zm-116.583-14.2a1.84,1.84,0,0,1-1.76-1.258,21.31,21.31,0,0,1-.831-6.256c-.01-2.158.177-4.331.358-6.432v-.006c.053-.617.1-1.2.149-1.784l.28-3.6c.248-3.233.532-7.047.75-10.82.29-4.99.533-10.072.752-14.82.071-1.527.149-3.1.239-4.814l.13-2.406c.015-.264.027-.536.04-.8a14.54,14.54,0,0,1,.9-5.284.658.658,0,0,1,.628-.373.777.777,0,0,1,.688.373,14.645,14.645,0,0,1,1.239,5.632v.009c.017.2.035.408.053.608l.02.213c.288,3.046.467,5.39.581,7.6.246,4.82.363,9.679.348,14.44-.018,5.536-.142,10.378-.381,14.8l-.072,1.322a57.24,57.24,0,0,1-.671,6.608,20.2,20.2,0,0,1-2.016,6.2A1.575,1.575,0,0,1,182.666,250.738ZM15.7,216.411a.2.2,0,0,1-.062-.01,1.815,1.815,0,0,1-1.188-.937,3.056,3.056,0,0,1,.268-2.419A33.436,33.436,0,0,1,19.3,206.1l.03-.038.5-.641a63.887,63.887,0,0,1,5.913-6.576l.622-.6c.24-.235.485-.483.744-.745a23.532,23.532,0,0,1,2.833-2.567,5.7,5.7,0,0,1,3.315-1.263c.084,0,.168,0,.251.008a1.7,1.7,0,0,1,1.609,2.112c-.389,1.848-1.939,3-3.439,4.107-.428.317-.832.616-1.212.932-1.912,1.589-3.687,3.263-5.489,4.981-1.546,1.473-3.053,3-4.608,4.677l-.558.6c-.095.1-.3.3-.549.548l0,0c-1.206,1.18-3.715,3.634-3.377,4.369l.022.04a.21.21,0,0,1,.006.221A.247.247,0,0,1,15.7,216.411Zm147.019-47.855a3.493,3.493,0,0,1-2.451-1.04,5.554,5.554,0,0,1-1.423-2.491,10.3,10.3,0,0,1-.217-2.906,8.345,8.345,0,0,0-.378-3.337,9.584,9.584,0,0,0-.847-1.495,10.039,10.039,0,0,1-.833-1.457,9.615,9.615,0,0,1-.742-3.244,8.3,8.3,0,0,1,.505-2.748c.4-1.341.814-2.728.192-3.871a.8.8,0,0,1,.034-.766.58.58,0,0,1,.507-.306h.014l.057,0a3.3,3.3,0,0,1,2.007,1,4.478,4.478,0,0,1,1.1,2.024,18.5,18.5,0,0,1,.379,2.171,8.807,8.807,0,0,0,1.286,4.126,12,12,0,0,1,2.488,6.323c.026.326.041.657.055.977v0a12.157,12.157,0,0,0,.227,2.169l.171.726a6.8,6.8,0,0,1,.24,2.351,1.731,1.731,0,0,1-1.212,1.592A3.8,3.8,0,0,1,162.717,168.556ZM89.183,130.483a28.737,28.737,0,0,1-4.452-.311.368.368,0,0,1-.322-.359.5.5,0,0,1,.322-.516,51.214,51.214,0,0,1,8.971-1.563c.687-.078,1.4-.159,2.089-.245,3.21-.4,7.433-.94,11.625-1.594s7.962-1.3,11.555-1.965c1.725-.321,3.474-.661,5.2-1.011.367-.075.737-.168,1.129-.268a11.222,11.222,0,0,1,2.684-.456,3.83,3.83,0,0,1,1.423.25,1.439,1.439,0,0,1,.894,1.014,1.158,1.158,0,0,1-.341,1.078,6.6,6.6,0,0,1-3.916,1.483c-.272.041-.552.084-.825.132l-.148.027c-1.959.363-3.968.715-5.971,1.047-3.816.632-7.611,1.182-11.281,1.636-4.341.537-8.152.939-11.649,1.228l-1.506.124C92.912,130.354,91.039,130.483,89.183,130.483Zm93.777-17.927a1.358,1.358,0,0,1-1.183-.68,31.419,31.419,0,0,1-3.043-8.258c-.377-1.419-.766-2.886-1.246-4.284-.626-1.824-1.305-3.664-1.962-5.444v0c-.808-2.189-1.643-4.452-2.387-6.7a50.565,50.565,0,0,1-2.023-8.124,31.273,31.273,0,0,1-.246-8.317l-.017-.029a.689.689,0,0,1-.037-.068l-.442-.967a21.02,21.02,0,0,0-4.564-6.995c-.557-.53-1.134-1.054-1.693-1.56a30.249,30.249,0,0,1-4.878-5.183,12,12,0,0,1-1.6-3.345,14.07,14.07,0,0,1-.567-3.455,37.5,37.5,0,0,1,.6-7.112c.217-1.46.44-2.969.552-4.449l.054-.768c.1-1.483.089-3.113-.717-3.967a6.927,6.927,0,0,0-3.18-1.357c-.473-.12-.919-.234-1.284-.363a71.415,71.415,0,0,1-9.579-4.132,60.8,60.8,0,0,1-8.4-5.248l-1.338-1.006a23.573,23.573,0,0,1-5.715-5.5.343.343,0,0,1,0-.355.354.354,0,0,1,.3-.2.289.289,0,0,1,.109.022,33.741,33.741,0,0,1,5.083,2.792l.005,0c.537.336,1.093.684,1.642,1.014a2.694,2.694,0,0,1,.12-.245,28.032,28.032,0,0,0,2.9-7.774,29.168,29.168,0,0,0,.522-8.284A1.994,1.994,0,0,1,139.22.657,2.223,2.223,0,0,1,140.862,0a2.616,2.616,0,0,1,1.631.554,2.288,2.288,0,0,1,.851,1.658A32.7,32.7,0,0,1,139.294,20.6c-.015.027-.031.052-.047.077l-.025.039c2.258,1.175,4.138,2.08,5.915,2.847,2.76,1.191,5.327,2.165,7.85,2.975.682.219,1.393.4,2.145.586a13.607,13.607,0,0,1,5.26,2.109,6.9,6.9,0,0,1,2.126,2.928,11.133,11.133,0,0,1,.695,3.663,35.778,35.778,0,0,1-.823,7.612c-.051.276-.1.561-.152.836l-.128.722c-.4,2.312-.71,4.759.288,7.031.972,2.214,2.836,3.885,4.638,5.5l.02.018.459.412.387.35a25.55,25.55,0,0,1,4.873,5.512,33.377,33.377,0,0,1,3.757-5.686l.005-.007c.181-.237.368-.483.554-.728.944-1.246.575-1.825-.036-2.785-.143-.225-.305-.48-.466-.767a8.217,8.217,0,0,1-.871-2.245,6.581,6.581,0,0,1-.077-2.4,7.167,7.167,0,0,1,.688-2.134,9.29,9.29,0,0,1,1.242-1.844,16.978,16.978,0,0,1,3.4-2.932,60.118,60.118,0,0,1,5.209-3.059c1.265-.687,2.573-1.4,3.819-2.162a123.29,123.29,0,0,0,17.359-12.751.18.18,0,0,1,.121-.046.2.2,0,0,1,.176.1.155.155,0,0,1-.012.165,67.672,67.672,0,0,1-15.248,16.672c-2.1,1.629-4.347,3.051-6.516,4.427l-1.147.729-.749.481a7.015,7.015,0,0,0-2.826,2.739c-.363.885.148,1.615.642,2.322.154.221.314.449.444.678a7.147,7.147,0,0,1,.841,2.252,6.155,6.155,0,0,1,0,2.17,9.257,9.257,0,0,1-2,4.074l-.1.119a19.279,19.279,0,0,0-4.337,8.085,25.427,25.427,0,0,0,.006,10.467A66.615,66.615,0,0,0,179.6,89.9l.092.256c.3.85.62,1.712.924,2.546l0,.01c.949,2.6,1.93,5.286,2.755,7.975l.3.983c.994,3.287,1.794,6.515.69,9.864A1.476,1.476,0,0,1,182.96,112.556Zm12.374-46.882c-.3,0-.613-.011-.92-.034a12.4,12.4,0,0,1-5.2-1.492,11.471,11.471,0,0,1-1.834-1.464c-1.171-1.062-2.381-2.159-3.721-2.159a2.423,2.423,0,0,0-.75.12.217.217,0,0,1-.067.011.277.277,0,0,1-.245-.19.212.212,0,0,1,.064-.246,3.114,3.114,0,0,1,2.017-.736,8.8,8.8,0,0,1,4.04,1.563,13.238,13.238,0,0,0,2.486,1.229,9.684,9.684,0,0,0,10.64-3.354,107.982,107.982,0,0,0,7.394-10.792,52.336,52.336,0,0,0,3.087-5.779,19.718,19.718,0,0,0,1.092-3.516,25.513,25.513,0,0,1,.77-2.722,2.633,2.633,0,0,1,1.088-1.34,3.017,3.017,0,0,1,1.582-.448,2.485,2.485,0,0,1,1.813.72,2.292,2.292,0,0,1,.576,1.753,18.069,18.069,0,0,1-1.809,6.07q-.119.276-.237.551l-.1.229a42.462,42.462,0,0,1-3.339,6.363,80.848,80.848,0,0,1-8.533,10.947,15.187,15.187,0,0,1-4.473,3.436A12.16,12.16,0,0,1,195.334,65.674Zm22.5-32.9a2.352,2.352,0,0,1-1.623-.716,45.844,45.844,0,0,1-4.93-5.436,22.326,22.326,0,0,1-3.521-6.388.39.39,0,0,1,.062-.357.47.47,0,0,1,.371-.2.373.373,0,0,1,.207.061,31.912,31.912,0,0,1,3.463,2.747h0c.52.453,1.058.922,1.6,1.363,1.869,1.528,3.763,3.032,5.629,4.471a2.662,2.662,0,0,1,.977,1.354,2.322,2.322,0,0,1-.038,1.411A2.414,2.414,0,0,1,217.835,32.773ZM204.79,25.256a2.392,2.392,0,0,1-1.5-.545,15.986,15.986,0,0,1-5.221-7.677,16.908,16.908,0,0,1-.789-4.606,16.6,16.6,0,0,1,.52-4.686,2.069,2.069,0,0,1,2.085-1.637,2.585,2.585,0,0,1,1.986.925,2.111,2.111,0,0,1,.392,1.852l-.021.085a11.766,11.766,0,0,0,.262,6.8,12.508,12.508,0,0,0,3.909,5.576l.135.109a2.044,2.044,0,0,1,.727,1.029,1.777,1.777,0,0,1-.044,1.079A2.674,2.674,0,0,1,204.79,25.256Z" transform="translate(0 8.9)"/></g><g transform="translate(-808.686 1595.76)"><g transform="translate(0 0)"><path d="M131.766,59.978c-.833-7.319.245-22.617.317-23.547.457-5.876-2.3-29.078-7.5-26.94-8.73-6.911-20.358-8.437-31.232-9.166C70.766-1.19,46.739,2.286,29.3,17.486c-8.625,7.893-17.021,19.374-16.346,31.327C5.118,60.143-5.929,75.686,3.834,88.932c3.319,4.232,8.593,5.808,12.762,9.013,8.386,6.764,13.647,16.471,22.112,23.194,22.428,20.153,60.51,24.363,82.545,1.441,17.039-16.6,14.284-41.438,11.287-62.6C130.525,45.749,133.391,74.257,131.766,59.978Z" transform="translate(25.152 57.655)" fill="#d08b5b"/><path d="M96.859,171.522a51.869,51.869,0,0,1-7.364-.54,40.8,40.8,0,0,1-8.316-2.012,15.77,15.77,0,0,1-3.9-2.058,17.5,17.5,0,0,1-3.172-3.046,2.435,2.435,0,0,1-.261-2.444,1.5,1.5,0,0,1,1.405-.914,2,2,0,0,1,.241.015,45.723,45.723,0,0,1,8.135,1.6l.389.123a40.29,40.29,0,0,0,8.335,1.788c1.429.138,2.879.209,4.309.209a42.732,42.732,0,0,0,12.915-1.969,37.494,37.494,0,0,0,6.517-2.778,40.071,40.071,0,0,0,5.9-3.92,41.893,41.893,0,0,0,9.384-10.564,41,41,0,0,0,5.5-15.076,92.591,92.591,0,0,0,1-16.144c-.088-11.567-.465-23.668-1.118-35.967l-.108-2c-.277-5.065-.634-11.744-.948-18.5-.1-2.263-.253-4.111-.469-5.816a15.314,15.314,0,0,1-5.537-5.336,54.571,54.571,0,0,1-7.91,2.488,47.357,47.357,0,0,1-11.3,1.387,44.573,44.573,0,0,1-6.648-.5c-1.6.662-3.259,1.252-4.926,1.755-.463.205-.918.4-1.353.589a82.2,82.2,0,0,1-12.355,4.249l-1.044.261a42.7,42.7,0,0,1-7.043,1.264,10.267,10.267,0,0,1-1.274.391,20.7,20.7,0,0,1-4.881.58c-.583,0-1.173-.025-1.755-.073a3.277,3.277,0,0,1-2.635-1.7,2.691,2.691,0,0,1-.311-1.3,2.89,2.89,0,0,1,.411-1.415c.86-1.476,1.747-2.98,2.635-4.469a83.026,83.026,0,0,1-9.48,3.258c-2.861.806-5.982,1.565-9.825,2.391-.872.186-1.76.364-2.62.537h-.006c-.873.175-1.775.356-2.659.545-.28.06-.593.112-.923.169a7.5,7.5,0,0,0-3.291,1.066c-.879.706-1.263,2.115-1.6,3.358-.1.353-.187.686-.283.98-.6,1.81-1.118,3.488-1.579,5.131a106.567,106.567,0,0,0-2.364,10.467,100.429,100.429,0,0,0-1.25,10.68c-.094,1.474-.133,2.977-.17,4.43-.054,2.071-.109,4.212-.325,6.3a2.485,2.485,0,0,1-.746,1.557,2.128,2.128,0,0,1-1.461.591,2.283,2.283,0,0,1-1.515-.608c-.169-.149-.35-.309-.528-.469l-.262-.239a26.694,26.694,0,0,1-3.548-3.777c-.182-.25-.36-.517-.53-.793a.127.127,0,0,1-.077-.027l-.284-.214c-2.985-2.222-5.553-3.348-7.634-3.348a4.61,4.61,0,0,0-3.775,1.852A12.017,12.017,0,0,0,10.7,97.84l-.725,2.71a47.072,47.072,0,0,0-1.168,5.359,20.52,20.52,0,0,0-.016,6.292,11.486,11.486,0,0,0,2.516,5.688,7.115,7.115,0,0,0,4.364,2.473,5.474,5.474,0,0,0,.753.049,13.317,13.317,0,0,0,1.731-.152h.01l.353-.046a5.805,5.805,0,0,1,.724-.041c.256,0,.514.012.765.024h0c.252.012.512.024.77.024.217,0,.412-.009.595-.026.059-.006.118-.009.175-.009a1.534,1.534,0,0,1,1.334.768,2.214,2.214,0,0,1,.119,2.077,7.029,7.029,0,0,1-1.087,1.606,12.546,12.546,0,0,1,.956.921,4.771,4.771,0,0,1,2.325,1.737,3.942,3.942,0,0,1,.789,2.151c.049.173.095.357.143.581l.83,1.347c.2.329.382.615.547.874a42.064,42.064,0,0,0,7.372,8.8c1.038.945,2.127,1.869,3.18,2.762a71.143,71.143,0,0,1,5.305,4.818l.311.325a20.315,20.315,0,0,1,3.324,4.3,7.01,7.01,0,0,1,.761,5.185,1.814,1.814,0,0,1-1.69,1.265,1.315,1.315,0,0,1-.791-.255,19.4,19.4,0,0,1-4.088-4.666,29.456,29.456,0,0,0-2.583-3.328c-1.255-1.333-2.6-2.619-3.9-3.863h0c-1.266-1.21-2.575-2.46-3.8-3.754a30.2,30.2,0,0,1-5.6-8.37,4.508,4.508,0,0,1-3.1,1.268,4.248,4.248,0,0,1-2.342-.72,4.791,4.791,0,0,1-1.634-1.844,14.66,14.66,0,0,1-1.652.627,3.335,3.335,0,0,1-.974.152,2.876,2.876,0,0,1-2.437-1.389,3.758,3.758,0,0,1-.572-1.7,3.654,3.654,0,0,1,.311-1.833,11.714,11.714,0,0,1,2.248-3.359,14.25,14.25,0,0,1-7.67-3.726A15.737,15.737,0,0,1,3.156,114.6a23.223,23.223,0,0,1-.425-4.753,29.91,29.91,0,0,1,.44-4.754,47.074,47.074,0,0,1,2.806-9.716c.242-.593.476-1.121.715-1.614a.5.5,0,0,1-.383-.186c-.292-.4-.61-.778-.917-1.145a11.2,11.2,0,0,1-1.614-2.287c-.128-.264-.262-.533-.392-.794a29.429,29.429,0,0,1-1.3-2.871A35.675,35.675,0,0,1,.362,78.331,61.362,61.362,0,0,1,.818,61.789,66.087,66.087,0,0,1,4.466,48.121a67.185,67.185,0,0,1,6.416-12.542,4.491,4.491,0,0,1-.8-.534l-.123-.108-.2-.181A3.31,3.31,0,0,1,8.71,32.35,3.807,3.807,0,0,1,9.761,29.6l.423-.424a11.216,11.216,0,0,1,1.862-1.533c.125-.084.256-.165.39-.241a3.7,3.7,0,0,1-.294-2.894,3.841,3.841,0,0,1,1.933-2.371,6.806,6.806,0,0,1,3.214-.709,11.5,11.5,0,0,1,4.79,1.092,61.928,61.928,0,0,1,12.558-8.7A120.166,120.166,0,0,1,51.775,6.586a147.955,147.955,0,0,1,17.985-4.8A81.7,81.7,0,0,1,85.96,0c.742,0,1.486.014,2.211.04l.475.018a54.451,54.451,0,0,1,7.506.7,18.51,18.51,0,0,1,7.061,2.59.884.884,0,0,1,.619-.266.756.756,0,0,1,.329.075A115.686,115.686,0,0,0,118.209,8.4l1.121.365a68.627,68.627,0,0,0,15.56,3.162,3.228,3.228,0,0,1,1.545.556,3.127,3.127,0,0,1,1.057,1.2,2.434,2.434,0,0,1-.171,2.482c-.31.475-.607.947-.882,1.387l.439-.046h0c.333-.035.678-.072,1.017-.106.07-.007.141-.011.212-.011a2.851,2.851,0,0,1,2.021.966,2.991,2.991,0,0,1,.87,2.148,28.86,28.86,0,0,1-.321,2.9h.111a4.313,4.313,0,0,1,1.688.327,4.1,4.1,0,0,1,2.461,3.195,15.188,15.188,0,0,1,.073,4.27,17.7,17.7,0,0,1-4.288,10.46,16.62,16.62,0,0,1,2.476,3.309,18.017,18.017,0,0,1,1.639,3.939,18.6,18.6,0,0,1,.758,6.454l-.052.647c-.211,2.468-.635,4.98-2.289,6.635a3.6,3.6,0,0,1-2.59,1.105c-.12,0-.242-.006-.363-.018.62,5.447,1.022,11.025,1.382,16.271l.174,2.591c.481,7.281.8,13.267,1.016,18.837.259,6.827.348,12.993.272,18.853a80.605,80.605,0,0,1-.562,8.708,60.082,60.082,0,0,1-1.628,8.437,48.225,48.225,0,0,1-2.949,8.023,43.142,43.142,0,0,1-4.523,7.467,48.606,48.606,0,0,1-5.423,6.05,47.78,47.78,0,0,1-6.342,5.038,46.09,46.09,0,0,1-7.109,3.867,44.141,44.141,0,0,1-7.724,2.539A45.044,45.044,0,0,1,96.859,171.522Zm-72.478-59h-.064a4.166,4.166,0,0,1-2.671-1.074,13.434,13.434,0,0,1-1.936-2.261c-.2-.265-.4-.539-.6-.8a2.657,2.657,0,0,1-.646.789l-.178.139a3.253,3.253,0,0,1-1.945.788l-.106,0a3.811,3.811,0,0,1-1.594-.43,2.889,2.889,0,0,1-1.314-1.536,3.308,3.308,0,0,1,1.183-3.931l-.234-.16a4.677,4.677,0,0,1-1.312-1.256l-.08-.128h.031a1.254,1.254,0,0,1,.72-1.85,3.761,3.761,0,0,1,1.167-.173,12.777,12.777,0,0,1,4.931,1.53l.446.206a26.471,26.471,0,0,1,6.179,4.284A3.435,3.435,0,0,1,27.239,110l-.014.069c-.019.093-.038.19-.06.287a2.646,2.646,0,0,1-1.034,1.54A2.981,2.981,0,0,1,24.381,112.523Z" transform="translate(18.572 25.152)"/></g><g transform="translate(55.333 78.163)"><path d="M32.089,74.678a3.4,3.4,0,0,1-3.017-2.315,3.274,3.274,0,0,1-.151-1.83,3.111,3.111,0,0,1,1.056-1.719l.1-.08a4.485,4.485,0,0,0,1.174-1.583,9.9,9.9,0,0,0,.7-2.142,17.568,17.568,0,0,0,.359-4.28,16.694,16.694,0,0,0-.812-4.436l-.1-.284c-.136-.385-1.51-3.777-2.142-3.777a.165.165,0,0,0-.11.043l-.027.028a.265.265,0,0,1-.2.105.275.275,0,0,1-.233-.144.289.289,0,0,1,.009-.3,1.486,1.486,0,0,1,1.26-.847c.69,0,1.9.57,3.726,3.286a22.968,22.968,0,0,1,2.283,4.223,19.819,19.819,0,0,1,.866,4.066,12.1,12.1,0,0,0,2.643.289,13.313,13.313,0,0,0,2.5-.241,13.235,13.235,0,0,0,4.559-2.011c.563-.342,1.146-.7,1.78-1.033a2.59,2.59,0,0,1,1.229-.3,3.722,3.722,0,0,1,3.037,1.794,3.078,3.078,0,0,1,.368,2.367,4.36,4.36,0,0,1-1.262,2.063,8.159,8.159,0,0,1-3.384,1.832,14.589,14.589,0,0,1-4.088.567,13.434,13.434,0,0,1-2.529-.229A12.923,12.923,0,0,1,36.9,65.834c0,.052-.005.1-.008.155-.006.124-.012.253-.022.379l-.027.308a17.418,17.418,0,0,1-.79,3.955,7.263,7.263,0,0,1-2.068,3.3A2.925,2.925,0,0,1,32.089,74.678ZM46.123,48.07h0a13.509,13.509,0,0,1-4.817-.971,24.329,24.329,0,0,1-5.665-3.214,2.177,2.177,0,0,1-.791-1.257,2.605,2.605,0,0,1,.112-1.412,3.212,3.212,0,0,1,.953-1.378,2.321,2.321,0,0,1,1.486-.58,2.108,2.108,0,0,1,1.149.353l.378.291.01.008a30.667,30.667,0,0,0,3.546,2.466,8.735,8.735,0,0,0,4.25,1.356,4.59,4.59,0,0,0,1.8-.353A5.019,5.019,0,0,0,50.2,42.192a5.129,5.129,0,0,0,.973-4.129,7.8,7.8,0,0,0-2.07-3.663,15.091,15.091,0,0,0-3.134-2.529.971.971,0,0,1-.263-1.117,1.458,1.458,0,0,1,.483-.7,1.482,1.482,0,0,1,.925-.306,1.969,1.969,0,0,1,.333.029,10.508,10.508,0,0,1,3.7,1.335,8.382,8.382,0,0,1,2.485,2.291,9.1,9.1,0,0,1,1.587,6.082,10.021,10.021,0,0,1-.813,3.192,9.314,9.314,0,0,1-1.832,2.743A8.755,8.755,0,0,1,46.123,48.07Zm-38.07-20.5a.457.457,0,0,1-.416-.256,6.445,6.445,0,0,1-.775-3.228,7.579,7.579,0,0,1,.8-3.139,10.268,10.268,0,0,1,2.956-3.585,9.608,9.608,0,0,1,4.158-1.911,10.5,10.5,0,0,1,1.827-.16,10.732,10.732,0,0,1,3.3.524,11.159,11.159,0,0,1,3.013,1.511l.179.129a11.43,11.43,0,0,1,3.1,3.277,5.453,5.453,0,0,1,.737,2.039,3.894,3.894,0,0,1-.322,2.142,1.734,1.734,0,0,1-.79.826,2.4,2.4,0,0,1-1.12.263,2.587,2.587,0,0,1-1.182-.279,5.159,5.159,0,0,1-1.919-2.2,6.834,6.834,0,0,0-1.521-1.99,6.458,6.458,0,0,0-3.943-1.439c-.157,0-.315.007-.469.021a6.722,6.722,0,0,0-4.485,2.493A14.934,14.934,0,0,0,8.6,27.192.6.6,0,0,1,8.053,27.574ZM68.222,26.6a3.085,3.085,0,0,1-1.721-.516,2.672,2.672,0,0,1-1.086-1.532c-.107-.395-.183-.779-.257-1.15a5.628,5.628,0,0,0-1.171-2.871,4.5,4.5,0,0,0-1.445-1.117,4.013,4.013,0,0,0-1.759-.407c-.09,0-.18,0-.27.009A6.151,6.151,0,0,0,56.628,20.9a9.767,9.767,0,0,0-1.139,1.489,7.984,7.984,0,0,1-1.331,1.657.631.631,0,0,1-.405.158.57.57,0,0,1-.39-.158,3.515,3.515,0,0,1-.828-3.154,8.432,8.432,0,0,1,1.22-3.2,9.524,9.524,0,0,1,2.909-2.841,8.706,8.706,0,0,1,3.85-1.286c.2-.017.411-.025.619-.025a10.831,10.831,0,0,1,8.116,4.229,7.864,7.864,0,0,1,1.7,6.79,2.609,2.609,0,0,1-1.042,1.54A2.965,2.965,0,0,1,68.222,26.6ZM1.43,15.8a.711.711,0,0,1-.548-.231c-1.442-1.631-.85-3.907-.1-5.53A15.887,15.887,0,0,1,4.355,5.214,21.868,21.868,0,0,1,9.764,1.771,16.092,16.092,0,0,1,16.2.225a9.027,9.027,0,0,1,2.776.411,3.693,3.693,0,0,1,1.864,1.418,4.318,4.318,0,0,1,.79,2.21,2.978,2.978,0,0,1-1.785,3.023A18.81,18.81,0,0,1,14.352,8.57,18.871,18.871,0,0,0,8.691,9.911a10.765,10.765,0,0,0-3.964,2.861c-.164.2-.326.412-.5.635A7.4,7.4,0,0,1,1.871,15.7,1.024,1.024,0,0,1,1.43,15.8Zm67.508-3.58a2.863,2.863,0,0,1-1.446-.4A8.056,8.056,0,0,1,65.213,9.5a12.028,12.028,0,0,0-1.476-1.736,12.839,12.839,0,0,0-3.88-2.41A13.387,13.387,0,0,0,55.012,4.4h-.1a12.242,12.242,0,0,0-2.291.3c-.495.1-1.006.194-1.5.247a.054.054,0,0,1,0,.054c-.028.044-.133.067-.307.067a4.36,4.36,0,0,1-1.177-.2c-.455-.194-.415-.763-.282-1.077a4.806,4.806,0,0,1,2.2-2.128A13.608,13.608,0,0,1,58.213,0,17.876,17.876,0,0,1,61.26.269,14.959,14.959,0,0,1,67.5,2.9l.209.156a14.88,14.88,0,0,1,2.873,2.7A5.387,5.387,0,0,1,71.885,9.3a3.1,3.1,0,0,1-.935,2.084A2.886,2.886,0,0,1,68.937,12.223Z" transform="translate(20.122 23.991)"/></g></g></g></svg>