<svg xmlns="http://www.w3.org/2000/svg" width="381.133" height="424.482" viewBox="0 0 381.133 424.482"><g transform="translate(672.108 -302.722)"><g transform="translate(-672.108 447.704)"><path d="M369.526,88.843l-16.3,1.6c-26.024,1.988-52.037,6.141-77.862,8.633a1.67,1.67,0,0,0-2.666-.147c-2.577-.226-5.465-2.2-7.8-.146-.076-.011-.152-.023-.228-.03-4.156-7.977-7.029-16.485-9.817-25.005-1.78-5.238-4.174-10.309-8.6-13.825C238.7,54.68,221.4,44.05,212.534,44.5a6.581,6.581,0,0,0-2.1-4.281c2.678-4.566-8.03-7.545-8.786-7.016.484-15.255-6.691-28.5-22.514-31.54-14.175-2.954-34.336-3.45-41.96,11.364-.838-.094-9.4-.139-10.233-.046C125.65,11.345,111.5,26.811,117.3,32.2,65.443,55.134,35.957,52.4,21.6,116.885c-1.94,6.058-2.082,12.687-4.131,18.61-7.29,17.022-13.2,35.147-14.674,53.668-3.554.911-3.963,7.177.154,8.083a9.628,9.628,0,0,1,4.034,1.718c-.9,15.178,2.775,49.849,5.087,49.743,4.716,15.009,25.752,19.245,40.645,13.971-2.567,4.83,0,7.867,0,10.448,53.589,2.027,112.183.86,165.757,3.64,6.853-.1,14.061,1.683,20.82.658,4.122-.988,4.129-7.47-.052-8.271l18.27-3.968c-.408-.154,7.531-5.435,13.532-15.3,5.585-11.039,1.784-24.365,4.315-36.373,19.766-1.616,39.86-2.308,59.41-5.655,2.666,7.976,14.2-1.563,17.872-5.4l-.014-.018a4.455,4.455,0,0,0,3.246-4.119,5.408,5.408,0,0,0,.312-6c5.472-31.572,13.813-63.807,16.828-95.676a6.747,6.747,0,0,0,2.92-1.423l-.069-.069c1.442-1.607,1.722-4.382-.681-5.748C373.249,88.294,371.63,88.636,369.526,88.843Z" transform="translate(2.283 0)" fill="#d08b5b"/><path d="M227.954,268.871c-7.2,0-17.759-.7-31.394-2.093-6-.611-18.346-1.187-36.7-1.712-15.541-.444-32.356-.771-44.633-1.009H115.2c-6.406-.124-11.465-.222-14.466-.3l-.823-.022c-8.5-.245-17.066-.37-25.461-.37s-16.857.124-25.149.37V253.459l47.566-23.593,42.619-23.973,20.549-9.513,4.186,2.664,34.248,11.035,20.929,2.664,17.124-2.664v29.3l3.425,27.4c-.379.694-1.579,1.222-3.567,1.57A52.178,52.178,0,0,1,227.954,268.871ZM64.918,192.036h-8.84L4.636,179.613,0,178.083a128.083,128.083,0,0,1,1.916-13.688c.845-4.356,1.944-8.89,3.265-13.475a222.584,222.584,0,0,1,9.456-26.053A59.993,59.993,0,0,0,16.8,115.3a65.48,65.48,0,0,1,1.971-9.039C21.611,93.478,25.088,83.124,29.4,74.6c1.036-2.049,2.14-4.026,3.28-5.875,1.119-1.814,2.31-3.565,3.541-5.2A61.673,61.673,0,0,1,44.1,54.839,78.107,78.107,0,0,1,63.245,42.356c7.16-3.461,14.934-6.408,23.936-9.821h0c8.15-3.09,17.388-6.592,27.277-10.967a4.437,4.437,0,0,1-1.385-3.211,10.336,10.336,0,0,1,.838-4.081,29.988,29.988,0,0,1,5.2-8.171,24.881,24.881,0,0,1,2.8-2.8,3.955,3.955,0,0,1,1.9-1.076.341.341,0,0,1,.283.12l.081-.007.176-.009.226-.008c.594-.017,1.672-.027,3.036-.027,2.768,0,6.205.04,6.713.1A22.164,22.164,0,0,1,135.763,0l3.146,2.349-6.867,11.283,33.453,27.06V62.3l10.591,10.017L182.139,62.3l8.53-11.344,6.062-18.389-2.064-12.115,4.151-.391c.02.825.017,1.668-.01,2.505a.655.655,0,0,1,.341-.061A15.793,15.793,0,0,1,205.89,25a5.778,5.778,0,0,1,1.75,1.774,2.64,2.64,0,0,1-.045,2.811,6.568,6.568,0,0,1,2.1,4.281c.182-.009.369-.014.555-.014a24.926,24.926,0,0,1,7.946,1.69,75.958,75.958,0,0,1,9.244,4.1c2.841,1.465,5.849,3.17,8.941,5.066,3.122,1.915,5.549,3.547,7.035,4.578a21.834,21.834,0,0,1,5.291,6.267,41.057,41.057,0,0,1,3.308,7.558l.419,1.278.433,1.312.436,1.311a144.47,144.47,0,0,0,8.53,21.1c.057.005.115.014.167.022h.01l.052.007a3.64,3.64,0,0,1,2.505-.923,11.173,11.173,0,0,1,2.912.551,13.5,13.5,0,0,0,2.381.519,2.058,2.058,0,0,1,1.389-.592,1.436,1.436,0,0,1,1.231.667l.046.071L240.42,94.771l-21.18,74.3L200.794,154.1l-9.9,1.473L164.748,165l-30.409,7.9Z" transform="translate(5.12 10.629)" fill="#3f6e9e"/><path d="M48.653,129.778h0c2.16-8.175,3.828-14.9,5.249-21.161.535-2.358,1.07-4.755,1.588-7.073v-.005c1.239-5.545,2.519-11.28,3.888-16.9,3.826-15.707,8.23-31.79,13.09-47.8,1-3.29,2.038-6.632,3.09-9.933l.739-2.309.568-1.84c.881-2.81,1.958-5.684,4.548-7.237,2.4-1.44,5.439-1.916,8.379-2.378.761-.119,1.478-.232,2.181-.36l2.319-.436c3.452-.644,6.958-1.273,10.42-1.868,16.576-2.851,33.467-5.168,50.2-6.887,8.665-.89,17.5-1.639,26.274-2.226C189.876.78,198.736.34,207.522.055L209.279,0l-.956,5.329c-.226.074-.459.137-.693.189-.291,3.082-.646,6.292-1.052,9.541L200.649,48.1c-1.054,6.028-2.039,11.982-2.957,17.565l-1.277,6.3-.791,3.912c-1.611,7.993-3.309,16.592-4.821,25.317a4.154,4.154,0,0,1,.514,1.02l-.112.473-.078.316-.08.312a26.062,26.062,0,0,1-1.05,3.241,15,15,0,0,1-1.543,2.924,10.06,10.06,0,0,1-2.21,2.34,9.049,9.049,0,0,1-3.053,1.489,45.576,45.576,0,0,1-8.26,1.2c-.943.078-1.917.16-2.857.259l-.407.044-64.18,7.217c-6.754.759-13.927,1.585-23.257,2.678l-6.719.788c-1.618.187-3.266.371-4.859.549l-.019,0c-7.623.849-15.507,1.728-23.133,3.35a2.073,2.073,0,0,0-.848.385Zm-.9-.421h0a2.486,2.486,0,0,0-1.456-.431h-.116a45.838,45.838,0,0,1-11.5-1.6,107.571,107.571,0,0,1-11.079-3.658l-1.11-.423-3.1-1.19c-2.852-1.092-6.175-2.343-9.533-3.362l-1.3-.393-.662-.2a35.614,35.614,0,0,0-7.544-1.521L0,116.57l.739-.388a1.748,1.748,0,0,0,.287-.189c.506.037.981.056,1.45.056A15.71,15.71,0,0,0,5.3,115.8a26.471,26.471,0,0,0,7.94-2.8l1.1-.6.452-.24.3-.155.3-.15a14.911,14.911,0,0,1,2.387-.98,8.757,8.757,0,0,1,2.543-.385,9.19,9.19,0,0,1,1.911.206,26.83,26.83,0,0,1,6.841,2.828c.531.279,1.078.568,1.62.841l.487.243.327.158.334.157.338.154a16.585,16.585,0,0,0,6.488,1.733,4.269,4.269,0,0,0,4.557-3.307,6.928,6.928,0,0,0-.868-5.593c.067-.006.135-.008.2-.008a11.155,11.155,0,0,1,3.567,1.067,15.263,15.263,0,0,0,3.86,1.211l.164.013-2.4,19.163Z" transform="translate(167.662 91.099)" fill="#f4f4f4"/><path d="M245.1,271.922a1.426,1.426,0,0,1-1.057-.469,6.65,6.65,0,0,1-1.482-2.621,20.11,20.11,0,0,1-.613-2.974v-.008c-.051-.33-.1-.671-.161-1.007-.4-2.346-.765-4.783-1.111-7.449-.729-5.607-1.131-10.223-1.262-14.527-.152-4.958-.093-9.99.175-14.959.131-2.421.3-5.025.634-7.655.155-1.211.289-2.227.442-3.249.057-.381.121-.767.195-1.178l-4.114.464c-6.025.672-12.453,1.338-18.972,1.439h-.036a2.056,2.056,0,0,1-1.673-.83,2.362,2.362,0,0,1-2.1,1.122h-.012c-9.052-.033-17.462-3.073-25.2-6.353-1.935-.82-3.885-1.686-5.772-2.523l-.008,0c-2.08-.923-4.23-1.877-6.365-2.773-1.568-.658-3.207-1.248-4.793-1.818a69.734,69.734,0,0,1-6.783-2.712l-9.749,5.114a4.007,4.007,0,0,1-1.6,2.24,8.637,8.637,0,0,1-1.824.977,7.579,7.579,0,0,1-2.919.581,7.922,7.922,0,0,1-.817-.043c-8.916,4.672-15.759,8.252-22.19,11.607l-7.4,3.859c-4.28,2.229-8.591,4.486-12.76,6.67-10.3,5.4-20.959,10.977-31.518,16.312l-1.092.55a133.145,133.145,0,0,1-16.319,7.12,28.981,28.981,0,0,0,.084,4.364l.029.332c.013.138.027.276.042.422l0,.016a13.12,13.12,0,0,1,.086,2.652,3.335,3.335,0,0,1-1.041,2.25,1.894,1.894,0,0,1-1.243.465,1.468,1.468,0,0,1-1.362-.8,5.117,5.117,0,0,1-.414-2.593,22.39,22.39,0,0,1,.4-2.852c.081-.437.157-.85.214-1.233a18.752,18.752,0,0,1,.419-2.131,58.11,58.11,0,0,1-7.012,1.644,43.441,43.441,0,0,1-7.086.61,35.761,35.761,0,0,1-5.779-.461c-5.672-.931-10.742-4.238-15.5-10.11a45.829,45.829,0,0,1-5.441-8.479,46.414,46.414,0,0,1-3.466-9.462A65.127,65.127,0,0,1,8.1,220.111c-.258-3.853-.274-7.8-.253-11.485.026-4.527.129-8.529.315-12.233.22-4.377.555-8.365,1.023-12.192a13.209,13.209,0,0,0-2.932-.415c-.155,0-.308.005-.454.015a2.355,2.355,0,0,1-.965.859,2.838,2.838,0,0,1-1.246.284,2.883,2.883,0,0,1-.339-.02,1.53,1.53,0,0,0-.43,1.457c.193.757.973,1.55,2.318,2.356a17.3,17.3,0,0,0,2.973,1.39.613.613,0,0,1,.389.688.5.5,0,0,1-.512.434H7.96l-.424-.02c-2.637-.14-5.286-.6-6.8-2.992a4.6,4.6,0,0,1-.7-3.032,4.931,4.931,0,0,1,1.306-2.765c.862-8.15,2.829-16.238,4.731-24.059l.012-.05c.217-.894.442-1.818.661-2.727,1.948-8.078,4.21-16.577,6.915-25.981l1.11-3.855c1.878-6.5,3.92-13.457,6.123-20.244,2.417-7.446,4.783-13.937,7.233-19.842,1.513-3.646,2.959-6.77,4.422-9.549A67.618,67.618,0,0,1,38.1,67.2a62.841,62.841,0,0,1,6.393-7.338,65.577,65.577,0,0,1,7.44-6.275,88.539,88.539,0,0,1,15.885-8.958C73.3,42.171,79,40.071,84.834,37.959l.511-.185c5.681-2.055,11.751-4.28,17.648-6.618,2.67-1.059,5.326-2.283,7.893-3.468,2.4-1.107,4.882-2.252,7.367-3.257-.17-.308-.332-.618-.484-.92l-.095.08,0,0h0c-.015.012-.03.023-.047.034a1.143,1.143,0,0,1-.656.194,1.585,1.585,0,0,1-1.048-.414,2.1,2.1,0,0,1-.749-1.771,3.888,3.888,0,0,1,.756-1.8l.1-.15c.749-1.05,1.448-2.162,2.123-3.238.2-.316.424-.675.643-1.019l.568-.892a37.065,37.065,0,0,1,5.151-6.751,11.142,11.142,0,0,1,3.059-2.1.106.106,0,0,1,.017-.1,1.108,1.108,0,0,1,.751-.349.279.279,0,0,1,.188.056,17.948,17.948,0,0,1,6.2-.939c1.731,0,3.483.149,4.99.288l.718-2.28A3.836,3.836,0,0,1,141.8.564,3.167,3.167,0,0,1,143.614,0a3.321,3.321,0,0,1,3.2,2.437,4.093,4.093,0,0,1,.094,1.7,22.889,22.889,0,0,1-3.019,7.488,18.406,18.406,0,0,1-3.771,4.965c2.816,2.627,5.755,5.172,8.736,7.562a107.788,107.788,0,0,0,10.264,7.261c.961.6,1.951,1.19,2.908,1.759a68.928,68.928,0,0,1,6.4,4.139,24.948,24.948,0,0,1,3.793,3.457,14.655,14.655,0,0,1,2.694,4.34,12.178,12.178,0,0,1,.763,5.239,23.927,23.927,0,0,1-.994,5.238l-.114.39c-.12.4-.246.806-.381,1.233-.987,3.136-2.1,6.691.045,9.535a17.535,17.535,0,0,0,3.295,3.068c.434.34.883.691,1.305,1.047a35.884,35.884,0,0,1,3.873,3.8,31.378,31.378,0,0,1,6.042,10.032l.119.338a22.1,22.1,0,0,1,1.225,5.306,10.087,10.087,0,0,1-.791,5.261.986.986,0,0,1-.927.565,1.229,1.229,0,0,1-1.192-.842,22.481,22.481,0,0,1-.566-3.387,26.865,26.865,0,0,0-.436-2.876,23.686,23.686,0,0,0-2.367-6.143,33.273,33.273,0,0,0-8.137-9.658l-.986-.8a22.058,22.058,0,0,1-3.493-3.4,9.359,9.359,0,0,1-1.957-4.434c-.446-2.985.43-5.888,1.278-8.7l0-.008c.21-.695.427-1.413.618-2.118a12.037,12.037,0,0,0,.165-7.047,29.587,29.587,0,0,1-2.268,3.064c-.274.338-.532.658-.779.973-1.479,1.895-2.986,3.8-4.443,5.645l-.2.25-1.1,1.387c-2.174,2.755-4.038,5.243-5.7,7.605-.878,1.249-1.72,2.467-2.426,3.493-.33.479-.738.966-1.134,1.438l0,0c-.331.395-.672.8-.971,1.209a1.565,1.565,0,0,1-.142,1.422,2.646,2.646,0,0,1-2.1,1.264c-1.3,0-2.811-1.181-4.489-3.511a42.467,42.467,0,0,1-3.072-5.182l-.073-.14-.027-.052c-1.314-2.522-2.479-5.164-3.606-7.719-1.14-2.584-2.318-5.257-3.651-7.805a122.067,122.067,0,0,0-9.356-15.166c-.8-1.1-1.646-2.189-2.465-3.243-1.344-1.729-2.734-3.517-3.933-5.378a40.212,40.212,0,0,1-7.65,5.3c-2.838,1.568-5.9,2.963-8.357,4.085h0c-4.688,2.138-9.6,4-14.341,5.8l-.009,0c-1.356.515-2.759,1.047-4.134,1.578l-1.827.71c-6.015,2.347-11.019,4.41-15.89,6.847A74.381,74.381,0,0,0,52.621,59.9,54.65,54.65,0,0,0,45.57,67a66.343,66.343,0,0,0-5.708,8.107,87.483,87.483,0,0,0-4.616,8.828c-1.3,2.841-2.532,5.874-3.775,9.27-2.47,6.751-4.861,13.907-7.309,21.878-2.019,6.571-4.053,13.614-6.4,22.163-2.1,7.638-4.091,15.315-5.917,22.816-.559,2.3-1.094,4.637-1.611,6.9l0,.007c-1,4.367-2.029,8.882-3.276,13.264.169-.006.339-.009.5-.009a34.678,34.678,0,0,1,7.2,1.061c1.362.3,2.648.579,3.8.73,8.053,1.054,15.324,2.346,22.226,3.948,3.739.868,7.406,1.841,10.9,2.891,3.666,1.1,7.267,2.327,10.7,3.641a2.983,2.983,0,0,1,1.731,1.631,3.372,3.372,0,0,1,.138,2.19l1.2-.341.045-.013c.628-.178,1.2-.339,1.768-.5-.9-1.375-.716-3.625-.57-5.433.033-.41.064-.8.08-1.145l.006-.129c.059-1.64.2-3.305.332-4.916v-.008c.07-.838.142-1.7.2-2.554.354-5.03.795-9.666,1.347-14.173l.148-1.18c.279-2.187.531-4.412.775-6.565v0c.329-2.905.669-5.909,1.08-8.851l.085-.587c-.3-1.139-.656-2.341-1.161-3.9-.781-2.4-1.8-4.744-2.792-7.009-.425-.974-.865-1.981-1.281-2.984a.306.306,0,0,1,.02-.3.447.447,0,0,1,.369-.178.4.4,0,0,1,.267.1,23.486,23.486,0,0,1,3.162,3.524,33.213,33.213,0,0,1,2.527,4.04c.011-.057.022-.115.033-.172s.028-.149.043-.224l.17-.838a14.407,14.407,0,0,1,2.185-5.853.356.356,0,0,1,.279-.146.279.279,0,0,1,.245.146,9.579,9.579,0,0,1,1.1,3.139,31.348,31.348,0,0,1,.384,3.356c.011.141.022.281.033.419.182,2.276.243,4.708.2,7.883-.058,4.1-.3,8.272-.542,12.306-.056.947-.119,2.02-.178,3.069-.258,4.6-.765,9.491-1.551,14.965l-.136.934c-.094.639-.185,1.292-.273,1.923v.005c-.239,1.71-.486,3.476-.821,5.192l-.13.64c-.076.362-.144.77-.215,1.2a17.387,17.387,0,0,1-.673,2.977c12.049-3.361,24.8-6.836,37.893-10.331,6.494-1.733,13.1-3.476,19.488-5.162l7.963-2.1a10.3,10.3,0,0,1,1.835-2.41,9.9,9.9,0,0,1,2.629-1.86,6.8,6.8,0,0,1,2.917-.693,6.068,6.068,0,0,1,3.208.933.409.409,0,0,1,.191.36.364.364,0,0,1-.191.318c-.679.371-1.225.681-1.719.974l5.495-1.488c1.211-.328,2.449-.687,3.646-1.034h0c2.878-.834,5.853-1.7,8.816-2.244,7.592-3.747,15.805-6.5,23.749-9.16l.478-.16.961-.325c.555-.189,1.134-.389,1.645-.565a78.2,78.2,0,0,1,11.165-3.242,11.11,11.11,0,0,1,1.992-.184,8.005,8.005,0,0,1,3.665.806,5.111,5.111,0,0,1,2.48,2.733,50.84,50.84,0,0,1,4.581,3.53c.745.625,1.48,1.288,2.191,1.929l.009.008c.293.265.6.538.9.805l.19.166.186.161.008.007a3.562,3.562,0,0,1,1.52,2.213,1.3,1.3,0,0,1-.267,1.025.827.827,0,0,1-.648.312.926.926,0,0,1-.1-.005c-1.81-.194-3.334-1.892-4.678-3.39v0c-.336-.375-.654-.729-.963-1.043-1.34-1.368-2.441-2.537-3.465-3.8a1.615,1.615,0,0,1-.769.2,1.226,1.226,0,0,1-1.13-.679,3.675,3.675,0,0,0-1.6-1.618,4.8,4.8,0,0,0-2.165-.453,19.035,19.035,0,0,0-5.651,1.3h0c-.548.186-1.066.362-1.527.5l-4.525,1.339c-1.876.556-4.342,1.289-6.781,2.03-2.276.691-4.579,1.422-6.807,2.13-3.865,1.227-7.862,2.5-11.832,3.593a1.3,1.3,0,0,1,.311,1.172,1.375,1.375,0,0,1-.892.955,83.637,83.637,0,0,1-11.137,3.2h-.005c-1.393.331-2.833.674-4.225,1.035-3.186.826-6.429,1.673-9.638,2.516a7.843,7.843,0,0,0-1.113,3.076,23.01,23.01,0,0,0,.2,6.793A61.138,61.138,0,0,0,141.915,195l.173.623a32.706,32.706,0,0,0,1.886,5.263,11.241,11.241,0,0,0,3.35,4.334,5.1,5.1,0,0,0,2.516.959c5.766-2.968,11.407-5.871,17.02-8.753a1.584,1.584,0,0,1,.727-.185,1.657,1.657,0,0,1,1.532,1.245,37.1,37.1,0,0,0,5.817-1.463,25.924,25.924,0,0,0,5.019-2.546c1.052-.635,2.139-1.291,3.287-1.84a9.978,9.978,0,0,1,4.4-.986,15.7,15.7,0,0,1,5.5,1.136,53.535,53.535,0,0,1,5.249,2.412c.338.17.687.346,1.026.515l1.144.562a14.46,14.46,0,0,0,5.488,1.72,2.317,2.317,0,0,0,2.436-1.519,3.5,3.5,0,0,0,.054-2.149,6.245,6.245,0,0,0-1.047-2.038,12.418,12.418,0,0,0-3.349-3.009,20.373,20.373,0,0,0-4.018-1.837c-1.482-.51-2.987-.893-4.263-1.2-1.658-.4-3.312-.716-4.916-.941-.6-.084-1.211-.138-1.8-.191a16.376,16.376,0,0,1-3.808-.641,1.115,1.115,0,0,1-.724-1.105.887.887,0,0,1,.724-.855,10.926,10.926,0,0,1,2.413-.249,28.813,28.813,0,0,1,6.577,1.011l1.515.373a36.5,36.5,0,0,1,8.527,3.045,17.5,17.5,0,0,1,2.879,1.941,13.217,13.217,0,0,1,2.429,2.611,3.334,3.334,0,0,1,2.378-.9,6.734,6.734,0,0,1,1.723.257l.815.226a10.007,10.007,0,0,0,2.681.476,5.436,5.436,0,0,0,1.064-.1c.168-.915.35-1.895.543-2.858,1.908-9.578,3.983-18.991,6.169-27.978,1.928-7.925,4.046-15.96,6.3-23.882,2.225-7.837,4.643-15.787,7.185-23.629l.51-1.566c.261-.8.516-1.632.763-2.437l0-.008a40.627,40.627,0,0,1,3.238-8.337,11.567,11.567,0,0,1,3.42-3.74,15.115,15.115,0,0,1,4.63-2.117,90.41,90.41,0,0,1,8.854-1.839l.012,0c.981-.17,2-.346,2.985-.528.525-.1,1.071-.195,1.553-.281l1.084-.195a29,29,0,0,1-1.4-3.079c-.137-.337-.267-.654-.394-.953l-.088-.2c-1.17-2.667-2.2-5.377-2.968-7.44l-.7-1.882a94.13,94.13,0,0,0-5.778-13.23,34.084,34.084,0,0,0-4.34-6.1,36.084,36.084,0,0,0-5.56-5.023,92.911,92.911,0,0,0-12.5-7.307c-2.408-1.244-4.9-2.529-7.276-3.917a54.365,54.365,0,0,1-6.854-4.649.285.285,0,0,1-.1-.329.42.42,0,0,1,.381-.268.341.341,0,0,1,.155.037,116.389,116.389,0,0,0,11.931,4.919h0c1.711.632,3.481,1.286,5.2,1.963l1.127.444c4.413,1.749,9.052,3.7,13.009,6.636a36.115,36.115,0,0,1,5.851,5.431,37.257,37.257,0,0,1,4.517,6.586,82.821,82.821,0,0,1,4.979,12.193v0c.32.92.651,1.871.981,2.8l.479,1.339c.69,1.913,1.449,3.96,2.327,5.963.273.624.637,1.275,1.022,1.963a18.288,18.288,0,0,1,1.5,3.131l.315-.055.013,0c1.443-.25,2.936-.509,4.405-.755,8.505-1.42,17.157-2.712,25.715-3.84s17.241-2.122,25.829-2.956,17.3-1.53,25.915-2.069,17.349-.937,25.973-1.181h.059a1.7,1.7,0,0,1,1.338.61A2.27,2.27,0,0,1,381.1,82.4c-1.874,11.083-3.657,22.354-5.382,33.254l0,.023c-1.339,8.461-2.723,17.209-4.139,25.8-1.446,8.772-2.9,17.436-4.337,25.752-.32,1.859-.667,3.741-1,5.562-.45,2.446-.915,4.973-1.321,7.467-.122.751-.239,1.516-.353,2.256l0,.027a66.171,66.171,0,0,1-1.614,8.208,19.82,19.82,0,0,1-4.455,8.4,13.008,13.008,0,0,1-4.186,2.9,20.682,20.682,0,0,1-4.913,1.436c-5.921,1.019-12.04,1.629-17.957,2.219-2.61.26-5.309.529-7.95.83l-45.834,5.214c.325,2.954.512,5.929.572,9.094.055,2.889,0,5.881-.16,9.146l-.175,3.362c-.137,2.585-.3,5.34-.7,8.089a16.244,16.244,0,0,1-4.285,8.708,51.421,51.421,0,0,1-7.056,6.151,35.878,35.878,0,0,1-8.177,5.051l-.389.154a38.68,38.68,0,0,1-4.334,1.407,21.143,21.143,0,0,1-5.152.751,10.5,10.5,0,0,1-1.665-.124c.091.454.2.924.305,1.378.451,1.944.918,3.954.267,5.833a1.77,1.77,0,0,1-.633.846A1.663,1.663,0,0,1,245.1,271.922ZM275.431,212l-4.8.546c-5.632.641-11.175,1.249-15.855,1.758l-11.482,1.248c-.015.324-.041.637-.066.94v0c-.026.306-.05.6-.057.845-.078,2.647-.136,5.335-.184,7.647-.106,5.082.011,10.237.347,15.325.378,5.735.83,10.436,1.423,14.792l.137.981.079.516a2.258,2.258,0,0,1,1.524.843,1.955,1.955,0,0,0,1.55.507,14.576,14.576,0,0,0,4.31-.963,28.229,28.229,0,0,0,6.348-3.523,39.866,39.866,0,0,0,5.3-4.512l1.357-1.342a17.323,17.323,0,0,0,3.528-4.457,19.29,19.29,0,0,0,1.433-6.251c.051-.442.1-.9.162-1.337.354-2.682.8-5.6,1.4-9.179L275.431,212ZM9.786,184.346l-.021,4.988c-.025,6.786-.019,14.012.347,21.187l.068,1.309c.411,7.681,1.047,15.807,3.866,23.3a42.287,42.287,0,0,0,10.605,16.084,23.661,23.661,0,0,0,3.774,2.913,16.5,16.5,0,0,0,4.364,1.888,24.491,24.491,0,0,0,6.407.771c.853,0,1.726-.032,2.667-.1,12.6-.879,24.013-6.931,35.048-12.784h0c1.67-.886,3.4-1.8,5.084-2.675,19.772-10.237,40.848-21.144,62.031-32.059a10.154,10.154,0,0,1-1.565-1.318c-2.328-2.4-3.98-5.769-5.2-10.587a55.876,55.876,0,0,1-1.707-12.552l.464-4.877-.5.131c-5.152,1.369-10.378,2.77-15.431,4.124-12.728,3.412-25.89,6.94-38.881,10.229-5.177,1.311-10.453,2.588-15.556,3.823-3.752.908-7.633,1.847-11.444,2.792l-1.456.364c-6.972,1.762-14.237,3.916-19.707,9.1a.209.209,0,0,1-.145.061.229.229,0,0,1-.2-.138.2.2,0,0,1,.044-.226,31.674,31.674,0,0,1,10.287-7.059,86.592,86.592,0,0,1,11.892-4.1c.814-.233,1.642-.466,2.442-.692l.034-.01c.571-.161,1.282-.361,1.96-.554a260.172,260.172,0,0,0-33.22-9.654c-1.442-.307-2.917-.578-4.344-.84h0c-1.45-.266-2.95-.542-4.416-.855-1.306-.279-2.613-.645-3.876-1-.7-.2-1.42-.4-2.138-.583ZM376.95,83.888c-9.082.274-18.238.713-27.215,1.3-9.066.6-18.2,1.365-27.151,2.284-16.73,1.718-33.62,4.035-50.2,6.887-3.461.595-6.966,1.223-10.42,1.868l-2.081.391c-.776.147-1.574.272-2.419.4-1.444.227-2.938.461-4.372.819a14.6,14.6,0,0,0-4.006,1.559,8.421,8.421,0,0,0-3.132,3.561,28.454,28.454,0,0,0-1.695,4.578c-.128.417-.26.848-.394,1.266-1.267,3.938-2.52,7.946-3.724,11.914-4.859,16.009-9.263,32.093-13.09,47.8-1.366,5.609-2.645,11.335-3.882,16.872v.007c-.52,2.326-1.057,4.731-1.593,7.1-1.421,6.265-3.089,12.989-5.249,21.162a2.075,2.075,0,0,1,.849-.386c7.628-1.623,15.512-2.5,23.136-3.351,1.6-.178,3.245-.362,4.875-.55l.906-.105c9.2-1.082,19.087-2.238,29.069-3.36l64.18-7.218c1.072-.12,2.186-.213,3.262-.3a45.6,45.6,0,0,0,8.261-1.2,9.842,9.842,0,0,0,6.345-5.71,34.7,34.7,0,0,0,2.436-8.6l.032-.169c1.895-10.078,3.586-20.377,5.222-30.337v-.007c1.1-6.683,2.232-13.594,3.421-20.387ZM213.956,212.814h.009a2.481,2.481,0,0,1,1.454.431l2.4-19.164a14.288,14.288,0,0,1-4.024-1.225,11.157,11.157,0,0,0-3.568-1.067c-.069,0-.137,0-.2.008a6.929,6.929,0,0,1,.869,5.593,4.27,4.27,0,0,1-4.557,3.307,13.177,13.177,0,0,1-4.113-.791,28.957,28.957,0,0,1-3.588-1.516c-.636-.316-1.276-.653-1.895-.979a26.827,26.827,0,0,0-6.84-2.829,9.318,9.318,0,0,0-1.91-.206c-2.471,0-4.454,1.078-6.749,2.327l-.334.182a26.478,26.478,0,0,1-7.94,2.8,15.727,15.727,0,0,1-2.819.246c-.47,0-.944-.018-1.451-.056a1.725,1.725,0,0,1-.287.189l-.739.388a41.529,41.529,0,0,1,9.854,2.128c3.353,1.018,6.679,2.269,9.533,3.363l3.1,1.19a116.19,116.19,0,0,0,11.614,3.93,46.549,46.549,0,0,0,12.081,1.746ZM128.648,7.7A8.563,8.563,0,0,0,126.7,9.237a31.721,31.721,0,0,0-4.42,6.67l-.076.139c-.317.58-.63,1.163-.933,1.728l0,.008c-.37.691-.753,1.4-1.139,2.1-.334.6-.678,1.2-.94,1.648a6.609,6.609,0,0,1-.447.6l0,0h0c-.129.162-.262.329-.353.459.224.313.467.64.745,1,.02.025.305.34.778.86l.019.021c1.935,2.13,6.468,7.117,8.322,9.384,1.812,2.217,3.515,4.488,5.062,6.748,1.606,2.347,3.1,4.761,4.43,7.175,1.583,2.865,2.965,5.88,4.3,8.8.92,2.007,1.871,4.081,2.881,6.093a37.6,37.6,0,0,0,4.386,7.056c.04.049.083.1.124.145l0,0,0,.005.079.091A17.055,17.055,0,0,1,152.21,65.8c.2-.257.4-.5.556-.71l.079-.106c1.722-2.321,3.636-4.727,6.023-7.571,1.841-2.192,3.8-4.423,5.824-6.63l.748-.812c.252-.272.51-.562.784-.87a17.64,17.64,0,0,1,4.389-3.936,9.8,9.8,0,0,0-.758-1.149A25.892,25.892,0,0,0,162.62,38.1L160.9,37.055c-2.682-1.634-6.192-3.812-9.562-6.162a86.874,86.874,0,0,1-8.922-7.049A75.448,75.448,0,0,1,134,15.12L133.119,14Zm10.811-1.955c-.711.06-1.45.1-2.164.145a25.7,25.7,0,0,0-6.951,1.038c1.481,1.4,2.941,2.889,4.352,4.329.961.981,1.955,1.995,2.944,2.968a36.045,36.045,0,0,1,.789-3.789c.082-.332.166-.675.246-1.013Zm-.779,247.319a1.569,1.569,0,0,1-1.284-.787,1.482,1.482,0,0,1-.066-1.483,213.545,213.545,0,0,1,12.09-19.739l.562-.837c1.937-2.883,3.94-5.865,5.931-8.787,1.075-1.577,1.957-2.839,2.775-3.972l.571-.783,3.089-3.38a.279.279,0,0,1,.133-.034.272.272,0,0,1,.269.265,8.756,8.756,0,0,1-1.174,3.947c-.091.192-.194.41-.288.615l-.069.152c-.713,1.585-1.549,3.291-2.558,5.216-1.837,3.5-3.723,6.916-5.6,10.143a119.829,119.829,0,0,1-13.4,18.988A1.287,1.287,0,0,1,138.68,253.066Zm78.1-67.736c-1.623,0-3.185-.831-4.916-2.615L210.7,181.5a12.375,12.375,0,0,0-2.541-2.159,6.288,6.288,0,0,0-3.333-.879c-.1,0-.206,0-.311.006a49.267,49.267,0,0,0-5.9.7h0c-1.115.178-2.268.362-3.4.5-3.36.4-6.891.757-10.5,1.07h-.013a.127.127,0,0,1-.124-.121.14.14,0,0,1,.1-.159l3.928-.977,15.268-3.08a13.042,13.042,0,0,1,1.572-.1,7.792,7.792,0,0,1,5.129,1.725,20.154,20.154,0,0,1,1.987,1.96,16.967,16.967,0,0,0,2.36,2.246,5.634,5.634,0,0,0,3.028,1.142.918.918,0,0,1,.866.822.843.843,0,0,1-.629.93A4.962,4.962,0,0,1,216.783,185.33Zm3.036-9.554a.6.6,0,0,1-.138-.016,12.4,12.4,0,0,1-3.447-1.458,37.431,37.431,0,0,1-3.089-2.131c-.764-.566-1.554-1.151-2.362-1.679a10.954,10.954,0,0,0-6.34-1.7c-1.227,0-2.472.111-3.789.228l-.231.021c-3.778.336-7.4.795-10.776,1.362-1.163.2-2.347.434-3.492.665a58.6,58.6,0,0,1-6.614,1.073v-.007a.442.442,0,0,1-.409-.351.366.366,0,0,1,.2-.428,45.078,45.078,0,0,1,10.914-3.262l.244-.051,11.012-1.711.406-.04c1.275-.124,2.249-.179,3.158-.179a15.229,15.229,0,0,1,3.5.367,11.56,11.56,0,0,1,3.382,1.374l.612.37c2.83,1.72,6,3.794,7.811,6.643a.543.543,0,0,1,.018.567A.656.656,0,0,1,219.819,175.776ZM89.291,127.488a1.067,1.067,0,0,1-1.126-.921c-.688-4.426-1.372-8.921-2.033-13.267V113.3c-.782-5.139-1.592-10.453-2.409-15.676-.582-3.716-1.248-7.483-1.892-11.125v-.006c-.2-1.105-.4-2.248-.6-3.387L79.1,69.133a.261.261,0,0,1,.075-.191.311.311,0,0,1,.218-.089.267.267,0,0,1,.239.137c2.08,3.659,3.253,7.985,4.387,12.169.129.475.262.966.394,1.446,1.154,4.2,2.2,8.746,3.286,14.3.956,4.881,1.691,9.79,2.184,14.591.5,4.877.772,9.833.806,14.731a1.154,1.154,0,0,1-.341.838A1.512,1.512,0,0,1,89.291,127.488ZM104.956,113.6a1.648,1.648,0,0,1-1.239-.582,1.46,1.46,0,0,1-.3-1.247L102.123,76.26a.4.4,0,0,1,.048-.37.45.45,0,0,1,.364-.169.471.471,0,0,1,.449.3,66.366,66.366,0,0,1,2.9,8.842,62.953,62.953,0,0,1,1.6,9.187,54.654,54.654,0,0,1-1.248,18.5A1.28,1.28,0,0,1,104.956,113.6Zm71.257-32.626a.71.71,0,0,1-.579-.272,8.039,8.039,0,0,1-.506-.762,4.073,4.073,0,0,0-1.078-1.312,6.464,6.464,0,0,0-2.51-.872c-.389-.078-.791-.159-1.165-.267a9,9,0,0,1-4.06-2.419L162.33,66.08a.345.345,0,0,1,.088-.264.388.388,0,0,1,.283-.112.439.439,0,0,1,.36.177,27.2,27.2,0,0,1,1.758,3A22.833,22.833,0,0,0,166.9,72.3a7.776,7.776,0,0,0,3.167,2.476,13.348,13.348,0,0,0,2.3.647A8.2,8.2,0,0,1,175.9,76.8a4.264,4.264,0,0,1,1.332,1.684,2.159,2.159,0,0,1-.17,2.034A1.043,1.043,0,0,1,176.213,80.977Zm6.717-6.847a1.015,1.015,0,0,1-.73-.3c-1.042-1.1-1.265-2.748-.662-4.891a21.57,21.57,0,0,1,2.219-4.831c1.683-2.859,3.981-4.842,6.413-6.941.461-.4.937-.809,1.413-1.229,3.206-2.836,5.261-6.719,7.075-10.145.531-1,1.063-2.035,1.578-3.032l.011-.02.005-.01c.63-1.222,1.282-2.485,1.942-3.717-1.073-.948-1.531-2.718-1.9-4.141-.065-.253-.127-.491-.19-.719l-.039-.138a55.133,55.133,0,0,1-1.619-7.52,41.234,41.234,0,0,1-.392-7.292l.026-.624,1.2-4.478a.476.476,0,0,1,.216-.055.471.471,0,0,1,.376.21.486.486,0,0,1-.072.747,18.011,18.011,0,0,1,.8,2.694c.223.985.465,1.99.74,3.074.26,1.025.508,2.071.748,3.083l0,.013,0,.009c.241,1.016.49,2.066.751,3.1.526,2.072,1.183,4.252,1.951,6.48.044.127.094.265.155.422l.084.216.021-.033a.222.222,0,0,1,.188-.114.238.238,0,0,1,.176.084.256.256,0,0,1,.059.208c-.021.138-.046.278-.071.413v0l0,.009c-.015.083-.031.17-.045.254l.077.2c.483,1.3.809,2.661-.072,3.8a1.8,1.8,0,0,1-1.146.756,65.665,65.665,0,0,1-2.612,7l-.286.659a39.268,39.268,0,0,1-5.249,9.342,34.393,34.393,0,0,1-3.569,3.592,26,26,0,0,0-4.528,4.909,20.518,20.518,0,0,0-2.285,4.96l-.215.669a5.336,5.336,0,0,1-2.041,3.184A.945.945,0,0,1,182.93,74.13Zm19.715-3.4a2.125,2.125,0,0,1-1.363-.468l-2.612-2.17c-.439-.365-.877-.732-1.3-1.089-.4-.334-.758-.643-1.1-.946l-.545-.481c-.062-.056-.177-.174-.322-.324a5.528,5.528,0,0,0-1.3-1.133.444.444,0,0,0-.069-.005c-.695,0-2.086,1.451-2.833,2.23l0,0c-.1.1-.186.194-.257.267l-.078.078a31.913,31.913,0,0,0-3.171,3.644.248.248,0,0,1-.2.106.233.233,0,0,1-.2-.106.237.237,0,0,1-.007-.234,32.555,32.555,0,0,1,3.087-5.32l.243-.333c.136-.183.279-.389.431-.608l.007-.01c.748-1.078,1.68-2.419,2.849-2.683a2.314,2.314,0,0,1,.508-.056c1.283,0,2.555,1.034,3.576,1.864.217.176.422.343.617.492l.079.06c.651.488,1.291.985,1.776,1.363a23.129,23.129,0,0,1,.361-4.842,13.643,13.643,0,0,1,1.668-4.5,19.979,19.979,0,0,1,3.027-3.617c.483-.492.983-1,1.451-1.525a20.39,20.39,0,0,0,2.313-3.408,25.021,25.021,0,0,1,1.792-2.781,1.158,1.158,0,0,1,.763-.434c.046-1.233.2-2.489.347-3.7l0-.018c.041-.339.084-.689.123-1.032l.052-.469c.026-.245.057-.492.089-.754.189-1.527.4-3.258-.31-4.624a9.758,9.758,0,0,0-3.08-2.967h0c-.3-.215-.582-.419-.85-.624l-1.093-.848-3.155-3.015a.4.4,0,0,1-.039-.433.6.6,0,0,1,.508-.31.465.465,0,0,1,.095.01,21.159,21.159,0,0,1,5.74,2.5c.29.162.619.345.932.516l.222.121a9.407,9.407,0,0,1,4.208,3.736c.925,1.845.879,3.952.742,6.13l-.012.192c-.034.528-.062,1.069-.09,1.594v.011a37.178,37.178,0,0,1-.616,5.848,1.725,1.725,0,0,1-.644,1.06,1.759,1.759,0,0,1-1.063.334,2.2,2.2,0,0,1-.643-.1c-.844,2.666-2.822,4.818-4.735,6.9-.663.722-1.349,1.468-1.961,2.211a10.621,10.621,0,0,0-2.257,5.789,35.05,35.05,0,0,0,.088,6.351q.028.382.056.758a1.578,1.578,0,0,1-.4,1.222A1.963,1.963,0,0,1,202.645,70.73Z" transform="translate(0 7.23)"/></g><g transform="translate(-590.674 277.987)"><g transform="translate(0 0)"><path d="M129.581,58.983c-.819-7.2.241-22.242.312-23.156.449-5.778-2.258-28.6-7.377-26.494C113.931,2.537,102.5,1.036,91.8.319,69.593-1.171,45.964,2.248,28.814,17.2,20.332,24.958,12.075,36.248,12.739,48,5.033,59.146-5.831,74.431,3.77,87.458c3.264,4.162,8.451,5.712,12.551,8.864,8.247,6.652,13.421,16.2,21.746,22.81,22.056,19.819,59.506,23.959,81.176,1.417C136,104.221,133.29,79.8,130.342,58.983,128.361,44.99,131.179,73.025,129.581,58.983Z" transform="translate(24.735 56.699)" fill="#d08b5b"/><path d="M95.253,168.678a51.008,51.008,0,0,1-7.242-.531,40.127,40.127,0,0,1-8.178-1.979A15.511,15.511,0,0,1,76,164.144a17.209,17.209,0,0,1-3.119-3,2.4,2.4,0,0,1-.257-2.4,1.471,1.471,0,0,1,1.382-.9,1.979,1.979,0,0,1,.237.015,44.969,44.969,0,0,1,8,1.569l.382.121a39.626,39.626,0,0,0,8.2,1.758c1.406.136,2.831.205,4.237.205a42.024,42.024,0,0,0,12.7-1.936,36.869,36.869,0,0,0,6.409-2.732,39.4,39.4,0,0,0,5.8-3.855A41.2,41.2,0,0,0,129.2,142.6a40.321,40.321,0,0,0,5.413-14.826A91.057,91.057,0,0,0,135.6,111.9c-.087-11.375-.457-23.276-1.1-35.371l-.107-1.963c-.272-4.981-.624-11.55-.932-18.193-.1-2.225-.249-4.043-.461-5.719a15.06,15.06,0,0,1-5.445-5.247,53.665,53.665,0,0,1-7.778,2.447,46.571,46.571,0,0,1-11.108,1.364,43.835,43.835,0,0,1-6.538-.488c-1.575.651-3.205,1.231-4.844,1.726-.455.2-.9.4-1.331.579a80.835,80.835,0,0,1-12.15,4.178l-1.026.256a41.994,41.994,0,0,1-6.927,1.243A10.1,10.1,0,0,1,74.6,57.1a20.359,20.359,0,0,1-4.8.571c-.573,0-1.154-.024-1.726-.072a3.223,3.223,0,0,1-2.591-1.672,2.646,2.646,0,0,1-.306-1.279,2.842,2.842,0,0,1,.4-1.391c.846-1.452,1.718-2.93,2.592-4.4a81.653,81.653,0,0,1-9.323,3.2c-2.813.792-5.883,1.539-9.662,2.352-.858.183-1.731.358-2.576.528h-.006c-.858.172-1.746.35-2.615.536-.276.059-.583.111-.908.166a7.374,7.374,0,0,0-3.236,1.048c-.864.694-1.242,2.08-1.575,3.3-.094.347-.184.675-.279.964-.592,1.78-1.1,3.43-1.552,5.046A104.8,104.8,0,0,0,34.116,76.3a98.763,98.763,0,0,0-1.229,10.5c-.092,1.45-.131,2.927-.167,4.356-.053,2.036-.107,4.142-.319,6.2a2.444,2.444,0,0,1-.734,1.531,2.093,2.093,0,0,1-1.437.582,2.245,2.245,0,0,1-1.49-.6c-.166-.146-.344-.3-.519-.462l-.257-.235a26.25,26.25,0,0,1-3.489-3.714c-.179-.246-.354-.508-.522-.78a.125.125,0,0,1-.076-.026l-.279-.21c-2.935-2.185-5.461-3.293-7.508-3.293a4.533,4.533,0,0,0-3.712,1.821,11.818,11.818,0,0,0-1.852,4.245l-.713,2.666a46.291,46.291,0,0,0-1.149,5.27,20.18,20.18,0,0,0-.015,6.188,11.3,11.3,0,0,0,2.474,5.594,7,7,0,0,0,4.292,2.432,5.382,5.382,0,0,0,.741.048,13.092,13.092,0,0,0,1.7-.15h.01l.347-.045a5.708,5.708,0,0,1,.712-.04c.251,0,.506.012.752.023h0c.248.011.5.023.758.023.214,0,.405-.008.585-.026.058-.006.116-.009.172-.009a1.508,1.508,0,0,1,1.312.755,2.177,2.177,0,0,1,.117,2.043,6.913,6.913,0,0,1-1.069,1.579,12.341,12.341,0,0,1,.94.906,4.692,4.692,0,0,1,2.287,1.709,3.877,3.877,0,0,1,.776,2.116c.048.17.093.351.141.571l.816,1.325c.2.324.376.605.538.859a41.366,41.366,0,0,0,7.25,8.653c1.021.929,2.092,1.838,3.127,2.717a69.957,69.957,0,0,1,5.217,4.738l.306.32a19.98,19.98,0,0,1,3.269,4.232,6.894,6.894,0,0,1,.748,5.1,1.784,1.784,0,0,1-1.662,1.244,1.294,1.294,0,0,1-.778-.251,19.077,19.077,0,0,1-4.02-4.589,28.964,28.964,0,0,0-2.54-3.273c-1.235-1.311-2.558-2.576-3.838-3.8h0c-1.245-1.19-2.532-2.42-3.737-3.692a29.7,29.7,0,0,1-5.506-8.231,4.433,4.433,0,0,1-3.05,1.247,4.178,4.178,0,0,1-2.3-.708,4.712,4.712,0,0,1-1.607-1.814,14.415,14.415,0,0,1-1.625.616,3.278,3.278,0,0,1-.958.15,2.829,2.829,0,0,1-2.4-1.366,3.7,3.7,0,0,1-.562-1.676,3.594,3.594,0,0,1,.306-1.8,11.52,11.52,0,0,1,2.211-3.3A14.013,14.013,0,0,1,7.361,120.9,15.476,15.476,0,0,1,3.1,112.7a22.838,22.838,0,0,1-.418-4.674,29.413,29.413,0,0,1,.433-4.675,46.294,46.294,0,0,1,2.759-9.555c.238-.583.469-1.1.7-1.587a.494.494,0,0,1-.377-.183c-.287-.392-.6-.765-.9-1.126A11.015,11.015,0,0,1,3.715,88.65c-.126-.259-.258-.524-.386-.781a28.939,28.939,0,0,1-1.281-2.823A35.083,35.083,0,0,1,.356,77.032,60.344,60.344,0,0,1,.8,60.765,64.991,64.991,0,0,1,4.392,47.323,66.071,66.071,0,0,1,10.7,34.989a4.417,4.417,0,0,1-.784-.525L9.8,34.358l-.2-.178a3.255,3.255,0,0,1-1.033-2.367,3.744,3.744,0,0,1,1.033-2.7l.416-.417a11.03,11.03,0,0,1,1.831-1.507c.123-.082.252-.162.384-.237A3.64,3.64,0,0,1,11.94,24.1a3.778,3.778,0,0,1,1.9-2.331,6.693,6.693,0,0,1,3.16-.7,11.3,11.3,0,0,1,4.711,1.074,60.9,60.9,0,0,1,12.35-8.56A118.173,118.173,0,0,1,50.916,6.476,145.5,145.5,0,0,1,68.6,1.76,80.343,80.343,0,0,1,84.535,0c.73,0,1.462.013,2.175.04l.467.018a53.548,53.548,0,0,1,7.381.693A18.2,18.2,0,0,1,101.5,3.3a.87.87,0,0,1,.608-.262.744.744,0,0,1,.323.073,113.769,113.769,0,0,0,13.815,5.155l1.1.359a67.489,67.489,0,0,0,15.3,3.11,3.174,3.174,0,0,1,1.519.547,3.075,3.075,0,0,1,1.04,1.179,2.393,2.393,0,0,1-.168,2.441c-.3.467-.6.932-.867,1.364l.432-.045h0c.328-.035.667-.07,1-.1.068-.007.139-.01.208-.01a2.8,2.8,0,0,1,1.987.95,2.942,2.942,0,0,1,.855,2.112,28.379,28.379,0,0,1-.316,2.855h.11a4.242,4.242,0,0,1,1.66.321,4.037,4.037,0,0,1,2.42,3.142,14.937,14.937,0,0,1,.072,4.2,17.4,17.4,0,0,1-4.217,10.286,16.344,16.344,0,0,1,2.435,3.254,17.718,17.718,0,0,1,1.612,3.873,18.288,18.288,0,0,1,.746,6.347l-.051.637c-.208,2.427-.624,4.9-2.251,6.525a3.537,3.537,0,0,1-2.547,1.087c-.118,0-.238-.006-.357-.018.609,5.357,1.005,10.842,1.359,16l.172,2.548c.473,7.161.791,13.047,1,18.525.255,6.713.343,12.778.268,18.54a79.262,79.262,0,0,1-.553,8.564,59.083,59.083,0,0,1-1.6,8.3,47.421,47.421,0,0,1-2.9,7.89,42.425,42.425,0,0,1-4.448,7.343,47.8,47.8,0,0,1-5.334,5.95,46.991,46.991,0,0,1-6.237,4.954,45.331,45.331,0,0,1-6.991,3.8,43.409,43.409,0,0,1-7.6,2.5A44.3,44.3,0,0,1,95.253,168.678ZM23.977,110.657h-.063a4.1,4.1,0,0,1-2.627-1.056,13.211,13.211,0,0,1-1.9-2.223c-.192-.26-.391-.53-.591-.788a2.613,2.613,0,0,1-.636.776l-.175.137a3.2,3.2,0,0,1-1.913.775l-.1,0a3.748,3.748,0,0,1-1.568-.423,2.841,2.841,0,0,1-1.292-1.511,3.253,3.253,0,0,1,1.163-3.866l-.23-.157a4.6,4.6,0,0,1-1.29-1.235l-.079-.126h.03a1.233,1.233,0,0,1,.708-1.819,3.7,3.7,0,0,1,1.148-.17,12.565,12.565,0,0,1,4.849,1.5l.438.2a26.033,26.033,0,0,1,6.077,4.212,3.378,3.378,0,0,1,.868,3.284l-.014.068c-.018.092-.037.187-.059.282a2.6,2.6,0,0,1-1.017,1.515A2.931,2.931,0,0,1,23.977,110.657Z" transform="translate(18.264 24.735)"/></g></g><g transform="translate(-511.905 373.12)"><path d="M41.11,72.99a14.5,14.5,0,0,1-5.5-1.1,15.53,15.53,0,0,1-3.588-2.061A15.283,15.283,0,0,1,29.1,66.884a3.017,3.017,0,0,1-.609-2.336,3.368,3.368,0,0,1,1.311-2.111,3.23,3.23,0,0,1,1.922-.669,2.789,2.789,0,0,1,.429.033,2.968,2.968,0,0,1,1.987,1.314l.117.162a10.257,10.257,0,0,0,3.758,3.153,8.532,8.532,0,0,0,3.727.87,8.262,8.262,0,0,0,.923-.052,9.706,9.706,0,0,0,4.1-1.443,19.213,19.213,0,0,0,3.476-2.9c.249-.254.512-.53.854-.894a1.352,1.352,0,0,1,.709-.546,1.453,1.453,0,0,1,.461-.074,1.57,1.57,0,0,1,1.286.671,1.434,1.434,0,0,1,.243.944,8.662,8.662,0,0,1-1.027,3.356,11.2,11.2,0,0,1-2.2,2.821A14.123,14.123,0,0,1,47.251,71.5a13.855,13.855,0,0,1-3.693,1.266A13.6,13.6,0,0,1,41.11,72.99Zm3.869-21.912h0a13.285,13.285,0,0,1-4.737-.955,23.925,23.925,0,0,1-5.571-3.161,2.14,2.14,0,0,1-.778-1.236A2.561,2.561,0,0,1,34,44.338a3.158,3.158,0,0,1,.938-1.356,2.283,2.283,0,0,1,1.462-.57,2.074,2.074,0,0,1,1.131.347l.377.291,0,0A30.158,30.158,0,0,0,41.4,45.478a8.591,8.591,0,0,0,4.18,1.333,4.513,4.513,0,0,0,1.766-.347A4.936,4.936,0,0,0,48.993,45.3a5.044,5.044,0,0,0,.957-4.061,7.67,7.67,0,0,0-2.036-3.6,14.843,14.843,0,0,0-3.082-2.487.955.955,0,0,1-.259-1.1,1.434,1.434,0,0,1,.475-.684,1.458,1.458,0,0,1,.91-.3,1.939,1.939,0,0,1,.327.029,10.334,10.334,0,0,1,3.634,1.313,8.244,8.244,0,0,1,2.444,2.253,8.953,8.953,0,0,1,1.561,5.981,9.855,9.855,0,0,1-.8,3.139,9.159,9.159,0,0,1-1.8,2.7A8.61,8.61,0,0,1,44.979,51.078Zm-30.823-21.4a3.106,3.106,0,0,1-2.016-.79,3.14,3.14,0,0,1-1.057-2.031A22.868,22.868,0,0,1,11.2,20.9c.072-.579.146-1.177.2-1.822a3.565,3.565,0,0,1,1.351-2.548,4.162,4.162,0,0,1,2.56-.9,3.155,3.155,0,0,1,1.936.609,2.87,2.87,0,0,1,1.069,1.9,15.977,15.977,0,0,1-1.668,9.847,3.159,3.159,0,0,1-1.114,1.289A2.57,2.57,0,0,1,14.156,29.681ZM59.4,28.33a2.717,2.717,0,0,1-2.13-.913,8.325,8.325,0,0,1-1.3-2.207,9.614,9.614,0,0,1-.663-2.659,5.637,5.637,0,0,1,1.537-4.838,3.19,3.19,0,0,1,.246-.375A3.482,3.482,0,0,1,59.769,15.8a2.9,2.9,0,0,1,.813.12A3.918,3.918,0,0,1,63.2,18.2a8.075,8.075,0,0,1,.324,4.417,14.784,14.784,0,0,1-1.339,4.167,2.7,2.7,0,0,1-1.158,1.143A3.508,3.508,0,0,1,59.4,28.33ZM.5,14.14a.493.493,0,0,1-.412-.253.551.551,0,0,1-.033-.541A18.77,18.77,0,0,1,4.265,8.02,26.021,26.021,0,0,1,9.9,4.172a24.223,24.223,0,0,1,6.689-2.334l.714-.125A17.406,17.406,0,0,1,20.22,1.4a4.511,4.511,0,0,1,3.6,1.343,3.06,3.06,0,0,1,.724,2.174,1.992,1.992,0,0,1-.724,1.421,5.549,5.549,0,0,1-3.8,1.116c-.3,0-.61-.008-.909-.015H19.1c-.288-.007-.615-.015-.939-.015-.3,0-.565.007-.814.021a25.72,25.72,0,0,0-5.662.965C7.657,9.557,4.356,11.645.764,14.055A.469.469,0,0,1,.5,14.14ZM69.39,11.259h0c-.1-.024-.2-.05-.3-.075a17.04,17.04,0,0,1-3.3-1.289l-1.073-.528a29.794,29.794,0,0,0-3.831-1.632,45.205,45.205,0,0,0-8.726-1.927,3.565,3.565,0,0,1-1.75-.664,2.623,2.623,0,0,1-.979-1.491,2.668,2.668,0,0,1,.3-2.235A2.847,2.847,0,0,1,51.11.225,3.108,3.108,0,0,1,52.288,0a3.47,3.47,0,0,1,.68.068l.547.112a39.053,39.053,0,0,1,9.424,3.061,19.056,19.056,0,0,1,4.145,2.725,12.1,12.1,0,0,1,2.93,3.787c.1.791.007.987-.1,1.12l-.03.038-.027.036a.758.758,0,0,1-.468.311Z" transform="translate(0 0)"/></g><g transform="translate(-378.909 589.452)"><path d="M.111,0,0,16.392.111,32.785" transform="translate(9.426 30.647) rotate(-159)" fill="none" stroke="#001a34" stroke-linecap="round" stroke-linejoin="round" stroke-width="2"/><g transform="translate(0 7.801)"><path d="M16,21.112l7.556-7.556L16,6" transform="translate(6.723 -6)" fill="none" stroke="#001a34" stroke-linecap="round" stroke-linejoin="round" stroke-width="2"/><path d="M9.556,6,2,13.556l7.556,7.556" transform="translate(-2 -6)" fill="none" stroke="#001a34" stroke-linecap="round" stroke-linejoin="round" stroke-width="2"/></g></g></g></svg>