<svg xmlns="http://www.w3.org/2000/svg" width="357.884" height="424.017" viewBox="0 0 357.884 424.017"><g transform="translate(888.497 -1320.557)"><g transform="translate(-888.497 1458.186)"><path d="M155.618.071c11.294.557,28.88,5.4,29.759,8.494,1.373,4.832-1.577,22.948,3.357,32.705,2.1,4.16,10.091,3.787,13.185,5.141,10.355,4.533,41.01,13.129,47.33,23.953,2.532,4.336,18.094,58.143,26.363,85.594a79.586,79.586,0,0,0,3.13,8.608l.421-2.06q5.057-24.887,5.057-30.132c0-5.464-4.358-28.515,0-34.377,4.315-5.8,14.713-10.549,19.391-10.643h.14a11.953,11.953,0,0,0,8-2.88l3.312-1.666q25.273-12.682,29.531-13.913c4.53-1.31,12.239,1.48,8.385,5.669q-3.855,4.189-19.373,14.819l-3.9,3.1.471.246q7.562,3.981,8.893,6.7,1.372,2.8-1.316,6.634l.272.265q3.4,3.336,3.4,4.475v3.71q3.382,4.952,1.691,8.26a15.258,15.258,0,0,1-5.362,5.733q-2.705,7.116-6.443,10.129t-12.919,5.016L312.847,156.9,308.358,175.5,306.1,196.265l.657.475c3.044,2.217,4.993,3.86,4.993,5.558,0,2.645-12.281,64.861-31.387,67.645-4.132.6-25.562-2.352-32.6-8.075l.1.618q2.483,15-1.051,15.579-43.433,7.121-246.7,4.4Q-1.1,174.58,11.047,138.765C31.757,77.7,54.591,56.842,62.579,55.056c7-1.565,31.262-11.222,38.045-13.786,4.428-1.673,5.376-6.69,10.422-6.69l.408,0c4.88.049,9.207.922,11.638-1.588,6.38-6.586,4.6-15.7,7.243-24.43C131.793,3.755,141.759-.613,155.618.071Z" transform="translate(3.296 0)" fill="#d08b5b"/><path d="M111.046,0l.408,0c1.206.012,2.378.075,3.5.124l-2.356,8.028L112.544,9Q110.249,50.514,153.2,48.746t42.734-27.174l-.009-.516V10.517l.451.086a31.113,31.113,0,0,1,5.539,1.228c10.355,4.533,41.01,13.129,47.33,23.953,2.532,4.336,18.094,58.143,26.363,85.594q.453,1.5.944,2.937v5.425l-.09.329q-4.347,16.259,11.576,26.586a63.55,63.55,0,0,0,23.182,9.5,2.868,2.868,0,0,1,.523,1.56c0,2.645-12.281,64.861-31.387,67.645-4.132.6-25.562-2.352-32.6-8.075l.1.618.1.594q2.316,14.417-1.148,14.984-43.433,7.121-246.7,4.4Q-1.1,140,11.047,104.184c20.71-61.066,43.544-81.923,51.533-83.709,7-1.565,31.262-11.222,38.045-13.786C105.052,5.017,106,0,111.046,0Z" transform="translate(3.296 34.58)" fill="#001a34"/><path d="M145.515,270.07a23.124,23.124,0,0,1-4.621-.4,10.9,10.9,0,0,1-4.01-1.608,3.22,3.22,0,0,1-1.487-1.016,8.556,8.556,0,0,1-1.26-2,29.727,29.727,0,0,1-1.943-6.181c-1.075-4.835-1.768-10.863-2.325-15.707a79.769,79.769,0,0,0-1.305-9.007l-.628-4.226c-2.277-15.374-4.917-33.578-7.229-52.021-2.4-19.187-4.164-36.312-5.379-52.352-.681-8.987-1.2-17.814-1.544-26.237-.365-8.946-.547-17.776-.539-26.244.008-8.913.226-17.736.647-26.225.44-8.877,1.118-17.685,2.014-26.181a12.156,12.156,0,0,0-3.469.62,10.308,10.308,0,0,0-2.787,1.458,13.082,13.082,0,0,0-3.846,4.791,26.075,26.075,0,0,0-2.07,6.224,54.735,54.735,0,0,0-.928,6.378,63.4,63.4,0,0,1-2.643,12.122c-1.23,3.949-2.745,7.892-4.211,11.705v0c-1.663,4.327-3.383,8.8-4.687,13.292a65.563,65.563,0,0,0-1.618,6.817,48.041,48.041,0,0,0-.75,7.027,30.462,30.462,0,0,0,2.516,12.569c.731,1.55,1.529,3.105,2.374,4.752,2.228,4.341,4.531,8.829,5.672,13.427a21.542,21.542,0,0,1,.664,6.935,17.134,17.134,0,0,1-.635,3.476,17.567,17.567,0,0,1-1.441,3.464,39.238,39.238,0,0,0-3.928,5.407,12.264,12.264,0,0,0-1.612,4.423c-.419,2.918.353,6.053,1.632,11.247l.05.2c1.566,7.478,3.382,15.05,5.55,23.151,1.932,7.216,4.1,14.688,6.632,22.845,4.7,15.15,9.968,30.4,15.06,45.157,1.2,3.475,2.44,7.068,3.659,10.62-.283,1.475-.744,2.223-1.369,2.223-.453,0-1-.392-1.632-1.164a20.333,20.333,0,0,1-1.991-3.16,104.112,104.112,0,0,1-4.567-10.307c-3.141-7.977-6.2-17.107-8.022-22.562l0-.013c-.681-2.034-1.173-3.5-1.376-4.027a5.421,5.421,0,0,1-2.432.627,4.117,4.117,0,0,1-1.792-.4,4.442,4.442,0,0,1-1.4-1.061,5.307,5.307,0,0,1-1.314-3.208,4.188,4.188,0,0,1,.915-2.922,4.09,4.09,0,0,1,1.348-1.043,5.936,5.936,0,0,1,2.013-.547c-5.466-18.3-9.778-34.553-13.181-49.7l-.1-.471c-.225-1.046-.473-2.091-.736-3.2a50.646,50.646,0,0,1-1.744-10.6,17.213,17.213,0,0,1,.618-5.121,13.424,13.424,0,0,1,2.451-4.719c8.19-8.282,3.838-17.113-.769-26.464-3.4-6.9-6.912-14.028-5.648-21.419a3.763,3.763,0,0,1-2.258.743,4.23,4.23,0,0,1-1.644-.341,4.355,4.355,0,0,1-1.389-.944,3.819,3.819,0,0,1-1.117-2.76,3.656,3.656,0,0,1,1.055-2.717A4.409,4.409,0,0,1,82.118,82.2a3.728,3.728,0,0,1,2.894,1.324,65.432,65.432,0,0,1,2.766-10.431c1.175-3.4,2.563-6.8,3.9-10.086,1.313-3.216,2.671-6.542,3.829-9.867A66.789,66.789,0,0,0,98.274,42.95l.114-.662c.188-1.1.35-2.225.506-3.317v0c.555-3.885,1.129-7.9,3.037-11.443A67.372,67.372,0,0,1,91.4,32.98a5.415,5.415,0,0,1,1.689,2.186,2.738,2.738,0,0,1,.03,1.931,3.5,3.5,0,0,1-1.489,1.731,4.4,4.4,0,0,1-2.275.661,2.941,2.941,0,0,1-2.253-.942,3.212,3.212,0,0,1-.7-1.413,6.149,6.149,0,0,1-.067-2.149c-4.522,1.308-8.506,2.649-12.18,4.1a83.836,83.836,0,0,0-9.968,4.655,60,60,0,0,0-8.14,5.381,53.32,53.32,0,0,0-6.7,6.278A72.939,72.939,0,0,0,38.767,71.331c-3.354,6.547-6.507,14.24-9.415,21.578A2.892,2.892,0,0,1,31.4,92.06a3.6,3.6,0,0,1,2.966,1.693,3.369,3.369,0,0,1-1.01,4.388,3.242,3.242,0,0,1-1.729.476,3.633,3.633,0,0,1-2.308-.819,2.909,2.909,0,0,1-1.059-2.3l-.6,1.427c-4.707,11.256-8.218,20.459-11.048,28.963A213.36,213.36,0,0,0,8.8,155.857a6.215,6.215,0,0,1,.864-.063,3.674,3.674,0,0,1,2.729,1.044,3.458,3.458,0,0,1,.784,1.318,4.362,4.362,0,0,1,.213,1.552,4.573,4.573,0,0,1-.982,2.691,3.236,3.236,0,0,1-2.567,1.223,4.949,4.949,0,0,1-2.189-.574A248.3,248.3,0,0,0,5.4,190.382c-.312,9.657-.209,19.292-.068,27.443a4.519,4.519,0,0,1,2.063-.589,2.328,2.328,0,0,1,1.886.885,3.174,3.174,0,0,1,.647,1.946,3.016,3.016,0,0,1-.794,2.154,2.336,2.336,0,0,1-1.7.676,4.656,4.656,0,0,1-2.04-.556c.126,8.415.289,16.971.445,25.245.122,6.437.248,13.092.357,19.673a2.277,2.277,0,0,1-.623,1.68,2.519,2.519,0,0,1-1.8.7,2.647,2.647,0,0,1-1.71-.6,2.335,2.335,0,0,1-.814-1.787C1.118,261.873.955,256.4.8,251.108.282,233.761-.252,215.823.129,198.193c-.058-4.915.068-9.93.372-14.908.3-4.864.775-9.83,1.419-14.758.628-4.81,1.433-9.72,2.391-14.592.934-4.75,2.04-9.6,3.289-14.412A283.249,283.249,0,0,1,16.575,111.3c3.351-8.934,7.28-18.127,11.678-27.324,3.548-9.655,7.463-17.451,11.97-23.832a62.684,62.684,0,0,1,7.023-8.36A59.024,59.024,0,0,1,55.119,45.2,86.3,86.3,0,0,1,73.9,35.586c7.014-2.712,14.71-5.091,23.622-7.846h0q2.54-.785,5.246-1.626a20.466,20.466,0,0,1,5.642-5.541A13.714,13.714,0,0,1,115.8,18.1a9.024,9.024,0,0,1,4.3,1.066,66.8,66.8,0,0,0,5.387-12.026c.757-2.04,1.54-4.149,2.4-6.144a1.9,1.9,0,0,1,1.81-1,4.032,4.032,0,0,1,1.774.449,3.61,3.61,0,0,1,1.417,3.735A17.7,17.7,0,0,1,131.339,8.6a22.9,22.9,0,0,0-1,2.437,35.751,35.751,0,0,1-2.2,4.448,31.372,31.372,0,0,1-2.865,4.122,22.558,22.558,0,0,1-7.661,6.163c.081.982.167,2.014.237,2.844.416,4.954.846,10.076,1.019,15.133,3.42,4.242,8.154,7.61,14.472,10.295a105.961,105.961,0,0,0,17.3,5.212,34.886,34.886,0,0,0,9.3,1.25A37.149,37.149,0,0,0,171.024,58.8a38.171,38.171,0,0,0,10.066-4.85,36.31,36.31,0,0,0,8.18-7.592,33.606,33.606,0,0,0,5.419-9.933,13.3,13.3,0,0,1-4.28-3.959,18.422,18.422,0,0,1-2.576-5.444,22.492,22.492,0,0,1-.906-6.048,20.194,20.194,0,0,1,.729-5.771.78.78,0,0,1,.709-.491.557.557,0,0,1,.52.328A24.625,24.625,0,0,1,190.6,20.9a22.333,22.333,0,0,0,2.05,6.531,129.762,129.762,0,0,1,16.192,2.6,115.918,115.918,0,0,1,16.646,5.054,82.868,82.868,0,0,1,15.321,7.794A53.388,53.388,0,0,1,253.023,53.7c4.911,6.844,7.363,15.344,9.733,23.564v0c.488,1.693.993,3.444,1.5,5.122,3.275,10.378,6.251,21.041,9.128,31.353v0c2.615,9.371,5.319,19.062,8.239,28.506l.723-3.753c.95-4.957,1.923-10.245,2.466-15.6a68.859,68.859,0,0,0-.023-15.73l-.024-.5c-.07-1.344-.2-2.885-.333-4.517-.709-8.569-1.68-20.3,3.765-25.042a35.823,35.823,0,0,1,8.076-4.657,24.337,24.337,0,0,1,9.157-1.962,16.659,16.659,0,0,1,4.5.6A143.291,143.291,0,0,0,325.1,62.806c3.65-2.189,7.422-4.451,11.25-6.407,2.061-1.052,3.973-1.935,5.845-2.7a53.842,53.842,0,0,1,6.112-2.09,13.737,13.737,0,0,1,2.724-.276,10.684,10.684,0,0,1,3.3.484,5.492,5.492,0,0,1,2.543,1.616,4.891,4.891,0,0,1,.892,4.166,16.29,16.29,0,0,1-2.527,5.24,22.5,22.5,0,0,1-3.975,4.179,65.75,65.75,0,0,1-10.127,6.457c-2.141,1.19-4.163,2.313-6.024,3.527a13.4,13.4,0,0,1,4.962,2.684,12.838,12.838,0,0,1,2.026,2.126,9.2,9.2,0,0,1,1.339,2.458,6.109,6.109,0,0,1-.9,5.886,1.749,1.749,0,0,1-.1.229,5.256,5.256,0,0,1,1.951,1.456,5.541,5.541,0,0,1,1.041,2.025,7.858,7.858,0,0,1,.277,2.339,10.661,10.661,0,0,1-.341,2.4c-.034.344-.091.421-.112.449s-.011.015.01.036a2.081,2.081,0,0,1,.288.379,5.645,5.645,0,0,1,1.27,1.848,8.456,8.456,0,0,1,.63,2.345,11,11,0,0,1-.559,5.053,7.58,7.58,0,0,1-1.854,2.949,4.685,4.685,0,0,1-2.988,1.319,11.37,11.37,0,0,1-1.626,6.57,15.009,15.009,0,0,1-2.086,2.783,15.465,15.465,0,0,1-2.619,2.22,24.008,24.008,0,0,1-5.7,2.489,35.591,35.591,0,0,0-4.065,1.561,10.9,10.9,0,0,0-3.434,2.467,73.086,73.086,0,0,0-4.967,10.786,92.27,92.27,0,0,0-3.35,11.442,141.725,141.725,0,0,0-3.079,23.733,12.992,12.992,0,0,1,4.394,2.771,8.585,8.585,0,0,1,2.509,4.148,5.618,5.618,0,0,1-.071,2.85,6.972,6.972,0,0,1-1.724,2.854h0c-.09.011-.183.021-.275.029-2.2,5.87-3.324,12.145-4.412,18.213-.257,1.437-.523,2.921-.8,4.374a73.954,73.954,0,0,1-2.3,9.506,84.16,84.16,0,0,1-3.447,9.1c-1.278,2.873-2.763,5.8-4.413,8.7-1.554,2.731-3.3,5.521-5.2,8.291a19.2,19.2,0,0,1-3.87,4.638,20.647,20.647,0,0,1-4.938,3.169A25.359,25.359,0,0,1,280.9,257.5a31.753,31.753,0,0,1-6.136.58,38.747,38.747,0,0,1-12.086-2,33.576,33.576,0,0,1-10.252-5.411c.011.561.041,1.129.07,1.678a14.693,14.693,0,0,1-.4,5.474,2.665,2.665,0,0,1-.844,1.093,1.771,1.771,0,0,1-1.038.341,2.119,2.119,0,0,1-1.5-.681,3.057,3.057,0,0,1-.818-1.8,4.5,4.5,0,0,1-2.178.651,2.763,2.763,0,0,1-2.22-1.085,4.145,4.145,0,0,1-.843-2.387,3.552,3.552,0,0,1,.888-2.605,2.989,2.989,0,0,1,2.219-.867,5.419,5.419,0,0,1,1.378.195c-.555-8.71-.852-17.319-1.069-24.591a6.169,6.169,0,0,1-1.888.323,3.77,3.77,0,0,1-2.962-1.308,4.609,4.609,0,0,1-1.053-2.877,4.314,4.314,0,0,1,1.122-3.129,3.623,3.623,0,0,1,2.67-1.055,6.386,6.386,0,0,1,1.955.339l-.009-3.522c-.028-12.887.019-26.716.544-40.53.567-14.937,1.634-28.143,3.261-40.371.164-1,.389-2,.606-2.961s.444-1.974.608-2.974a.151.151,0,0,1,.158-.129.192.192,0,0,1,.2.179c.207,14.058-.012,28.364-.223,42.2-.177,11.544-.359,23.481-.294,35.222.073,13.167.458,24.684,1.175,35.209a6.368,6.368,0,0,1,3.032,2.7,11.847,11.847,0,0,0,1.523,1.816,19.052,19.052,0,0,0,6.029,3.683,27.883,27.883,0,0,0,6.9,1.67,39.789,39.789,0,0,0,5.537.426c4.593,0,8.124-1.069,11.111-3.365,2.787-2.142,5.209-5.4,7.854-10.563a2.938,2.938,0,0,1-1.657.511,3.263,3.263,0,0,1-1.68-.482,3.5,3.5,0,0,1-1.223-1.237,2.955,2.955,0,0,1-.4-1.392,2.847,2.847,0,0,1,.4-1.515l.05-.084a2.84,2.84,0,0,1,2.542-1.494,3.439,3.439,0,0,1,1.425.317,3.342,3.342,0,0,1,1.165.881,2.866,2.866,0,0,1,.57,1.078,2.974,2.974,0,0,1,.051,1.332,71.94,71.94,0,0,0,6.926-14.8,130.146,130.146,0,0,0,4.237-15.816l.306-1.279c.515-2.131,1.155-4.64,2-7.1a31.468,31.468,0,0,1,3.157-6.772,52.382,52.382,0,0,1-22.252-11.972c-6.723-6.206-10.9-13.726-12.078-21.748-3.557,11.176-8.276,22.28-12.84,33.019l0,.007c-.672,1.58-1.366,3.214-2.044,4.819-.59,1.571-1.062,3.209-1.518,4.793a36.1,36.1,0,0,1-3.122,8.233,1.151,1.151,0,0,1-1.016.585,1.256,1.256,0,0,1-1.211-.876c-1.583-7.075,1.633-13.867,4.742-20.435,1.033-2.183,2.009-4.244,2.822-6.323.716-1.267,1.8-3.773,3.064-6.675,1.75-4.032,3.929-9.049,6.09-13.015a31.21,31.21,0,0,1,3.191-4.95c1.092-1.311,2.065-1.98,2.892-1.99-2.073-9.086-4.61-19-7.758-30.3-2.8-10.071-5.817-20.271-8.73-30.135-.968-3.279-1.97-6.669-2.947-10a77.009,77.009,0,0,0-6.385-19.326,42.978,42.978,0,0,0-4.4-6.944,38.936,38.936,0,0,0-5.334-5.588,56.784,56.784,0,0,0-13.854-8.483c-5.154-2.35-10.993-4.489-18.744-7.179a83.342,83.342,0,0,0,3.9,13.2c1.649,4.387,3.591,8.839,5.47,13.145v0c1.855,4.252,3.773,8.648,5.414,12.992a86.023,86.023,0,0,1,3.933,13.1,47.585,47.585,0,0,1,.96,13.289,39.743,39.743,0,0,1-1.1,6.741,40.827,40.827,0,0,1-2.4,6.818l-.305.715a24.526,24.526,0,0,0-1.542,4.608,10.375,10.375,0,0,0,.09,4.83,28.446,28.446,0,0,0,3.188,6.781c.414.711.843,1.446,1.24,2.178a36.406,36.406,0,0,1,2.369,5.432,39.2,39.2,0,0,1,1.453,5.589,50.744,50.744,0,0,1,.7,11.5c-.341,7.764-2.051,15.648-3.706,23.272-.5,2.3-1.017,4.688-1.475,6.983-.9,4.2-1.821,8.48-2.708,12.616l-.032.15c-3.338,15.568-6.79,31.665-10.31,47.476-.257,1.17-.492,2.37-.719,3.531a64.011,64.011,0,0,1-2.06,8.468,1.949,1.949,0,0,1-.828,1.031,2.358,2.358,0,0,1-1.23.343,1.93,1.93,0,0,1-1.439-.577,1.67,1.67,0,0,1-.393-1.321,72.992,72.992,0,0,1,1.776-9.6c.287-1.24.584-2.522.849-3.788,2.321-12.022,5.029-24.185,7.648-35.948v0c3.652-16.4,7.428-33.365,10.214-50.2a44.6,44.6,0,0,0,.467-8.217,31.66,31.66,0,0,0-.929-6.472,43.7,43.7,0,0,0-4.048-9.771c-2.192-4.224-4.263-8.213-4.072-14.065A56.636,56.636,0,0,1,223.3,111.9a66.8,66.8,0,0,0,2.269-6.447,22.57,22.57,0,0,0,.9-6.8,48.484,48.484,0,0,0-.515-9.249,65.107,65.107,0,0,0-2.008-8.911,169.378,169.378,0,0,0-6.507-17.262c-1.952-4.658-3.97-9.474-5.577-14.3-.865-2.6-1.545-4.991-2.079-7.316a56.545,56.545,0,0,1-1.227-7.513L204.9,32.79c-2.211-.791-3.9-1.406-5.483-1.993,4.408,30.832,6.482,64.017,6.341,101.452-.06,15.865-.51,32.528-1.376,50.941-.708,15.049-1.686,31.178-3.079,50.759-.309.981-.426,4.761-.575,9.546-.149,4.814-.335,10.8-.792,15.458a36.359,36.359,0,0,1-.922,5.788,6.42,6.42,0,0,1-.673,1.688,1.069,1.069,0,0,1-.845.609h0a.821.821,0,0,1-.349-.084,3.624,3.624,0,0,1-.677,1.656,1.924,1.924,0,0,1-1.568.747h-.011c-8.067.074-16.253.183-24.169.289h-.092c-4.58.061-9.316.125-13.973.18-.681-.063-1.422-.093-2.267-.093-1.38,0-2.8.08-4.305.165h-.005l-.06,0h-.006C148.539,269.984,147.019,270.07,145.515,270.07Zm159.4-196.462h0a16.44,16.44,0,0,0-6.26,1.447l-.9.338a32.973,32.973,0,0,0-4.609,2.071,11.076,11.076,0,0,0-3.727,3.189c-.927,1.332-.941,3.559-.954,5.523,0,.7-.008,1.352-.054,1.909a69.671,69.671,0,0,0-.377,10.3c.1,3.073.372,6.434.835,10.274a94.178,94.178,0,0,1-1.593,24.158,101.337,101.337,0,0,1-7.426,23.062,91.13,91.13,0,0,0,5.48,7.938,67.9,67.9,0,0,0,6.426,7.207,51.823,51.823,0,0,0,7.466,6.018,42.515,42.515,0,0,0,8.6,4.373,154.213,154.213,0,0,1,1.985-18.385c.937-5.75,2.088-11.419,3.528-18.161l.1-.526c.147-.775.285-1.566.419-2.331a56.751,56.751,0,0,1,1.508-6.9,21.949,21.949,0,0,1,1.279-3.263,16.91,16.91,0,0,1,1.91-3.042c3-3.255,6.471-4.41,9.83-5.526a24.328,24.328,0,0,0,6.849-3.091,13.256,13.256,0,0,0,2.941-2.91,18.525,18.525,0,0,0,2.418-4.566.983.983,0,0,1-.488-1.143,1,1,0,0,1,.95-.81,1.125,1.125,0,0,1,.3.042,3.159,3.159,0,0,0,.55.05,2.548,2.548,0,0,0,1.845-.77,4.44,4.44,0,0,0,1.064-1.9,7.538,7.538,0,0,0,.135-3.578,4.155,4.155,0,0,0-1.589-2.7,2.937,2.937,0,0,1-.956-.885,2.5,2.5,0,0,1-.384-1.035,7.453,7.453,0,0,1,.188-2.337,5.163,5.163,0,0,0-.1-3.357,3.431,3.431,0,0,0-1.381-1.036,3.42,3.42,0,0,1-1.554-1.251c-.662-1.6.11-2.995.857-4.346A10.8,10.8,0,0,0,340.9,85.8a3.011,3.011,0,0,0,.042-1.906,4.477,4.477,0,0,0-1.5-1.978,17.089,17.089,0,0,0-3.737-2.21,9.077,9.077,0,0,0-3.093-.45c-.644,0-1.288.036-1.91.071l-.035,0c-.608.034-1.236.069-1.832.069h-.059a14.739,14.739,0,0,0-5.146,1.809,18.383,18.383,0,0,1-3.763,1.544,10.992,10.992,0,0,1,.651,2.536,10.094,10.094,0,0,1,.025,2.427,9.2,9.2,0,0,1-1.526,4.171,7.775,7.775,0,0,1-2.536,2.365,6.606,6.606,0,0,1-3.3.882,7.3,7.3,0,0,1-2.838-.6,10.368,10.368,0,0,1-2.919-1.914,20,20,0,0,0-3.5,4.512c-1.006,1.8-1.371,3.262-1.027,4.125a1.672,1.672,0,0,0,1.755.924,11.5,11.5,0,0,0,4.042-1.059c1.482-.989,2.923-2.084,4.317-3.143,1.571-1.194,3.2-2.428,4.879-3.51a26.06,26.06,0,0,1,5.393-2.718l.118-.037c.357-.117.908-.339,1.607-.62,2.173-.875,5.455-2.2,7.452-2.2a1.837,1.837,0,0,1,1.417.457,1.337,1.337,0,0,1,.257,1.085,10.962,10.962,0,0,1-3.263,2.1,36.261,36.261,0,0,1-3.786,1.334,22.347,22.347,0,0,0-5.935,2.492,27.028,27.028,0,0,0-5.585,3.844,31.934,31.934,0,0,1-4.486,3.263,12,12,0,0,1-2.5,1.07,9.909,9.909,0,0,1-2.824.405h-.134c-.318,1.929-.123,3.326.579,4.154a2.953,2.953,0,0,0,2.373.917,13.369,13.369,0,0,0,5.2-1.449,36.621,36.621,0,0,0,4.622-2.56l1.075-.583c5.549-3,11.055-5.692,17.4-5.728h.011a1.274,1.274,0,0,1,1.306,1.337,1.447,1.447,0,0,1-.326.947,1.275,1.275,0,0,1-.991.442,21.118,21.118,0,0,0-4.857.606,28.315,28.315,0,0,0-4.565,1.543,74.831,74.831,0,0,0-8.6,4.622c-1.317.783-2.678,1.593-4.021,2.339a2.952,2.952,0,0,0,.547,2.413,3.969,3.969,0,0,0,3.079,1,25.286,25.286,0,0,0,6.094-1.084l.413-.111a18.72,18.72,0,0,0,3.681-1.15,16.17,16.17,0,0,1,5.238-1.4,3.45,3.45,0,0,1,1.944.516,1.547,1.547,0,0,1,.007,1.348c-.468.866-1.978,1.186-3.311,1.469a8.921,8.921,0,0,0-1.965.557c2.781,1.336,3.618,2.488,3.474,3.121-.075.33-.415.526-.908.526a3.212,3.212,0,0,1-1.9-.764,5.7,5.7,0,0,1-1.747-2.551l-.586.2a34.4,34.4,0,0,1-10.329,2.142c-2.208,0-3.77-.523-4.642-1.556a4.66,4.66,0,0,1-.721-3.919,11.319,11.319,0,0,1-4.457,1.017,7.531,7.531,0,0,1-1.63-.172,12.217,12.217,0,0,1-3.485,3.484,5.947,5.947,0,0,1-2.932,1.05c-.564,0-.927-.193-1-.529-.094-.452.331-1.092,1.2-1.8a21.4,21.4,0,0,1,4.82-2.714A4,4,0,0,1,304,111.008a5.723,5.723,0,0,1-.759-2.388,4.829,4.829,0,0,1,.258-2.092,3.353,3.353,0,0,1,1.23-1.619c-2.459-.15-3.949-.96-4.429-2.407-.6-1.807.5-4.188,1.519-5.868a23.206,23.206,0,0,1,2.141-2.932,19.866,19.866,0,0,1,2.209-2.236c-.39-.394-.728-.758-1.033-1.11a20.471,20.471,0,0,1-3.387,1.262,20.754,20.754,0,0,1-3.591.645c-.06.005-.12.008-.179.008a1.7,1.7,0,0,1-1.339-.635,2.471,2.471,0,0,1-.54-1.405,1.836,1.836,0,0,1,1.5-2.109,19.064,19.064,0,0,0,7.006-2.276,2.465,2.465,0,0,1,.975-.217c1.286,0,2.226,1.188,3.223,2.445,1.029,1.3,2.093,2.642,3.618,2.742a2.653,2.653,0,0,0,.512.051,2.555,2.555,0,0,0,1.908-.9,4.447,4.447,0,0,0,1-1.983,32.582,32.582,0,0,0-1.034-5.188,18.481,18.481,0,0,0-2-4.614,8.924,8.924,0,0,0-7.894-4.572Zm46.766-18.892a7.286,7.286,0,0,0-1.421.153c-5.172.7-10.064,3.391-14.795,5.994-1.317.725-2.561,1.409-3.814,2.054-3.926,2.074-8,3.956-11.939,5.776h0c-2.428,1.122-4.936,2.281-7.4,3.478a14.627,14.627,0,0,1,3.516,3.081,22.039,22.039,0,0,1,2.652,4.048,16.714,16.714,0,0,1,5.054-2.578,21.106,21.106,0,0,1,5.616-.962,26.951,26.951,0,0,1,4.962-3.66c1.795-1.064,3.731-2.028,5.6-2.96a67.106,67.106,0,0,0,7.327-4.036,25.312,25.312,0,0,0,3.246-2.537,18.794,18.794,0,0,0,2.735-3.155,5.874,5.874,0,0,0,1.148-2,2.15,2.15,0,0,0-.047-1.551,2.492,2.492,0,0,0-2.444-1.142ZM54.185,262.848a2.16,2.16,0,0,1-1.94-1.086,2.571,2.571,0,0,1,.709-2.97.688.688,0,0,0-.034-.075c-.008-.017-.016-.033-.024-.049-.055-.159-.124-.317-.19-.469a5.313,5.313,0,0,1-.221-.562,9.263,9.263,0,0,1-.256-2.828c0-.21.005-.426,0-.638,0-1.684.048-3.4.094-5.051v0q.015-.542.03-1.083c.13-4.714.271-8.98.43-13.042.634-16.025,1.885-31.77,2.9-43.7l.422-4.907c.571-6.632,1.151-13.117,1.966-19.548.037-.3.077-.619.12-.931a4.3,4.3,0,0,1-1.179-.868,15.719,15.719,0,0,1-2.663-4.762l-.178-.426-.171-.4a28.428,28.428,0,0,1-1.935-5.815l-.037-.186-.017-.085c-.177-.867-.474-2.318.41-2.722a.937.937,0,0,1,.38-.1c.257,0,.444.172.554.511a.226.226,0,0,1-.031.186,8.218,8.218,0,0,0,.723.9,8.743,8.743,0,0,1,.615.751l1.274,1.821.63.915c.706,1.039,1.51,2.122,2.532,3.408a111.248,111.248,0,0,1,2.865-14.461.423.423,0,0,1,.417-.324.465.465,0,0,1,.474.444,166.6,166.6,0,0,1-.407,19.458c-.15,2.218-.322,4.47-.488,6.647v.016c-.13,1.7-.264,3.466-.387,5.193-.737,10.328-1.34,20.817-1.791,31.178a4.067,4.067,0,0,1,.492-.171,4.39,4.39,0,0,1,2.35,0,4.38,4.38,0,0,1,1.835,1.028l.111.108a4.973,4.973,0,0,1,1.3,2.981l0,.14a4.343,4.343,0,0,1-.6,2.229,4.481,4.481,0,0,1-1.582,1.585,4.433,4.433,0,0,1-2.229.6c-.082.008-.169.016-.256.02l-.141,0a3.247,3.247,0,0,1-1.519-.371l-.077-.023c-.2,5.4-.356,10.725-.469,15.837-.045,1.976-.1,3.973-.147,5.905-.067,2.589-.137,5.265-.19,7.9l-.043,2.3-.084,5.087q0,.162,0,.323a17.04,17.04,0,0,1-.721,5.746l-.085.227c-.091.236-.177.482-.269.743-.415,1.19-.886,2.539-2.012,3.141a2.665,2.665,0,0,1-1.254.315ZM116,257.175a2.917,2.917,0,0,1-1.794-.62l-.079-.058-.076-.062a2.016,2.016,0,0,1-.668-1.532,2.1,2.1,0,0,1,.6-1.638l.066-.055c.045-.039.094-.077.155-.12a2.914,2.914,0,0,1,1.79-.617,2.487,2.487,0,0,1,1.664.6,2.465,2.465,0,0,1,0,3.506A2.481,2.481,0,0,1,116,257.175Zm-70.933-.586h0l-.137,0a3.95,3.95,0,0,1-2.02-.547c-.172-.13-.346-.265-.515-.395l-.01-.008-.036-.028-.249-.193a4.009,4.009,0,0,1-1.027-1.764l-.032-.239V253.4c-.035-.267-.072-.544-.111-.814a3.07,3.07,0,0,1,.345-1.539,3.029,3.029,0,0,1,.826-1.286,2.951,2.951,0,0,1,1.287-.826,2.987,2.987,0,0,1,1.406-.348l.137,0a3.944,3.944,0,0,1,2.016.547c.2.152.407.312.589.453l.222.172a3.981,3.981,0,0,1,1.028,1.764l.144,1.062a4.465,4.465,0,0,1-1.171,2.827,2.985,2.985,0,0,1-1.287.825A2.973,2.973,0,0,1,45.07,256.589Zm180.656-7.01a1.928,1.928,0,0,1-.488-.064,2.734,2.734,0,0,1-1.357-.434c-.207-.159-.414-.319-.642-.5l-.1-.077a9.807,9.807,0,0,1-.608-.783c-.133-.312-.259-.611-.376-.888a3.974,3.974,0,0,1,.005-2.032l0-.015a1.8,1.8,0,0,1,.093-.345l.084-.225a4.044,4.044,0,0,1,.738-1.3l.151-.2a2.636,2.636,0,0,1,.241-.287,4.291,4.291,0,0,1,.577-.465c.107-.077.208-.149.3-.225a3.852,3.852,0,0,1,1.927-.52l1.016.136a3.805,3.805,0,0,1,2.279,1.757,2.85,2.85,0,0,1,.454,1.419,2.909,2.909,0,0,1-.07,1.52,2.872,2.872,0,0,1-.682,1.3,2.647,2.647,0,0,1-.406.5,4.364,4.364,0,0,1-1.3,1.237,2.737,2.737,0,0,1-1.361.434A1.892,1.892,0,0,1,225.726,249.579ZM94.9,245l-.117,0a3.11,3.11,0,0,1-1.582-.427l-.636-.488a3.183,3.183,0,0,1-.806-1.384c-.03-.243-.065-.489-.1-.727v-.008l-.014-.1a3.5,3.5,0,0,1,.919-2.214,3.588,3.588,0,0,1,2.088-.92h.129a3.149,3.149,0,0,1,1.578.426l.636.493a3.13,3.13,0,0,1,.806,1.38c.032.253.067.509.1.757v0l.01.073a2.381,2.381,0,0,1-.271,1.21A2.327,2.327,0,0,1,97,244.087a2.4,2.4,0,0,1-1.008.647A2.348,2.348,0,0,1,94.9,245Zm-25.355-.285a3.264,3.264,0,0,1-1.1-.183,5.588,5.588,0,0,1-1.039-.461,4.654,4.654,0,0,1-1.342-1.368l0,0a3.493,3.493,0,0,1,0-3.524,3.524,3.524,0,0,1,3.012-1.725h.04a3.929,3.929,0,0,1,2.256.69,3.852,3.852,0,0,1,1.446,1.691l.02.047c.08.189.156.368.225.554a3.077,3.077,0,0,1-.066,2.648,3.507,3.507,0,0,1-2.269,1.461A4.1,4.1,0,0,1,69.543,244.72Zm-41.926-.011a6.228,6.228,0,0,1-1.057-.1,3.82,3.82,0,0,1-1.718-.938,2.339,2.339,0,0,1-.678-2.082,2.371,2.371,0,0,1,.923-1.6l0-.011-.186.143c.063-.055.125-.115.186-.172l.023-.022a1.253,1.253,0,0,0,.059-.117l0-.007a3.242,3.242,0,0,1,1.159-1.159,3.251,3.251,0,0,1,4.753,3.652,3.242,3.242,0,0,1-2.26,2.26A4.954,4.954,0,0,1,27.617,244.709Zm239.9-11.986a4.544,4.544,0,0,1-1.7-.437,3.764,3.764,0,0,1-1.136-1.132,2.337,2.337,0,0,1-.376-1.179,1.629,1.629,0,0,1,0-.837,2.365,2.365,0,0,1,.376-1.178l.5-.64.051-.042a3.164,3.164,0,0,1,1.4-.818,3.2,3.2,0,0,1,1.69,0,2.368,2.368,0,0,1,1.082.569,2.394,2.394,0,0,1,.756.783l.061.11a3.3,3.3,0,0,1,.322,2.45,2.971,2.971,0,0,1-.812,1.407,3.036,3.036,0,0,1-1.409.814l-.035.007-.035.009A2.431,2.431,0,0,1,267.517,232.723ZM227.6,213.828a3.634,3.634,0,0,1-2.857-1.231,4.334,4.334,0,0,1,0-5.421,3.928,3.928,0,0,1,5.713,0,4.334,4.334,0,0,1,0,5.421A3.633,3.633,0,0,1,227.6,213.828ZM41.912,212.9a3.1,3.1,0,0,1-.93-.146l-.356-.15c-.185-.078-.4-.167-.6-.253l-.814-.628-.628-.814-.2-.478-.2-.48-.143-1.066a3.02,3.02,0,0,1,.345-1.547,3.968,3.968,0,0,1,1.237-1.605,2.014,2.014,0,0,1,.884-.515,1.988,1.988,0,0,1,1.011-.271,3.064,3.064,0,0,1,.672-.076,3.1,3.1,0,0,1,.929.145l.265.112c.228.1.463.2.693.291l.814.629a1.465,1.465,0,0,1,.255.3c.034.048.068.1.109.15l.174.228a2.66,2.66,0,0,1,.431.856l.1.273a3.932,3.932,0,0,1,0,2.071,3.684,3.684,0,0,1-.4.938,3.861,3.861,0,0,1-.565.75l-.11.111a3.044,3.044,0,0,1-1.291.83,1.988,1.988,0,0,1-1.012.272A3.077,3.077,0,0,1,41.912,212.9Zm250.961-7.3a2.931,2.931,0,0,1-1.505-.411,3.345,3.345,0,0,1-1.116-1.094,1.6,1.6,0,0,1-.131-.285c-.018-.046-.035-.093-.055-.138s-.037-.086-.056-.129a2.556,2.556,0,0,1-.119-.3,3.165,3.165,0,0,1,0-1.652,2.345,2.345,0,0,1,.555-1.055,2.371,2.371,0,0,1,.872-.8,3.1,3.1,0,0,1,1.438-.423l.14,0,.093,0a2.3,2.3,0,0,1,1.09.269,2.643,2.643,0,0,1,.372.16,3.111,3.111,0,0,1,1.117,1.113,2.349,2.349,0,0,1,.368,1.155,2.316,2.316,0,0,1-.025,1.125l-.033.112a3.034,3.034,0,0,1-.383.849.466.466,0,0,1-.059.089,3.037,3.037,0,0,1-1.031,1,3.089,3.089,0,0,1-1.531.415ZM78.835,202.047a1.557,1.557,0,0,1-.409-.055,2.995,2.995,0,0,1-1.462-.609,2.29,2.29,0,0,1-.794-.864l-.314-.741-.108-.822.108-.818.171-.4a3.269,3.269,0,0,1,2.279-2.279,3.312,3.312,0,0,1,.871-.119,3.238,3.238,0,0,1,.733.085l.133.034a2.494,2.494,0,0,1,1.112.582,2.527,2.527,0,0,1,.841.918,3.261,3.261,0,0,1-1.174,4.467l-.426.205a2.3,2.3,0,0,1-1.148.364A1.593,1.593,0,0,1,78.835,202.047Zm192.718-4.82a3.28,3.28,0,0,1-.986-.155l-.718-.3-.021-.009-.269-.114c-.21-.159-.421-.323-.626-.481l-.007-.006-.223-.173-.143-.186c-.169-.22-.345-.447-.52-.67a3.125,3.125,0,0,1-.5-1.574,2.11,2.11,0,0,1,0-1.125,2.086,2.086,0,0,1,.287-1.066A3.174,3.174,0,0,1,268.7,190l.175-.136c.222-.172.452-.35.681-.524.281-.119.649-.276,1.008-.426a3.212,3.212,0,0,1,1.691-.077,4.212,4.212,0,0,1,2,.834,3.223,3.223,0,0,1,1.089,1.186l.426,1.012a4.3,4.3,0,0,1,.008,2.28,3.144,3.144,0,0,1-.745,1.418,2.107,2.107,0,0,1-.748.749,3.154,3.154,0,0,1-1.242.7l-.129.035-.047.012a.049.049,0,0,1-.023,0,.024.024,0,0,1-.016,0,2.8,2.8,0,0,1-.573.081A3.282,3.282,0,0,1,271.553,197.228ZM24.031,182.134a3.8,3.8,0,0,1-.851-.1,2.787,2.787,0,0,1-.861-.372,3.037,3.037,0,0,1-1.018-1.034,2.734,2.734,0,0,1-.385-1.4,2.326,2.326,0,0,1,.023-.325,2.51,2.51,0,0,1-.066-.691l.116-.876L21,177.32a3.28,3.28,0,0,1,2.157-2.245l.127-.038h.02a3.292,3.292,0,0,1,1.756,0l.786.329a2.469,2.469,0,0,1,.927.853,2.451,2.451,0,0,1,.593,1.125,3.719,3.719,0,0,1,.02,2.124,4.08,4.08,0,0,1-1.016,1.737,3.2,3.2,0,0,1-2.336.93Zm214.284-8.3a3.117,3.117,0,0,1-2.109-.872,3.008,3.008,0,0,1-.872-2.11,2.265,2.265,0,0,1,.256-1.147,2.221,2.221,0,0,1,.532-.876l.085-.082a2.986,2.986,0,0,1,4.218,0,2.989,2.989,0,0,1,.872,2.1,3.305,3.305,0,0,1-.872,2.11A3.1,3.1,0,0,1,238.315,173.839Zm24.563-16.652a3.7,3.7,0,0,1-1.872-.508,3.755,3.755,0,0,1-1.33-1.329,2.582,2.582,0,0,1-.434-1.078,3.776,3.776,0,0,1,.871-3.569l.1-.1a4.289,4.289,0,0,1,2.538-1.107l.129,0a3.8,3.8,0,0,1,1.9.516l.264.2h0c.164.126.333.255.5.386a3.776,3.776,0,0,1,.969,3.671,2.62,2.62,0,0,1-.431,1.078,3.8,3.8,0,0,1-1.334,1.329A3.7,3.7,0,0,1,262.878,157.187Zm-186.02-1.066h0c-.106-.015-.219-.031-.329-.043a2.385,2.385,0,0,1-.382-.043l-.126-.028-.114-.03a2.424,2.424,0,0,1-.443-.179,1.6,1.6,0,0,1-.71-.415,2.429,2.429,0,0,1-.829-.9l-.054-.124a2.25,2.25,0,0,1-.182-.415,1.526,1.526,0,0,1-.2-.748,2.265,2.265,0,0,1,.02-1.061l.034-.118.3-.709a3.617,3.617,0,0,1,.527-.683c.13-.116.437-.354.607-.472l.106-.07a2.416,2.416,0,0,1,1.194-.38,1.6,1.6,0,0,1,.857,0,2.415,2.415,0,0,1,1.194.38c.218.17.441.342.651.5l.189.227a3.184,3.184,0,0,1,.636,1.111l0,.008.086.208a2.433,2.433,0,0,1,.055,1.256,1.572,1.572,0,0,1-.214.791,1.539,1.539,0,0,1-.407.694,1.587,1.587,0,0,1-.562.566,2.378,2.378,0,0,1-1.07.562l-.834.112ZM32.247,148a2.88,2.88,0,0,1-2.775-3.6l.062-.249a2.781,2.781,0,0,1,1.107-1.606,3.16,3.16,0,0,1,1.809-.567,2.938,2.938,0,0,1,2.1.852,2.9,2.9,0,0,1,.772,1.4,3.157,3.157,0,0,1-.035,1.547,2.872,2.872,0,0,1-2.059,2.069l-.252.062A2.958,2.958,0,0,1,32.247,148Zm274.341-12.993a9.685,9.685,0,0,1-3.583-.786,14.857,14.857,0,0,1-3.484-2.042,12.747,12.747,0,0,1-2.69-2.824,6.5,6.5,0,0,1-1.2-3.132.2.2,0,0,1,.052-.153.253.253,0,0,1,.184-.075.246.246,0,0,1,.168.062,25.033,25.033,0,0,1,1.85,1.905,14.124,14.124,0,0,0,3.476,3.076,13.155,13.155,0,0,0,4.182,1.336,19.677,19.677,0,0,1,2.823.7.863.863,0,0,1,0,1.648A5.385,5.385,0,0,1,306.588,135.009ZM85.325,133.294a1.891,1.891,0,0,1-.5-.07,1.87,1.87,0,0,1-.95-.256,1.917,1.917,0,0,1-.834-.485,2.886,2.886,0,0,1-.969-1.058c-.129-.3-.257-.605-.379-.9l-.136-1,.136-1,.007-.031a3.757,3.757,0,0,1,.954-1.636l.753-.582a3.541,3.541,0,0,1,.918-.383,2.971,2.971,0,0,1,.878-.136,2.859,2.859,0,0,1,.626.07,1.857,1.857,0,0,1,.949.255,1.91,1.91,0,0,1,.834.485,1.936,1.936,0,0,1,.679.679,2.845,2.845,0,0,1,.674,1.279l.132,1-.132,1c-.122.283-.249.586-.38.9l-.346.469a2.569,2.569,0,0,1-.743.689l-.264.194a2.8,2.8,0,0,1-1.4.446A1.866,1.866,0,0,1,85.325,133.294Zm180.8-.52-.122,0a3.038,3.038,0,0,1-1.512-.411l-.6-.47a2.228,2.228,0,0,1-.621-.965,2.251,2.251,0,0,1-.26-1.155l0-.074a1.108,1.108,0,0,1,.054-.438,1.683,1.683,0,0,1,.062-.442,3.158,3.158,0,0,1,2.179-2.178,3.089,3.089,0,0,1,.819-.11,3.156,3.156,0,0,1,2.22.912,3.109,3.109,0,0,1,0,4.411,3.088,3.088,0,0,1-1.376.8,3.156,3.156,0,0,1-.832.119Zm-232.62-11.5a3.061,3.061,0,0,1-.4-.028,2.2,2.2,0,0,1-1.093-.411,2.092,2.092,0,0,1-.756-.756l-.213-.5a3.461,3.461,0,0,1-.077-.605.527.527,0,0,0,0-.077,4.036,4.036,0,0,1,.085-.671,2.559,2.559,0,0,1,.458-.876,1.84,1.84,0,0,1,.69-.632l.026-.02.029-.019.113-.078,0,0,.159-.11a2.492,2.492,0,0,1,1.264-.341h.075a1.874,1.874,0,0,1,.891.218,1.8,1.8,0,0,1,.806.519,1.845,1.845,0,0,1,.52.807,1.894,1.894,0,0,1,.217.965,2.486,2.486,0,0,1-.341,1.264c-.141.183-.268.348-.4.508a2.478,2.478,0,0,1-1.105.648l-.248.085A2.021,2.021,0,0,1,33.506,121.27Zm200.478-1.018a3.434,3.434,0,0,1-1.73-6.4,3.428,3.428,0,0,1,3.463,0,.472.472,0,0,1,.054.024,3.424,3.424,0,0,1,1.222,1.221,3.4,3.4,0,0,1,0,3.435,3.431,3.431,0,0,1-1.222,1.222.224.224,0,0,1-.042.022l-.011,0A3.456,3.456,0,0,1,233.984,120.252ZM74.012,115.695h0l-.1,0a3.28,3.28,0,0,1-2.244-.9c-.047-.052-.092-.106-.137-.159l-.069-.082-.485-.558a2.971,2.971,0,0,1-.763-1.314c-.037-.25-.07-.5-.1-.741l-.007-.053a2.985,2.985,0,0,1,2.876-2.979l.106,0,.1,0a2.189,2.189,0,0,1,1.05.261,2.267,2.267,0,0,1,.962.617l.566.472.164.133.08.069A3.1,3.1,0,0,1,76.8,111.8c.047.3.085.592.116.892a2.967,2.967,0,0,1-.876,2.121,2.3,2.3,0,0,1-.965.62A2.264,2.264,0,0,1,74.012,115.695Zm-20.6-8.7a2.879,2.879,0,0,1-2.264-.976,3.439,3.439,0,0,1,0-4.3,3.113,3.113,0,0,1,4.529,0,3.437,3.437,0,0,1,0,4.3A2.88,2.88,0,0,1,53.416,106.994Zm202.955-7.6-.114,0a3.716,3.716,0,0,1-1.873-.508l-.216-.167-.009-.007,0,0c-.171-.132-.348-.269-.523-.4a3.733,3.733,0,0,1-.907-1.493l-.043-.143-.136-.989a3.847,3.847,0,0,1,3.583-3.708l.127,0a3.7,3.7,0,0,1,1.869.508l.752.577a3.791,3.791,0,0,1,.954,1.636c.038.3.083.647.132.985a4.165,4.165,0,0,1-1.086,2.625,4.255,4.255,0,0,1-2.507,1.088ZM237.886,85.487a2.726,2.726,0,0,1-1.758-.766l-.105-.1,0,0c-.058-.054-.119-.11-.179-.164a2.264,2.264,0,0,1-.655-1.582,2.515,2.515,0,0,1,.655-1.582c.067-.059.134-.122.2-.182l.088-.081a2.809,2.809,0,0,1,1.841-.763h.076a2.94,2.94,0,0,1,1.769.765,2.515,2.515,0,0,1,0,3.69,2.632,2.632,0,0,1-1.151.671l-.694.093ZM51.907,78a4.039,4.039,0,0,1-2.028-.55l-.814-.628a3.047,3.047,0,0,1-.834-1.3,3.014,3.014,0,0,1-.347-1.413l0-.138a.863.863,0,0,1,0-.1c.037-.292.078-.588.117-.875v-.007l.029-.21a3.1,3.1,0,0,1,.737-1.4,1.318,1.318,0,0,1,.376-.462,4.127,4.127,0,0,1,1.814-1.059c.28-.035.564-.074.839-.112l.014,0,.241-.033A4.121,4.121,0,0,1,54,70.2l.129.072.83.643a3.093,3.093,0,0,1,.853,1.322,3.731,3.731,0,0,1,0,3.167,3.038,3.038,0,0,1-.853,1.322,2.415,2.415,0,0,1-.876.7c-.262.107-.531.222-.768.323l-.216.092A4.6,4.6,0,0,1,51.96,78ZM232.155,65.222l-.094,0a2.848,2.848,0,0,1-1.458-.4c-.232-.177-.418-.319-.585-.45a2.893,2.893,0,0,1-.7-1.155l-.036-.121-.1-.768a2.145,2.145,0,0,1,.248-1.112,2.591,2.591,0,0,1,1.528-1.527,2.152,2.152,0,0,1,.994-.25l.118,0a2.88,2.88,0,0,1,1.458.392c.177.136.362.28.585.454a2.862,2.862,0,0,1,.744,1.275l.105.767a3.247,3.247,0,0,1-.849,2.044,3.283,3.283,0,0,1-1.949.847ZM74.994,63.785l-.139,0A4.235,4.235,0,0,1,72.7,63.2l-.3-.23,0,0c-.184-.143-.375-.291-.565-.435a4.355,4.355,0,0,1-1.1-1.884l-.151-1.136A4.76,4.76,0,0,1,71.835,56.5a3.186,3.186,0,0,1,1.376-.885,3.232,3.232,0,0,1,1.508-.37l.135,0a4.281,4.281,0,0,1,2.156.585l.1.075c.249.192.507.391.763.592a4.283,4.283,0,0,1,1.1,1.884l.151,1.132a4.759,4.759,0,0,1-1.252,3.02,4.859,4.859,0,0,1-2.877,1.251ZM218.666,52.463a3.05,3.05,0,0,1-.921-.145c-.309-.134-.628-.266-.936-.394l-.005,0-.008,0-.1-.058a3.907,3.907,0,0,1,0-6.75.634.634,0,0,0,.07-.036l.031-.018a2.966,2.966,0,0,1,1.477-.473,2.031,2.031,0,0,1,1.058,0,2.964,2.964,0,0,1,1.477.473l.8.621a.3.3,0,0,1,.035.039,3.934,3.934,0,0,1,1.008,1.729l.14,1.043a4.457,4.457,0,0,1-1.055,2.681l-.128.125a2.98,2.98,0,0,1-1.276.822,1.952,1.952,0,0,1-1,.272A3,3,0,0,1,218.666,52.463Z" transform="translate(0 16.318)"/></g><g transform="translate(-821.428 1295.358)"><g transform="translate(0 0)"><path d="M132.018,60.092c-.835-7.333.245-22.661.318-23.592.457-5.887-2.3-29.134-7.515-26.992-8.747-6.924-20.4-8.453-31.291-9.184C70.9-1.193,46.829,2.291,29.356,17.519,20.715,25.427,12.3,36.93,12.978,48.906,5.127,60.258-5.941,75.831,3.841,89.1c3.325,4.24,8.61,5.819,12.787,9.03,8.4,6.777,13.673,16.5,22.155,23.239,22.47,20.192,60.625,24.41,82.7,1.443C138.557,106.181,135.8,81.3,132.794,60.092,130.775,45.836,133.646,74.4,132.018,60.092Z" transform="translate(25.2 57.765)" fill="#d08b5b"/><path d="M97.044,171.85a51.97,51.97,0,0,1-7.378-.541,40.878,40.878,0,0,1-8.332-2.016,15.8,15.8,0,0,1-3.9-2.062,17.534,17.534,0,0,1-3.178-3.051,2.44,2.44,0,0,1-.262-2.449,1.5,1.5,0,0,1,1.408-.916,2.009,2.009,0,0,1,.241.015,45.808,45.808,0,0,1,8.151,1.6l.389.123a40.368,40.368,0,0,0,8.351,1.791c1.432.139,2.885.209,4.317.209a42.813,42.813,0,0,0,12.939-1.973,37.565,37.565,0,0,0,6.53-2.783,40.15,40.15,0,0,0,5.914-3.928,41.974,41.974,0,0,0,9.4-10.584,41.079,41.079,0,0,0,5.515-15.1,92.769,92.769,0,0,0,1-16.174c-.089-11.589-.465-23.713-1.12-36.036l-.109-2c-.277-5.074-.636-11.767-.949-18.535-.1-2.267-.254-4.119-.47-5.827a15.343,15.343,0,0,1-5.547-5.346,54.674,54.674,0,0,1-7.925,2.493,47.447,47.447,0,0,1-11.317,1.39,44.658,44.658,0,0,1-6.661-.5c-1.6.663-3.265,1.255-4.935,1.759-.463.205-.92.4-1.356.59a82.353,82.353,0,0,1-12.379,4.257l-1.046.261a42.783,42.783,0,0,1-7.057,1.267A10.287,10.287,0,0,1,76,58.17a20.742,20.742,0,0,1-4.89.581c-.584,0-1.176-.025-1.758-.073a3.284,3.284,0,0,1-2.64-1.7,2.7,2.7,0,0,1-.312-1.3,2.9,2.9,0,0,1,.412-1.417c.862-1.479,1.75-2.985,2.64-4.478a83.186,83.186,0,0,1-9.5,3.264c-2.866.807-5.994,1.568-9.844,2.4-.874.186-1.764.365-2.625.538h-.006c-.874.176-1.778.357-2.665.546-.281.06-.594.113-.925.169a7.512,7.512,0,0,0-3.3,1.068c-.881.707-1.265,2.119-1.6,3.364-.1.354-.187.688-.284.982-.6,1.813-1.12,3.495-1.582,5.141a106.769,106.769,0,0,0-2.368,10.487,100.623,100.623,0,0,0-1.253,10.7c-.094,1.477-.133,2.982-.171,4.438-.054,2.075-.109,4.22-.325,6.316a2.49,2.49,0,0,1-.748,1.56,2.132,2.132,0,0,1-1.464.593,2.287,2.287,0,0,1-1.518-.609c-.169-.149-.351-.309-.529-.47l-.262-.239a26.746,26.746,0,0,1-3.555-3.784c-.182-.25-.361-.518-.531-.795a.127.127,0,0,1-.077-.027L24.04,95.2c-2.99-2.226-5.564-3.355-7.649-3.355A4.619,4.619,0,0,0,12.609,93.7a12.04,12.04,0,0,0-1.887,4.325L10,100.742a47.162,47.162,0,0,0-1.171,5.369,20.56,20.56,0,0,0-.016,6.3,11.508,11.508,0,0,0,2.52,5.7,7.128,7.128,0,0,0,4.373,2.477,5.483,5.483,0,0,0,.755.049,13.343,13.343,0,0,0,1.735-.153H18.2l.354-.046a5.818,5.818,0,0,1,.725-.041c.256,0,.515.012.766.024h0c.252.012.513.024.772.024.218,0,.413-.009.6-.026.059-.006.118-.009.176-.009a1.537,1.537,0,0,1,1.337.769,2.218,2.218,0,0,1,.119,2.081,7.043,7.043,0,0,1-1.089,1.609,12.572,12.572,0,0,1,.958.923,4.78,4.78,0,0,1,2.33,1.741,3.95,3.95,0,0,1,.791,2.156c.049.173.095.358.143.582l.832,1.35c.2.33.383.616.548.875a42.144,42.144,0,0,0,7.386,8.816c1.04.947,2.131,1.872,3.186,2.768a71.279,71.279,0,0,1,5.315,4.827l.311.326a20.354,20.354,0,0,1,3.331,4.311,7.024,7.024,0,0,1,.762,5.195,1.818,1.818,0,0,1-1.693,1.268,1.318,1.318,0,0,1-.792-.256,19.435,19.435,0,0,1-4.1-4.675,29.512,29.512,0,0,0-2.588-3.334c-1.258-1.336-2.606-2.624-3.91-3.871h0c-1.268-1.212-2.58-2.465-3.808-3.762a30.256,30.256,0,0,1-5.61-8.386,4.516,4.516,0,0,1-3.108,1.27,4.256,4.256,0,0,1-2.346-.721,4.8,4.8,0,0,1-1.637-1.848,14.686,14.686,0,0,1-1.656.628,3.34,3.34,0,0,1-.976.153,2.882,2.882,0,0,1-2.441-1.392,3.766,3.766,0,0,1-.573-1.708,3.661,3.661,0,0,1,.311-1.837,11.737,11.737,0,0,1,2.252-3.365A14.277,14.277,0,0,1,7.5,123.17a15.767,15.767,0,0,1-4.337-8.351,23.267,23.267,0,0,1-.426-4.762,29.967,29.967,0,0,1,.441-4.763,47.164,47.164,0,0,1,2.811-9.735c.243-.594.477-1.123.717-1.617a.5.5,0,0,1-.384-.186c-.293-.4-.611-.78-.919-1.147a11.223,11.223,0,0,1-1.617-2.292c-.129-.264-.263-.534-.393-.8a29.485,29.485,0,0,1-1.305-2.876A35.743,35.743,0,0,1,.362,78.481,61.479,61.479,0,0,1,.82,61.907,66.213,66.213,0,0,1,4.474,48.213,67.313,67.313,0,0,1,10.9,35.647a4.5,4.5,0,0,1-.8-.535L9.981,35l-.2-.181a3.316,3.316,0,0,1-1.053-2.411,3.814,3.814,0,0,1,1.053-2.753l.424-.425A11.238,11.238,0,0,1,12.069,27.7c.125-.084.257-.165.391-.241a3.709,3.709,0,0,1-.295-2.9A3.849,3.849,0,0,1,14.1,22.182a6.819,6.819,0,0,1,3.22-.71,11.517,11.517,0,0,1,4.8,1.095A62.047,62.047,0,0,1,34.7,13.846,120.4,120.4,0,0,1,51.874,6.6a148.238,148.238,0,0,1,18.02-4.806A81.854,81.854,0,0,1,86.124,0c.744,0,1.489.014,2.216.04l.476.019a54.555,54.555,0,0,1,7.52.706,18.546,18.546,0,0,1,7.075,2.595.886.886,0,0,1,.62-.267.758.758,0,0,1,.329.075,115.907,115.907,0,0,0,14.075,5.252l1.123.365a68.758,68.758,0,0,0,15.589,3.169,3.234,3.234,0,0,1,1.548.557,3.133,3.133,0,0,1,1.059,1.2,2.438,2.438,0,0,1-.171,2.486c-.31.476-.608.949-.883,1.39l.44-.046h0c.334-.035.679-.072,1.019-.106.07-.007.141-.011.212-.011a2.857,2.857,0,0,1,2.025.967,3,3,0,0,1,.872,2.152,28.914,28.914,0,0,1-.322,2.909h.112a4.322,4.322,0,0,1,1.692.327,4.113,4.113,0,0,1,2.466,3.2,15.217,15.217,0,0,1,.074,4.278,17.732,17.732,0,0,1-4.3,10.48,16.652,16.652,0,0,1,2.481,3.316A18.052,18.052,0,0,1,145.117,49a18.633,18.633,0,0,1,.76,6.467l-.052.649c-.212,2.473-.636,4.99-2.294,6.648a3.6,3.6,0,0,1-2.595,1.107c-.12,0-.243-.006-.363-.018.621,5.457,1.024,11.046,1.384,16.3l.175,2.6c.482,7.3.806,13.292,1.018,18.873.26,6.84.349,13.018.273,18.889a80.766,80.766,0,0,1-.563,8.725,60.2,60.2,0,0,1-1.631,8.453,48.319,48.319,0,0,1-2.954,8.038,43.224,43.224,0,0,1-4.532,7.482,48.7,48.7,0,0,1-5.434,6.062,47.871,47.871,0,0,1-6.354,5.047,46.178,46.178,0,0,1-7.123,3.875,44.222,44.222,0,0,1-7.739,2.544A45.127,45.127,0,0,1,97.044,171.85ZM24.428,112.738h-.064a4.174,4.174,0,0,1-2.676-1.076,13.459,13.459,0,0,1-1.94-2.265c-.2-.265-.4-.54-.6-.8a2.662,2.662,0,0,1-.648.791l-.178.14a3.259,3.259,0,0,1-1.949.789l-.106,0a3.818,3.818,0,0,1-1.6-.431,2.894,2.894,0,0,1-1.316-1.539,3.314,3.314,0,0,1,1.185-3.939l-.234-.16a4.686,4.686,0,0,1-1.314-1.258l-.08-.128h.031A1.257,1.257,0,0,1,13.66,101a3.768,3.768,0,0,1,1.169-.174,12.8,12.8,0,0,1,4.94,1.533l.447.207a26.522,26.522,0,0,1,6.191,4.292,3.442,3.442,0,0,1,.884,3.346l-.014.069c-.019.094-.038.191-.06.288a2.651,2.651,0,0,1-1.036,1.543A2.987,2.987,0,0,1,24.428,112.738Z" transform="translate(18.607 25.2)"/></g><g transform="translate(60.479 77.537)"><path d="M40.819,72.415a14.773,14.773,0,0,1-8.185-2.421,15.6,15.6,0,0,1-3.386-2.924,12.249,12.249,0,0,1-2.064-3.3,9.348,9.348,0,0,1-.736-3.744,1.156,1.156,0,0,1,.274-.737,1.287,1.287,0,0,1,.685-.411,1.322,1.322,0,0,1,.3-.035,1.214,1.214,0,0,1,.5.1,1.065,1.065,0,0,1,.528.519c.246.323.57.746.895,1.155a22.5,22.5,0,0,0,3.715,3.8A11.5,11.5,0,0,0,37.967,66.6a9.9,9.9,0,0,0,2.124.231,10.4,10.4,0,0,0,3.587-.649A12.2,12.2,0,0,0,48.7,62.655a2.7,2.7,0,0,1,2.052-1.014h.018a3.154,3.154,0,0,1,2.182.966,3.4,3.4,0,0,1,1.019,2.221,2.972,2.972,0,0,1-.844,2.182,16.911,16.911,0,0,1-3.559,2.9,17.223,17.223,0,0,1-4.191,1.85A16.376,16.376,0,0,1,40.819,72.415Zm4.618-21.563h0a13.536,13.536,0,0,1-4.826-.973,24.374,24.374,0,0,1-5.676-3.22,2.18,2.18,0,0,1-.792-1.26,2.61,2.61,0,0,1,.112-1.414,3.218,3.218,0,0,1,.955-1.381,2.326,2.326,0,0,1,1.489-.581,2.112,2.112,0,0,1,1.152.353l.376.29.013.01a30.724,30.724,0,0,0,3.553,2.47A8.752,8.752,0,0,0,46.051,46.5a4.6,4.6,0,0,0,1.8-.354,5.029,5.029,0,0,0,1.676-1.187,5.139,5.139,0,0,0,.975-4.137,7.814,7.814,0,0,0-2.074-3.669,15.121,15.121,0,0,0-3.14-2.534.973.973,0,0,1-.263-1.119,1.46,1.46,0,0,1,.484-.7,1.485,1.485,0,0,1,.927-.306,1.974,1.974,0,0,1,.333.029,10.529,10.529,0,0,1,3.7,1.337,8.4,8.4,0,0,1,2.49,2.3,9.121,9.121,0,0,1,1.59,6.094,10.04,10.04,0,0,1-.814,3.2A9.332,9.332,0,0,1,51.9,48.2,8.772,8.772,0,0,1,45.437,50.853Zm-37.11-14.9a1.855,1.855,0,0,1-.538-.079,1.092,1.092,0,0,1-.736-.635A9.015,9.015,0,0,1,7.5,28.445,15.914,15.914,0,0,1,9.9,24.52a9.828,9.828,0,0,1,2.57-2.306,8.616,8.616,0,0,1,4.086-1.054,8.186,8.186,0,0,1,3.939,1.016,10.249,10.249,0,0,1,2.721,2.237,28.206,28.206,0,0,1,2.111,2.811c.278.405.565.824.858,1.23a2.476,2.476,0,0,1,.417,2.3,2.977,2.977,0,0,1-1.69,1.745,3.235,3.235,0,0,1-1.245.255,2.842,2.842,0,0,1-1.11-.22,2.986,2.986,0,0,1-1.6-1.692,11.542,11.542,0,0,0-1.244-2.259,6.788,6.788,0,0,0-1.81-1.793,3.262,3.262,0,0,0-3.274-.25,10.7,10.7,0,0,0-3.81,3.8,7.448,7.448,0,0,0-1.25,4.438,1.007,1.007,0,0,1-.326.846,1.268,1.268,0,0,1-.707.314A1.663,1.663,0,0,1,8.327,35.953Zm56.2-5.473a2.422,2.422,0,0,1-.7-.113,2.643,2.643,0,0,1-1.092-.652,2.174,2.174,0,0,1-.607-1.1,4.5,4.5,0,0,0-1.579-2.628,3.151,3.151,0,0,0-2.519-.663,4.839,4.839,0,0,0-2.711,1.626,5.954,5.954,0,0,0-.569.83l-.017.028a6.057,6.057,0,0,1-1.126,1.478,1.1,1.1,0,0,1-.7.262A1.041,1.041,0,0,1,52.6,29.5a4.42,4.42,0,0,1-1-1.4,2.752,2.752,0,0,1-.2-1.207,4.782,4.782,0,0,1,.88-2.422A9.416,9.416,0,0,1,54.709,22.1,8.1,8.1,0,0,1,57.4,20.832a7.26,7.26,0,0,1,1.523-.162,7.771,7.771,0,0,1,4.469,1.454,8.486,8.486,0,0,1,3.47,5.311A2.825,2.825,0,0,1,66.716,29a2.2,2.2,0,0,1-1.027,1.141A2.44,2.44,0,0,1,64.525,30.48ZM1.331,20.137a.646.646,0,0,1-.084-.005.787.787,0,0,1-.409-.2A2.977,2.977,0,0,1,0,17.481a10.606,10.606,0,0,1,1.078-4.121A26.335,26.335,0,0,1,3.156,9.882,18.3,18.3,0,0,1,5.818,6.848,23.038,23.038,0,0,1,13.269,2.31a16.022,16.022,0,0,1,5.311-1.17c.11,0,.221,0,.329.006a6.382,6.382,0,0,1,1.976.376,5.2,5.2,0,0,1,1.76,1.094A3.266,3.266,0,0,1,23.619,5a3.4,3.4,0,0,1-.981,2.44,5.041,5.041,0,0,1-2.084,1.218,12.115,12.115,0,0,1-2.274.406,20.682,20.682,0,0,0-2.216.327,20.823,20.823,0,0,0-5.352,1.954A19.807,19.807,0,0,0,5.7,14.9c-.327.35-.639.722-.94,1.081l-.008.01c-.28.334-.544.649-.826.956-.314.342-.6.687-.945,1.1a4.687,4.687,0,0,0-.267.472c-.068.143-.134.274-.2.4-.125.235-.245.442-.358.613-.223.375-.338.464-.429.5A.962.962,0,0,1,1.331,20.137Zm66.362-.851a.759.759,0,0,1-.125-.01.748.748,0,0,1-.382-.186.718.718,0,0,1-.215-.371,13.912,13.912,0,0,0-2.023-4.913,10.6,10.6,0,0,0-4.041-3.446,25.944,25.944,0,0,0-5.65-1.9c-.544-.129-1.129-.214-1.7-.3l-.027,0a14.321,14.321,0,0,1-2.688-.575,4.754,4.754,0,0,1-2.207-1.49,4.121,4.121,0,0,1-.763-1.488A3.8,3.8,0,0,1,47.785,3,3.29,3.29,0,0,1,49.571.57a5.377,5.377,0,0,1,2.5-.57,16.333,16.333,0,0,1,5.994,1.673l.132.056.006,0,.438.186A19.677,19.677,0,0,1,65.5,6.5a14.826,14.826,0,0,1,3.526,6.516,7.82,7.82,0,0,1-.712,5.93.7.7,0,0,1-.322.283A.741.741,0,0,1,67.693,19.286Z" transform="translate(20.935 21.346)"/></g></g></g></svg>