<?xml version="1.0" standalone="no"?>
<!DOCTYPE svg PUBLIC "-//W3C//DTD SVG 20010904//EN"
 "http://www.w3.org/TR/2001/REC-SVG-20010904/DTD/svg10.dtd">
<svg version="1.0" xmlns="http://www.w3.org/2000/svg"
 width="79.000000pt" height="79.000000pt" viewBox="0 0 79.000000 79.000000"
 preserveAspectRatio="xMidYMid meet">
<metadata>
Created by potrace 1.11, written by Peter Selinger 2001-2013
</metadata>
<g transform="translate(0.000000,79.000000) scale(0.100000,-0.100000)"
fill="#000000" stroke="none">
<path d="M497 773 c-3 -5 -30 -89 -62 -188 -31 -99 -84 -262 -117 -362 -56
-172 -65 -220 -36 -211 12 4 79 200 189 553 32 104 59 196 59 202 0 14 -26 18
-33 6z"/>
<path d="M92 487 c-45 -45 -82 -87 -82 -92 0 -18 163 -173 176 -168 25 9 15
28 -56 98 l-70 69 71 72 c49 50 70 77 66 88 -4 9 -10 16 -14 16 -5 0 -45 -37
-91 -83z"/>
<path d="M587 556 c-4 -10 20 -41 64 -84 38 -39 69 -72 69 -75 0 -3 -31 -38
-69 -77 -43 -44 -68 -77 -64 -86 3 -8 9 -14 13 -14 8 0 127 115 163 157 18 21
18 22 -68 107 -48 47 -91 86 -95 86 -4 0 -10 -7 -13 -14z"/>
</g>
</svg>
