<svg xmlns="http://www.w3.org/2000/svg" width="222.671" height="247.996" viewBox="0 0 222.671 247.996"><g transform="translate(672.108 -302.722)"><g transform="translate(-672.108 387.425)"><path d="M215.889,51.905l-9.524.935c-15.2,1.162-30.4,3.588-45.489,5.044a.976.976,0,0,0-1.557-.086c-1.506-.132-3.193-1.283-4.557-.086-.044-.006-.089-.014-.133-.018a95.661,95.661,0,0,1-5.736-14.609c-1.04-3.06-2.439-6.023-5.024-8.077-4.412-3.062-14.52-9.272-19.7-9.011a3.845,3.845,0,0,0-1.228-2.5c1.565-2.668-4.692-4.408-5.133-4.1C118.091,10.484,113.9,2.745,104.655.97,96.373-.756,84.594-1.046,80.14,7.609c-.49-.055-5.494-.081-5.978-.027-.753-.954-9.021,8.082-5.632,11.228-30.3,13.4-47.522,11.8-55.908,49.479-1.134,3.539-1.216,7.412-2.413,10.873C5.95,89.105,2.5,99.695,1.636,110.515c-2.076.532-2.315,4.193.09,4.722a5.625,5.625,0,0,1,2.357,1C3.559,125.109,5.7,145.365,7.055,145.3,9.81,154.072,22.1,156.546,30.8,153.465c-1.5,2.822,0,4.6,0,6.1,31.308,1.185,65.541.5,96.841,2.127,4-.057,8.215.983,12.164.385,2.408-.577,2.412-4.364-.03-4.832l10.674-2.318c-.239-.09,4.4-3.175,7.906-8.941,3.263-6.449,1.042-14.235,2.521-21.25,11.548-.944,23.287-1.348,34.709-3.3,1.557,4.66,8.3-.913,10.442-3.155l-.008-.01a2.6,2.6,0,0,0,1.9-2.406,3.16,3.16,0,0,0,.182-3.508c3.2-18.445,8.07-37.278,9.831-55.9a3.942,3.942,0,0,0,1.706-.831l-.04-.04a2.116,2.116,0,0,0-.4-3.358A4.92,4.92,0,0,0,215.889,51.905Z" transform="translate(1.334 0)" fill="#d08b5b"/><path d="M133.179,157.083c-4.2,0-10.375-.411-18.341-1.223-3.506-.357-10.719-.694-21.439-1-9.08-.26-18.9-.45-26.076-.589H67.3c-3.742-.073-6.7-.13-8.452-.176l-.481-.013c-4.966-.143-9.97-.216-14.875-.216s-9.848.073-14.693.216v-6L56.59,134.3l24.9-14.006,12.005-5.558,2.445,1.556,20.009,6.447,12.227,1.556,10-1.556v17.119l2,16.007c-.221.406-.922.714-2.084.917A30.484,30.484,0,0,1,133.179,157.083Zm-95.251-44.89H32.763L2.709,104.936,0,104.042a74.83,74.83,0,0,1,1.119-8c.494-2.545,1.136-5.194,1.908-7.873A130.041,130.041,0,0,1,8.551,72.951a35.05,35.05,0,0,0,1.262-5.592,38.256,38.256,0,0,1,1.152-5.281,78.961,78.961,0,0,1,6.21-18.494c.605-1.2,1.25-2.352,1.916-3.432.654-1.06,1.35-2.083,2.069-3.04a36.031,36.031,0,0,1,4.607-5.073A45.633,45.633,0,0,1,36.95,24.745c4.183-2.022,8.725-3.744,13.984-5.738h0C55.7,17.2,61.095,15.155,66.872,12.6a2.592,2.592,0,0,1-.809-1.876,6.038,6.038,0,0,1,.49-2.384,17.52,17.52,0,0,1,3.041-4.773,14.536,14.536,0,0,1,1.638-1.635A2.311,2.311,0,0,1,72.339,1.3a.2.2,0,0,1,.166.07l.047,0,.1-.005.132,0c.347-.01.977-.016,1.774-.016,1.617,0,3.625.023,3.922.057A12.95,12.95,0,0,1,79.317,0l1.838,1.372L77.143,7.964,96.687,23.773V36.4l6.188,5.853,3.537-5.853,4.984-6.627,3.542-10.743-1.206-7.078,2.425-.229c.012.482.01.975-.006,1.464a.383.383,0,0,1,.2-.036,9.227,9.227,0,0,1,3.938,1.456,3.375,3.375,0,0,1,1.022,1.037,1.542,1.542,0,0,1-.027,1.642,3.837,3.837,0,0,1,1.228,2.5c.106-.005.215-.008.324-.008a14.563,14.563,0,0,1,4.642.987,44.372,44.372,0,0,1,5.4,2.4c1.66.856,3.417,1.852,5.223,2.96,1.824,1.119,3.242,2.072,4.11,2.675A12.756,12.756,0,0,1,145.3,32.46a23.987,23.987,0,0,1,1.932,4.416l.245.747.253.766.255.766a84.4,84.4,0,0,0,4.983,12.33c.033,0,.067.008.1.013h.006l.03,0a2.127,2.127,0,0,1,1.464-.539,6.528,6.528,0,0,1,1.7.322,7.887,7.887,0,0,0,1.391.3,1.2,1.2,0,0,1,.811-.346.839.839,0,0,1,.719.39l.027.042-18.757,3.7L128.087,98.775l-10.776-8.747-5.784.86L96.251,96.4l-17.766,4.615Z" transform="translate(2.992 6.21)" fill="#3f6e9e"/><path d="M28.425,75.821h0c1.262-4.776,2.236-8.7,3.066-12.363.313-1.378.625-2.778.928-4.132v0c.724-3.24,1.472-6.59,2.271-9.872,2.235-9.176,4.808-18.573,7.647-27.929.583-1.922,1.191-3.874,1.8-5.8l.432-1.349.332-1.075c.515-1.642,1.144-3.32,2.657-4.228a13.681,13.681,0,0,1,4.9-1.389c.444-.07.864-.136,1.274-.211l1.355-.255c2.017-.376,4.065-.744,6.088-1.091C70.861,4.454,80.728,3.1,90.506,2.1c5.062-.52,10.227-.957,15.35-1.3,5.076-.34,10.253-.6,15.386-.764L122.268,0l-.559,3.114c-.132.043-.268.08-.4.111-.17,1.8-.377,3.676-.615,5.574L117.225,28.1c-.616,3.521-1.191,7-1.728,10.262l-.746,3.678-.462,2.286c-.941,4.67-1.933,9.693-2.817,14.791a2.427,2.427,0,0,1,.3.6l-.065.276-.045.185-.047.182A15.226,15.226,0,0,1,111,62.254a8.767,8.767,0,0,1-.9,1.708,5.877,5.877,0,0,1-1.291,1.367,5.287,5.287,0,0,1-1.783.87,26.627,26.627,0,0,1-4.826.7c-.551.046-1.12.093-1.669.151l-.237.026L62.8,71.291c-3.946.444-8.136.926-13.587,1.564l-3.925.46c-.945.109-1.908.217-2.839.32h-.011c-4.454.5-9.059,1.009-13.515,1.957a1.211,1.211,0,0,0-.5.225Zm-.528-.246h0a1.453,1.453,0,0,0-.851-.252h-.068a26.78,26.78,0,0,1-6.721-.932,62.849,62.849,0,0,1-6.473-2.137l-.649-.247-1.808-.7c-1.666-.638-3.608-1.369-5.569-1.964L5,69.118,4.61,69A20.808,20.808,0,0,0,.2,68.115L0,68.1l.432-.226a1.022,1.022,0,0,0,.168-.11c.3.022.573.033.847.033a9.178,9.178,0,0,0,1.647-.144,15.465,15.465,0,0,0,4.639-1.639l.645-.35.264-.14.175-.091.174-.088a8.71,8.71,0,0,1,1.394-.572,5.116,5.116,0,0,1,1.486-.225,5.369,5.369,0,0,1,1.116.12,15.675,15.675,0,0,1,4,1.652c.31.163.63.332.946.491l.285.142.191.092.2.092.2.09a9.69,9.69,0,0,0,3.791,1.013,2.494,2.494,0,0,0,2.662-1.932,4.048,4.048,0,0,0-.507-3.267c.039,0,.079,0,.118,0a6.517,6.517,0,0,1,2.084.623,8.917,8.917,0,0,0,2.255.707l.1.008-1.4,11.2Z" transform="translate(97.954 53.223)" fill="#f4f4f4"/><path d="M143.2,158.866a.833.833,0,0,1-.618-.274,3.885,3.885,0,0,1-.866-1.531,11.743,11.743,0,0,1-.358-1.737h0v0c-.03-.193-.06-.392-.094-.588-.234-1.371-.447-2.794-.649-4.352-.426-3.276-.66-5.972-.738-8.487-.089-2.9-.055-5.837.1-8.739.076-1.415.174-2.936.37-4.472.09-.707.169-1.3.258-1.9.033-.223.071-.448.114-.688l-2.4.271c-3.52.393-7.275.781-11.084.841h-.021a1.2,1.2,0,0,1-.978-.485,1.38,1.38,0,0,1-1.225.655H125c-5.288-.02-10.2-1.8-14.724-3.711-1.13-.479-2.27-.985-3.372-1.474l0,0c-1.215-.539-2.472-1.1-3.718-1.62-.916-.384-1.874-.729-2.8-1.062a40.737,40.737,0,0,1-3.963-1.584l-5.7,2.988a2.341,2.341,0,0,1-.936,1.308,5.046,5.046,0,0,1-1.065.571,4.428,4.428,0,0,1-1.705.34,4.625,4.625,0,0,1-.477-.025c-5.209,2.729-9.207,4.821-12.964,6.781l-4.325,2.254c-2.5,1.3-5.019,2.621-7.455,3.9-6.02,3.153-12.245,6.413-18.414,9.53l-.638.321a77.788,77.788,0,0,1-9.534,4.16,16.932,16.932,0,0,0,.049,2.55l.017.194c.008.081.016.161.024.246v.009a7.664,7.664,0,0,1,.05,1.549,1.948,1.948,0,0,1-.608,1.314,1.106,1.106,0,0,1-.726.272.858.858,0,0,1-.8-.468,2.989,2.989,0,0,1-.242-1.515,13.081,13.081,0,0,1,.233-1.666c.047-.256.092-.5.125-.72a10.956,10.956,0,0,1,.245-1.245,33.947,33.947,0,0,1-4.1.961,25.38,25.38,0,0,1-4.14.356,20.893,20.893,0,0,1-3.377-.269c-3.314-.544-6.276-2.476-9.056-5.907a26.775,26.775,0,0,1-3.179-4.954,27.117,27.117,0,0,1-2.025-5.528,38.049,38.049,0,0,1-.976-6.63c-.151-2.251-.16-4.555-.148-6.71.015-2.645.075-4.983.184-7.147.129-2.557.324-4.887.6-7.123a7.716,7.716,0,0,0-1.713-.243c-.091,0-.18,0-.265.009a1.376,1.376,0,0,1-.564.5,1.658,1.658,0,0,1-.728.166,1.684,1.684,0,0,1-.2-.012.894.894,0,0,0-.251.851c.113.442.568.905,1.354,1.376a10.108,10.108,0,0,0,1.737.812.358.358,0,0,1,.227.4.29.29,0,0,1-.3.254H4.65l-.248-.012c-1.541-.082-3.088-.351-3.973-1.748A2.686,2.686,0,0,1,.019,108.2a2.881,2.881,0,0,1,.763-1.615A108.143,108.143,0,0,1,3.546,92.531l.007-.029c.127-.522.258-1.062.386-1.593,1.138-4.719,2.46-9.685,4.04-15.179l.649-2.252c1.1-3.8,2.29-7.862,3.577-11.827C13.617,57.3,15,53.508,16.431,50.058c.884-2.13,1.729-3.955,2.583-5.579a39.5,39.5,0,0,1,3.244-5.216,36.714,36.714,0,0,1,3.735-4.287A38.313,38.313,0,0,1,30.34,31.31a51.728,51.728,0,0,1,9.28-5.233c3.207-1.439,6.533-2.666,9.943-3.9l.3-.108c3.319-1.2,6.865-2.5,10.311-3.866,1.56-.618,3.111-1.334,4.612-2.026,1.4-.647,2.852-1.316,4.3-1.9-.1-.18-.194-.361-.283-.538l-.055.047h0l-.027.02a.668.668,0,0,1-.384.113.926.926,0,0,1-.613-.242,1.226,1.226,0,0,1-.438-1.035,2.272,2.272,0,0,1,.442-1.053l.061-.088c.438-.613.846-1.263,1.24-1.892.116-.185.247-.394.375-.6l.332-.521a21.655,21.655,0,0,1,3.009-3.944,6.51,6.51,0,0,1,1.787-1.229.062.062,0,0,1,.01-.06.647.647,0,0,1,.439-.2.163.163,0,0,1,.11.032,10.486,10.486,0,0,1,3.624-.549c1.011,0,2.035.087,2.916.169l.42-1.332A2.241,2.241,0,0,1,82.846.33,1.85,1.85,0,0,1,83.9,0a1.94,1.94,0,0,1,1.869,1.424,2.391,2.391,0,0,1,.055.992,13.373,13.373,0,0,1-1.764,4.375,10.754,10.754,0,0,1-2.2,2.9c1.645,1.535,3.362,3.021,5.1,4.418a62.974,62.974,0,0,0,6,4.242c.562.351,1.14.7,1.7,1.028A40.268,40.268,0,0,1,98.4,21.8a14.575,14.575,0,0,1,2.216,2.019,8.562,8.562,0,0,1,1.574,2.536,7.115,7.115,0,0,1,.446,3.061,13.979,13.979,0,0,1-.581,3.06l-.067.228c-.07.236-.144.471-.222.72-.576,1.832-1.23,3.909.026,5.571a10.245,10.245,0,0,0,1.925,1.792c.254.2.516.4.763.612a20.965,20.965,0,0,1,2.263,2.218,18.332,18.332,0,0,1,3.53,5.861l.07.2a12.908,12.908,0,0,1,.715,3.1,5.893,5.893,0,0,1-.462,3.074.576.576,0,0,1-.542.33.718.718,0,0,1-.7-.492,13.135,13.135,0,0,1-.331-1.979,15.69,15.69,0,0,0-.255-1.68,13.838,13.838,0,0,0-1.383-3.589,19.439,19.439,0,0,0-4.754-5.642l-.576-.468a12.887,12.887,0,0,1-2.041-1.986,5.468,5.468,0,0,1-1.143-2.591,11.659,11.659,0,0,1,.747-5.08v0c.123-.406.249-.826.361-1.237a7.033,7.033,0,0,0,.1-4.117,17.288,17.288,0,0,1-1.325,1.79c-.16.2-.311.384-.455.569-.864,1.107-1.744,2.221-2.6,3.3l-.115.146-.64.81c-1.27,1.609-2.359,3.063-3.33,4.443-.513.73-1,1.441-1.418,2.041-.193.28-.431.565-.662.84h0c-.193.231-.393.469-.568.706a.914.914,0,0,1-.083.831,1.546,1.546,0,0,1-1.229.738c-.76,0-1.642-.69-2.623-2.051a24.81,24.81,0,0,1-1.795-3.028l-.042-.082-.016-.03c-.767-1.473-1.448-3.017-2.106-4.51-.666-1.51-1.354-3.071-2.133-4.56A71.315,71.315,0,0,0,73.48,20.4c-.467-.642-.962-1.279-1.44-1.895-.785-1.01-1.6-2.055-2.3-3.142a23.493,23.493,0,0,1-4.469,3.1c-1.658.916-3.446,1.731-4.883,2.386h0c-2.739,1.249-5.606,2.338-8.379,3.39l-.005,0c-.792.3-1.612.612-2.415.922l-1.067.415c-3.514,1.371-6.437,2.577-9.284,4a43.456,43.456,0,0,0-8.5,5.415,31.929,31.929,0,0,0-4.12,4.151,38.76,38.76,0,0,0-3.335,4.736,51.11,51.11,0,0,0-2.7,5.158c-.758,1.66-1.48,3.432-2.205,5.416-1.443,3.944-2.84,8.125-4.27,12.782-1.179,3.839-2.368,7.954-3.741,12.948-1.227,4.463-2.39,8.947-3.457,13.33-.326,1.341-.639,2.709-.941,4.032v0C5.393,100.1,4.79,102.74,4.062,105.3c.1,0,.2-.005.294-.005a20.261,20.261,0,0,1,4.208.62c.8.174,1.547.338,2.221.426,4.705.616,8.953,1.37,12.985,2.307,2.184.507,4.327,1.075,6.367,1.689,2.142.644,4.246,1.36,6.252,2.127a1.743,1.743,0,0,1,1.011.953,1.97,1.97,0,0,1,.081,1.279l.7-.2.026-.007,1.033-.292a5.477,5.477,0,0,1-.333-3.174c.019-.24.038-.466.047-.669l0-.075c.034-.958.115-1.931.194-2.872v0c.041-.489.083-1,.118-1.492.207-2.938.464-5.647.787-8.28l.086-.689c.163-1.278.31-2.578.453-3.835v0c.192-1.7.391-3.452.631-5.171l.049-.343c-.174-.666-.383-1.368-.678-2.276-.456-1.4-1.053-2.771-1.631-4.1-.248-.569-.505-1.157-.749-1.743a.179.179,0,0,1,.012-.174.261.261,0,0,1,.215-.1.231.231,0,0,1,.156.056,13.721,13.721,0,0,1,1.847,2.059,19.4,19.4,0,0,1,1.476,2.36c.007-.033.013-.067.019-.1s.016-.087.025-.131l.1-.49a8.417,8.417,0,0,1,1.277-3.42.208.208,0,0,1,.163-.085.163.163,0,0,1,.143.085,5.6,5.6,0,0,1,.644,1.834,18.316,18.316,0,0,1,.224,1.96c.006.083.013.164.019.245.106,1.33.142,2.75.116,4.606-.034,2.4-.178,4.833-.317,7.19-.033.553-.07,1.18-.1,1.793-.151,2.685-.447,5.545-.906,8.743l-.079.545c-.055.373-.108.755-.16,1.123v0c-.14,1-.284,2.031-.48,3.033l-.076.374c-.045.212-.084.45-.125.7a10.157,10.157,0,0,1-.393,1.739c7.039-1.963,14.488-3.994,22.138-6.035,3.794-1.013,7.653-2.031,11.385-3.016l4.652-1.228a6.019,6.019,0,0,1,1.072-1.408,5.783,5.783,0,0,1,1.536-1.087,3.971,3.971,0,0,1,1.7-.4,3.545,3.545,0,0,1,1.874.545.239.239,0,0,1,.111.21.212.212,0,0,1-.111.186c-.4.217-.716.4-1,.569l3.21-.87c.707-.192,1.431-.4,2.13-.6h0c1.681-.487,3.42-.992,5.151-1.311a110.926,110.926,0,0,1,13.875-5.352l.279-.093.562-.19.961-.33a45.688,45.688,0,0,1,6.523-1.894A6.491,6.491,0,0,1,119.232,91a4.677,4.677,0,0,1,2.141.471,2.986,2.986,0,0,1,1.449,1.6,29.7,29.7,0,0,1,2.677,2.062c.435.365.865.752,1.28,1.127l.005,0c.171.155.349.314.524.47l.111.1.109.094,0,0a2.081,2.081,0,0,1,.888,1.293.761.761,0,0,1-.156.6.483.483,0,0,1-.379.182.539.539,0,0,1-.058,0c-1.057-.113-1.948-1.105-2.733-1.98h0c-.2-.219-.382-.426-.562-.61-.783-.8-1.426-1.482-2.025-2.218a.944.944,0,0,1-.449.117.716.716,0,0,1-.66-.4,2.147,2.147,0,0,0-.938-.945,2.8,2.8,0,0,0-1.265-.265,11.121,11.121,0,0,0-3.3.758h0c-.32.109-.623.211-.892.291l-2.643.782c-1.1.325-2.537.753-3.961,1.186-1.33.4-2.675.831-3.977,1.244-2.258.717-4.594,1.458-6.913,2.1a.762.762,0,0,1,.182.685.8.8,0,0,1-.521.558,48.86,48.86,0,0,1-6.507,1.87h0c-.814.194-1.655.394-2.468.6-1.862.483-3.756.977-5.631,1.47a4.582,4.582,0,0,0-.65,1.8,13.443,13.443,0,0,0,.116,3.969,35.716,35.716,0,0,0,.889,3.907l.1.364a19.107,19.107,0,0,0,1.1,3.075,6.567,6.567,0,0,0,1.957,2.532,2.982,2.982,0,0,0,1.47.56c3.369-1.734,6.665-3.43,9.944-5.114a.926.926,0,0,1,.425-.108.968.968,0,0,1,.895.727,21.677,21.677,0,0,0,3.4-.855,15.146,15.146,0,0,0,2.932-1.487c.615-.371,1.25-.754,1.921-1.075a5.829,5.829,0,0,1,2.568-.576,9.171,9.171,0,0,1,3.211.664,31.272,31.272,0,0,1,3.066,1.409l.6.3.668.328a8.448,8.448,0,0,0,3.206,1.005,1.353,1.353,0,0,0,1.423-.888,2.043,2.043,0,0,0,.031-1.255,3.649,3.649,0,0,0-.611-1.191,7.255,7.255,0,0,0-1.957-1.758,11.9,11.9,0,0,0-2.348-1.073c-.866-.3-1.745-.522-2.491-.7-.968-.233-1.935-.418-2.872-.55-.349-.049-.708-.081-1.055-.111a9.568,9.568,0,0,1-2.225-.375.651.651,0,0,1-.423-.646.518.518,0,0,1,.423-.5,6.384,6.384,0,0,1,1.41-.145,16.833,16.833,0,0,1,3.843.59l.885.218a21.325,21.325,0,0,1,4.982,1.779,10.227,10.227,0,0,1,1.682,1.134,7.723,7.723,0,0,1,1.419,1.525,1.948,1.948,0,0,1,1.389-.524,3.934,3.934,0,0,1,1.007.15l.476.132a5.847,5.847,0,0,0,1.566.278,3.175,3.175,0,0,0,.622-.061c.1-.535.2-1.107.317-1.67,1.115-5.6,2.327-11.1,3.6-16.345,1.126-4.63,2.364-9.324,3.678-13.953,1.3-4.579,2.712-9.223,4.2-13.8l.3-.915c.153-.467.3-.953.446-1.424v0a23.735,23.735,0,0,1,1.892-4.871,6.758,6.758,0,0,1,2-2.185,8.831,8.831,0,0,1,2.705-1.237,52.821,52.821,0,0,1,5.173-1.074h.007c.573-.1,1.166-.2,1.744-.309.307-.057.626-.114.907-.164l.634-.114a16.943,16.943,0,0,1-.819-1.8c-.08-.2-.156-.382-.23-.557l-.051-.118c-.684-1.558-1.286-3.142-1.734-4.347l-.407-1.1a54.993,54.993,0,0,0-3.376-7.729A19.913,19.913,0,0,0,146,34.415a21.081,21.081,0,0,0-3.248-2.934,54.281,54.281,0,0,0-7.3-4.269c-1.407-.727-2.861-1.478-4.251-2.288a31.762,31.762,0,0,1-4-2.716.167.167,0,0,1-.06-.192.246.246,0,0,1,.222-.156.2.2,0,0,1,.091.022,68,68,0,0,0,6.971,2.874h0c1,.369,2.033.751,3.038,1.147l.659.26a33.034,33.034,0,0,1,7.6,3.877,21.1,21.1,0,0,1,3.418,3.173,21.767,21.767,0,0,1,2.639,3.848,48.387,48.387,0,0,1,2.909,7.124v0c.187.537.38,1.093.573,1.634l.28.782c.4,1.118.847,2.313,1.359,3.483.16.365.372.745.6,1.147a10.685,10.685,0,0,1,.878,1.829l.184-.032h.008c.843-.146,1.715-.3,2.574-.441,4.969-.83,10.024-1.585,15.023-2.244s10.073-1.24,15.09-1.727,10.109-.894,15.141-1.209,10.136-.547,15.174-.69h.034a.992.992,0,0,1,.782.357,1.326,1.326,0,0,1,.269,1.068c-1.1,6.475-2.137,13.06-3.144,19.428l0,.014c-.782,4.943-1.591,10.054-2.418,15.075-.845,5.125-1.7,10.187-2.534,15.045-.187,1.086-.389,2.186-.585,3.249-.263,1.429-.535,2.906-.772,4.363-.072.439-.14.886-.206,1.318l0,.016a38.653,38.653,0,0,1-.943,4.8,11.579,11.579,0,0,1-2.6,4.906A7.6,7.6,0,0,1,207,118.046a12.083,12.083,0,0,1-2.871.839c-3.459.6-7.034.952-10.491,1.3-1.525.152-3.1.309-4.645.485l-26.778,3.046c.19,1.726.3,3.464.334,5.313.032,1.688,0,3.436-.094,5.344l-.1,1.964c-.08,1.51-.178,3.12-.411,4.726a9.491,9.491,0,0,1-2.5,5.088,30.042,30.042,0,0,1-4.122,3.594,20.961,20.961,0,0,1-4.777,2.951l-.227.09a22.585,22.585,0,0,1-2.532.822,12.352,12.352,0,0,1-3.01.439,6.137,6.137,0,0,1-.973-.072c.053.265.117.54.178.8a6.168,6.168,0,0,1,.156,3.408,1.034,1.034,0,0,1-.37.494A.972.972,0,0,1,143.2,158.866Zm17.719-35.006-2.806.319c-3.29.375-6.529.729-9.263,1.027l-6.708.729c-.009.189-.024.372-.039.549v0c-.015.179-.029.348-.033.494-.046,1.547-.079,3.117-.107,4.468-.062,2.969.006,5.981.2,8.953.221,3.351.485,6.1.831,8.642l.08.573.046.3a1.319,1.319,0,0,1,.891.492,1.143,1.143,0,0,0,.906.3,8.515,8.515,0,0,0,2.518-.563,16.491,16.491,0,0,0,3.709-2.058,23.291,23.291,0,0,0,3.1-2.636l.793-.784a10.12,10.12,0,0,0,2.061-2.6,11.27,11.27,0,0,0,.837-3.652c.03-.258.061-.525.095-.781.207-1.567.466-3.271.816-5.363l2.074-8.405ZM5.717,107.7l-.012,2.914c-.015,3.965-.011,8.186.2,12.378l.04.765c.24,4.487.612,9.235,2.259,13.611a24.705,24.705,0,0,0,6.2,9.4,13.824,13.824,0,0,0,2.205,1.7,9.638,9.638,0,0,0,2.55,1.1,14.307,14.307,0,0,0,3.743.45c.5,0,1.008-.019,1.558-.057,7.363-.514,14.029-4.049,20.476-7.469h0c.975-.517,1.984-1.052,2.97-1.563,11.551-5.981,23.865-12.353,36.241-18.73a5.931,5.931,0,0,1-.914-.77,13.234,13.234,0,0,1-3.037-6.185,32.645,32.645,0,0,1-1-7.333l.271-2.849-.291.077c-3.01.8-6.063,1.618-9.016,2.41-7.436,1.993-15.126,4.054-22.715,5.976-3.025.766-6.107,1.512-9.088,2.233-2.192.53-4.459,1.079-6.686,1.631l-.851.213c-4.074,1.029-8.318,2.288-11.514,5.315a.122.122,0,0,1-.084.036.134.134,0,0,1-.118-.081.118.118,0,0,1,.026-.132,18.5,18.5,0,0,1,6.01-4.124,50.588,50.588,0,0,1,6.948-2.4c.475-.136.959-.272,1.427-.4l.02-.006,1.145-.324a152,152,0,0,0-19.408-5.64c-.843-.179-1.7-.338-2.538-.491h0c-.847-.156-1.723-.317-2.58-.5-.763-.163-1.526-.377-2.265-.583-.408-.114-.83-.232-1.249-.341ZM220.227,49.01c-5.306.16-10.655.417-15.9.762-5.3.349-10.634.8-15.862,1.335-9.774,1-19.642,2.357-29.329,4.024-2.022.348-4.07.715-6.088,1.091l-1.216.229c-.453.086-.92.159-1.413.236-.844.132-1.717.269-2.554.478a8.528,8.528,0,0,0-2.341.911,4.919,4.919,0,0,0-1.83,2.081,16.623,16.623,0,0,0-.99,2.675c-.075.244-.152.5-.23.74-.74,2.3-1.472,4.642-2.176,6.96-2.839,9.353-5.412,18.75-7.648,27.929-.8,3.277-1.545,6.622-2.268,9.857v0c-.3,1.359-.617,2.764-.931,4.145-.83,3.66-1.8,7.589-3.067,12.364a1.212,1.212,0,0,1,.5-.225c4.456-.948,9.063-1.461,13.517-1.958.932-.1,1.9-.211,2.848-.321l.529-.062c5.374-.632,11.151-1.307,16.983-1.963l37.5-4.217c.626-.07,1.277-.124,1.906-.177a26.641,26.641,0,0,0,4.827-.7,5.75,5.75,0,0,0,3.707-3.336,20.275,20.275,0,0,0,1.423-5.022l.019-.1c1.107-5.888,2.1-11.9,3.051-17.724v0c.641-3.9,1.3-7.942,2-11.911ZM125,124.333h.005a1.449,1.449,0,0,1,.85.252l1.4-11.2a8.348,8.348,0,0,1-2.351-.715,6.518,6.518,0,0,0-2.084-.623c-.04,0-.08,0-.118,0a4.048,4.048,0,0,1,.507,3.267,2.5,2.5,0,0,1-2.663,1.932,7.7,7.7,0,0,1-2.4-.462,16.915,16.915,0,0,1-2.1-.886c-.371-.185-.745-.382-1.107-.572a15.673,15.673,0,0,0-4-1.653,5.445,5.445,0,0,0-1.116-.12,8.151,8.151,0,0,0-3.943,1.359l-.2.106a15.47,15.47,0,0,1-4.639,1.639,9.188,9.188,0,0,1-1.647.144c-.275,0-.552-.011-.848-.033a1.007,1.007,0,0,1-.168.11l-.432.227a24.263,24.263,0,0,1,5.757,1.243c1.959.595,3.9,1.326,5.569,1.965l1.808.7a67.881,67.881,0,0,0,6.785,2.3,27.2,27.2,0,0,0,7.058,1.02ZM75.16,4.5a5,5,0,0,0-1.136.9,18.532,18.532,0,0,0-2.582,3.9l-.044.081c-.185.339-.368.68-.545,1.01l0,0c-.216.4-.44.821-.665,1.228-.2.353-.4.7-.549.963a3.861,3.861,0,0,1-.261.351h0c-.075.095-.153.192-.206.268.131.183.273.374.435.584.011.015.178.2.454.5l.011.012c1.131,1.244,3.779,4.158,4.862,5.483,1.059,1.3,2.054,2.622,2.957,3.942.938,1.371,1.809,2.781,2.588,4.192.925,1.674,1.732,3.435,2.513,5.139.537,1.173,1.093,2.384,1.683,3.56a21.968,21.968,0,0,0,2.563,4.122c.024.029.048.057.072.085l0,0,0,0,.046.053a9.964,9.964,0,0,1,1.571-2.438c.119-.15.232-.292.325-.415l.046-.062c1.006-1.356,2.124-2.762,3.519-4.423,1.075-1.281,2.22-2.584,3.4-3.874l.437-.474c.147-.159.3-.329.458-.508a10.306,10.306,0,0,1,2.564-2.3,5.726,5.726,0,0,0-.443-.671,15.127,15.127,0,0,0-4.228-3.454l-1-.611c-1.567-.955-3.618-2.227-5.587-3.6A50.755,50.755,0,0,1,83.2,13.931a44.078,44.078,0,0,1-4.915-5.1l-.517-.654Zm6.316-1.142c-.415.035-.847.06-1.264.085a15.012,15.012,0,0,0-4.061.607c.865.818,1.718,1.688,2.543,2.529.562.573,1.142,1.165,1.72,1.734A21.059,21.059,0,0,1,80.875,6.1c.048-.194.1-.394.144-.592ZM81.021,147.85a.916.916,0,0,1-.75-.46.866.866,0,0,1-.039-.867A124.759,124.759,0,0,1,87.3,134.991l.329-.489c1.132-1.685,2.3-3.427,3.465-5.133.628-.921,1.143-1.659,1.622-2.321l.333-.457,1.8-1.975a.162.162,0,0,1,.078-.02.159.159,0,0,1,.157.155,5.116,5.116,0,0,1-.686,2.306c-.053.112-.114.24-.168.359l-.04.089c-.416.926-.905,1.923-1.495,3.047-1.073,2.047-2.175,4.04-3.275,5.926a70.008,70.008,0,0,1-7.83,11.094A.752.752,0,0,1,81.021,147.85Zm45.63-39.574a4.069,4.069,0,0,1-2.872-1.528l-.679-.71a7.231,7.231,0,0,0-1.484-1.261,3.674,3.674,0,0,0-1.947-.514c-.059,0-.121,0-.182,0a28.781,28.781,0,0,0-3.449.409h0c-.651.1-1.325.211-1.985.289-1.963.232-4.026.442-6.133.625h-.008a.074.074,0,0,1-.073-.071.082.082,0,0,1,.058-.093l2.295-.571,8.92-1.8a7.614,7.614,0,0,1,.918-.059,4.552,4.552,0,0,1,3,1.008,11.777,11.777,0,0,1,1.161,1.145,9.912,9.912,0,0,0,1.379,1.312,3.291,3.291,0,0,0,1.769.667.536.536,0,0,1,.506.48.492.492,0,0,1-.368.543A2.9,2.9,0,0,1,126.652,108.276Zm1.774-5.582a.349.349,0,0,1-.081-.009,7.242,7.242,0,0,1-2.014-.852,21.876,21.876,0,0,1-1.8-1.245c-.446-.331-.908-.673-1.38-.981a6.4,6.4,0,0,0-3.7-.992c-.717,0-1.444.065-2.214.133l-.135.012c-2.207.2-4.325.464-6.3.8-.68.114-1.371.254-2.04.389a34.239,34.239,0,0,1-3.864.627v0a.258.258,0,0,1-.239-.205.214.214,0,0,1,.115-.25,26.336,26.336,0,0,1,6.377-1.906l.143-.03,6.434-1,.237-.024c.745-.072,1.314-.1,1.845-.1a8.9,8.9,0,0,1,2.043.214,6.754,6.754,0,0,1,1.976.8l.358.216a13.631,13.631,0,0,1,4.563,3.881.318.318,0,0,1,.01.332A.383.383,0,0,1,128.425,102.694ZM52.167,74.483a.624.624,0,0,1-.658-.538c-.4-2.586-.8-5.212-1.188-7.751v0c-.457-3-.93-6.107-1.407-9.158-.34-2.171-.729-4.372-1.105-6.5v0c-.114-.646-.232-1.313-.349-1.979l-1.247-8.16a.153.153,0,0,1,.044-.112.182.182,0,0,1,.127-.052.156.156,0,0,1,.139.08,30.642,30.642,0,0,1,2.563,7.11c.075.278.153.564.23.845.674,2.455,1.285,5.11,1.92,8.353.559,2.852.988,5.72,1.276,8.525.293,2.849.451,5.745.471,8.606a.674.674,0,0,1-.2.49A.883.883,0,0,1,52.167,74.483Zm9.152-8.112a.963.963,0,0,1-.724-.34.853.853,0,0,1-.177-.728l-.754-20.749a.233.233,0,0,1,.028-.216.263.263,0,0,1,.213-.1.275.275,0,0,1,.262.176,38.773,38.773,0,0,1,1.693,5.166,36.78,36.78,0,0,1,.936,5.367,31.931,31.931,0,0,1-.729,10.809A.748.748,0,0,1,61.319,66.371Zm41.631-19.061a.415.415,0,0,1-.338-.159,4.7,4.7,0,0,1-.3-.445,2.38,2.38,0,0,0-.63-.766,3.777,3.777,0,0,0-1.467-.51c-.227-.046-.462-.093-.68-.156a5.258,5.258,0,0,1-2.372-1.413l-2.328-5.254a.2.2,0,0,1,.051-.154.227.227,0,0,1,.165-.065.257.257,0,0,1,.211.1,15.886,15.886,0,0,1,1.027,1.75,13.34,13.34,0,0,0,1.218,2,4.543,4.543,0,0,0,1.85,1.447,7.8,7.8,0,0,0,1.342.378,4.789,4.789,0,0,1,2.063.8,2.491,2.491,0,0,1,.778.984,1.262,1.262,0,0,1-.1,1.189A.61.61,0,0,1,102.949,47.309Zm3.924-4a.593.593,0,0,1-.427-.173,2.84,2.84,0,0,1-.387-2.858,12.6,12.6,0,0,1,1.3-2.822A16.426,16.426,0,0,1,111.1,33.4c.269-.232.548-.472.825-.718a20.283,20.283,0,0,0,4.133-5.927c.31-.586.621-1.189.922-1.771l.006-.012,0-.006c.368-.714.749-1.452,1.135-2.172a4.907,4.907,0,0,1-1.109-2.419c-.038-.148-.074-.287-.111-.42l-.023-.08a32.213,32.213,0,0,1-.946-4.394,24.09,24.09,0,0,1-.229-4.26l.015-.365.7-2.616a.26.26,0,0,1,.346.091.284.284,0,0,1-.042.436,10.522,10.522,0,0,1,.468,1.574c.13.575.272,1.163.432,1.8.152.6.3,1.21.437,1.8l0,.008v.005c.141.594.286,1.207.439,1.809.307,1.211.691,2.484,1.14,3.786.026.074.055.155.09.246l.049.126.012-.019a.13.13,0,0,1,.11-.067.139.139,0,0,1,.1.049.15.15,0,0,1,.034.122c-.012.081-.027.162-.041.242v.008c-.009.049-.018.1-.026.149l.045.119a2.207,2.207,0,0,1-.042,2.221,1.049,1.049,0,0,1-.67.442,38.364,38.364,0,0,1-1.526,4.089l-.167.385a22.941,22.941,0,0,1-3.067,5.458,20.1,20.1,0,0,1-2.085,2.1,15.192,15.192,0,0,0-2.645,2.868,11.988,11.988,0,0,0-1.335,2.9l-.125.391a3.118,3.118,0,0,1-1.193,1.86A.552.552,0,0,1,106.874,43.309Zm11.518-1.986a1.241,1.241,0,0,1-.8-.274l-1.526-1.268c-.257-.213-.513-.427-.761-.636-.232-.2-.443-.376-.645-.552l-.318-.281c-.036-.033-.1-.1-.188-.189a3.23,3.23,0,0,0-.758-.662.258.258,0,0,0-.04,0c-.406,0-1.219.847-1.655,1.3h0l-.15.156-.046.045a18.644,18.644,0,0,0-1.853,2.129.145.145,0,0,1-.116.062.136.136,0,0,1-.114-.062.138.138,0,0,1,0-.137,19.019,19.019,0,0,1,1.8-3.108l.142-.194c.079-.107.163-.228.252-.355l0-.006c.437-.63.981-1.413,1.665-1.568a1.352,1.352,0,0,1,.3-.033,3.785,3.785,0,0,1,2.089,1.089c.127.1.247.2.361.288l.046.035c.38.285.754.575,1.038.8a13.512,13.512,0,0,1,.211-2.829,7.97,7.97,0,0,1,.975-2.632,11.672,11.672,0,0,1,1.768-2.113c.282-.288.574-.585.848-.891a11.913,11.913,0,0,0,1.351-1.991,14.616,14.616,0,0,1,1.047-1.625.676.676,0,0,1,.446-.253c.027-.721.116-1.454.2-2.163v-.01c.024-.2.049-.4.072-.6l.031-.274c.015-.143.033-.288.052-.441a4.682,4.682,0,0,0-.181-2.7,5.7,5.7,0,0,0-1.8-1.733h0c-.175-.126-.34-.245-.5-.364l-.638-.5L119.16,15.02a.233.233,0,0,1-.023-.253.349.349,0,0,1,.3-.181.271.271,0,0,1,.055.006,12.361,12.361,0,0,1,3.353,1.463c.169.094.361.2.545.3l.13.07a5.5,5.5,0,0,1,2.459,2.183,6.9,6.9,0,0,1,.433,3.582l-.007.112c-.02.308-.036.625-.052.931v.005h0a21.72,21.72,0,0,1-.36,3.417,1.008,1.008,0,0,1-.376.619,1.028,1.028,0,0,1-.621.195,1.285,1.285,0,0,1-.376-.057,11.391,11.391,0,0,1-2.766,4.031c-.387.422-.788.858-1.145,1.292a6.205,6.205,0,0,0-1.319,3.382,20.478,20.478,0,0,0,.051,3.711q.017.223.033.443a.922.922,0,0,1-.234.714A1.147,1.147,0,0,1,118.392,41.323Z" transform="translate(0 4.224)"/></g><g transform="translate(-613.861 302.722)"><g transform="translate(0 0)"><path d="M75.706,34.46c-.479-4.205.141-12.995.182-13.529.262-3.376-1.319-16.707-4.31-15.478C66.562,1.482,59.882.605,53.634.186c-12.976-.87-26.781,1.127-36.8,9.86-4.955,4.535-9.779,11.131-9.392,18C2.94,34.555-3.407,43.485,2.2,51.1c1.907,2.431,4.937,3.337,7.333,5.178,4.818,3.886,7.841,9.463,12.7,13.326,12.886,11.579,34.766,14,47.426.828,9.79-9.538,8.207-23.808,6.485-35.968C74.993,26.285,76.639,42.664,75.706,34.46Z" transform="translate(3.781 18.675)" fill="#d08b5b"/><path d="M55.65,98.547a29.8,29.8,0,0,1-4.231-.31,23.443,23.443,0,0,1-4.778-1.156A9.062,9.062,0,0,1,44.4,95.9a10.054,10.054,0,0,1-1.822-1.75,1.4,1.4,0,0,1-.15-1.4.859.859,0,0,1,.808-.525,1.157,1.157,0,0,1,.138.009,26.271,26.271,0,0,1,4.674.917l.223.07a23.151,23.151,0,0,0,4.789,1.027c.821.08,1.654.12,2.475.12a24.551,24.551,0,0,0,7.42-1.131,21.539,21.539,0,0,0,3.745-1.6,23.021,23.021,0,0,0,3.391-2.252,24.07,24.07,0,0,0,5.392-6.069,23.557,23.557,0,0,0,3.163-8.662,53.2,53.2,0,0,0,.575-9.275c-.051-6.646-.267-13.6-.642-20.665l-.062-1.147c-.159-2.91-.364-6.748-.544-10.629-.06-1.3-.145-2.362-.269-3.341a8.8,8.8,0,0,1-3.181-3.066,31.355,31.355,0,0,1-4.544,1.429,27.208,27.208,0,0,1-6.49.8,25.61,25.61,0,0,1-3.82-.285c-.92.38-1.873.719-2.83,1.008-.266.118-.527.232-.777.339a47.226,47.226,0,0,1-7.1,2.441l-.6.15a24.534,24.534,0,0,1-4.047.726,5.9,5.9,0,0,1-.732.224,11.894,11.894,0,0,1-2.8.333c-.335,0-.674-.014-1.008-.042a1.883,1.883,0,0,1-1.514-.977,1.546,1.546,0,0,1-.179-.747,1.66,1.66,0,0,1,.236-.813c.494-.848,1-1.712,1.514-2.568a47.705,47.705,0,0,1-5.447,1.872c-1.644.463-3.437.9-5.645,1.374-.5.107-1.011.209-1.505.308h0c-.5.1-1.02.2-1.528.313-.161.034-.34.065-.53.1a4.308,4.308,0,0,0-1.891.612,3.753,3.753,0,0,0-.92,1.929c-.055.2-.107.394-.163.563-.346,1.04-.642,2-.907,2.948a61.227,61.227,0,0,0-1.358,6.014,57.7,57.7,0,0,0-.718,6.136c-.054.847-.076,1.71-.1,2.545-.031,1.19-.063,2.42-.186,3.622a1.428,1.428,0,0,1-.429.894,1.223,1.223,0,0,1-.839.34,1.312,1.312,0,0,1-.871-.349c-.1-.086-.2-.177-.3-.27l-.15-.137a15.337,15.337,0,0,1-2.038-2.17c-.1-.144-.207-.3-.3-.456a.073.073,0,0,1-.044-.015l-.163-.123A7.959,7.959,0,0,0,9.4,52.669a2.649,2.649,0,0,0-2.169,1.064,6.9,6.9,0,0,0-1.082,2.48l-.417,1.557a27.045,27.045,0,0,0-.671,3.079,11.79,11.79,0,0,0-.009,3.615A6.6,6.6,0,0,0,6.5,67.732,4.088,4.088,0,0,0,9,69.153a3.145,3.145,0,0,0,.433.028,7.649,7.649,0,0,0,.995-.088h.006l.2-.026a3.336,3.336,0,0,1,.416-.023c.147,0,.3.007.439.014h0c.145.007.294.014.443.014.125,0,.237,0,.342-.015.034,0,.068-.005.1-.005a.881.881,0,0,1,.767.441,1.272,1.272,0,0,1,.068,1.194,4.039,4.039,0,0,1-.625.923,7.208,7.208,0,0,1,.549.529,2.741,2.741,0,0,1,1.336,1,2.265,2.265,0,0,1,.454,1.236c.028.1.054.205.082.334l.477.774c.117.189.22.353.314.5a24.167,24.167,0,0,0,4.235,5.056c.6.543,1.222,1.074,1.827,1.587a40.872,40.872,0,0,1,3.048,2.768l.178.187A11.672,11.672,0,0,1,27,88.05a4.028,4.028,0,0,1,.437,2.979,1.042,1.042,0,0,1-.971.727.756.756,0,0,1-.454-.147,11.146,11.146,0,0,1-2.349-2.681,16.923,16.923,0,0,0-1.484-1.912c-.721-.766-1.494-1.505-2.242-2.22h0c-.727-.695-1.479-1.414-2.183-2.157a17.35,17.35,0,0,1-3.217-4.809,2.59,2.59,0,0,1-1.782.729,2.441,2.441,0,0,1-1.345-.414,2.753,2.753,0,0,1-.939-1.06,8.421,8.421,0,0,1-.949.36,1.915,1.915,0,0,1-.559.087,1.653,1.653,0,0,1-1.4-.8,2.16,2.16,0,0,1-.329-.979A2.1,2.1,0,0,1,7.415,74.7a6.731,6.731,0,0,1,1.292-1.93A8.187,8.187,0,0,1,4.3,70.632a9.042,9.042,0,0,1-2.487-4.789,13.343,13.343,0,0,1-.244-2.731,17.184,17.184,0,0,1,.253-2.732A27.046,27.046,0,0,1,3.434,54.8c.139-.341.274-.644.411-.927a.289.289,0,0,1-.22-.107c-.168-.229-.35-.447-.527-.658a6.436,6.436,0,0,1-.927-1.314c-.074-.152-.151-.306-.225-.456A16.907,16.907,0,0,1,1.2,49.687,20.5,20.5,0,0,1,.208,45,35.255,35.255,0,0,1,.47,35.5a37.97,37.97,0,0,1,2.1-7.853,38.6,38.6,0,0,1,3.686-7.206,2.58,2.58,0,0,1-.458-.307l-.071-.062-.115-.1A1.9,1.9,0,0,1,5,18.586a2.187,2.187,0,0,1,.6-1.579l.243-.244a6.444,6.444,0,0,1,1.07-.881c.072-.048.147-.095.224-.138a2.127,2.127,0,0,1-.169-1.663A2.207,2.207,0,0,1,8.087,12.72a3.91,3.91,0,0,1,1.846-.407,6.6,6.6,0,0,1,2.752.628,35.581,35.581,0,0,1,7.215-5,69.04,69.04,0,0,1,9.847-4.156A85.007,85.007,0,0,1,40.081,1.028,46.939,46.939,0,0,1,49.388,0c.427,0,.854.008,1.271.023l.273.011a31.284,31.284,0,0,1,4.313.405A10.635,10.635,0,0,1,59.3,1.927a.508.508,0,0,1,.355-.153.434.434,0,0,1,.189.043,66.468,66.468,0,0,0,8.071,3.012l.644.209A39.429,39.429,0,0,0,77.5,6.855a1.854,1.854,0,0,1,.888.32A1.8,1.8,0,0,1,79,7.864a1.4,1.4,0,0,1-.1,1.426c-.178.273-.349.544-.507.8l.252-.027h0L79.228,10c.04,0,.081-.006.122-.006a1.638,1.638,0,0,1,1.161.555,1.719,1.719,0,0,1,.5,1.234,16.582,16.582,0,0,1-.184,1.668h.064a2.478,2.478,0,0,1,.97.188,2.358,2.358,0,0,1,1.414,1.835,8.727,8.727,0,0,1,.042,2.453,10.168,10.168,0,0,1-2.464,6.01,9.548,9.548,0,0,1,1.423,1.9,10.351,10.351,0,0,1,.942,2.263,10.684,10.684,0,0,1,.436,3.708l-.03.372a5.959,5.959,0,0,1-1.315,3.812,2.067,2.067,0,0,1-1.488.635c-.069,0-.139,0-.208-.01.356,3.13.587,6.334.794,9.348l.1,1.489c.277,4.183.462,7.623.584,10.823.149,3.922.2,7.465.156,10.832a46.3,46.3,0,0,1-.323,5,34.518,34.518,0,0,1-.936,4.847,27.7,27.7,0,0,1-1.694,4.61,24.787,24.787,0,0,1-2.6,4.29,27.928,27.928,0,0,1-3.116,3.476,27.454,27.454,0,0,1-3.644,2.894,26.484,26.484,0,0,1-4.084,2.222,25.361,25.361,0,0,1-4.438,1.459A25.88,25.88,0,0,1,55.65,98.547Zm-41.642-33.9h-.037a2.394,2.394,0,0,1-1.534-.617,7.718,7.718,0,0,1-1.113-1.3c-.112-.152-.228-.31-.345-.461a1.527,1.527,0,0,1-.371.454l-.1.08a1.869,1.869,0,0,1-1.118.453H9.327a2.19,2.19,0,0,1-.916-.247,1.66,1.66,0,0,1-.755-.883,1.9,1.9,0,0,1,.679-2.259L8.2,59.777a2.687,2.687,0,0,1-.754-.722L7.4,58.982H7.42a.721.721,0,0,1,.414-1.063,2.161,2.161,0,0,1,.67-.1,7.341,7.341,0,0,1,2.833.879l.256.119a15.209,15.209,0,0,1,3.55,2.461A1.974,1.974,0,0,1,15.65,63.2l-.008.04c-.011.054-.022.109-.035.165a1.52,1.52,0,0,1-.594.885A1.713,1.713,0,0,1,14.008,64.649Z" transform="translate(0 0)"/></g></g><g transform="translate(-578.512 343.851)"><path d="M24.018,42.643A8.469,8.469,0,0,1,20.806,42a9.073,9.073,0,0,1-2.1-1.2A8.929,8.929,0,0,1,17,39.076a1.763,1.763,0,0,1-.356-1.365,1.968,1.968,0,0,1,.766-1.233,1.887,1.887,0,0,1,1.123-.391,1.629,1.629,0,0,1,.251.019,1.734,1.734,0,0,1,1.161.768l.069.095a5.992,5.992,0,0,0,2.2,1.842,4.985,4.985,0,0,0,2.177.508,4.828,4.828,0,0,0,.54-.03,5.671,5.671,0,0,0,2.4-.843,11.225,11.225,0,0,0,2.031-1.7c.145-.148.3-.309.5-.522a.79.79,0,0,1,.414-.319.848.848,0,0,1,.269-.043.917.917,0,0,1,.751.392.838.838,0,0,1,.142.551,5.061,5.061,0,0,1-.6,1.96,6.544,6.544,0,0,1-1.283,1.648,8.251,8.251,0,0,1-1.944,1.355,8.094,8.094,0,0,1-2.157.74A7.947,7.947,0,0,1,24.018,42.643Zm2.26-12.8h0a7.761,7.761,0,0,1-2.767-.558,13.978,13.978,0,0,1-3.255-1.847,1.251,1.251,0,0,1-.454-.722,1.5,1.5,0,0,1,.064-.811,1.845,1.845,0,0,1,.548-.792,1.334,1.334,0,0,1,.854-.333,1.212,1.212,0,0,1,.661.2l.22.17,0,0a17.619,17.619,0,0,0,2.037,1.417,5.019,5.019,0,0,0,2.442.779,2.637,2.637,0,0,0,1.032-.2,2.884,2.884,0,0,0,.961-.681,2.947,2.947,0,0,0,.559-2.372,4.481,4.481,0,0,0-1.189-2.1,8.672,8.672,0,0,0-1.8-1.453.558.558,0,0,1-.151-.642.838.838,0,0,1,.278-.4.852.852,0,0,1,.532-.176,1.133,1.133,0,0,1,.191.017,6.037,6.037,0,0,1,2.123.767,4.816,4.816,0,0,1,1.428,1.317,5.23,5.23,0,0,1,.912,3.494,5.758,5.758,0,0,1-.467,1.834,5.351,5.351,0,0,1-1.052,1.576A5.03,5.03,0,0,1,26.278,29.841ZM8.271,17.34a1.815,1.815,0,0,1-1.178-.462,1.835,1.835,0,0,1-.618-1.186,13.36,13.36,0,0,1,.071-3.48c.042-.338.085-.688.116-1.065A2.083,2.083,0,0,1,7.451,9.66a2.432,2.432,0,0,1,1.5-.526,1.843,1.843,0,0,1,1.131.356A1.677,1.677,0,0,1,10.7,10.6a9.334,9.334,0,0,1-.975,5.753,1.845,1.845,0,0,1-.651.753A1.5,1.5,0,0,1,8.271,17.34ZM34.7,16.551a1.588,1.588,0,0,1-1.245-.533,4.864,4.864,0,0,1-.76-1.289,5.617,5.617,0,0,1-.387-1.553,3.293,3.293,0,0,1,.9-2.827,1.864,1.864,0,0,1,.144-.219,2.034,2.034,0,0,1,1.565-.9,1.7,1.7,0,0,1,.475.07,2.289,2.289,0,0,1,1.529,1.334,4.717,4.717,0,0,1,.189,2.581,8.638,8.638,0,0,1-.782,2.434,1.58,1.58,0,0,1-.676.668A2.049,2.049,0,0,1,34.7,16.551ZM.292,8.261a.288.288,0,0,1-.241-.148A.322.322,0,0,1,.033,7.8,10.966,10.966,0,0,1,2.492,4.685,15.2,15.2,0,0,1,5.783,2.437,14.152,14.152,0,0,1,9.691,1.074L10.108,1A10.169,10.169,0,0,1,11.813.816a2.635,2.635,0,0,1,2.1.785,1.788,1.788,0,0,1,.423,1.27,1.164,1.164,0,0,1-.423.83,3.242,3.242,0,0,1-2.222.652c-.175,0-.356,0-.531-.009h-.006c-.168,0-.359-.009-.549-.009s-.33,0-.476.012a15.026,15.026,0,0,0-3.308.564,22.477,22.477,0,0,0-6.38,3.3A.274.274,0,0,1,.292,8.261ZM40.54,6.578h0l-.176-.044a9.956,9.956,0,0,1-1.93-.753l-.627-.309a17.407,17.407,0,0,0-2.238-.954,26.41,26.41,0,0,0-5.1-1.126A2.083,2.083,0,0,1,29.449,3a1.533,1.533,0,0,1-.572-.871A1.559,1.559,0,0,1,29.053.827a1.664,1.664,0,0,1,.807-.7A1.816,1.816,0,0,1,30.548,0a2.027,2.027,0,0,1,.4.04l.319.065a22.816,22.816,0,0,1,5.506,1.788,11.133,11.133,0,0,1,2.422,1.592A7.069,7.069,0,0,1,40.9,5.7c.06.462,0,.576-.058.654l-.018.022-.016.021a.443.443,0,0,1-.273.182Z" transform="translate(0 0)"/></g><g transform="translate(-500.812 470.239)"><path d="M.065,0,0,9.577l.065,9.577" transform="translate(5.507 17.905) rotate(-159)" fill="none" stroke="#001a34" stroke-linecap="round" stroke-linejoin="round" stroke-width="1"/><g transform="translate(0 4.557)"><path d="M16,14.829l4.415-4.415L16,6" transform="translate(-2.724 -6)" fill="none" stroke="#001a34" stroke-linecap="round" stroke-linejoin="round" stroke-width="1"/><path d="M6.415,6,2,10.415l4.415,4.415" transform="translate(-2 -6)" fill="none" stroke="#001a34" stroke-linecap="round" stroke-linejoin="round" stroke-width="1"/></g></g></g></svg>