<svg xmlns="http://www.w3.org/2000/svg" width="223.927" height="265.307" viewBox="0 0 223.927 265.307"><g transform="translate(888.497 -1320.557)"><g transform="translate(-888.497 1406.671)"><path d="M97.37.044c7.067.349,18.07,3.378,18.62,5.315.859,3.023-.987,14.358,2.1,20.464,1.316,2.6,6.314,2.369,8.25,3.217,6.479,2.836,25.66,8.215,29.615,14.987,1.584,2.713,11.321,36.38,16.5,53.556a49.8,49.8,0,0,0,1.958,5.386l.263-1.289q3.164-15.572,3.164-18.853c0-3.419-2.727-17.842,0-21.51,2.7-3.631,9.206-6.6,12.133-6.659h.088a7.479,7.479,0,0,0,5-1.8l2.072-1.042q15.813-7.935,18.477-8.705c2.834-.819,7.658.926,5.246,3.547q-2.412,2.621-12.121,9.272l-2.441,1.939.295.154q4.732,2.491,5.564,4.193.858,1.755-.824,4.151l.17.166q2.127,2.087,2.127,2.8v2.322q2.116,3.1,1.058,5.168a9.547,9.547,0,0,1-3.355,3.587,14.7,14.7,0,0,1-4.031,6.337q-2.339,1.885-8.084,3.139l-3.466,8.287-2.808,11.642L191.524,122.8l.411.3c1.9,1.387,3.124,2.415,3.124,3.478,0,1.655-7.684,40.583-19.639,42.326-2.586.377-15.994-1.471-20.4-5.053l.065.387q1.554,9.385-.657,9.747Q127.255,178.441.069,176.739q-.757-67.5,6.843-89.914C19.87,48.616,34.157,35.566,39.156,34.448c4.378-.979,19.561-7.022,23.8-8.626,2.77-1.047,3.364-4.186,6.521-4.186h.255c3.053.031,5.761.577,7.282-.994,3.992-4.121,2.876-9.824,4.532-15.286C82.463,2.35,88.7-.384,97.37.044Z" transform="translate(2.062 0)" fill="#d08b5b"/><path d="M69.481,0h.255c.755.008,1.488.047,2.188.077L70.45,5.1l-.032.528Q68.983,31.607,95.86,30.5t26.738-17l-.006-.323V6.58l.282.054a19.467,19.467,0,0,1,3.466.768c6.479,2.836,25.66,8.215,29.615,14.987,1.584,2.713,11.321,36.38,16.5,53.556q.284.941.59,1.838v3.395l-.056.206q-2.72,10.173,7.243,16.635a39.763,39.763,0,0,0,14.505,5.946,1.794,1.794,0,0,1,.327.976c0,1.655-7.684,40.583-19.639,42.326-2.586.377-15.994-1.471-20.4-5.053l.065.387.061.372q1.449,9.02-.718,9.376Q127.255,156.8.069,155.1-.688,87.6,6.912,65.188C19.87,26.979,34.157,13.929,39.156,12.811c4.378-.979,19.561-7.022,23.8-8.626C65.731,3.139,66.324,0,69.481,0Z" transform="translate(2.062 21.637)" fill="#001a34"/><path d="M91.048,168.982a14.468,14.468,0,0,1-2.891-.248,6.818,6.818,0,0,1-2.509-1.006,2.015,2.015,0,0,1-.931-.635,5.354,5.354,0,0,1-.788-1.251,18.6,18.6,0,0,1-1.216-3.868c-.673-3.025-1.106-6.8-1.455-9.828a49.91,49.91,0,0,0-.817-5.636l-.393-2.644c-1.425-9.62-3.077-21.01-4.523-32.55C74.021,99.311,72.92,88.6,72.16,78.56c-.426-5.623-.751-11.146-.966-16.416-.229-5.6-.342-11.122-.337-16.421.005-5.577.141-11.1.4-16.409.276-5.554.7-11.066,1.26-16.381a7.606,7.606,0,0,0-2.17.388,6.45,6.45,0,0,0-1.744.912,8.185,8.185,0,0,0-2.406,3,16.315,16.315,0,0,0-1.3,3.895,34.247,34.247,0,0,0-.581,3.991A39.668,39.668,0,0,1,62.672,32.7c-.77,2.471-1.718,4.938-2.635,7.324h0C59,42.733,57.92,45.532,57.1,48.342a41.023,41.023,0,0,0-1.013,4.265,30.059,30.059,0,0,0-.469,4.4A19.06,19.06,0,0,0,57.2,64.869c.457.97.957,1.943,1.486,2.973a40.364,40.364,0,0,1,3.549,8.4,13.479,13.479,0,0,1,.416,4.339,10.721,10.721,0,0,1-.4,2.175,10.992,10.992,0,0,1-.9,2.167,24.551,24.551,0,0,0-2.457,3.383,7.673,7.673,0,0,0-1.008,2.767c-.262,1.826.221,3.787,1.021,7.037l.031.127c.98,4.679,2.116,9.417,3.473,14.486,1.209,4.515,2.566,9.191,4.15,14.294,2.942,9.48,6.237,19.024,9.423,28.254.751,2.174,1.527,4.423,2.29,6.645-.177.923-.465,1.391-.857,1.391-.283,0-.627-.245-1.021-.729a12.722,12.722,0,0,1-1.246-1.977,65.144,65.144,0,0,1-2.858-6.449c-1.965-4.991-3.877-10.7-5.02-14.117l0-.008c-.426-1.272-.734-2.192-.861-2.52a3.392,3.392,0,0,1-1.522.392,2.576,2.576,0,0,1-1.121-.252,2.78,2.78,0,0,1-.874-.664,3.321,3.321,0,0,1-.822-2.007,2.621,2.621,0,0,1,.572-1.828,2.559,2.559,0,0,1,.843-.653,3.714,3.714,0,0,1,1.26-.343c-3.42-11.448-6.118-21.62-8.248-31.1l-.062-.295c-.141-.654-.3-1.309-.461-2a31.689,31.689,0,0,1-1.091-6.63,10.77,10.77,0,0,1,.387-3.2A8.4,8.4,0,0,1,56.8,85.978c5.124-5.182,2.4-10.708-.481-16.558-2.126-4.315-4.325-8.777-3.534-13.4a2.355,2.355,0,0,1-1.413.465,2.647,2.647,0,0,1-1.029-.214,2.725,2.725,0,0,1-.869-.591,2.39,2.39,0,0,1-.7-1.727,2.288,2.288,0,0,1,.66-1.7,2.758,2.758,0,0,1,1.947-.819,2.333,2.333,0,0,1,1.811.828,40.941,40.941,0,0,1,1.731-6.527c.735-2.128,1.6-4.254,2.443-6.311.822-2.013,1.671-4.093,2.4-6.174a41.79,41.79,0,0,0,1.728-6.375l.071-.414c.118-.686.219-1.392.316-2.075v0a21.108,21.108,0,0,1,1.9-7.16,42.154,42.154,0,0,1-6.586,3.413A3.388,3.388,0,0,1,58.249,22a1.713,1.713,0,0,1,.019,1.208,2.19,2.19,0,0,1-.931,1.083,2.756,2.756,0,0,1-1.424.414,1.84,1.84,0,0,1-1.41-.589,2.01,2.01,0,0,1-.437-.884,3.847,3.847,0,0,1-.042-1.345c-2.829.819-5.322,1.658-7.621,2.566a52.456,52.456,0,0,0-6.237,2.913,37.543,37.543,0,0,0-5.093,3.367,33.363,33.363,0,0,0-4.189,3.928,45.638,45.638,0,0,0-6.627,9.969c-2.1,4.1-4.072,8.91-5.891,13.5a1.81,1.81,0,0,1,1.28-.531A2.256,2.256,0,0,1,21.5,58.661a2.108,2.108,0,0,1-.632,2.746,2.028,2.028,0,0,1-1.082.3,2.273,2.273,0,0,1-1.444-.512,1.82,1.82,0,0,1-.662-1.437l-.374.893c-2.945,7.043-5.142,12.8-6.913,18.122A133.5,133.5,0,0,0,5.509,97.52a3.888,3.888,0,0,1,.541-.04,2.3,2.3,0,0,1,1.708.653,2.164,2.164,0,0,1,.491.825,2.729,2.729,0,0,1,.133.971,2.861,2.861,0,0,1-.615,1.684,2.025,2.025,0,0,1-1.606.765,3.1,3.1,0,0,1-1.37-.359,155.361,155.361,0,0,0-1.411,17.1c-.2,6.043-.131,12.071-.042,17.171a2.828,2.828,0,0,1,1.291-.368,1.457,1.457,0,0,1,1.18.553,1.986,1.986,0,0,1,.4,1.218,1.887,1.887,0,0,1-.5,1.348,1.461,1.461,0,0,1-1.066.423,2.913,2.913,0,0,1-1.276-.348c.079,5.265.181,10.618.279,15.8.076,4.028.155,8.192.223,12.309a1.425,1.425,0,0,1-.39,1.051,1.576,1.576,0,0,1-1.124.441,1.656,1.656,0,0,1-1.07-.373,1.461,1.461,0,0,1-.509-1.118C.7,163.854.6,160.429.5,157.118.176,146.264-.158,135.04.081,124.009c-.036-3.075.042-6.213.233-9.328.186-3.044.485-6.15.888-9.234.393-3.01.9-6.081,1.5-9.13.584-2.972,1.277-6.006,2.058-9.018a177.229,177.229,0,0,1,5.616-17.66c2.1-5.59,4.555-11.342,7.307-17.1a63.719,63.719,0,0,1,7.49-14.912A39.221,39.221,0,0,1,29.561,32.4a36.932,36.932,0,0,1,4.927-4.119A54,54,0,0,1,46.24,22.266c4.388-1.7,9.2-3.185,14.78-4.909h0q1.589-.491,3.283-1.017a12.806,12.806,0,0,1,3.53-3.467,8.581,8.581,0,0,1,4.62-1.547,5.646,5.646,0,0,1,2.692.667,41.794,41.794,0,0,0,3.37-7.525c.474-1.276.963-2.6,1.5-3.844A1.189,1.189,0,0,1,81.15,0a2.523,2.523,0,0,1,1.11.281,2.259,2.259,0,0,1,.887,2.337,11.073,11.073,0,0,1-.968,2.763,14.325,14.325,0,0,0-.623,1.525,22.369,22.369,0,0,1-1.375,2.783,19.63,19.63,0,0,1-1.793,2.579,14.115,14.115,0,0,1-4.793,3.856c.051.615.1,1.26.148,1.779.26,3.1.529,6.3.638,9.469a22.574,22.574,0,0,0,9.055,6.442,66.3,66.3,0,0,0,10.826,3.261,21.828,21.828,0,0,0,5.818.782,23.244,23.244,0,0,0,6.93-1.067,23.883,23.883,0,0,0,6.3-3.034A22.719,22.719,0,0,0,118.426,29a21.027,21.027,0,0,0,3.39-6.215,8.321,8.321,0,0,1-2.678-2.477,11.527,11.527,0,0,1-1.612-3.406,14.073,14.073,0,0,1-.567-3.784,12.635,12.635,0,0,1,.456-3.611.488.488,0,0,1,.444-.307.349.349,0,0,1,.325.205,15.408,15.408,0,0,1,1.072,3.668,13.974,13.974,0,0,0,1.283,4.086,81.192,81.192,0,0,1,10.131,1.628,72.529,72.529,0,0,1,10.416,3.162,51.85,51.85,0,0,1,9.586,4.877,33.405,33.405,0,0,1,7.644,6.771c3.073,4.282,4.607,9.6,6.09,14.744h0c.306,1.059.621,2.155.942,3.205,2.049,6.494,3.911,13.165,5.712,19.618v0c1.636,5.864,3.328,11.927,5.155,17.836l.453-2.348c.594-3.1,1.2-6.41,1.543-9.76a43.085,43.085,0,0,0-.014-9.842l-.015-.315c-.044-.841-.124-1.805-.208-2.826-.444-5.361-1.051-12.7,2.356-15.669a22.415,22.415,0,0,1,5.053-2.914,15.228,15.228,0,0,1,5.729-1.228,10.424,10.424,0,0,1,2.816.374,89.655,89.655,0,0,0,9.489-5.183c2.284-1.37,4.644-2.785,7.039-4.009,1.289-.659,2.486-1.21,3.657-1.687a33.689,33.689,0,0,1,3.825-1.308,8.6,8.6,0,0,1,1.7-.173,6.685,6.685,0,0,1,2.065.3,3.436,3.436,0,0,1,1.591,1.011,3.06,3.06,0,0,1,.558,2.607,10.193,10.193,0,0,1-1.581,3.279,14.075,14.075,0,0,1-2.487,2.615,41.14,41.14,0,0,1-6.337,4.04c-1.34.744-2.6,1.447-3.769,2.207a8.382,8.382,0,0,1,3.1,1.679,8.032,8.032,0,0,1,1.268,1.33,5.757,5.757,0,0,1,.837,1.538,3.822,3.822,0,0,1-.565,3.683,1.093,1.093,0,0,1-.061.143,3.289,3.289,0,0,1,1.22.911,3.467,3.467,0,0,1,.651,1.267,4.917,4.917,0,0,1,.173,1.463,6.67,6.67,0,0,1-.214,1.5c-.021.215-.057.263-.07.281s-.007.009.006.023a1.3,1.3,0,0,1,.18.237,3.532,3.532,0,0,1,.794,1.157,5.291,5.291,0,0,1,.394,1.467,6.88,6.88,0,0,1-.349,3.162,4.743,4.743,0,0,1-1.16,1.845,2.932,2.932,0,0,1-1.869.825,7.114,7.114,0,0,1-1.017,4.111,9.39,9.39,0,0,1-1.305,1.741,9.675,9.675,0,0,1-1.639,1.389,15.022,15.022,0,0,1-3.568,1.558,22.268,22.268,0,0,0-2.543.977,6.821,6.821,0,0,0-2.149,1.544,45.731,45.731,0,0,0-3.108,6.749,57.731,57.731,0,0,0-2.1,7.159,88.676,88.676,0,0,0-1.927,14.85,8.129,8.129,0,0,1,2.749,1.734,5.372,5.372,0,0,1,1.57,2.6,3.515,3.515,0,0,1-.044,1.783,4.362,4.362,0,0,1-1.079,1.786h0c-.056.007-.114.013-.172.018a65.089,65.089,0,0,0-2.76,11.4c-.161.9-.328,1.827-.5,2.737A46.274,46.274,0,0,1,193,138.77a52.661,52.661,0,0,1-2.157,5.7c-.8,1.8-1.729,3.629-2.761,5.444-.973,1.709-2.066,3.454-3.251,5.188a12.013,12.013,0,0,1-2.421,2.9,12.919,12.919,0,0,1-3.09,1.983,15.868,15.868,0,0,1-3.562,1.137,19.868,19.868,0,0,1-3.839.363,24.244,24.244,0,0,1-7.562-1.249,21.008,21.008,0,0,1-6.415-3.385c.007.351.026.707.044,1.05a9.193,9.193,0,0,1-.25,3.425,1.668,1.668,0,0,1-.528.684,1.108,1.108,0,0,1-.649.213,1.326,1.326,0,0,1-.941-.426,1.913,1.913,0,0,1-.512-1.128,2.814,2.814,0,0,1-1.363.408,1.729,1.729,0,0,1-1.389-.679,2.593,2.593,0,0,1-.528-1.494,2.223,2.223,0,0,1,.556-1.63,1.87,1.87,0,0,1,1.389-.543,3.391,3.391,0,0,1,.862.122c-.347-5.45-.533-10.836-.669-15.386a3.86,3.86,0,0,1-1.181.2,2.359,2.359,0,0,1-1.853-.818,2.884,2.884,0,0,1-.659-1.8,2.7,2.7,0,0,1,.7-1.958,2.267,2.267,0,0,1,1.671-.66,4,4,0,0,1,1.223.212l-.006-2.2c-.017-8.063.012-16.716.34-25.36.355-9.346,1.022-17.609,2.04-25.26.1-.625.243-1.249.379-1.853s.278-1.235.38-1.861a.094.094,0,0,1,.1-.081.12.12,0,0,1,.125.112c.129,8.8-.007,17.747-.14,26.4-.11,7.223-.225,14.692-.184,22.038.046,8.239.286,15.445.735,22.03a3.984,3.984,0,0,1,1.9,1.69,7.412,7.412,0,0,0,.953,1.136,11.921,11.921,0,0,0,3.772,2.3,17.446,17.446,0,0,0,4.317,1.045,24.9,24.9,0,0,0,3.464.267,10.836,10.836,0,0,0,6.952-2.106c1.744-1.34,3.259-3.379,4.914-6.609a1.838,1.838,0,0,1-1.037.32,2.042,2.042,0,0,1-1.051-.3,2.187,2.187,0,0,1-.765-.774,1.849,1.849,0,0,1-.253-.871,1.782,1.782,0,0,1,.249-.948l.031-.053a1.777,1.777,0,0,1,1.59-.935,2.152,2.152,0,0,1,.892.2,2.091,2.091,0,0,1,.729.551,1.793,1.793,0,0,1,.357.674,1.861,1.861,0,0,1,.032.833,45.013,45.013,0,0,0,4.333-9.263,81.435,81.435,0,0,0,2.651-9.9l.191-.8c.322-1.333.723-2.9,1.253-4.44a19.69,19.69,0,0,1,1.976-4.237,32.775,32.775,0,0,1-13.923-7.491A23.175,23.175,0,0,1,173.6,97.3c-2.226,6.993-5.178,13.941-8.034,20.66l0,0c-.42.989-.855,2.011-1.279,3.015-.369.983-.664,2.008-.95,3a22.585,22.585,0,0,1-1.954,5.151.72.72,0,0,1-.635.366.786.786,0,0,1-.757-.548c-.99-4.427,1.022-8.677,2.967-12.786.646-1.366,1.257-2.655,1.766-3.956.448-.793,1.129-2.361,1.917-4.177,1.1-2.523,2.458-5.662,3.81-8.144a19.528,19.528,0,0,1,2-3.1c.683-.82,1.292-1.239,1.81-1.245-1.3-5.685-2.885-11.887-4.854-18.961-1.755-6.3-3.64-12.684-5.462-18.856-.606-2.052-1.232-4.173-1.844-6.257a48.185,48.185,0,0,0-4-12.092,26.892,26.892,0,0,0-2.753-4.345,24.362,24.362,0,0,0-3.337-3.5,35.53,35.53,0,0,0-8.668-5.308c-3.225-1.471-6.879-2.809-11.728-4.492A52.149,52.149,0,0,0,134.058,30c1.031,2.745,2.247,5.531,3.422,8.225v0c1.161,2.66,2.361,5.411,3.387,8.129a53.825,53.825,0,0,1,2.461,8.2,29.774,29.774,0,0,1,.6,8.315,24.867,24.867,0,0,1-.689,4.218,25.544,25.544,0,0,1-1.5,4.266l-.191.447a15.347,15.347,0,0,0-.965,2.883,6.492,6.492,0,0,0,.057,3.022,17.8,17.8,0,0,0,1.994,4.243c.259.445.527.905.776,1.363a22.779,22.779,0,0,1,1.482,3.4,24.524,24.524,0,0,1,.909,3.5,31.75,31.75,0,0,1,.435,7.2,87.969,87.969,0,0,1-2.319,14.561c-.313,1.442-.636,2.933-.923,4.369-.566,2.63-1.139,5.306-1.694,7.894l-.02.094c-2.089,9.741-4.248,19.813-6.451,29.706-.161.732-.308,1.483-.45,2.209a40.054,40.054,0,0,1-1.289,5.3,1.22,1.22,0,0,1-.518.645,1.475,1.475,0,0,1-.769.215,1.207,1.207,0,0,1-.9-.361,1.045,1.045,0,0,1-.246-.826,45.674,45.674,0,0,1,1.111-6.008c.18-.776.366-1.578.531-2.37,1.452-7.522,3.147-15.133,4.785-22.492v0c2.285-10.263,4.648-20.876,6.391-31.413a27.907,27.907,0,0,0,.292-5.141,19.81,19.81,0,0,0-.582-4.049,27.343,27.343,0,0,0-2.533-6.114c-1.372-2.643-2.667-5.139-2.548-8.8a35.44,35.44,0,0,1,1.616-4.8,41.8,41.8,0,0,0,1.419-4.034,14.122,14.122,0,0,0,.564-4.257,30.336,30.336,0,0,0-.322-5.787,40.737,40.737,0,0,0-1.257-5.575,105.976,105.976,0,0,0-4.072-10.8c-1.221-2.915-2.484-5.928-3.489-8.947-.541-1.625-.967-3.123-1.3-4.577a35.38,35.38,0,0,1-.768-4.7l-2.292-.818c-1.383-.5-2.441-.88-3.431-1.247a434.723,434.723,0,0,1,3.967,63.478c-.038,9.927-.319,20.353-.861,31.874-.443,9.416-1.055,19.508-1.927,31.76a44.778,44.778,0,0,0-.36,5.973c-.093,3.012-.21,6.759-.5,9.672a22.75,22.75,0,0,1-.577,3.621,4.017,4.017,0,0,1-.421,1.056.669.669,0,0,1-.529.381h0a.514.514,0,0,1-.218-.053,2.267,2.267,0,0,1-.424,1.036,1.2,1.2,0,0,1-.981.468h-.007c-5.047.046-10.169.115-15.123.181h-.057c-2.866.038-5.829.078-8.743.113-.426-.039-.89-.058-1.419-.058-.864,0-1.753.05-2.694.1h0l-.037,0h0C92.941,168.929,91.99,168.982,91.048,168.982ZM190.787,46.056h0a10.286,10.286,0,0,0-3.917.906l-.564.212a20.632,20.632,0,0,0-2.884,1.3,6.93,6.93,0,0,0-2.332,2,6.586,6.586,0,0,0-.6,3.455c0,.435-.005.846-.034,1.195a43.594,43.594,0,0,0-.236,6.442c.062,1.923.233,4.026.523,6.429a58.927,58.927,0,0,1-1,15.116,63.406,63.406,0,0,1-4.646,14.43,57.019,57.019,0,0,0,3.429,4.967,42.48,42.48,0,0,0,4.021,4.509,32.426,32.426,0,0,0,4.671,3.766,26.6,26.6,0,0,0,5.381,2.736,96.49,96.49,0,0,1,1.242-11.5c.586-3.6,1.306-7.145,2.207-11.364l.063-.329c.092-.485.179-.98.262-1.459a35.508,35.508,0,0,1,.943-4.32,13.733,13.733,0,0,1,.8-2.042,10.58,10.58,0,0,1,1.2-1.9,13.208,13.208,0,0,1,6.15-3.458,15.222,15.222,0,0,0,4.285-1.934,8.294,8.294,0,0,0,1.84-1.821,11.591,11.591,0,0,0,1.513-2.857.615.615,0,0,1-.306-.715.625.625,0,0,1,.594-.507.7.7,0,0,1,.187.026,1.976,1.976,0,0,0,.344.031,1.594,1.594,0,0,0,1.154-.482,2.778,2.778,0,0,0,.665-1.189,4.717,4.717,0,0,0,.085-2.238,2.6,2.6,0,0,0-.994-1.692,1.837,1.837,0,0,1-.6-.554,1.565,1.565,0,0,1-.24-.648,4.663,4.663,0,0,1,.118-1.462,3.231,3.231,0,0,0-.064-2.1,2.147,2.147,0,0,0-.864-.648,2.14,2.14,0,0,1-.972-.783,3.031,3.031,0,0,1,.536-2.72,6.756,6.756,0,0,0,.548-1.156,1.884,1.884,0,0,0,.026-1.193,2.8,2.8,0,0,0-.938-1.237,10.692,10.692,0,0,0-2.338-1.383,5.68,5.68,0,0,0-1.935-.282c-.4,0-.806.023-1.2.044H206.9c-.38.021-.773.043-1.146.043h-.037a9.222,9.222,0,0,0-3.22,1.132,11.5,11.5,0,0,1-2.355.966,6.878,6.878,0,0,1,.407,1.587,6.315,6.315,0,0,1,.016,1.519,5.758,5.758,0,0,1-.955,2.61,4.865,4.865,0,0,1-1.587,1.48,4.133,4.133,0,0,1-2.066.552,4.566,4.566,0,0,1-1.776-.373,6.487,6.487,0,0,1-1.826-1.2,12.513,12.513,0,0,0-2.191,2.823,3.454,3.454,0,0,0-.643,2.581,1.046,1.046,0,0,0,1.1.578,7.2,7.2,0,0,0,2.529-.662c.927-.619,1.829-1.3,2.7-1.966.983-.747,2-1.519,3.053-2.2a16.306,16.306,0,0,1,3.374-1.7l.074-.023c.223-.073.568-.212,1.005-.388a16,16,0,0,1,4.663-1.375,1.149,1.149,0,0,1,.886.286.836.836,0,0,1,.161.679,6.859,6.859,0,0,1-2.042,1.312,22.688,22.688,0,0,1-2.369.835,13.982,13.982,0,0,0-3.713,1.559,16.911,16.911,0,0,0-3.494,2.405,19.981,19.981,0,0,1-2.807,2.042,7.509,7.509,0,0,1-1.566.67,6.2,6.2,0,0,1-1.767.254h-.084a3.209,3.209,0,0,0,.363,2.6,1.848,1.848,0,0,0,1.485.574,8.365,8.365,0,0,0,3.256-.907,22.913,22.913,0,0,0,2.892-1.6l.673-.365c3.472-1.876,6.917-3.561,10.886-3.584h.007a.8.8,0,0,1,.817.836.906.906,0,0,1-.2.592.8.8,0,0,1-.62.277,13.213,13.213,0,0,0-3.039.379,17.717,17.717,0,0,0-2.856.966,46.822,46.822,0,0,0-5.38,2.892c-.824.49-1.675,1-2.516,1.463a1.847,1.847,0,0,0,.343,1.51,2.483,2.483,0,0,0,1.927.627,15.822,15.822,0,0,0,3.813-.678l.258-.069a11.713,11.713,0,0,0,2.3-.72,10.117,10.117,0,0,1,3.278-.874,2.159,2.159,0,0,1,1.216.323.968.968,0,0,1,0,.843c-.293.542-1.238.742-2.072.919a5.582,5.582,0,0,0-1.23.348c1.74.836,2.264,1.557,2.174,1.953-.047.206-.259.329-.568.329a2.01,2.01,0,0,1-1.187-.478,3.566,3.566,0,0,1-1.093-1.6l-.367.125a21.527,21.527,0,0,1-6.463,1.341,3.658,3.658,0,0,1-2.9-.974,2.916,2.916,0,0,1-.451-2.452,7.082,7.082,0,0,1-2.789.636,4.712,4.712,0,0,1-1.02-.108,7.644,7.644,0,0,1-2.18,2.18,3.721,3.721,0,0,1-1.835.657c-.353,0-.58-.121-.624-.331-.059-.283.207-.683.75-1.129a13.391,13.391,0,0,1,3.016-1.7,2.5,2.5,0,0,1-1.072-1.015,3.581,3.581,0,0,1-.475-1.494,3.022,3.022,0,0,1,.161-1.309,2.1,2.1,0,0,1,.77-1.013c-1.538-.094-2.471-.6-2.771-1.506-.375-1.13.31-2.621.951-3.671a14.519,14.519,0,0,1,1.339-1.835,12.43,12.43,0,0,1,1.382-1.4c-.244-.247-.456-.474-.646-.695a12.809,12.809,0,0,1-2.119.79,12.986,12.986,0,0,1-2.247.4c-.038,0-.075.005-.112.005a1.063,1.063,0,0,1-.838-.4,1.546,1.546,0,0,1-.338-.879,1.149,1.149,0,0,1,.938-1.319,11.928,11.928,0,0,0,4.383-1.424,1.542,1.542,0,0,1,.61-.136c.8,0,1.393.743,2.016,1.53.644.813,1.309,1.653,2.264,1.716a1.66,1.66,0,0,0,.32.032A1.6,1.6,0,0,0,197,56.291a2.783,2.783,0,0,0,.625-1.241,20.386,20.386,0,0,0-.647-3.246,11.564,11.564,0,0,0-1.249-2.887,5.584,5.584,0,0,0-4.94-2.861Zm29.261-11.821a4.558,4.558,0,0,0-.889.1c-3.236.438-6.3,2.122-9.257,3.75-.824.453-1.6.882-2.387,1.285-2.456,1.3-5.005,2.475-7.47,3.614h0c-1.519.7-3.089,1.427-4.628,2.176a9.152,9.152,0,0,1,2.2,1.928,13.791,13.791,0,0,1,1.659,2.533,10.458,10.458,0,0,1,3.162-1.613,13.206,13.206,0,0,1,3.514-.6,16.864,16.864,0,0,1,3.1-2.29c1.123-.666,2.335-1.269,3.507-1.852a41.99,41.99,0,0,0,4.585-2.525,15.839,15.839,0,0,0,2.031-1.587,11.759,11.759,0,0,0,1.711-1.974,3.675,3.675,0,0,0,.718-1.254,1.345,1.345,0,0,0-.029-.97,1.559,1.559,0,0,0-1.529-.715ZM33.9,164.464a1.352,1.352,0,0,1-1.214-.68,1.609,1.609,0,0,1,.444-1.858.429.429,0,0,0-.021-.047l-.015-.031c-.034-.1-.077-.2-.119-.294a3.324,3.324,0,0,1-.138-.352,5.8,5.8,0,0,1-.16-1.77c0-.132,0-.267,0-.4,0-1.054.03-2.125.059-3.161v0q.01-.339.019-.678c.082-2.95.17-5.619.269-8.16.4-10.027,1.179-19.878,1.817-27.341l.264-3.07c.357-4.15.72-8.208,1.23-12.231.023-.187.048-.387.075-.582a2.693,2.693,0,0,1-.738-.543,9.836,9.836,0,0,1-1.666-2.98l-.111-.266-.107-.252a17.787,17.787,0,0,1-1.211-3.639l-.023-.116-.011-.053c-.111-.543-.3-1.45.257-1.7a.586.586,0,0,1,.238-.06c.161,0,.278.108.347.32a.141.141,0,0,1-.019.117,5.142,5.142,0,0,0,.452.564,5.471,5.471,0,0,1,.385.47l.8,1.14.394.573c.442.65.945,1.327,1.584,2.133a69.607,69.607,0,0,1,1.793-9.048.265.265,0,0,1,.261-.2.291.291,0,0,1,.3.278,104.239,104.239,0,0,1-.255,12.175c-.094,1.388-.2,2.8-.305,4.159v.01c-.081,1.066-.165,2.168-.242,3.249-.461,6.462-.838,13.025-1.121,19.508a2.543,2.543,0,0,1,.308-.107,2.747,2.747,0,0,1,1.47,0,2.741,2.741,0,0,1,1.148.643l.07.067a3.112,3.112,0,0,1,.812,1.865l0,.087a2.717,2.717,0,0,1-.378,1.395,2.8,2.8,0,0,1-.99.992,2.774,2.774,0,0,1-1.395.376c-.051,0-.105.01-.16.012l-.088,0a2.031,2.031,0,0,1-.95-.232l-.048-.015c-.124,3.377-.223,6.711-.294,9.909-.028,1.236-.061,2.486-.092,3.695-.042,1.62-.086,3.295-.119,4.943l-.027,1.44-.053,3.183q0,.1,0,.2a10.662,10.662,0,0,1-.451,3.6l-.053.142c-.057.147-.111.3-.168.465a3.276,3.276,0,0,1-1.259,1.966,1.667,1.667,0,0,1-.785.2Zm38.679-3.55a1.825,1.825,0,0,1-1.123-.388l-.05-.036-.047-.039a1.261,1.261,0,0,1-.418-.959,1.315,1.315,0,0,1,.377-1.025l.041-.034c.028-.024.059-.048.1-.075a1.824,1.824,0,0,1,1.12-.386,1.556,1.556,0,0,1,1.041.375,1.542,1.542,0,0,1,0,2.194A1.552,1.552,0,0,1,72.583,160.914ZM28.2,160.547h0l-.086,0a2.472,2.472,0,0,1-1.264-.342c-.108-.081-.217-.166-.322-.247l-.006,0-.023-.018-.156-.121a2.509,2.509,0,0,1-.642-1.1l-.02-.15v-.006c-.022-.167-.045-.34-.07-.509a1.921,1.921,0,0,1,.216-.963,1.9,1.9,0,0,1,.517-.8,1.846,1.846,0,0,1,.805-.517,1.869,1.869,0,0,1,.88-.218l.086,0a2.468,2.468,0,0,1,1.261.342c.126.1.255.2.368.283l.139.107a2.491,2.491,0,0,1,.643,1.1l.09.664a2.794,2.794,0,0,1-.733,1.769,1.868,1.868,0,0,1-.805.516A1.86,1.86,0,0,1,28.2,160.547Zm113.036-4.386a1.207,1.207,0,0,1-.305-.04,1.711,1.711,0,0,1-.849-.272l-.4-.311-.062-.048a6.138,6.138,0,0,1-.381-.49c-.083-.2-.162-.383-.235-.556a2.486,2.486,0,0,1,0-1.271l0-.009a1.127,1.127,0,0,1,.058-.216l.052-.141a2.531,2.531,0,0,1,.462-.815l.094-.126a1.652,1.652,0,0,1,.151-.179,2.685,2.685,0,0,1,.361-.291c.067-.048.13-.093.19-.141a2.41,2.41,0,0,1,1.206-.325l.636.085a2.381,2.381,0,0,1,1.426,1.1,1.783,1.783,0,0,1,.284.888,1.82,1.82,0,0,1-.044.951,1.8,1.8,0,0,1-.427.813,1.657,1.657,0,0,1-.254.31,2.731,2.731,0,0,1-.811.774,1.713,1.713,0,0,1-.852.272A1.184,1.184,0,0,1,141.236,156.161ZM59.378,153.3l-.073,0a1.946,1.946,0,0,1-.99-.267l-.4-.305a1.991,1.991,0,0,1-.5-.866c-.019-.152-.04-.306-.061-.455V151.4l-.009-.061a2.19,2.19,0,0,1,.575-1.385,2.245,2.245,0,0,1,1.307-.576H59.3a1.97,1.97,0,0,1,.987.267l.4.308a1.959,1.959,0,0,1,.5.864c.02.158.042.319.064.474v0l.006.046a1.49,1.49,0,0,1-.17.757,1.456,1.456,0,0,1-.405.631,1.5,1.5,0,0,1-.631.4A1.469,1.469,0,0,1,59.378,153.3Zm-15.865-.178a2.042,2.042,0,0,1-.691-.115,3.5,3.5,0,0,1-.65-.289,2.912,2.912,0,0,1-.84-.856l0,0a2.185,2.185,0,0,1,0-2.2,2.205,2.205,0,0,1,1.885-1.08h.025a2.458,2.458,0,0,1,1.411.432,2.41,2.41,0,0,1,.9,1.058l.012.029c.05.118.1.23.141.347a1.925,1.925,0,0,1-.041,1.657,2.195,2.195,0,0,1-1.419.914A2.565,2.565,0,0,1,43.513,153.121Zm-26.233-.007a3.9,3.9,0,0,1-.661-.062,2.39,2.39,0,0,1-1.075-.587,1.464,1.464,0,0,1-.424-1.3,1.483,1.483,0,0,1,.577-1l0-.007-.116.09c.039-.035.078-.072.117-.108l.015-.014a.786.786,0,0,0,.037-.073l0,0a2.029,2.029,0,0,1,.725-.725,2.034,2.034,0,0,1,2.974,2.285,2.028,2.028,0,0,1-1.414,1.414A3.1,3.1,0,0,1,17.28,153.114Zm150.1-7.5a2.843,2.843,0,0,1-1.066-.273,2.355,2.355,0,0,1-.711-.708,1.462,1.462,0,0,1-.236-.738,1.019,1.019,0,0,1,0-.524,1.48,1.48,0,0,1,.236-.737l.31-.4.032-.026a1.98,1.98,0,0,1,.878-.512,2,2,0,0,1,1.058,0,1.482,1.482,0,0,1,.677.356,1.5,1.5,0,0,1,.473.49l.038.069a2.068,2.068,0,0,1,.2,1.533,1.859,1.859,0,0,1-.508.88,1.9,1.9,0,0,1-.882.509l-.022,0-.022.006A1.521,1.521,0,0,1,167.385,145.614Zm-24.979-11.822a2.274,2.274,0,0,1-1.788-.77,2.712,2.712,0,0,1,0-3.392,2.458,2.458,0,0,1,3.575,0,2.712,2.712,0,0,1,0,3.392A2.273,2.273,0,0,1,142.406,133.792Zm-116.181-.581a1.937,1.937,0,0,1-.582-.091l-.223-.094-.377-.158-.509-.393-.393-.509-.126-.3-.127-.3-.09-.667a1.89,1.89,0,0,1,.216-.968,2.483,2.483,0,0,1,.774-1,1.26,1.26,0,0,1,.553-.322,1.244,1.244,0,0,1,.633-.17,1.917,1.917,0,0,1,.421-.047,1.939,1.939,0,0,1,.581.091l.166.07c.143.06.289.122.433.182l.509.394a.917.917,0,0,1,.16.187c.021.03.043.06.068.094l.109.143a1.664,1.664,0,0,1,.27.535l.065.171a2.46,2.46,0,0,1,0,1.3,2.305,2.305,0,0,1-.25.587,2.416,2.416,0,0,1-.354.469l-.069.07a1.9,1.9,0,0,1-.808.519,1.244,1.244,0,0,1-.633.17A1.926,1.926,0,0,1,26.225,133.211Zm157.026-4.569a1.834,1.834,0,0,1-.942-.257,2.093,2.093,0,0,1-.7-.685,1,1,0,0,1-.082-.178c-.011-.029-.022-.058-.034-.086s-.023-.054-.035-.081a1.6,1.6,0,0,1-.074-.186,1.981,1.981,0,0,1,0-1.033,1.467,1.467,0,0,1,.347-.66,1.483,1.483,0,0,1,.546-.5,1.939,1.939,0,0,1,.9-.265l.087,0h.058a1.438,1.438,0,0,1,.682.168,1.653,1.653,0,0,1,.233.1,1.947,1.947,0,0,1,.7.7,1.47,1.47,0,0,1,.23.723,1.449,1.449,0,0,1-.016.7l-.021.07a1.9,1.9,0,0,1-.24.531.291.291,0,0,1-.037.056,1.9,1.9,0,0,1-.645.626,1.933,1.933,0,0,1-.958.26ZM49.327,126.421a.975.975,0,0,1-.256-.035,1.874,1.874,0,0,1-.915-.381,1.433,1.433,0,0,1-.5-.541l-.2-.464-.068-.514.068-.512.107-.252A2.045,2.045,0,0,1,49,122.3a2.072,2.072,0,0,1,.545-.075,2.027,2.027,0,0,1,.459.053l.083.021a1.561,1.561,0,0,1,.7.364,1.581,1.581,0,0,1,.526.575,2.041,2.041,0,0,1-.735,2.795l-.267.129a1.44,1.44,0,0,1-.718.228A1,1,0,0,1,49.327,126.421Zm120.584-3.016a2.052,2.052,0,0,1-.617-.1l-.45-.19-.013-.005-.168-.071c-.131-.1-.264-.2-.392-.3l0,0-.139-.108-.09-.116c-.106-.137-.216-.28-.325-.419a1.955,1.955,0,0,1-.313-.985,1.32,1.32,0,0,1,0-.7,1.305,1.305,0,0,1,.179-.667,1.986,1.986,0,0,1,.548-.854l.11-.085c.139-.108.283-.219.426-.328l.631-.267a2.01,2.01,0,0,1,1.058-.048,2.636,2.636,0,0,1,1.252.522,2.017,2.017,0,0,1,.682.742l.267.633a2.688,2.688,0,0,1,.005,1.426,1.967,1.967,0,0,1-.466.887,1.319,1.319,0,0,1-.468.468,1.973,1.973,0,0,1-.777.436l-.081.022-.029.007a.031.031,0,0,1-.014,0,.015.015,0,0,1-.01,0,1.755,1.755,0,0,1-.359.051A2.054,2.054,0,0,1,169.91,123.405ZM15.036,113.961a2.377,2.377,0,0,1-.532-.061,1.743,1.743,0,0,1-.539-.233,1.9,1.9,0,0,1-.637-.647,1.711,1.711,0,0,1-.241-.874,1.455,1.455,0,0,1,.015-.2,1.571,1.571,0,0,1-.041-.432l.073-.548,0-.015a2.052,2.052,0,0,1,1.35-1.4l.079-.024h.012a2.06,2.06,0,0,1,1.1,0l.492.206a1.545,1.545,0,0,1,.58.534,1.534,1.534,0,0,1,.371.7,2.327,2.327,0,0,1,.012,1.329,2.553,2.553,0,0,1-.636,1.087,2,2,0,0,1-1.462.582Zm134.077-5.191a1.95,1.95,0,0,1-1.32-.546,1.882,1.882,0,0,1-.546-1.32,1.417,1.417,0,0,1,.16-.718,1.389,1.389,0,0,1,.333-.548l.053-.051a1.868,1.868,0,0,1,2.639,0,1.87,1.87,0,0,1,.546,1.317,2.068,2.068,0,0,1-.546,1.32A1.942,1.942,0,0,1,149.113,108.771Zm15.369-10.419a2.317,2.317,0,0,1-1.172-.318,2.349,2.349,0,0,1-.832-.832,1.616,1.616,0,0,1-.272-.675,2.363,2.363,0,0,1,.545-2.233l.062-.064a2.684,2.684,0,0,1,1.588-.693h.081a2.376,2.376,0,0,1,1.191.323l.165.127h0c.1.079.208.16.312.241a2.363,2.363,0,0,1,.606,2.3,1.639,1.639,0,0,1-.269.675,2.376,2.376,0,0,1-.835.832A2.318,2.318,0,0,1,164.483,98.352ZM48.09,97.685h0c-.066-.009-.137-.019-.206-.027a1.492,1.492,0,0,1-.239-.027l-.079-.017-.072-.019a1.516,1.516,0,0,1-.277-.112,1,1,0,0,1-.444-.259,1.52,1.52,0,0,1-.519-.565l-.034-.078a1.408,1.408,0,0,1-.114-.26.955.955,0,0,1-.126-.468,1.417,1.417,0,0,1,.013-.664l.021-.074.187-.444a2.263,2.263,0,0,1,.33-.427c.082-.072.273-.221.38-.3l.066-.044a1.511,1.511,0,0,1,.747-.238,1,1,0,0,1,.536,0,1.511,1.511,0,0,1,.747.238c.136.107.276.214.407.315l.119.142a1.992,1.992,0,0,1,.4.7l0,0,.054.13a1.523,1.523,0,0,1,.034.786.984.984,0,0,1-.134.495.963.963,0,0,1-.255.434.993.993,0,0,1-.352.354,1.488,1.488,0,0,1-.669.352l-.522.07ZM20.177,92.6a1.8,1.8,0,0,1-1.736-2.25l.039-.156a1.74,1.74,0,0,1,.693-1,1.977,1.977,0,0,1,1.132-.355,1.838,1.838,0,0,1,1.312.533,1.814,1.814,0,0,1,.483.874,1.975,1.975,0,0,1-.022.968,1.8,1.8,0,0,1-1.288,1.295l-.158.039A1.851,1.851,0,0,1,20.177,92.6Zm171.655-8.129a6.06,6.06,0,0,1-2.242-.492,9.3,9.3,0,0,1-2.18-1.277,7.976,7.976,0,0,1-1.683-1.767,4.069,4.069,0,0,1-.751-1.959.124.124,0,0,1,.032-.1.159.159,0,0,1,.115-.047.154.154,0,0,1,.1.039,15.663,15.663,0,0,1,1.158,1.192,8.837,8.837,0,0,0,2.175,1.924,8.231,8.231,0,0,0,2.617.836,12.312,12.312,0,0,1,1.767.44.54.54,0,0,1,0,1.031A3.37,3.37,0,0,1,191.832,84.475ZM53.388,83.4a1.183,1.183,0,0,1-.315-.044,1.17,1.17,0,0,1-.594-.16,1.2,1.2,0,0,1-.522-.3,1.806,1.806,0,0,1-.606-.662c-.081-.189-.161-.379-.237-.563l-.085-.628.085-.628,0-.019a2.35,2.35,0,0,1,.6-1.024l.471-.364a2.215,2.215,0,0,1,.575-.24,1.859,1.859,0,0,1,.55-.085,1.789,1.789,0,0,1,.392.044,1.162,1.162,0,0,1,.594.16,1.2,1.2,0,0,1,.522.3,1.212,1.212,0,0,1,.425.425,1.78,1.78,0,0,1,.422.8l.083.628-.083.628c-.076.177-.156.366-.238.563l-.217.294a1.607,1.607,0,0,1-.465.431l-.165.122a1.75,1.75,0,0,1-.878.279A1.167,1.167,0,0,1,53.388,83.4Zm113.126-.326-.076,0a1.9,1.9,0,0,1-.946-.257l-.378-.294a1.394,1.394,0,0,1-.388-.6,1.408,1.408,0,0,1-.163-.723l0-.046a.693.693,0,0,1,.034-.274,1.053,1.053,0,0,1,.039-.277A1.976,1.976,0,0,1,166,79.237a1.933,1.933,0,0,1,.512-.069,1.975,1.975,0,0,1,1.389.571,1.945,1.945,0,0,1,0,2.76,1.932,1.932,0,0,1-.861.5,1.975,1.975,0,0,1-.52.075Zm-145.55-7.2a1.916,1.916,0,0,1-.251-.018,1.379,1.379,0,0,1-.684-.257,1.309,1.309,0,0,1-.473-.473l-.133-.315a2.166,2.166,0,0,1-.048-.379.329.329,0,0,0,0-.048,2.525,2.525,0,0,1,.053-.42,1.6,1.6,0,0,1,.287-.548,1.152,1.152,0,0,1,.432-.4l.016-.012L20.177,73l.07-.049,0,0,.1-.069a1.559,1.559,0,0,1,.791-.213h.047a1.172,1.172,0,0,1,.557.137,1.128,1.128,0,0,1,.5.325,1.154,1.154,0,0,1,.325.5,1.185,1.185,0,0,1,.136.6,1.555,1.555,0,0,1-.214.791c-.088.115-.168.217-.247.318a1.55,1.55,0,0,1-.691.405L21.4,75.8A1.264,1.264,0,0,1,20.965,75.878ZM146.4,75.242a2.149,2.149,0,0,1-1.082-4,2.145,2.145,0,0,1,2.167,0,.294.294,0,0,1,.034.015,2.142,2.142,0,0,1,.764.764,2.129,2.129,0,0,1,0,2.149,2.147,2.147,0,0,1-.764.764.14.14,0,0,1-.027.014l-.007,0A2.162,2.162,0,0,1,146.4,75.242ZM46.309,72.39h-.06a2.052,2.052,0,0,1-1.4-.565c-.029-.032-.058-.066-.086-.1l-.043-.051-.3-.349a1.859,1.859,0,0,1-.478-.822c-.023-.156-.044-.313-.064-.464l0-.033a1.867,1.867,0,0,1,1.8-1.864h.127a1.37,1.37,0,0,1,.657.164,1.418,1.418,0,0,1,.6.386l.354.3.1.083.05.043a1.938,1.938,0,0,1,.493.846c.029.188.053.37.073.558a1.856,1.856,0,0,1-.548,1.327,1.438,1.438,0,0,1-.6.388A1.416,1.416,0,0,1,46.309,72.39ZM33.422,66.946a1.8,1.8,0,0,1-1.417-.611,2.152,2.152,0,0,1,0-2.69,1.948,1.948,0,0,1,2.834,0,2.151,2.151,0,0,1,0,2.69A1.8,1.8,0,0,1,33.422,66.946ZM160.411,62.19h-.071a2.325,2.325,0,0,1-1.172-.318l-.135-.1-.006,0,0,0c-.107-.083-.218-.168-.328-.251a2.335,2.335,0,0,1-.567-.934l-.027-.09-.085-.619a2.407,2.407,0,0,1,2.242-2.32h.079a2.318,2.318,0,0,1,1.17.318l.47.361a2.372,2.372,0,0,1,.6,1.024c.024.187.052.405.082.616a2.606,2.606,0,0,1-.679,1.642,2.662,2.662,0,0,1-1.568.681Zm-11.566-8.7a1.705,1.705,0,0,1-1.1-.479l-.066-.061,0,0c-.036-.034-.074-.069-.112-.1a1.416,1.416,0,0,1-.41-.99,1.573,1.573,0,0,1,.41-.99c.042-.037.084-.076.125-.114l.055-.051a1.757,1.757,0,0,1,1.152-.478h.048a1.839,1.839,0,0,1,1.107.478,1.573,1.573,0,0,1,0,2.309,1.647,1.647,0,0,1-.72.42l-.434.058ZM32.478,48.8a2.527,2.527,0,0,1-1.269-.344l-.509-.393a1.907,1.907,0,0,1-.522-.811,1.886,1.886,0,0,1-.217-.884l0-.086a.54.54,0,0,1,0-.063c.023-.182.049-.368.073-.548v0l.018-.132a1.942,1.942,0,0,1,.461-.876.825.825,0,0,1,.235-.289,2.582,2.582,0,0,1,1.135-.662c.175-.022.353-.046.525-.07h.009l.151-.021a2.579,2.579,0,0,1,1.216.307l.081.045.519.4a1.935,1.935,0,0,1,.534.827,2.335,2.335,0,0,1,0,1.982,1.9,1.9,0,0,1-.534.827,1.511,1.511,0,0,1-.548.439c-.164.067-.332.139-.481.2l-.135.057a2.875,2.875,0,0,1-.714.093ZM145.259,40.81H145.2a1.782,1.782,0,0,1-.912-.248c-.145-.11-.262-.2-.366-.281a1.81,1.81,0,0,1-.441-.722l-.023-.076-.065-.48a1.342,1.342,0,0,1,.155-.7,1.621,1.621,0,0,1,.956-.956,1.347,1.347,0,0,1,.622-.156h.074a1.8,1.8,0,0,1,.912.245l.366.284a1.791,1.791,0,0,1,.466.8l.066.48a2.031,2.031,0,0,1-.531,1.279,2.054,2.054,0,0,1-1.22.53Zm-98.336-.9-.087,0a2.65,2.65,0,0,1-1.349-.364L45.3,39.4h0c-.115-.089-.235-.182-.353-.272a2.725,2.725,0,0,1-.687-1.179l-.095-.711a2.978,2.978,0,0,1,.781-1.887,1.994,1.994,0,0,1,.861-.553,2.022,2.022,0,0,1,.944-.232h.085a2.679,2.679,0,0,1,1.349.366l.061.047c.156.12.317.245.478.371a2.68,2.68,0,0,1,.689,1.179l.094.708a2.977,2.977,0,0,1-.784,1.89,3.041,3.041,0,0,1-1.8.783Zm89.9-7.084a1.908,1.908,0,0,1-.577-.091c-.193-.084-.393-.166-.586-.246h0l-.005,0-.063-.036a2.445,2.445,0,0,1,0-4.223.4.4,0,0,0,.044-.023l.02-.011a1.856,1.856,0,0,1,.924-.3,1.271,1.271,0,0,1,.662,0,1.855,1.855,0,0,1,.924.3l.5.388a.184.184,0,0,1,.022.024,2.462,2.462,0,0,1,.631,1.082l.088.653a2.788,2.788,0,0,1-.66,1.678l-.08.078a1.865,1.865,0,0,1-.8.514,1.222,1.222,0,0,1-.628.17A1.88,1.88,0,0,1,136.819,32.826Z" transform="translate(0 10.21)"/></g><g transform="translate(-834.89 1320.557)"><g transform="translate(0 0)"><path d="M82.6,37.6c-.522-4.588.154-14.179.2-14.761.286-3.683-1.44-18.229-4.7-16.889C72.627,1.617,65.338.66,58.521.2,44.363-.746,29.3,1.433,18.368,10.962,12.961,15.91,7.7,23.107,8.121,30.6,3.208,37.7-3.717,47.447,2.4,55.751c2.081,2.653,5.387,3.641,8,5.65,5.257,4.24,8.555,10.325,13.862,14.54,14.06,12.634,37.933,15.273,51.747.9C86.695,66.438,84.968,50.868,83.089,37.6,81.826,28.68,83.622,46.551,82.6,37.6Z" transform="translate(4.125 20.376)" fill="#d08b5b"/><path d="M60.72,107.526a32.518,32.518,0,0,1-4.617-.339,25.578,25.578,0,0,1-5.213-1.261,9.886,9.886,0,0,1-2.443-1.29,10.971,10.971,0,0,1-1.988-1.909,1.527,1.527,0,0,1-.164-1.532.938.938,0,0,1,.881-.573,1.258,1.258,0,0,1,.151.009,28.662,28.662,0,0,1,5.1,1l.244.077a25.258,25.258,0,0,0,5.225,1.121c.9.087,1.8.131,2.7.131a26.788,26.788,0,0,0,8.1-1.234,23.5,23.5,0,0,0,4.086-1.741,25.121,25.121,0,0,0,3.7-2.458A26.263,26.263,0,0,0,82.362,90.9a25.7,25.7,0,0,0,3.451-9.451,58.046,58.046,0,0,0,.627-10.12c-.055-7.251-.291-14.837-.7-22.548l-.068-1.251c-.173-3.175-.4-7.362-.594-11.6-.065-1.419-.159-2.577-.294-3.646a9.6,9.6,0,0,1-3.471-3.345,34.21,34.21,0,0,1-4.958,1.56,29.687,29.687,0,0,1-7.081.87,27.942,27.942,0,0,1-4.168-.311c-1,.415-2.043.785-3.088,1.1-.29.129-.575.253-.848.369A51.528,51.528,0,0,1,53.423,35.2l-.654.163a26.769,26.769,0,0,1-4.415.792,6.436,6.436,0,0,1-.8.245,12.978,12.978,0,0,1-3.06.364c-.365,0-.736-.015-1.1-.046a2.055,2.055,0,0,1-1.652-1.066,1.687,1.687,0,0,1-.2-.815,1.811,1.811,0,0,1,.258-.887c.539-.925,1.1-1.868,1.652-2.8a52.05,52.05,0,0,1-5.943,2.042c-1.793.5-3.75.981-6.159,1.5-.547.117-1.1.228-1.642.337h0c-.547.11-1.113.223-1.667.342-.176.037-.371.07-.579.106a4.7,4.7,0,0,0-2.063.668,4.1,4.1,0,0,0-1,2.105c-.06.221-.117.43-.178.614-.377,1.134-.7,2.187-.99,3.216a66.805,66.805,0,0,0-1.482,6.562,62.96,62.96,0,0,0-.784,6.7c-.059.924-.083,1.866-.107,2.777-.034,1.3-.068,2.64-.2,3.952a1.558,1.558,0,0,1-.468.976,1.334,1.334,0,0,1-.916.371,1.431,1.431,0,0,1-.95-.381c-.106-.093-.219-.194-.331-.294l-.164-.15A16.735,16.735,0,0,1,15.6,60.215c-.114-.157-.226-.324-.333-.5a.08.08,0,0,1-.048-.017l-.178-.134c-1.871-1.393-3.481-2.1-4.786-2.1A2.89,2.89,0,0,0,7.89,58.629a7.533,7.533,0,0,0-1.181,2.706l-.455,1.7a29.509,29.509,0,0,0-.732,3.359,12.864,12.864,0,0,0-.01,3.944A7.2,7.2,0,0,0,7.089,73.9a4.46,4.46,0,0,0,2.736,1.55,3.431,3.431,0,0,0,.472.031,8.349,8.349,0,0,0,1.085-.1h.007l.221-.029a3.641,3.641,0,0,1,.454-.026c.16,0,.323.008.479.015h0c.158.007.321.015.483.015.136,0,.258-.005.373-.016.037,0,.074-.006.11-.006a.961.961,0,0,1,.836.481,1.388,1.388,0,0,1,.075,1.3,4.407,4.407,0,0,1-.682,1.007,7.866,7.866,0,0,1,.6.577A2.991,2.991,0,0,1,15.8,79.8a2.471,2.471,0,0,1,.495,1.349c.031.108.059.224.09.364l.52.844c.127.207.24.386.343.548a26.369,26.369,0,0,0,4.621,5.516c.651.592,1.333,1.172,1.994,1.732a44.6,44.6,0,0,1,3.326,3.02l.195.2a12.735,12.735,0,0,1,2.084,2.7,4.395,4.395,0,0,1,.477,3.25,1.137,1.137,0,0,1-1.059.793.824.824,0,0,1-.5-.16,12.161,12.161,0,0,1-2.563-2.925,18.466,18.466,0,0,0-1.619-2.086c-.787-.836-1.631-1.642-2.447-2.422h0c-.794-.758-1.614-1.542-2.382-2.354a18.931,18.931,0,0,1-3.51-5.247,2.826,2.826,0,0,1-1.945.795,2.663,2.663,0,0,1-1.468-.451,3,3,0,0,1-1.024-1.156,9.19,9.19,0,0,1-1.036.393,2.09,2.09,0,0,1-.61.1,1.8,1.8,0,0,1-1.528-.871A2.356,2.356,0,0,1,7.9,82.658a2.291,2.291,0,0,1,.195-1.149A7.344,7.344,0,0,1,9.5,79.4a8.933,8.933,0,0,1-4.808-2.336,9.865,9.865,0,0,1-2.714-5.225,14.558,14.558,0,0,1-.266-2.98,18.75,18.75,0,0,1,.276-2.98,29.51,29.51,0,0,1,1.759-6.091c.152-.372.3-.7.448-1.012a.315.315,0,0,1-.24-.116c-.183-.25-.382-.488-.575-.718a7.022,7.022,0,0,1-1.012-1.434c-.08-.165-.165-.334-.246-.5a18.449,18.449,0,0,1-.817-1.8A22.364,22.364,0,0,1,.227,49.106a38.467,38.467,0,0,1,.286-10.37A41.43,41.43,0,0,1,2.8,30.167,42.118,42.118,0,0,1,6.822,22.3a2.815,2.815,0,0,1-.5-.335L6.245,21.9l-.126-.114A2.075,2.075,0,0,1,5.46,20.28a2.386,2.386,0,0,1,.659-1.723l.265-.266a7.032,7.032,0,0,1,1.167-.961c.078-.053.161-.1.245-.151a2.321,2.321,0,0,1-.184-1.814,2.408,2.408,0,0,1,1.212-1.486,4.267,4.267,0,0,1,2.015-.444,7.206,7.206,0,0,1,3,.685,38.822,38.822,0,0,1,7.873-5.456A75.331,75.331,0,0,1,32.457,4.129,92.752,92.752,0,0,1,43.733,1.122,51.216,51.216,0,0,1,53.888,0c.465,0,.932.009,1.386.025l.3.012a34.135,34.135,0,0,1,4.705.442A11.6,11.6,0,0,1,64.7,2.1a.554.554,0,0,1,.388-.167.474.474,0,0,1,.206.047A72.523,72.523,0,0,0,74.1,5.269l.7.229A43.022,43.022,0,0,0,84.562,7.48a2.023,2.023,0,0,1,.968.349,1.96,1.96,0,0,1,.663.752,1.526,1.526,0,0,1-.107,1.556c-.194.3-.38.594-.553.87l.275-.029h0l.637-.066c.044,0,.088-.007.133-.007a1.788,1.788,0,0,1,1.267.605,1.875,1.875,0,0,1,.545,1.347,18.091,18.091,0,0,1-.2,1.82h.07a2.7,2.7,0,0,1,1.058.2,2.573,2.573,0,0,1,1.543,2,9.522,9.522,0,0,1,.046,2.677,11.1,11.1,0,0,1-2.688,6.557,10.419,10.419,0,0,1,1.552,2.075A11.3,11.3,0,0,1,90.8,30.66a11.658,11.658,0,0,1,.475,4.046l-.033.406a6.5,6.5,0,0,1-1.435,4.159,2.255,2.255,0,0,1-1.624.693c-.075,0-.152,0-.227-.011.388,3.415.641,6.911.866,10.2l.109,1.624c.3,4.565.5,8.317.637,11.809.163,4.28.218,8.145.171,11.819a50.535,50.535,0,0,1-.352,5.459,37.667,37.667,0,0,1-1.021,5.289,30.233,30.233,0,0,1-1.849,5.03,27.045,27.045,0,0,1-2.835,4.681,30.47,30.47,0,0,1-3.4,3.793,29.952,29.952,0,0,1-3.976,3.158,28.894,28.894,0,0,1-4.457,2.424,27.67,27.67,0,0,1-4.842,1.592A28.236,28.236,0,0,1,60.72,107.526ZM15.284,70.54h-.04a2.612,2.612,0,0,1-1.674-.673,8.422,8.422,0,0,1-1.214-1.417c-.123-.166-.249-.338-.377-.5a1.666,1.666,0,0,1-.405.495l-.112.087a2.039,2.039,0,0,1-1.219.494h-.066a2.389,2.389,0,0,1-1-.269,1.811,1.811,0,0,1-.824-.963A2.074,2.074,0,0,1,9.1,65.324l-.146-.1a2.932,2.932,0,0,1-.822-.787l-.05-.08H8.1A.786.786,0,0,1,8.547,63.2a2.358,2.358,0,0,1,.732-.109,8.01,8.01,0,0,1,3.091.959l.279.129a16.594,16.594,0,0,1,3.874,2.685,2.153,2.153,0,0,1,.553,2.093L17.067,69c-.012.059-.024.119-.038.18a1.659,1.659,0,0,1-.648.966A1.869,1.869,0,0,1,15.284,70.54Z" transform="translate(0)"/></g><g transform="translate(26.199 32.748)"><path d="M25.541,45.31A9.243,9.243,0,0,1,20.419,43.8a9.759,9.759,0,0,1-2.119-1.83A7.664,7.664,0,0,1,17.009,39.9a5.849,5.849,0,0,1-.461-2.343.723.723,0,0,1,.172-.461.805.805,0,0,1,.428-.257.827.827,0,0,1,.189-.022.76.76,0,0,1,.312.066.666.666,0,0,1,.33.325c.154.2.356.466.56.722a14.08,14.08,0,0,0,2.325,2.379,7.2,7.2,0,0,0,2.892,1.36,6.194,6.194,0,0,0,1.329.145,6.506,6.506,0,0,0,2.244-.406A7.634,7.634,0,0,0,30.471,39.2a1.687,1.687,0,0,1,1.284-.634h.011a1.974,1.974,0,0,1,1.365.6,2.129,2.129,0,0,1,.638,1.39,1.859,1.859,0,0,1-.528,1.365,10.582,10.582,0,0,1-2.227,1.814A10.777,10.777,0,0,1,28.391,44.9,10.246,10.246,0,0,1,25.541,45.31ZM28.43,31.818h0a8.469,8.469,0,0,1-3.02-.609,15.251,15.251,0,0,1-3.551-2.015,1.364,1.364,0,0,1-.5-.788,1.633,1.633,0,0,1,.07-.885,2.013,2.013,0,0,1,.6-.864,1.455,1.455,0,0,1,.932-.364,1.322,1.322,0,0,1,.721.221l.235.181.008.006a19.224,19.224,0,0,0,2.223,1.546,5.476,5.476,0,0,0,2.664.85,2.877,2.877,0,0,0,1.126-.221,3.147,3.147,0,0,0,1.048-.743,3.215,3.215,0,0,0,.61-2.589,4.89,4.89,0,0,0-1.3-2.3,9.461,9.461,0,0,0-1.964-1.585.609.609,0,0,1-.165-.7.914.914,0,0,1,.3-.436.929.929,0,0,1,.58-.192,1.235,1.235,0,0,1,.209.018,6.588,6.588,0,0,1,2.317.837,5.255,5.255,0,0,1,1.558,1.436,5.707,5.707,0,0,1,.995,3.813,6.282,6.282,0,0,1-.509,2,5.839,5.839,0,0,1-1.148,1.72A5.488,5.488,0,0,1,28.43,31.818ZM5.21,22.5a1.161,1.161,0,0,1-.336-.05.683.683,0,0,1-.461-.4A5.641,5.641,0,0,1,4.7,17.8a9.957,9.957,0,0,1,1.5-2.456A6.149,6.149,0,0,1,7.8,13.9a5.391,5.391,0,0,1,2.557-.659,5.122,5.122,0,0,1,2.465.636,6.413,6.413,0,0,1,1.7,1.4,17.648,17.648,0,0,1,1.321,1.759c.174.253.354.516.537.77a1.549,1.549,0,0,1,.261,1.44,1.863,1.863,0,0,1-1.057,1.092,2.024,2.024,0,0,1-.779.16,1.778,1.778,0,0,1-.695-.138,1.868,1.868,0,0,1-1-1.059,7.222,7.222,0,0,0-.778-1.414A4.247,4.247,0,0,0,11.2,16.765a2.041,2.041,0,0,0-2.049-.157,6.7,6.7,0,0,0-2.384,2.377,4.66,4.66,0,0,0-.782,2.777.63.63,0,0,1-.2.53.793.793,0,0,1-.442.2A1.041,1.041,0,0,1,5.21,22.5Zm35.163-3.424a1.515,1.515,0,0,1-.437-.07,1.654,1.654,0,0,1-.683-.408,1.36,1.36,0,0,1-.38-.687,2.814,2.814,0,0,0-.988-1.644,1.972,1.972,0,0,0-1.576-.415,3.027,3.027,0,0,0-1.7,1.017,3.725,3.725,0,0,0-.356.519l-.011.018a3.79,3.79,0,0,1-.7.925.687.687,0,0,1-.436.164.651.651,0,0,1-.194-.03,2.766,2.766,0,0,1-.626-.876,1.722,1.722,0,0,1-.125-.755,2.992,2.992,0,0,1,.55-1.516,5.891,5.891,0,0,1,1.52-1.486,5.065,5.065,0,0,1,1.682-.792,4.542,4.542,0,0,1,.953-.1,4.862,4.862,0,0,1,2.8.91,5.31,5.31,0,0,1,2.171,3.323,1.768,1.768,0,0,1-.089.981,1.377,1.377,0,0,1-.642.714A1.527,1.527,0,0,1,40.373,19.071ZM.833,12.6a.4.4,0,0,1-.052,0,.492.492,0,0,1-.256-.124A1.863,1.863,0,0,1,0,10.938,6.636,6.636,0,0,1,.675,8.36a16.478,16.478,0,0,1,1.3-2.177,11.452,11.452,0,0,1,1.666-1.9A14.415,14.415,0,0,1,8.3,1.445,10.025,10.025,0,0,1,11.625.713c.069,0,.138,0,.206,0a3.993,3.993,0,0,1,1.236.235,3.252,3.252,0,0,1,1.1.684,2.043,2.043,0,0,1,.611,1.492,2.13,2.13,0,0,1-.614,1.526,3.154,3.154,0,0,1-1.3.762,7.581,7.581,0,0,1-1.423.254,12.941,12.941,0,0,0-1.387.2A13.029,13.029,0,0,0,6.7,7.1,12.393,12.393,0,0,0,3.564,9.324c-.2.219-.4.451-.588.676l-.005.006c-.175.209-.341.406-.517.6-.2.214-.376.43-.591.69a2.932,2.932,0,0,0-.167.3c-.043.089-.084.171-.126.251-.078.147-.153.276-.224.384-.139.234-.211.29-.269.316A.6.6,0,0,1,.833,12.6Zm41.522-.532a.475.475,0,0,1-.078-.007.468.468,0,0,1-.239-.116.449.449,0,0,1-.134-.232,8.7,8.7,0,0,0-1.266-3.074,6.635,6.635,0,0,0-2.529-2.156,16.233,16.233,0,0,0-3.535-1.189c-.34-.081-.707-.134-1.061-.186l-.017,0a8.961,8.961,0,0,1-1.682-.36,2.975,2.975,0,0,1-1.381-.932,2.578,2.578,0,0,1-.477-.931,2.375,2.375,0,0,1-.058-1A2.058,2.058,0,0,1,31.017.357,3.364,3.364,0,0,1,32.578,0a10.22,10.22,0,0,1,3.751,1.047l.082.035,0,0,.274.116a12.312,12.312,0,0,1,4.293,2.865,9.277,9.277,0,0,1,2.206,4.077,4.893,4.893,0,0,1-.445,3.71.441.441,0,0,1-.2.177A.464.464,0,0,1,42.355,12.067Z" transform="translate(13.099 13.356)"/></g></g></g></svg>